<?xml version="1.0" encoding="UTF-8"?>
<svg id="Livello_2" data-name="Livello 2" xmlns="http://www.w3.org/2000/svg" width="766.2578125" height="239.626271290078876" viewBox="0 0 766.2578125 239.626271290078876">
  <defs>
    <style>
      .cls-1 {
        fill: #020101;
      }

      .cls-2 {
        fill: #408cf4;
      }

      .cls-3 {
        fill: none;
        stroke: #000;
        stroke-width: 7.5473147664888px;
      }
    </style>
  </defs>
  <g id="Livello_1-2" data-name="Livello 1">
    <g>
      <path class="cls-3" d="M732.419431967331548,212.741410104346869H33.838521182297882c-10.758493855869347-10.758493855868437-16.790352869190428-16.7903528691877-27.548846725057956-27.548846725052499V33.837967454999671c10.758493855867528-10.758493855864799,16.790352869188609-16.790352869185881,27.548846725053409-27.548846725054318h698.580910785038213c10.758493855869347,10.758493855868437,16.790352869191338,16.790352869189519,27.548846725056137,27.548846725054318v151.354595924294699c-10.758493855864799,10.758493855868437-16.79035286918679,16.790352869184062-27.548846725056137,27.548846725052499Z"/>
      <g>
        <polygon class="cls-1" points="31.2333984375 239.626271290078876 0 208.393849415078876 0 51.828419727578876 31.23291015625 20.595997852578876 735.02490234375 20.595997852578876 766.2578125 51.828419727578876 766.2578125 208.393849415078876 735.0244140625 239.626271290078876 31.2333984375 239.626271290078876"/>
        <polygon class="cls-1" points="31.2333984375 238.253204766573617 0 207.020782891573617 0 50.455353204073617 31.23291015625 19.222931329073617 735.02490234375 19.222931329073617 766.2578125 50.455353204073617 766.2578125 207.020782891573617 735.0244140625 238.253204766573617 31.2333984375 238.253204766573617"/>
        <polygon class="cls-1" points="31.2333984375 236.880138243068359 0 205.647716368068359 0 49.082286680568359 31.23291015625 17.849864805568359 735.02490234375 17.849864805568359 766.2578125 49.082286680568359 766.2578125 205.647716368068359 735.0244140625 236.880138243068359 31.2333984375 236.880138243068359"/>
        <polygon class="cls-1" points="31.2333984375 235.5070717195631 0 204.2746498445631 0 47.7092201570631 31.23291015625 16.4767982820631 735.02490234375 16.4767982820631 766.2578125 47.7092201570631 766.2578125 204.2746498445631 735.0244140625 235.5070717195631 31.2333984375 235.5070717195631"/>
        <polygon class="cls-1" points="31.2333984375 234.134005196057842 0 202.901583321057842 0 46.336153633557842 31.23291015625 15.103731758557842 735.02490234375 15.103731758557842 766.2578125 46.336153633557842 766.2578125 202.901583321057842 735.0244140625 234.134005196057842 31.2333984375 234.134005196057842"/>
        <polygon class="cls-1" points="31.2333984375 232.760938672552584 0 201.528516797552584 0 44.963087110052584 31.23291015625 13.730665235052584 735.02490234375 13.730665235052584 766.2578125 44.963087110052584 766.2578125 201.528516797552584 735.0244140625 232.760938672552584 31.2333984375 232.760938672552584"/>
        <polygon class="cls-1" points="31.2333984375 231.387872149047325 0 200.155450274047325 0 43.590020586547325 31.23291015625 12.357598711547325 735.02490234375 12.357598711547325 766.2578125 43.590020586547325 766.2578125 200.155450274047325 735.0244140625 231.387872149047325 31.2333984375 231.387872149047325"/>
        <polygon class="cls-1" points="31.2333984375 230.014805625542067 0 198.782383750542067 0 42.216954063042067 31.23291015625 10.984532188042067 735.02490234375 10.984532188042067 766.2578125 42.216954063042067 766.2578125 198.782383750542067 735.0244140625 230.014805625542067 31.2333984375 230.014805625542067"/>
        <polygon class="cls-1" points="31.2333984375 228.641739102036809 0 197.409317227036809 0 40.843887539536809 31.23291015625 9.611465664536809 735.02490234375 9.611465664536809 766.2578125 40.843887539536809 766.2578125 197.409317227036809 735.0244140625 228.641739102036809 31.2333984375 228.641739102036809"/>
        <polygon class="cls-1" points="31.2333984375 227.26867257853155 0 196.03625070353155 0 39.47082101603155 31.23291015625 8.23839914103155 735.02490234375 8.23839914103155 766.2578125 39.47082101603155 766.2578125 196.03625070353155 735.0244140625 227.26867257853155 31.2333984375 227.26867257853155"/>
        <polygon class="cls-1" points="31.2333984375 225.895606055026292 0 194.663184180026292 0 38.097754492526292 31.23291015625 6.865332617526292 735.02490234375 6.865332617526292 766.2578125 38.097754492526292 766.2578125 194.663184180026292 735.0244140625 225.895606055026292 31.2333984375 225.895606055026292"/>
        <polygon class="cls-1" points="31.2333984375 224.522539531521033 0 193.290117656521033 0 36.724687969021033 31.23291015625 5.492266094021033 735.02490234375 5.492266094021033 766.2578125 36.724687969021033 766.2578125 193.290117656521033 735.0244140625 224.522539531521033 31.2333984375 224.522539531521033"/>
        <polygon class="cls-1" points="31.2333984375 223.149473008015775 0 191.917051133015775 0 35.351621445515775 31.23291015625 4.119199570515775 735.02490234375 4.119199570515775 766.2578125 35.351621445515775 766.2578125 191.917051133015775 735.0244140625 223.149473008015775 31.2333984375 223.149473008015775"/>
        <polygon class="cls-1" points="31.2333984375 221.776406484510517 0 190.543984609510517 0 33.978554922010517 31.23291015625 2.746133047010517 735.02490234375 2.746133047010517 766.2578125 33.978554922010517 766.2578125 190.543984609510517 735.0244140625 221.776406484510517 31.2333984375 221.776406484510517"/>
        <polygon class="cls-1" points="31.2333984375 220.403339961005258 0 189.170918086005258 0 32.605488398505258 31.23291015625 1.373066523505258 735.02490234375 1.373066523505258 766.2578125 32.605488398505258 766.2578125 189.170918086005258 735.0244140625 220.403339961005258 31.2333984375 220.403339961005258"/>
        <polygon class="cls-1" points="31.2333984375 219.0302734375 0 187.7978515625 0 31.232421875 31.23291015625 0 735.02490234375 0 766.2578125 31.232421875 766.2578125 187.7978515625 735.0244140625 219.0302734375 31.2333984375 219.0302734375"/>
      </g>
      <path class="cls-2" d="M732.419431967331548,212.741410104346869H33.838521182297882c-10.758493855869347-10.758493855868437-16.790352869190428-16.7903528691877-27.548846725057956-27.548846725052499V33.837967454999671c10.758493855867528-10.758493855864799,16.790352869188609-16.790352869185881,27.548846725053409-27.548846725054318h698.580910785038213c10.758493855869347,10.758493855868437,16.790352869191338,16.790352869189519,27.548846725056137,27.548846725054318v151.354595924294699c-10.758493855864799,10.758493855868437-16.79035286918679,16.790352869184062-27.548846725056137,27.548846725052499Z"/>
    </g>
  </g>
</svg>