<?xml version="1.0" encoding="UTF-8"?>
<svg id="Livello_2" data-name="Livello 2" xmlns="http://www.w3.org/2000/svg" width="1108.17431640625" height="1075.637831645515689" viewBox="0 0 1108.17431640625 1075.637831645515689">
  <defs>
    <style>
      .cls-1 {
        fill: #020101;
      }

      .cls-2 {
        fill: #408cf4;
      }
    </style>
  </defs>
  <g id="Livello_1-2" data-name="Livello 1">
    <g>
      <g>
        <polygon class="cls-1" points="56.74853515625 1075.637831645515689 0 1018.889784770515689 0 69.529433208015689 59.3984375 10.131972270515689 1048.77490234375 10.131972270515689 1108.17431640625 69.529433208015689 1108.17431640625 1018.889784770515689 1051.42626953125 1075.637831645515689 56.74853515625 1075.637831645515689"/>
        <polygon class="cls-1" points="56.74853515625 1075.074944297153706 0 1018.326897422153706 0 68.966545859653706 59.3984375 9.569084922153706 1048.77490234375 9.569084922153706 1108.17431640625 68.966545859653706 1108.17431640625 1018.326897422153706 1051.42626953125 1075.074944297153706 56.74853515625 1075.074944297153706"/>
        <polygon class="cls-1" points="56.74853515625 1074.512056948791724 0 1017.764010073791724 0 68.403658511291724 59.3984375 9.006197573791724 1048.77490234375 9.006197573791724 1108.17431640625 68.403658511291724 1108.17431640625 1017.764010073791724 1051.42626953125 1074.512056948791724 56.74853515625 1074.512056948791724"/>
        <polygon class="cls-1" points="56.74853515625 1073.949169600429741 0 1017.201122725429741 0 67.840771162929741 59.3984375 8.443310225429741 1048.77490234375 8.443310225429741 1108.17431640625 67.840771162929741 1108.17431640625 1017.201122725429741 1051.42626953125 1073.949169600429741 56.74853515625 1073.949169600429741"/>
        <polygon class="cls-1" points="56.74853515625 1073.386282252067758 0 1016.638235377067758 0 67.277883814567758 59.3984375 7.880422877067758 1048.77490234375 7.880422877067758 1108.17431640625 67.277883814567758 1108.17431640625 1016.638235377067758 1051.42626953125 1073.386282252067758 56.74853515625 1073.386282252067758"/>
        <polygon class="cls-1" points="56.74853515625 1072.823394903705776 0 1016.075348028705776 0 66.714996466205776 59.3984375 7.317535528705776 1048.77490234375 7.317535528705776 1108.17431640625 66.714996466205776 1108.17431640625 1016.075348028705776 1051.42626953125 1072.823394903705776 56.74853515625 1072.823394903705776"/>
        <polygon class="cls-1" points="56.74853515625 1072.260507555343793 0 1015.512460680343793 0 66.152109117843793 59.3984375 6.754648180343793 1048.77490234375 6.754648180343793 1108.17431640625 66.152109117843793 1108.17431640625 1015.512460680343793 1051.42626953125 1072.260507555343793 56.74853515625 1072.260507555343793"/>
        <polygon class="cls-1" points="56.74853515625 1071.69762020698181 0 1014.94957333198181 0 65.58922176948181 59.3984375 6.19176083198181 1048.77490234375 6.19176083198181 1108.17431640625 65.58922176948181 1108.17431640625 1014.94957333198181 1051.42626953125 1071.69762020698181 56.74853515625 1071.69762020698181"/>
        <polygon class="cls-1" points="56.74853515625 1071.134732858619827 0 1014.386685983619827 0 65.026334421119827 59.3984375 5.628873483619827 1048.77490234375 5.628873483619827 1108.17431640625 65.026334421119827 1108.17431640625 1014.386685983619827 1051.42626953125 1071.134732858619827 56.74853515625 1071.134732858619827"/>
        <polygon class="cls-1" points="56.74853515625 1070.571845510257845 0 1013.823798635257845 0 64.463447072757845 59.3984375 5.065986135257845 1048.77490234375 5.065986135257845 1108.17431640625 64.463447072757845 1108.17431640625 1013.823798635257845 1051.42626953125 1070.571845510257845 56.74853515625 1070.571845510257845"/>
        <polygon class="cls-1" points="56.74853515625 1070.008958161895862 0 1013.260911286895862 0 63.900559724395862 59.3984375 4.503098786895862 1048.77490234375 4.503098786895862 1108.17431640625 63.900559724395862 1108.17431640625 1013.260911286895862 1051.42626953125 1070.008958161895862 56.74853515625 1070.008958161895862"/>
        <polygon class="cls-1" points="56.74853515625 1069.446070813533879 0 1012.698023938533879 0 63.337672376033879 59.3984375 3.940211438533879 1048.77490234375 3.940211438533879 1108.17431640625 63.337672376033879 1108.17431640625 1012.698023938533879 1051.42626953125 1069.446070813533879 56.74853515625 1069.446070813533879"/>
        <polygon class="cls-1" points="56.74853515625 1068.883183465171896 0 1012.135136590171896 0 62.774785027671896 59.3984375 3.377324090171896 1048.77490234375 3.377324090171896 1108.17431640625 62.774785027671896 1108.17431640625 1012.135136590171896 1051.42626953125 1068.883183465171896 56.74853515625 1068.883183465171896"/>
        <polygon class="cls-1" points="56.74853515625 1068.320296116809914 0 1011.572249241809914 0 62.211897679309914 59.3984375 2.814436741809914 1048.77490234375 2.814436741809914 1108.17431640625 62.211897679309914 1108.17431640625 1011.572249241809914 1051.42626953125 1068.320296116809914 56.74853515625 1068.320296116809914"/>
        <polygon class="cls-1" points="56.74853515625 1067.757408768447931 0 1011.009361893447931 0 61.649010330947931 59.3984375 2.251549393447931 1048.77490234375 2.251549393447931 1108.17431640625 61.649010330947931 1108.17431640625 1011.009361893447931 1051.42626953125 1067.757408768447931 56.74853515625 1067.757408768447931"/>
        <polygon class="cls-1" points="56.74853515625 1067.194521420085948 0 1010.446474545085948 0 61.086122982585948 59.3984375 1.688662045085948 1048.77490234375 1.688662045085948 1108.17431640625 61.086122982585948 1108.17431640625 1010.446474545085948 1051.42626953125 1067.194521420085948 56.74853515625 1067.194521420085948"/>
        <polygon class="cls-1" points="56.74853515625 1066.631634071723965 0 1009.883587196723965 0 60.523235634223965 59.3984375 1.125774696723965 1048.77490234375 1.125774696723965 1108.17431640625 60.523235634223965 1108.17431640625 1009.883587196723965 1051.42626953125 1066.631634071723965 56.74853515625 1066.631634071723965"/>
        <polygon class="cls-1" points="56.74853515625 1066.068746723361983 0 1009.320699848361983 0 59.960348285861983 59.3984375 .562887348361983 1048.77490234375 .562887348361983 1108.17431640625 59.960348285861983 1108.17431640625 1009.320699848361983 1051.42626953125 1066.068746723361983 56.74853515625 1066.068746723361983"/>
        <polygon class="cls-1" points="56.74853515625 1065.505859375 0 1008.7578125 0 59.3974609375 59.3984375 0 1048.77490234375 0 1108.17431640625 59.3974609375 1108.17431640625 1008.7578125 1051.42626953125 1065.505859375 56.74853515625 1065.505859375"/>
      </g>
      <path class="cls-2" d="M1049.093847637306681,1059.877125647868525H59.07994812508332l-53.451075428605691-53.451075428605691V61.729460115107941L61.729760281519702,5.628572530065867h984.714275199350595c21.908759390764317,21.908759390767955,34.1921281942723,34.192128194277757,56.100887585040255,56.100887585043893v944.696590104151255c-20.87394337509977,20.873943375101589-32.577132053504101,32.577132053507739-53.451075428603872,53.45107542860751Z"/>
    </g>
  </g>
</svg>