<?xml version="1.0" encoding="UTF-8"?>
<svg id="Livello_2" data-name="Livello 2" xmlns="http://www.w3.org/2000/svg" width="108.15478515625" height="155.058953627436495" viewBox="0 0 108.15478515625 155.058953627436495">
  <defs>
    <style>
      .cls-1 {
        fill: #f7c831;
      }

      .cls-2 {
        fill: #f7f0d0;
      }

      .cls-3 {
        fill: #020101;
      }

      .cls-4 {
        stroke: #020101;
        stroke-miterlimit: 10;
        stroke-width: 5px;
      }

      .cls-4, .cls-5, .cls-6 {
        fill: none;
      }

      .cls-5 {
        stroke-width: 2.42642274116691px;
      }

      .cls-5, .cls-6 {
        stroke: #000;
      }

      .cls-6 {
        stroke-width: 5.888529424887695px;
      }
    </style>
  </defs>
  <g id="Livello_1-2" data-name="Livello 1">
    <g>
      <g>
        <path class="cls-5" d="M96.799913683706109,144.004270012559573H11.354953033209313l-5.355079183909766-5.355079183909766V11.638937809977506c2.202138938346252-2.202138938342614,3.436790533800377-3.436790533802196,5.638929472146629-5.63892947214481h84.87726007402307c2.202138938346252,2.202138938344433,3.436790533800377,3.436790533802196,5.638929472146629,5.63892947214481v127.010253018672302l-5.355079183909766,5.355079183909766Z"/>
        <g>
          <polygon class="cls-3" points="8.8701171875 155.058953627436495 0 146.189813002436495 0 14.208367689936495 9.1533203125 5.055047377436495 99.00146484375 5.055047377436495 108.15478515625 14.208367689936495 108.15478515625 146.189813002436495 99.28466796875 155.058953627436495 8.8701171875 155.058953627436495"/>
          <polygon class="cls-3" points="8.8701171875 154.856751732339035 0 145.987611107339035 0 14.006165794839035 9.1533203125 4.852845482339035 99.00146484375 4.852845482339035 108.15478515625 14.006165794839035 108.15478515625 145.987611107339035 99.28466796875 154.856751732339035 8.8701171875 154.856751732339035"/>
          <polygon class="cls-3" points="8.8701171875 154.654549837241575 0 145.785409212241575 0 13.803963899741575 9.1533203125 4.650643587241575 99.00146484375 4.650643587241575 108.15478515625 13.803963899741575 108.15478515625 145.785409212241575 99.28466796875 154.654549837241575 8.8701171875 154.654549837241575"/>
          <polygon class="cls-3" points="8.8701171875 154.452347942144115 0 145.583207317144115 0 13.601762004644115 9.1533203125 4.448441692144115 99.00146484375 4.448441692144115 108.15478515625 13.601762004644115 108.15478515625 145.583207317144115 99.28466796875 154.452347942144115 8.8701171875 154.452347942144115"/>
          <polygon class="cls-3" points="8.8701171875 154.250146047046655 0 145.381005422046655 0 13.399560109546655 9.1533203125 4.246239797046655 99.00146484375 4.246239797046655 108.15478515625 13.399560109546655 108.15478515625 145.381005422046655 99.28466796875 154.250146047046655 8.8701171875 154.250146047046655"/>
          <polygon class="cls-3" points="8.8701171875 154.047944151949196 0 145.178803526949196 0 13.197358214449196 9.1533203125 4.044037901949196 99.00146484375 4.044037901949196 108.15478515625 13.197358214449196 108.15478515625 145.178803526949196 99.28466796875 154.047944151949196 8.8701171875 154.047944151949196"/>
          <polygon class="cls-3" points="8.8701171875 153.845742256851736 0 144.976601631851736 0 12.995156319351736 9.1533203125 3.841836006851736 99.00146484375 3.841836006851736 108.15478515625 12.995156319351736 108.15478515625 144.976601631851736 99.28466796875 153.845742256851736 8.8701171875 153.845742256851736"/>
          <polygon class="cls-3" points="8.8701171875 153.643540361754276 0 144.774399736754276 0 12.792954424254276 9.1533203125 3.639634111754276 99.00146484375 3.639634111754276 108.15478515625 12.792954424254276 108.15478515625 144.774399736754276 99.28466796875 153.643540361754276 8.8701171875 153.643540361754276"/>
          <polygon class="cls-3" points="8.8701171875 153.441338466656816 0 144.572197841656816 0 12.590752529156816 9.1533203125 3.437432216656816 99.00146484375 3.437432216656816 108.15478515625 12.590752529156816 108.15478515625 144.572197841656816 99.28466796875 153.441338466656816 8.8701171875 153.441338466656816"/>
          <polygon class="cls-3" points="8.8701171875 153.239136571559357 0 144.369995946559357 0 12.388550634059357 9.1533203125 3.235230321559357 99.00146484375 3.235230321559357 108.15478515625 12.388550634059357 108.15478515625 144.369995946559357 99.28466796875 153.239136571559357 8.8701171875 153.239136571559357"/>
          <polygon class="cls-3" points="8.8701171875 153.036934676461897 0 144.167794051461897 0 12.186348738961897 9.1533203125 3.033028426461897 99.00146484375 3.033028426461897 108.15478515625 12.186348738961897 108.15478515625 144.167794051461897 99.28466796875 153.036934676461897 8.8701171875 153.036934676461897"/>
          <polygon class="cls-3" points="8.8701171875 152.834732781364437 0 143.965592156364437 0 11.984146843864437 9.1533203125 2.830826531364437 99.00146484375 2.830826531364437 108.15478515625 11.984146843864437 108.15478515625 143.965592156364437 99.28466796875 152.834732781364437 8.8701171875 152.834732781364437"/>
          <polygon class="cls-3" points="8.8701171875 152.632530886266977 0 143.763390261266977 0 11.781944948766977 9.1533203125 2.628624636266977 99.00146484375 2.628624636266977 108.15478515625 11.781944948766977 108.15478515625 143.763390261266977 99.28466796875 152.632530886266977 8.8701171875 152.632530886266977"/>
          <polygon class="cls-3" points="8.8701171875 152.430328991169517 0 143.561188366169517 0 11.579743053669517 9.1533203125 2.426422741169517 99.00146484375 2.426422741169517 108.15478515625 11.579743053669517 108.15478515625 143.561188366169517 99.28466796875 152.430328991169517 8.8701171875 152.430328991169517"/>
          <polygon class="cls-3" points="8.8701171875 152.228127096072058 0 143.358986471072058 0 11.377541158572058 9.1533203125 2.224220846072058 99.00146484375 2.224220846072058 108.15478515625 11.377541158572058 108.15478515625 143.358986471072058 99.28466796875 152.228127096072058 8.8701171875 152.228127096072058"/>
          <polygon class="cls-3" points="8.8701171875 152.025925200974598 0 143.156784575974598 0 11.175339263474598 9.1533203125 2.022018950974598 99.00146484375 2.022018950974598 108.15478515625 11.175339263474598 108.15478515625 143.156784575974598 99.28466796875 152.025925200974598 8.8701171875 152.025925200974598"/>
          <polygon class="cls-3" points="8.8701171875 151.823723305877138 0 142.954582680877138 0 10.973137368377138 9.1533203125 1.819817055877138 99.00146484375 1.819817055877138 108.15478515625 10.973137368377138 108.15478515625 142.954582680877138 99.28466796875 151.823723305877138 8.8701171875 151.823723305877138"/>
          <polygon class="cls-3" points="8.8701171875 151.621521410779678 0 142.752380785779678 0 10.770935473279678 9.1533203125 1.617615160779678 99.00146484375 1.617615160779678 108.15478515625 10.770935473279678 108.15478515625 142.752380785779678 99.28466796875 151.621521410779678 8.8701171875 151.621521410779678"/>
          <polygon class="cls-3" points="8.8701171875 151.419319515682218 0 142.550178890682218 0 10.568733578182218 9.1533203125 1.415413265682218 99.00146484375 1.415413265682218 108.15478515625 10.568733578182218 108.15478515625 142.550178890682218 99.28466796875 151.419319515682218 8.8701171875 151.419319515682218"/>
          <polygon class="cls-3" points="8.8701171875 151.217117620584759 0 142.347976995584759 0 10.366531683084759 9.1533203125 1.213211370584759 99.00146484375 1.213211370584759 108.15478515625 10.366531683084759 108.15478515625 142.347976995584759 99.28466796875 151.217117620584759 8.8701171875 151.217117620584759"/>
          <polygon class="cls-3" points="8.8701171875 151.014915725487299 0 142.145775100487299 0 10.164329787987299 9.1533203125 1.011009475487299 99.00146484375 1.011009475487299 108.15478515625 10.164329787987299 108.15478515625 142.145775100487299 99.28466796875 151.014915725487299 8.8701171875 151.014915725487299"/>
          <polygon class="cls-3" points="8.8701171875 150.812713830389839 0 141.943573205389839 0 9.962127892889839 9.1533203125 .808807580389839 99.00146484375 .808807580389839 108.15478515625 9.962127892889839 108.15478515625 141.943573205389839 99.28466796875 150.812713830389839 8.8701171875 150.812713830389839"/>
          <polygon class="cls-3" points="8.8701171875 150.610511935292379 0 141.741371310292379 0 9.759925997792379 9.1533203125 .606605685292379 99.00146484375 .606605685292379 108.15478515625 9.759925997792379 108.15478515625 141.741371310292379 99.28466796875 150.610511935292379 8.8701171875 150.610511935292379"/>
          <polygon class="cls-3" points="8.8701171875 150.40831004019492 0 141.53916941519492 0 9.55772410269492 9.1533203125 .40440379019492 99.00146484375 .40440379019492 108.15478515625 9.55772410269492 108.15478515625 141.53916941519492 99.28466796875 150.40831004019492 8.8701171875 150.40831004019492"/>
          <polygon class="cls-3" points="8.8701171875 150.20610814509746 0 141.33696752009746 0 9.35552220759746 9.1533203125 .20220189509746 99.00146484375 .20220189509746 108.15478515625 9.35552220759746 108.15478515625 141.33696752009746 99.28466796875 150.20610814509746 8.8701171875 150.20610814509746"/>
          <polygon class="cls-3" points="8.8701171875 150.00390625 0 141.134765625 0 9.1533203125 9.1533203125 0 99.00146484375 0 108.15478515625 9.1533203125 108.15478515625 141.134765625 99.28466796875 150.00390625 8.8701171875 150.00390625"/>
        </g>
        <path class="cls-2" d="M96.799913683706109,144.004270012559573H11.354953033209313l-5.355079183909766-5.355079183909766V11.638937809977506c2.202138938346252-2.202138938342614,3.436790533800377-3.436790533802196,5.638929472146629-5.63892947214481h84.87726007402307c2.202138938346252,2.202138938344433,3.436790533800377,3.436790533802196,5.638929472146629,5.63892947214481v127.010253018672302l-5.355079183909766,5.355079183909766Z"/>
      </g>
      <g>
        <g>
          <path d="M55.427680379207231,55.007818356962161l7.238683982744988,22.278378525132212c.346273964176362,1.065721678925911,1.339399462880465,1.787269589382049,2.459965549820481,1.787269589372954l15.464257694711705-.00000000012551c2.505661943680025-.000000000020009,3.547465415547777,3.206341394314222,1.520342320938653,4.679132532022777l-12.510847280482267,9.08966261048954c-.90655700766365.65865222011962-1.28589719307638,1.826141263751197-.939623228881828,2.891862942678927l4.778718433179165,14.707383050183125c.774292122774568,2.383026119161514-1.953184776164562,4.364654080387481-3.980307870744582,2.891862942648004l-12.510847280347662-9.089662610709638c-.906557007650918-.658652220128715-2.134127634237302-.658652220128715-3.04068464188822.000000000003638l-12.510847280338567,9.089662610706c-2.027123094581839,1.472791137743116-4.75459999351915-.508836823488309-3.980307870744582-2.891862942651642l4.778718433177346-14.707383050183125c.346273964192733-1.06572167892773-.033066221218178-2.233210722559306-.939623228881828-2.891862942675289l-12.510847280484086-9.089662610498635c-2.027123094603667-1.472791137706736-.985319622739553-4.679132532033691,1.520342320936834-4.679132532013682l15.464257694711705.000000000129148c1.120566086941835.000000000009095,2.113691585644119-.721547910445224,2.4599655498223-1.787269589372954l7.238683982750445-22.278378525135849Z"/>
          <path class="cls-6" d="M55.427680379207231,55.007818356962161l7.238683982744988,22.278378525132212c.346273964176362,1.065721678925911,1.339399462880465,1.787269589382049,2.459965549820481,1.787269589372954l15.464257694711705-.00000000012551c2.505661943680025-.000000000020009,3.547465415547777,3.206341394314222,1.520342320938653,4.679132532022777l-12.510847280482267,9.08966261048954c-.90655700766365.65865222011962-1.28589719307638,1.826141263751197-.939623228881828,2.891862942678927l4.778718433179165,14.707383050183125c.774292122774568,2.383026119161514-1.953184776164562,4.364654080387481-3.980307870744582,2.891862942648004l-12.510847280347662-9.089662610709638c-.906557007650918-.658652220128715-2.134127634237302-.658652220128715-3.04068464188822.000000000003638l-12.510847280338567,9.089662610706c-2.027123094581839,1.472791137743116-4.75459999351915-.508836823488309-3.980307870744582-2.891862942651642l4.778718433177346-14.707383050183125c.346273964192733-1.06572167892773-.033066221218178-2.233210722559306-.939623228881828-2.891862942675289l-12.510847280484086-9.089662610498635c-2.027123094603667-1.472791137706736-.985319622739553-4.679132532033691,1.520342320936834-4.679132532013682l15.464257694711705.000000000129148c1.120566086941835.000000000009095,2.113691585644119-.721547910445224,2.4599655498223-1.787269589372954l7.238683982750445-22.278378525135849Z"/>
          <g>
            <path class="cls-3" d="M70.97119140625,127.578887887324527c-1.57763671875,0-3.09814453125-.4990234375-4.39794921875-1.4443359375l-11.1455078125-8.0966796875-11.14697265625,8.09765625c-1.29833984375.9443359375-2.81884765625,1.443359375-4.39599609375,1.443359375-2.39453125,0-4.67138671875-1.166015625-6.09033203125-3.1181640625-1.4150390625-1.9482421875-1.79638671875-4.390625-1.04541015625-6.7021484375l4.2578125-13.1044921875-11.146484375-8.0986328125c-2.634765625-1.9130859375-3.728515625-5.2802734375-2.72265625-8.3779296875,1.00634765625-3.09765625,3.87060546875-5.1787109375,7.126953125-5.1787109375h13.7783203125l11.384765625-35.0380859375,11.384765625,35.0380859375h13.7783203125c3.25634765625,0,6.12060546875,2.0810546875,7.126953125,5.1787109375,1.005859375,3.09765625-.087890625,6.46484375-2.72314453125,8.3779296875l-11.146484375,8.0986328125,4.2578125,13.103515625c.7509765625,2.3115234375.3701171875,4.75390625-1.04443359375,6.701171875-1.4189453125,1.9541015625-3.69580078125,3.1201171875-6.09033203125,3.1201171875Z"/>
            <path class="cls-3" d="M70.97119140625,127.088177101917609c-1.57763671875,0-3.09814453125-.4990234375-4.39794921875-1.4443359375l-11.1455078125-8.0966796875-11.14697265625,8.09765625c-1.29833984375.9443359375-2.81884765625,1.443359375-4.39599609375,1.443359375-2.39453125,0-4.67138671875-1.166015625-6.09033203125-3.1181640625-1.4150390625-1.9482421875-1.79638671875-4.390625-1.04541015625-6.7021484375l4.2578125-13.1044921875-11.146484375-8.0986328125c-2.634765625-1.9130859375-3.728515625-5.2802734375-2.72265625-8.3779296875,1.00634765625-3.09765625,3.87060546875-5.1787109375,7.126953125-5.1787109375h13.7783203125l11.384765625-35.0380859375,11.384765625,35.0380859375h13.7783203125c3.25634765625,0,6.12060546875,2.0810546875,7.126953125,5.1787109375,1.005859375,3.09765625-.087890625,6.46484375-2.72314453125,8.3779296875l-11.146484375,8.0986328125,4.2578125,13.103515625c.7509765625,2.3115234375.3701171875,4.75390625-1.04443359375,6.701171875-1.4189453125,1.9541015625-3.69580078125,3.1201171875-6.09033203125,3.1201171875Z"/>
            <path class="cls-3" d="M70.97119140625,126.59746631651069c-1.57763671875,0-3.09814453125-.4990234375-4.39794921875-1.4443359375l-11.1455078125-8.0966796875-11.14697265625,8.09765625c-1.29833984375.9443359375-2.81884765625,1.443359375-4.39599609375,1.443359375-2.39453125,0-4.67138671875-1.166015625-6.09033203125-3.1181640625-1.4150390625-1.9482421875-1.79638671875-4.390625-1.04541015625-6.7021484375l4.2578125-13.1044921875-11.146484375-8.0986328125c-2.634765625-1.9130859375-3.728515625-5.2802734375-2.72265625-8.3779296875,1.00634765625-3.09765625,3.87060546875-5.1787109375,7.126953125-5.1787109375h13.7783203125l11.384765625-35.0380859375,11.384765625,35.0380859375h13.7783203125c3.25634765625,0,6.12060546875,2.0810546875,7.126953125,5.1787109375,1.005859375,3.09765625-.087890625,6.46484375-2.72314453125,8.3779296875l-11.146484375,8.0986328125,4.2578125,13.103515625c.7509765625,2.3115234375.3701171875,4.75390625-1.04443359375,6.701171875-1.4189453125,1.9541015625-3.69580078125,3.1201171875-6.09033203125,3.1201171875Z"/>
            <path class="cls-3" d="M70.97119140625,126.106755531103772c-1.57763671875,0-3.09814453125-.4990234375-4.39794921875-1.4443359375l-11.1455078125-8.0966796875-11.14697265625,8.09765625c-1.29833984375.9443359375-2.81884765625,1.443359375-4.39599609375,1.443359375-2.39453125,0-4.67138671875-1.166015625-6.09033203125-3.1181640625-1.4150390625-1.9482421875-1.79638671875-4.390625-1.04541015625-6.7021484375l4.2578125-13.1044921875-11.146484375-8.0986328125c-2.634765625-1.9130859375-3.728515625-5.2802734375-2.72265625-8.3779296875,1.00634765625-3.09765625,3.87060546875-5.1787109375,7.126953125-5.1787109375h13.7783203125l11.384765625-35.0380859375,11.384765625,35.0380859375h13.7783203125c3.25634765625,0,6.12060546875,2.0810546875,7.126953125,5.1787109375,1.005859375,3.09765625-.087890625,6.46484375-2.72314453125,8.3779296875l-11.146484375,8.0986328125,4.2578125,13.103515625c.7509765625,2.3115234375.3701171875,4.75390625-1.04443359375,6.701171875-1.4189453125,1.9541015625-3.69580078125,3.1201171875-6.09033203125,3.1201171875Z"/>
            <path class="cls-3" d="M70.97119140625,125.616044745696854c-1.57763671875,0-3.09814453125-.4990234375-4.39794921875-1.4443359375l-11.1455078125-8.0966796875-11.14697265625,8.09765625c-1.29833984375.9443359375-2.81884765625,1.443359375-4.39599609375,1.443359375-2.39453125,0-4.67138671875-1.166015625-6.09033203125-3.1181640625-1.4150390625-1.9482421875-1.79638671875-4.390625-1.04541015625-6.7021484375l4.2578125-13.1044921875-11.146484375-8.0986328125c-2.634765625-1.9130859375-3.728515625-5.2802734375-2.72265625-8.3779296875,1.00634765625-3.09765625,3.87060546875-5.1787109375,7.126953125-5.1787109375h13.7783203125l11.384765625-35.0380859375,11.384765625,35.0380859375h13.7783203125c3.25634765625,0,6.12060546875,2.0810546875,7.126953125,5.1787109375,1.005859375,3.09765625-.087890625,6.46484375-2.72314453125,8.3779296875l-11.146484375,8.0986328125,4.2578125,13.103515625c.7509765625,2.3115234375.3701171875,4.75390625-1.04443359375,6.701171875-1.4189453125,1.9541015625-3.69580078125,3.1201171875-6.09033203125,3.1201171875Z"/>
            <path class="cls-3" d="M70.97119140625,125.125333960289936c-1.57763671875,0-3.09814453125-.4990234375-4.39794921875-1.4443359375l-11.1455078125-8.0966796875-11.14697265625,8.09765625c-1.29833984375.9443359375-2.81884765625,1.443359375-4.39599609375,1.443359375-2.39453125,0-4.67138671875-1.166015625-6.09033203125-3.1181640625-1.4150390625-1.9482421875-1.79638671875-4.390625-1.04541015625-6.7021484375l4.2578125-13.1044921875-11.146484375-8.0986328125c-2.634765625-1.9130859375-3.728515625-5.2802734375-2.72265625-8.3779296875,1.00634765625-3.09765625,3.87060546875-5.1787109375,7.126953125-5.1787109375h13.7783203125l11.384765625-35.0380859375,11.384765625,35.0380859375h13.7783203125c3.25634765625,0,6.12060546875,2.0810546875,7.126953125,5.1787109375,1.005859375,3.09765625-.087890625,6.46484375-2.72314453125,8.3779296875l-11.146484375,8.0986328125,4.2578125,13.103515625c.7509765625,2.3115234375.3701171875,4.75390625-1.04443359375,6.701171875-1.4189453125,1.9541015625-3.69580078125,3.1201171875-6.09033203125,3.1201171875Z"/>
            <path class="cls-3" d="M70.97119140625,124.634623174883018c-1.57763671875,0-3.09814453125-.4990234375-4.39794921875-1.4443359375l-11.1455078125-8.0966796875-11.14697265625,8.09765625c-1.29833984375.9443359375-2.81884765625,1.443359375-4.39599609375,1.443359375-2.39453125,0-4.67138671875-1.166015625-6.09033203125-3.1181640625-1.4150390625-1.9482421875-1.79638671875-4.390625-1.04541015625-6.7021484375l4.2578125-13.1044921875-11.146484375-8.0986328125c-2.634765625-1.9130859375-3.728515625-5.2802734375-2.72265625-8.3779296875,1.00634765625-3.09765625,3.87060546875-5.1787109375,7.126953125-5.1787109375h13.7783203125l11.384765625-35.0380859375,11.384765625,35.0380859375h13.7783203125c3.25634765625,0,6.12060546875,2.0810546875,7.126953125,5.1787109375,1.005859375,3.09765625-.087890625,6.46484375-2.72314453125,8.3779296875l-11.146484375,8.0986328125,4.2578125,13.103515625c.7509765625,2.3115234375.3701171875,4.75390625-1.04443359375,6.701171875-1.4189453125,1.9541015625-3.69580078125,3.1201171875-6.09033203125,3.1201171875Z"/>
            <path class="cls-3" d="M70.97119140625,124.1439123894761c-1.57763671875,0-3.09814453125-.4990234375-4.39794921875-1.4443359375l-11.1455078125-8.0966796875-11.14697265625,8.09765625c-1.29833984375.9443359375-2.81884765625,1.443359375-4.39599609375,1.443359375-2.39453125,0-4.67138671875-1.166015625-6.09033203125-3.1181640625-1.4150390625-1.9482421875-1.79638671875-4.390625-1.04541015625-6.7021484375l4.2578125-13.1044921875-11.146484375-8.0986328125c-2.634765625-1.9130859375-3.728515625-5.2802734375-2.72265625-8.3779296875,1.00634765625-3.09765625,3.87060546875-5.1787109375,7.126953125-5.1787109375h13.7783203125l11.384765625-35.0380859375,11.384765625,35.0380859375h13.7783203125c3.25634765625,0,6.12060546875,2.0810546875,7.126953125,5.1787109375,1.005859375,3.09765625-.087890625,6.46484375-2.72314453125,8.3779296875l-11.146484375,8.0986328125,4.2578125,13.103515625c.7509765625,2.3115234375.3701171875,4.75390625-1.04443359375,6.701171875-1.4189453125,1.9541015625-3.69580078125,3.1201171875-6.09033203125,3.1201171875Z"/>
            <path class="cls-3" d="M70.97119140625,123.653201604069181c-1.57763671875,0-3.09814453125-.4990234375-4.39794921875-1.4443359375l-11.1455078125-8.0966796875-11.14697265625,8.09765625c-1.29833984375.9443359375-2.81884765625,1.443359375-4.39599609375,1.443359375-2.39453125,0-4.67138671875-1.166015625-6.09033203125-3.1181640625-1.4150390625-1.9482421875-1.79638671875-4.390625-1.04541015625-6.7021484375l4.2578125-13.1044921875-11.146484375-8.0986328125c-2.634765625-1.9130859375-3.728515625-5.2802734375-2.72265625-8.3779296875,1.00634765625-3.09765625,3.87060546875-5.1787109375,7.126953125-5.1787109375h13.7783203125l11.384765625-35.0380859375,11.384765625,35.0380859375h13.7783203125c3.25634765625,0,6.12060546875,2.0810546875,7.126953125,5.1787109375,1.005859375,3.09765625-.087890625,6.46484375-2.72314453125,8.3779296875l-11.146484375,8.0986328125,4.2578125,13.103515625c.7509765625,2.3115234375.3701171875,4.75390625-1.04443359375,6.701171875-1.4189453125,1.9541015625-3.69580078125,3.1201171875-6.09033203125,3.1201171875Z"/>
            <path class="cls-3" d="M70.97119140625,123.162490818662263c-1.57763671875,0-3.09814453125-.4990234375-4.39794921875-1.4443359375l-11.1455078125-8.0966796875-11.14697265625,8.09765625c-1.29833984375.9443359375-2.81884765625,1.443359375-4.39599609375,1.443359375-2.39453125,0-4.67138671875-1.166015625-6.09033203125-3.1181640625-1.4150390625-1.9482421875-1.79638671875-4.390625-1.04541015625-6.7021484375l4.2578125-13.1044921875-11.146484375-8.0986328125c-2.634765625-1.9130859375-3.728515625-5.2802734375-2.72265625-8.3779296875,1.00634765625-3.09765625,3.87060546875-5.1787109375,7.126953125-5.1787109375h13.7783203125l11.384765625-35.0380859375,11.384765625,35.0380859375h13.7783203125c3.25634765625,0,6.12060546875,2.0810546875,7.126953125,5.1787109375,1.005859375,3.09765625-.087890625,6.46484375-2.72314453125,8.3779296875l-11.146484375,8.0986328125,4.2578125,13.103515625c.7509765625,2.3115234375.3701171875,4.75390625-1.04443359375,6.701171875-1.4189453125,1.9541015625-3.69580078125,3.1201171875-6.09033203125,3.1201171875Z"/>
            <path class="cls-3" d="M70.97119140625,122.671780033255345c-1.57763671875,0-3.09814453125-.4990234375-4.39794921875-1.4443359375l-11.1455078125-8.0966796875-11.14697265625,8.09765625c-1.29833984375.9443359375-2.81884765625,1.443359375-4.39599609375,1.443359375-2.39453125,0-4.67138671875-1.166015625-6.09033203125-3.1181640625-1.4150390625-1.9482421875-1.79638671875-4.390625-1.04541015625-6.7021484375l4.2578125-13.1044921875-11.146484375-8.0986328125c-2.634765625-1.9130859375-3.728515625-5.2802734375-2.72265625-8.3779296875,1.00634765625-3.09765625,3.87060546875-5.1787109375,7.126953125-5.1787109375h13.7783203125l11.384765625-35.0380859375,11.384765625,35.0380859375h13.7783203125c3.25634765625,0,6.12060546875,2.0810546875,7.126953125,5.1787109375,1.005859375,3.09765625-.087890625,6.46484375-2.72314453125,8.3779296875l-11.146484375,8.0986328125,4.2578125,13.103515625c.7509765625,2.3115234375.3701171875,4.75390625-1.04443359375,6.701171875-1.4189453125,1.9541015625-3.69580078125,3.1201171875-6.09033203125,3.1201171875Z"/>
            <path class="cls-3" d="M70.97119140625,122.181069247848427c-1.57763671875,0-3.09814453125-.4990234375-4.39794921875-1.4443359375l-11.1455078125-8.0966796875-11.14697265625,8.09765625c-1.29833984375.9443359375-2.81884765625,1.443359375-4.39599609375,1.443359375-2.39453125,0-4.67138671875-1.166015625-6.09033203125-3.1181640625-1.4150390625-1.9482421875-1.79638671875-4.390625-1.04541015625-6.7021484375l4.2578125-13.1044921875-11.146484375-8.0986328125c-2.634765625-1.9130859375-3.728515625-5.2802734375-2.72265625-8.3779296875,1.00634765625-3.09765625,3.87060546875-5.1787109375,7.126953125-5.1787109375h13.7783203125l11.384765625-35.0380859375,11.384765625,35.0380859375h13.7783203125c3.25634765625,0,6.12060546875,2.0810546875,7.126953125,5.1787109375,1.005859375,3.09765625-.087890625,6.46484375-2.72314453125,8.3779296875l-11.146484375,8.0986328125,4.2578125,13.103515625c.7509765625,2.3115234375.3701171875,4.75390625-1.04443359375,6.701171875-1.4189453125,1.9541015625-3.69580078125,3.1201171875-6.09033203125,3.1201171875Z"/>
            <path class="cls-3" d="M70.97119140625,121.690358462441509c-1.57763671875,0-3.09814453125-.4990234375-4.39794921875-1.4443359375l-11.1455078125-8.0966796875-11.14697265625,8.09765625c-1.29833984375.9443359375-2.81884765625,1.443359375-4.39599609375,1.443359375-2.39453125,0-4.67138671875-1.166015625-6.09033203125-3.1181640625-1.4150390625-1.9482421875-1.79638671875-4.390625-1.04541015625-6.7021484375l4.2578125-13.1044921875-11.146484375-8.0986328125c-2.634765625-1.9130859375-3.728515625-5.2802734375-2.72265625-8.3779296875,1.00634765625-3.09765625,3.87060546875-5.1787109375,7.126953125-5.1787109375h13.7783203125l11.384765625-35.0380859375,11.384765625,35.0380859375h13.7783203125c3.25634765625,0,6.12060546875,2.0810546875,7.126953125,5.1787109375,1.005859375,3.09765625-.087890625,6.46484375-2.72314453125,8.3779296875l-11.146484375,8.0986328125,4.2578125,13.103515625c.7509765625,2.3115234375.3701171875,4.75390625-1.04443359375,6.701171875-1.4189453125,1.9541015625-3.69580078125,3.1201171875-6.09033203125,3.1201171875Z"/>
            <path class="cls-3" d="M70.97119140625,121.199647677034591c-1.57763671875,0-3.09814453125-.4990234375-4.39794921875-1.4443359375l-11.1455078125-8.0966796875-11.14697265625,8.09765625c-1.29833984375.9443359375-2.81884765625,1.443359375-4.39599609375,1.443359375-2.39453125,0-4.67138671875-1.166015625-6.09033203125-3.1181640625-1.4150390625-1.9482421875-1.79638671875-4.390625-1.04541015625-6.7021484375l4.2578125-13.1044921875-11.146484375-8.0986328125c-2.634765625-1.9130859375-3.728515625-5.2802734375-2.72265625-8.3779296875,1.00634765625-3.09765625,3.87060546875-5.1787109375,7.126953125-5.1787109375h13.7783203125l11.384765625-35.0380859375,11.384765625,35.0380859375h13.7783203125c3.25634765625,0,6.12060546875,2.0810546875,7.126953125,5.1787109375,1.005859375,3.09765625-.087890625,6.46484375-2.72314453125,8.3779296875l-11.146484375,8.0986328125,4.2578125,13.103515625c.7509765625,2.3115234375.3701171875,4.75390625-1.04443359375,6.701171875-1.4189453125,1.9541015625-3.69580078125,3.1201171875-6.09033203125,3.1201171875Z"/>
            <path class="cls-3" d="M70.97119140625,120.708936891627673c-1.57763671875,0-3.09814453125-.4990234375-4.39794921875-1.4443359375l-11.1455078125-8.0966796875-11.14697265625,8.09765625c-1.29833984375.9443359375-2.81884765625,1.443359375-4.39599609375,1.443359375-2.39453125,0-4.67138671875-1.166015625-6.09033203125-3.1181640625-1.4150390625-1.9482421875-1.79638671875-4.390625-1.04541015625-6.7021484375l4.2578125-13.1044921875-11.146484375-8.0986328125c-2.634765625-1.9130859375-3.728515625-5.2802734375-2.72265625-8.3779296875,1.00634765625-3.09765625,3.87060546875-5.1787109375,7.126953125-5.1787109375h13.7783203125l11.384765625-35.0380859375,11.384765625,35.0380859375h13.7783203125c3.25634765625,0,6.12060546875,2.0810546875,7.126953125,5.1787109375,1.005859375,3.09765625-.087890625,6.46484375-2.72314453125,8.3779296875l-11.146484375,8.0986328125,4.2578125,13.103515625c.7509765625,2.3115234375.3701171875,4.75390625-1.04443359375,6.701171875-1.4189453125,1.9541015625-3.69580078125,3.1201171875-6.09033203125,3.1201171875Z"/>
            <path class="cls-3" d="M70.97119140625,120.218226106220754c-1.57763671875,0-3.09814453125-.4990234375-4.39794921875-1.4443359375l-11.1455078125-8.0966796875-11.14697265625,8.09765625c-1.29833984375.9443359375-2.81884765625,1.443359375-4.39599609375,1.443359375-2.39453125,0-4.67138671875-1.166015625-6.09033203125-3.1181640625-1.4150390625-1.9482421875-1.79638671875-4.390625-1.04541015625-6.7021484375l4.2578125-13.1044921875-11.146484375-8.0986328125c-2.634765625-1.9130859375-3.728515625-5.2802734375-2.72265625-8.3779296875,1.00634765625-3.09765625,3.87060546875-5.1787109375,7.126953125-5.1787109375h13.7783203125l11.384765625-35.0380859375,11.384765625,35.0380859375h13.7783203125c3.25634765625,0,6.12060546875,2.0810546875,7.126953125,5.1787109375,1.005859375,3.09765625-.087890625,6.46484375-2.72314453125,8.3779296875l-11.146484375,8.0986328125,4.2578125,13.103515625c.7509765625,2.3115234375.3701171875,4.75390625-1.04443359375,6.701171875-1.4189453125,1.9541015625-3.69580078125,3.1201171875-6.09033203125,3.1201171875Z"/>
            <path class="cls-3" d="M70.97119140625,119.727515320813836c-1.57763671875,0-3.09814453125-.4990234375-4.39794921875-1.4443359375l-11.1455078125-8.0966796875-11.14697265625,8.09765625c-1.29833984375.9443359375-2.81884765625,1.443359375-4.39599609375,1.443359375-2.39453125,0-4.67138671875-1.166015625-6.09033203125-3.1181640625-1.4150390625-1.9482421875-1.79638671875-4.390625-1.04541015625-6.7021484375l4.2578125-13.1044921875-11.146484375-8.0986328125c-2.634765625-1.9130859375-3.728515625-5.2802734375-2.72265625-8.3779296875,1.00634765625-3.09765625,3.87060546875-5.1787109375,7.126953125-5.1787109375h13.7783203125l11.384765625-35.0380859375,11.384765625,35.0380859375h13.7783203125c3.25634765625,0,6.12060546875,2.0810546875,7.126953125,5.1787109375,1.005859375,3.09765625-.087890625,6.46484375-2.72314453125,8.3779296875l-11.146484375,8.0986328125,4.2578125,13.103515625c.7509765625,2.3115234375.3701171875,4.75390625-1.04443359375,6.701171875-1.4189453125,1.9541015625-3.69580078125,3.1201171875-6.09033203125,3.1201171875Z"/>
            <path class="cls-3" d="M70.97119140625,119.236804535406918c-1.57763671875,0-3.09814453125-.4990234375-4.39794921875-1.4443359375l-11.1455078125-8.0966796875-11.14697265625,8.09765625c-1.29833984375.9443359375-2.81884765625,1.443359375-4.39599609375,1.443359375-2.39453125,0-4.67138671875-1.166015625-6.09033203125-3.1181640625-1.4150390625-1.9482421875-1.79638671875-4.390625-1.04541015625-6.7021484375l4.2578125-13.1044921875-11.146484375-8.0986328125c-2.634765625-1.9130859375-3.728515625-5.2802734375-2.72265625-8.3779296875,1.00634765625-3.09765625,3.87060546875-5.1787109375,7.126953125-5.1787109375h13.7783203125l11.384765625-35.0380859375,11.384765625,35.0380859375h13.7783203125c3.25634765625,0,6.12060546875,2.0810546875,7.126953125,5.1787109375,1.005859375,3.09765625-.087890625,6.46484375-2.72314453125,8.3779296875l-11.146484375,8.0986328125,4.2578125,13.103515625c.7509765625,2.3115234375.3701171875,4.75390625-1.04443359375,6.701171875-1.4189453125,1.9541015625-3.69580078125,3.1201171875-6.09033203125,3.1201171875Z"/>
            <path class="cls-3" d="M70.97119140625,118.74609375c-1.57763671875,0-3.09814453125-.4990234375-4.39794921875-1.4443359375l-11.1455078125-8.0966796875-11.14697265625,8.09765625c-1.29833984375.9443359375-2.81884765625,1.443359375-4.39599609375,1.443359375-2.39453125,0-4.67138671875-1.166015625-6.09033203125-3.1181640625-1.4150390625-1.9482421875-1.79638671875-4.390625-1.04541015625-6.7021484375l4.2578125-13.1044921875-11.146484375-8.0986328125c-2.634765625-1.9130859375-3.728515625-5.2802734375-2.72265625-8.3779296875,1.00634765625-3.09765625,3.87060546875-5.1787109375,7.126953125-5.1787109375h13.7783203125l11.384765625-35.0380859375,11.384765625,35.0380859375h13.7783203125c3.25634765625,0,6.12060546875,2.0810546875,7.126953125,5.1787109375,1.005859375,3.09765625-.087890625,6.46484375-2.72314453125,8.3779296875l-11.146484375,8.0986328125,4.2578125,13.103515625c.7509765625,2.3115234375.3701171875,4.75390625-1.04443359375,6.701171875-1.4189453125,1.9541015625-3.69580078125,3.1201171875-6.09033203125,3.1201171875Z"/>
          </g>
          <path class="cls-1" d="M55.427680379207231,55.007818356962161l7.238683982744988,22.278378525132212c.346273964176362,1.065721678925911,1.339399462880465,1.787269589382049,2.459965549820481,1.787269589372954l15.464257694711705-.00000000012551c2.505661943680025-.000000000020009,3.547465415547777,3.206341394314222,1.520342320938653,4.679132532022777l-12.510847280482267,9.08966261048954c-.90655700766365.65865222011962-1.28589719307638,1.826141263751197-.939623228881828,2.891862942678927l4.778718433179165,14.707383050183125c.774292122774568,2.383026119161514-1.953184776164562,4.364654080387481-3.980307870744582,2.891862942648004l-12.510847280347662-9.089662610709638c-.906557007650918-.658652220128715-2.134127634237302-.658652220128715-3.04068464188822.000000000003638l-12.510847280338567,9.089662610706c-2.027123094581839,1.472791137743116-4.75459999351915-.508836823488309-3.980307870744582-2.891862942651642l4.778718433177346-14.707383050183125c.346273964192733-1.06572167892773-.033066221218178-2.233210722559306-.939623228881828-2.891862942675289l-12.510847280484086-9.089662610498635c-2.027123094603667-1.472791137706736-.985319622739553-4.679132532033691,1.520342320936834-4.679132532013682l15.464257694711705.000000000129148c1.120566086941835.000000000009095,2.113691585644119-.721547910445224,2.4599655498223-1.787269589372954l7.238683982750445-22.278378525135849Z"/>
        </g>
        <g>
          <path class="cls-3" d="M26.304867858887228,43.731995007650767h3.818042404708258v23.202527067571282h-3.818042398496054c-6.402905218606946,0-11.601251885608981-5.198346667002035-11.601251885608981-11.601251885608981v-.000023302565523c0-6.402905215178336,5.198346664218441-11.601251879396777,11.601251879396777-11.601251879396777Z"/>
          <path class="cls-3" d="M90.403245387388722,43.731994994784145h3.818042371643912v23.202527093306344h-3.818042452927315c-6.402905197978967,0-11.601251848233701-5.198346650254734-11.601251848233701-11.601251848233701v-.000023315555538c0-6.402905242840497,5.198346686676615-11.601251929517105,11.601251929517105-11.601251929517105Z" transform="translate(173.023281752361299 110.666516245706049) rotate(180)"/>
          <path class="cls-4" d="M32.341070794083862,66.940592509808994v-21.836915129149929c0-12.769592166412622,10.351799779182329-23.121391945591313,23.121391945594951-23.121391945593132h.000046242830649c12.769592166410803,0,23.121391945593132,10.35179977918051,23.121391945593132,23.121391945593132v21.836915129149929"/>
        </g>
      </g>
    </g>
  </g>
</svg>