<?xml version="1.0" encoding="UTF-8"?>
<svg id="Livello_2" data-name="Livello 2" xmlns="http://www.w3.org/2000/svg" width="233.143174819732849" height="245.429449732535431" viewBox="0 0 233.143174819732849 245.429449732535431">
  <defs>
    <style>
      .cls-1 {
        fill: #f7c831;
        stroke: #020101;
        stroke-miterlimit: 10;
        stroke-width: 6.746750570052128px;
      }

      .cls-2 {
        fill: #f7f0d0;
      }

      .cls-3 {
        fill: #020101;
      }

      .cls-4 {
        fill: none;
        stroke: #000;
        stroke-width: 8.189945655015443px;
      }
    </style>
  </defs>
  <g id="Livello_1-2" data-name="Livello 1">
    <g>
      <g>
        <path class="cls-4" d="M116.663965760993051,226.31902166252803c-2.500622965848379,0-5.037698161524531-.087485351567011-7.540751276048468-.257595757404488C48.751031452179632,221.954474678410406,2.974321240527388,169.494855665861905,7.083702615894254,109.122672633098773,10.986521355597688,51.759013635057272,59.040280856873324,6.82556500661849,116.479274463222282,6.82556500661849c2.500622965848379,0,5.037698161524531.087485351574287,7.540751276048468.257595757433592,60.372183032761313,4.106951226709498,106.148893244411738,56.566570239232533,102.03951186905033,116.938753272021131-3.902818739703434,57.363658998045139-51.95657824097907,102.297107626454817-109.395571847328029,102.297107626454817Z"/>
        <g>
          <path class="cls-3" d="M116.664116706741879,245.429449732535431c-2.6376953125,0-5.330078125-.091796875-8.00341796875-.2734375-31.0185546875-2.1103515625-59.38671875-16.20703125-79.88037109375-39.6923828125S-1.836859855758121,151.961676295035431.274468269241879,120.944098170035431C4.419976081741879,60.014410670035431,55.462944831741879,12.284918482535431,116.479058112991879,12.284918482535431c2.6376953125,0,5.330078125.091796875,8.00341796875.2734375,31.0185546875,2.1103515625,59.38671875,16.20703125,79.88037109375,39.6923828125s30.6171875,53.501953125,28.505859375,84.51953125c-4.1455078125,60.9296875-55.1884765625,108.6591796875-116.20458984375,108.6591796875Z"/>
          <path class="cls-3" d="M116.664116706741879,244.746954261283463c-2.6376953125,0-5.330078125-.091796875-8.00341796875-.2734375-31.0185546875-2.1103515625-59.38671875-16.20703125-79.88037109375-39.6923828125S-1.836859855758121,151.279180823783463.274468269241879,120.261602698783463C4.419976081741879,59.331915198783463,55.462944831741879,11.602423011283463,116.479058112991879,11.602423011283463c2.6376953125,0,5.330078125.091796875,8.00341796875.2734375,31.0185546875,2.1103515625,59.38671875,16.20703125,79.88037109375,39.6923828125s30.6171875,53.501953125,28.505859375,84.51953125c-4.1455078125,60.9296875-55.1884765625,108.6591796875-116.20458984375,108.6591796875Z"/>
          <path class="cls-3" d="M116.664116706741879,244.064458790031495c-2.6376953125,0-5.330078125-.091796875-8.00341796875-.2734375-31.0185546875-2.1103515625-59.38671875-16.20703125-79.88037109375-39.6923828125S-1.836859855758121,150.596685352531495.274468269241879,119.579107227531495C4.419976081741879,58.649419727531495,55.462944831741879,10.919927540031495,116.479058112991879,10.919927540031495c2.6376953125,0,5.330078125.091796875,8.00341796875.2734375,31.0185546875,2.1103515625,59.38671875,16.20703125,79.88037109375,39.6923828125s30.6171875,53.501953125,28.505859375,84.51953125c-4.1455078125,60.9296875-55.1884765625,108.6591796875-116.20458984375,108.6591796875Z"/>
          <path class="cls-3" d="M116.664116706741879,243.381963318779526c-2.6376953125,0-5.330078125-.091796875-8.00341796875-.2734375-31.0185546875-2.1103515625-59.38671875-16.20703125-79.88037109375-39.6923828125S-1.836859855758121,149.914189881279526.274468269241879,118.896611756279526C4.419976081741879,57.966924256279526,55.462944831741879,10.237432068779526,116.479058112991879,10.237432068779526c2.6376953125,0,5.330078125.091796875,8.00341796875.2734375,31.0185546875,2.1103515625,59.38671875,16.20703125,79.88037109375,39.6923828125s30.6171875,53.501953125,28.505859375,84.51953125c-4.1455078125,60.9296875-55.1884765625,108.6591796875-116.20458984375,108.6591796875Z"/>
          <path class="cls-3" d="M116.664116706741879,242.699467847527558c-2.6376953125,0-5.330078125-.091796875-8.00341796875-.2734375-31.0185546875-2.1103515625-59.38671875-16.20703125-79.88037109375-39.6923828125S-1.836859855758121,149.231694410027558.274468269241879,118.214116285027558C4.419976081741879,57.284428785027558,55.462944831741879,9.554936597527558,116.479058112991879,9.554936597527558c2.6376953125,0,5.330078125.091796875,8.00341796875.2734375,31.0185546875,2.1103515625,59.38671875,16.20703125,79.88037109375,39.6923828125s30.6171875,53.501953125,28.505859375,84.51953125c-4.1455078125,60.9296875-55.1884765625,108.6591796875-116.20458984375,108.6591796875Z"/>
          <path class="cls-3" d="M116.664116706741879,242.016972376275589c-2.6376953125,0-5.330078125-.091796875-8.00341796875-.2734375-31.0185546875-2.1103515625-59.38671875-16.20703125-79.88037109375-39.6923828125S-1.836859855758121,148.549198938775589.274468269241879,117.531620813775589C4.419976081741879,56.601933313775589,55.462944831741879,8.872441126275589,116.479058112991879,8.872441126275589c2.6376953125,0,5.330078125.091796875,8.00341796875.2734375,31.0185546875,2.1103515625,59.38671875,16.20703125,79.88037109375,39.6923828125s30.6171875,53.501953125,28.505859375,84.51953125c-4.1455078125,60.9296875-55.1884765625,108.6591796875-116.20458984375,108.6591796875Z"/>
          <path class="cls-3" d="M116.664116706741879,241.334476905023621c-2.6376953125,0-5.330078125-.091796875-8.00341796875-.2734375-31.0185546875-2.1103515625-59.38671875-16.20703125-79.88037109375-39.6923828125S-1.836859855758121,147.866703467523621.274468269241879,116.849125342523621C4.419976081741879,55.919437842523621,55.462944831741879,8.189945655023621,116.479058112991879,8.189945655023621c2.6376953125,0,5.330078125.091796875,8.00341796875.2734375,31.0185546875,2.1103515625,59.38671875,16.20703125,79.88037109375,39.6923828125s30.6171875,53.501953125,28.505859375,84.51953125c-4.1455078125,60.9296875-55.1884765625,108.6591796875-116.20458984375,108.6591796875Z"/>
          <path class="cls-3" d="M116.664116706741879,240.651981433771653c-2.6376953125,0-5.330078125-.091796875-8.00341796875-.2734375-31.0185546875-2.1103515625-59.38671875-16.20703125-79.88037109375-39.6923828125S-1.836859855758121,147.184207996271653.274468269241879,116.166629871271653C4.419976081741879,55.236942371271653,55.462944831741879,7.507450183771653,116.479058112991879,7.507450183771653c2.6376953125,0,5.330078125.091796875,8.00341796875.2734375,31.0185546875,2.1103515625,59.38671875,16.20703125,79.88037109375,39.6923828125s30.6171875,53.501953125,28.505859375,84.51953125c-4.1455078125,60.9296875-55.1884765625,108.6591796875-116.20458984375,108.6591796875Z"/>
          <path class="cls-3" d="M116.664116706741879,239.969485962519684c-2.6376953125,0-5.330078125-.091796875-8.00341796875-.2734375-31.0185546875-2.1103515625-59.38671875-16.20703125-79.88037109375-39.6923828125S-1.836859855758121,146.501712525019684.274468269241879,115.484134400019684C4.419976081741879,54.554446900019684,55.462944831741879,6.824954712519684,116.479058112991879,6.824954712519684c2.6376953125,0,5.330078125.091796875,8.00341796875.2734375,31.0185546875,2.1103515625,59.38671875,16.20703125,79.88037109375,39.6923828125s30.6171875,53.501953125,28.505859375,84.51953125c-4.1455078125,60.9296875-55.1884765625,108.6591796875-116.20458984375,108.6591796875Z"/>
          <path class="cls-3" d="M116.664116706741879,239.286990491267716c-2.6376953125,0-5.330078125-.091796875-8.00341796875-.2734375-31.0185546875-2.1103515625-59.38671875-16.20703125-79.88037109375-39.6923828125S-1.836859855758121,145.819217053767716.274468269241879,114.801638928767716C4.419976081741879,53.871951428767716,55.462944831741879,6.142459241267716,116.479058112991879,6.142459241267716c2.6376953125,0,5.330078125.091796875,8.00341796875.2734375,31.0185546875,2.1103515625,59.38671875,16.20703125,79.88037109375,39.6923828125s30.6171875,53.501953125,28.505859375,84.51953125c-4.1455078125,60.9296875-55.1884765625,108.6591796875-116.20458984375,108.6591796875Z"/>
          <path class="cls-3" d="M116.664116706741879,238.604495020015747c-2.6376953125,0-5.330078125-.091796875-8.00341796875-.2734375-31.0185546875-2.1103515625-59.38671875-16.20703125-79.88037109375-39.6923828125S-1.836859855758121,145.136721582515747.274468269241879,114.119143457515747C4.419976081741879,53.189455957515747,55.462944831741879,5.459963770015747,116.479058112991879,5.459963770015747c2.6376953125,0,5.330078125.091796875,8.00341796875.2734375,31.0185546875,2.1103515625,59.38671875,16.20703125,79.88037109375,39.6923828125s30.6171875,53.501953125,28.505859375,84.51953125c-4.1455078125,60.9296875-55.1884765625,108.6591796875-116.20458984375,108.6591796875Z"/>
          <path class="cls-3" d="M116.664116706741879,237.921999548763779c-2.6376953125,0-5.330078125-.091796875-8.00341796875-.2734375-31.0185546875-2.1103515625-59.38671875-16.20703125-79.88037109375-39.6923828125S-1.836859855758121,144.454226111263779.274468269241879,113.436647986263779C4.419976081741879,52.506960486263779,55.462944831741879,4.777468298763779,116.479058112991879,4.777468298763779c2.6376953125,0,5.330078125.091796875,8.00341796875.2734375,31.0185546875,2.1103515625,59.38671875,16.20703125,79.88037109375,39.6923828125s30.6171875,53.501953125,28.505859375,84.51953125c-4.1455078125,60.9296875-55.1884765625,108.6591796875-116.20458984375,108.6591796875Z"/>
          <path class="cls-3" d="M116.664116706741879,237.23950407751181c-2.6376953125,0-5.330078125-.091796875-8.00341796875-.2734375-31.0185546875-2.1103515625-59.38671875-16.20703125-79.88037109375-39.6923828125S-1.836859855758121,143.77173064001181.274468269241879,112.75415251501181C4.419976081741879,51.82446501501181,55.462944831741879,4.09497282751181,116.479058112991879,4.09497282751181c2.6376953125,0,5.330078125.091796875,8.00341796875.2734375,31.0185546875,2.1103515625,59.38671875,16.20703125,79.88037109375,39.6923828125s30.6171875,53.501953125,28.505859375,84.51953125c-4.1455078125,60.9296875-55.1884765625,108.6591796875-116.20458984375,108.6591796875Z"/>
          <path class="cls-3" d="M116.664116706741879,236.557008606259842c-2.6376953125,0-5.330078125-.091796875-8.00341796875-.2734375-31.0185546875-2.1103515625-59.38671875-16.20703125-79.88037109375-39.6923828125S-1.836859855758121,143.089235168759842.274468269241879,112.071657043759842C4.419976081741879,51.141969543759842,55.462944831741879,3.412477356259842,116.479058112991879,3.412477356259842c2.6376953125,0,5.330078125.091796875,8.00341796875.2734375,31.0185546875,2.1103515625,59.38671875,16.20703125,79.88037109375,39.6923828125s30.6171875,53.501953125,28.505859375,84.51953125c-4.1455078125,60.9296875-55.1884765625,108.6591796875-116.20458984375,108.6591796875Z"/>
          <path class="cls-3" d="M116.664116706741879,235.874513135007874c-2.6376953125,0-5.330078125-.091796875-8.00341796875-.2734375-31.0185546875-2.1103515625-59.38671875-16.20703125-79.88037109375-39.6923828125S-1.836859855758121,142.406739697507874.274468269241879,111.389161572507874C4.419976081741879,50.459474072507874,55.462944831741879,2.729981885007874,116.479058112991879,2.729981885007874c2.6376953125,0,5.330078125.091796875,8.00341796875.2734375,31.0185546875,2.1103515625,59.38671875,16.20703125,79.88037109375,39.6923828125s30.6171875,53.501953125,28.505859375,84.51953125c-4.1455078125,60.9296875-55.1884765625,108.6591796875-116.20458984375,108.6591796875Z"/>
          <path class="cls-3" d="M116.664116706741879,235.192017663755905c-2.6376953125,0-5.330078125-.091796875-8.00341796875-.2734375-31.0185546875-2.1103515625-59.38671875-16.20703125-79.88037109375-39.6923828125S-1.836859855758121,141.724244226255905.274468269241879,110.706666101255905C4.419976081741879,49.776978601255905,55.462944831741879,2.047486413755905,116.479058112991879,2.047486413755905c2.6376953125,0,5.330078125.091796875,8.00341796875.2734375,31.0185546875,2.1103515625,59.38671875,16.20703125,79.88037109375,39.6923828125s30.6171875,53.501953125,28.505859375,84.51953125c-4.1455078125,60.9296875-55.1884765625,108.6591796875-116.20458984375,108.6591796875Z"/>
          <path class="cls-3" d="M116.664116706741879,234.509522192503937c-2.6376953125,0-5.330078125-.091796875-8.00341796875-.2734375-31.0185546875-2.1103515625-59.38671875-16.20703125-79.88037109375-39.6923828125S-1.836859855758121,141.041748755003937.274468269241879,110.024170630003937C4.419976081741879,49.094483130003937,55.462944831741879,1.364990942503937,116.479058112991879,1.364990942503937c2.6376953125,0,5.330078125.091796875,8.00341796875.2734375,31.0185546875,2.1103515625,59.38671875,16.20703125,79.88037109375,39.6923828125s30.6171875,53.501953125,28.505859375,84.51953125c-4.1455078125,60.9296875-55.1884765625,108.6591796875-116.20458984375,108.6591796875Z"/>
          <path class="cls-3" d="M116.664116706741879,233.827026721251968c-2.6376953125,0-5.330078125-.091796875-8.00341796875-.2734375-31.0185546875-2.1103515625-59.38671875-16.20703125-79.88037109375-39.6923828125S-1.836859855758121,140.359253283751968.274468269241879,109.341675158751968C4.419976081741879,48.411987658751968,55.462944831741879.682495471251968,116.479058112991879.682495471251968c2.6376953125,0,5.330078125.091796875,8.00341796875.2734375,31.0185546875,2.1103515625,59.38671875,16.20703125,79.88037109375,39.6923828125s30.6171875,53.501953125,28.505859375,84.51953125c-4.1455078125,60.9296875-55.1884765625,108.6591796875-116.20458984375,108.6591796875Z"/>
          <path class="cls-3" d="M116.664116706741879,233.14453125c-2.6376953125,0-5.330078125-.091796875-8.00341796875-.2734375-31.0185546875-2.1103515625-59.38671875-16.20703125-79.88037109375-39.6923828125S-1.836859855758121,139.6767578125.274468269241879,108.6591796875C4.419976081741879,47.7294921875,55.462944831741879,0,116.479058112991879,0c2.6376953125,0,5.330078125.091796875,8.00341796875.2734375,31.0185546875,2.1103515625,59.38671875,16.20703125,79.88037109375,39.6923828125s30.6171875,53.501953125,28.505859375,84.51953125c-4.1455078125,60.9296875-55.1884765625,108.6591796875-116.20458984375,108.6591796875Z"/>
        </g>
        <path class="cls-2" d="M116.663965760993051,226.31902166252803c-2.500622965848379,0-5.037698161524531-.087485351567011-7.540751276048468-.257595757404488C48.751031452179632,221.954474678410406,2.974321240527388,169.494855665861905,7.083702615894254,109.122672633098773,10.986521355597688,51.759013635057272,59.040280856873324,6.82556500661849,116.479274463222282,6.82556500661849c2.500622965848379,0,5.037698161524531.087485351574287,7.540751276048468.257595757433592,60.372183032761313,4.106951226709498,106.148893244411738,56.566570239232533,102.03951186905033,116.938753272021131-3.902818739703434,57.363658998045139-51.95657824097907,102.297107626454817-109.395571847328029,102.297107626454817Z"/>
      </g>
      <circle class="cls-1" cx="116.571576845498385" cy="116.572292927530725" r="89.834196864829664"/>
    </g>
  </g>
</svg>