<?xml version="1.0" encoding="UTF-8"?>
<svg id="Livello_2" data-name="Livello 2" xmlns="http://www.w3.org/2000/svg" width="118.299271057592705" height="157.50466957912613" xmlns:xlink="http://www.w3.org/1999/xlink" viewBox="0 0 118.299271057592705 157.50466957912613">
  <defs>
    <style>
      .cls-1 {
        fill: #b6d5ef;
      }

      .cls-2 {
        fill: #020101;
      }

      .cls-3, .cls-4 {
        stroke: #020101;
        stroke-miterlimit: 10;
        stroke-width: 5px;
      }

      .cls-3, .cls-5 {
        fill: none;
      }

      .cls-6 {
        fill: #c6bda7;
      }

      .cls-7, .cls-4 {
        fill: #fff7e6;
      }

      .cls-8 {
        clip-path: url(#clippath);
      }

      .cls-5 {
        stroke: #000;
        stroke-width: 5.888529424887695px;
      }
    </style>
    <clipPath id="clippath">
      <path class="cls-4" d="M96.288710929362423,146.62823938411384c-5.788190316627151,2.812672008436493-19.196685238888676,8.454690063281305-37.47625642555613,8.375607483098065-17.840954486069677-.077176975846669-30.927726700709172-5.563411875751626-36.714366886022617-8.375607483098065-.039311282211202.039311282213021-19.363469535237527-131.187817867692502-19.289481736022935-131.230983993345944,12.249630845984939,3.754516954339124,31.531643767504647,8.281756469259562,55.622868622021997,8.375607483090789,24.86699511533152.096709420346087,44.728052542164733-4.569639211524191,57.1467886221144-8.375607483090789.093821729818956-.386253900103839-19.289552196534714,131.05532816856612-19.289552196534714,131.230983993345944Z"/>
    </clipPath>
  </defs>
  <g id="Livello_2-2" data-name="Livello 2">
    <g>
      <path class="cls-6" d="M1.524406291746345,13.704875532695951c9.279648165553226-2.743167689768597,18.633217372322179-5.297897792861477,28.164882167677206-6.966491595894695,28.153044104647051-4.928414528034409,57.656315483018261-1.891462672259877,84.215018976574356,8.668766059940026-18.156858423446465,5.934943974654743-37.130898044251808,10.834963919862275-56.161907304736815,9.187009365854465-17.750762145935369-1.53709337260625-35.487469965006312-3.995976837895796-52.63459464025982-8.836258815965266-1.404544877541412-.396473840333783-2.98643131832614-.968793047579311-3.509054327852937-2.331438645336675"/>
      <g>
        <path class="cls-7" d="M96.288710929362423,146.62823938411384c-5.788190316627151,2.812672008436493-19.196685238888676,8.454690063281305-37.47625642555613,8.375607483098065-17.840954486069677-.077176975846669-30.927726700709172-5.563411875751626-36.714366886022617-8.375607483098065-.039311282211202.039311282213021-19.363469535237527-131.187817867692502-19.289481736022935-131.230983993345944,12.249630845984939,3.754516954339124,31.531643767504647,8.281756469259562,55.622868622021997,8.375607483090789,24.86699511533152.096709420346087,44.728052542164733-4.569639211524191,57.1467886221144-8.375607483090789.093821729818956-.386253900103839-19.289552196534714,131.05532816856612-19.289552196534714,131.230983993345944Z"/>
        <g class="cls-8">
          <g>
            <rect class="cls-5" x="27.38169333450913" y="40.916377694523362" width="44.087122644026969" height="42.942002575344304" rx="15.614523263213297" ry="15.614523263213297" transform="translate(-20.151366564452644 101.041416722166957) rotate(-80.667451683111651)"/>
            <g>
              <path class="cls-2" d="M54.153967866335734,99.036135339394605c-1.1064453125,0-2.2236328125-.091796875-3.3203125-.2724609375l-11.5576171875-1.8994140625c-11.166015625-1.833984375-18.7568359375-12.412109375-16.921875-23.578125l2.0849609375-12.6875c1.6103515625-9.8017578125,10.3193359375-17.1943359375,20.2578125-17.1943359375,1.1064453125,0,2.2236328125.091796875,3.3203125.2724609375l11.5576171875,1.8994140625c5.3916015625.8857421875,10.1259765625,3.83203125,13.3291015625,8.294921875s4.4794921875,9.890625,3.5927734375,15.283203125l-2.0849609375,12.6875c-1.6376953125,9.962890625-10.1572265625,17.1943359375-20.2578125,17.1943359375Z"/>
              <path class="cls-2" d="M54.153967866335734,98.545424553987687c-1.1064453125,0-2.2236328125-.091796875-3.3203125-.2724609375l-11.5576171875-1.8994140625c-11.166015625-1.833984375-18.7568359375-12.412109375-16.921875-23.578125l2.0849609375-12.6875c1.6103515625-9.8017578125,10.3193359375-17.1943359375,20.2578125-17.1943359375,1.1064453125,0,2.2236328125.091796875,3.3203125.2724609375l11.5576171875,1.8994140625c5.3916015625.8857421875,10.1259765625,3.83203125,13.3291015625,8.294921875s4.4794921875,9.890625,3.5927734375,15.283203125l-2.0849609375,12.6875c-1.6376953125,9.962890625-10.1572265625,17.1943359375-20.2578125,17.1943359375Z"/>
              <path class="cls-2" d="M54.153967866335734,98.054713768580768c-1.1064453125,0-2.2236328125-.091796875-3.3203125-.2724609375l-11.5576171875-1.8994140625c-11.166015625-1.833984375-18.7568359375-12.412109375-16.921875-23.578125l2.0849609375-12.6875c1.6103515625-9.8017578125,10.3193359375-17.1943359375,20.2578125-17.1943359375,1.1064453125,0,2.2236328125.091796875,3.3203125.2724609375l11.5576171875,1.8994140625c5.3916015625.8857421875,10.1259765625,3.83203125,13.3291015625,8.294921875s4.4794921875,9.890625,3.5927734375,15.283203125l-2.0849609375,12.6875c-1.6376953125,9.962890625-10.1572265625,17.1943359375-20.2578125,17.1943359375Z"/>
              <path class="cls-2" d="M54.153967866335734,97.56400298317385c-1.1064453125,0-2.2236328125-.091796875-3.3203125-.2724609375l-11.5576171875-1.8994140625c-11.166015625-1.833984375-18.7568359375-12.412109375-16.921875-23.578125l2.0849609375-12.6875c1.6103515625-9.8017578125,10.3193359375-17.1943359375,20.2578125-17.1943359375,1.1064453125,0,2.2236328125.091796875,3.3203125.2724609375l11.5576171875,1.8994140625c5.3916015625.8857421875,10.1259765625,3.83203125,13.3291015625,8.294921875s4.4794921875,9.890625,3.5927734375,15.283203125l-2.0849609375,12.6875c-1.6376953125,9.962890625-10.1572265625,17.1943359375-20.2578125,17.1943359375Z"/>
              <path class="cls-2" d="M54.153967866335734,97.073292197766932c-1.1064453125,0-2.2236328125-.091796875-3.3203125-.2724609375l-11.5576171875-1.8994140625c-11.166015625-1.833984375-18.7568359375-12.412109375-16.921875-23.578125l2.0849609375-12.6875c1.6103515625-9.8017578125,10.3193359375-17.1943359375,20.2578125-17.1943359375,1.1064453125,0,2.2236328125.091796875,3.3203125.2724609375l11.5576171875,1.8994140625c5.3916015625.8857421875,10.1259765625,3.83203125,13.3291015625,8.294921875s4.4794921875,9.890625,3.5927734375,15.283203125l-2.0849609375,12.6875c-1.6376953125,9.962890625-10.1572265625,17.1943359375-20.2578125,17.1943359375Z"/>
              <path class="cls-2" d="M54.153967866335734,96.582581412360014c-1.1064453125,0-2.2236328125-.091796875-3.3203125-.2724609375l-11.5576171875-1.8994140625c-11.166015625-1.833984375-18.7568359375-12.412109375-16.921875-23.578125l2.0849609375-12.6875c1.6103515625-9.8017578125,10.3193359375-17.1943359375,20.2578125-17.1943359375,1.1064453125,0,2.2236328125.091796875,3.3203125.2724609375l11.5576171875,1.8994140625c5.3916015625.8857421875,10.1259765625,3.83203125,13.3291015625,8.294921875s4.4794921875,9.890625,3.5927734375,15.283203125l-2.0849609375,12.6875c-1.6376953125,9.962890625-10.1572265625,17.1943359375-20.2578125,17.1943359375Z"/>
              <path class="cls-2" d="M54.153967866335734,96.091870626953096c-1.1064453125,0-2.2236328125-.091796875-3.3203125-.2724609375l-11.5576171875-1.8994140625c-11.166015625-1.833984375-18.7568359375-12.412109375-16.921875-23.578125l2.0849609375-12.6875c1.6103515625-9.8017578125,10.3193359375-17.1943359375,20.2578125-17.1943359375,1.1064453125,0,2.2236328125.091796875,3.3203125.2724609375l11.5576171875,1.8994140625c5.3916015625.8857421875,10.1259765625,3.83203125,13.3291015625,8.294921875s4.4794921875,9.890625,3.5927734375,15.283203125l-2.0849609375,12.6875c-1.6376953125,9.962890625-10.1572265625,17.1943359375-20.2578125,17.1943359375Z"/>
              <path class="cls-2" d="M54.153967866335734,95.601159841546178c-1.1064453125,0-2.2236328125-.091796875-3.3203125-.2724609375l-11.5576171875-1.8994140625c-11.166015625-1.833984375-18.7568359375-12.412109375-16.921875-23.578125l2.0849609375-12.6875c1.6103515625-9.8017578125,10.3193359375-17.1943359375,20.2578125-17.1943359375,1.1064453125,0,2.2236328125.091796875,3.3203125.2724609375l11.5576171875,1.8994140625c5.3916015625.8857421875,10.1259765625,3.83203125,13.3291015625,8.294921875s4.4794921875,9.890625,3.5927734375,15.283203125l-2.0849609375,12.6875c-1.6376953125,9.962890625-10.1572265625,17.1943359375-20.2578125,17.1943359375Z"/>
              <path class="cls-2" d="M54.153967866335734,95.110449056139259c-1.1064453125,0-2.2236328125-.091796875-3.3203125-.2724609375l-11.5576171875-1.8994140625c-11.166015625-1.833984375-18.7568359375-12.412109375-16.921875-23.578125l2.0849609375-12.6875c1.6103515625-9.8017578125,10.3193359375-17.1943359375,20.2578125-17.1943359375,1.1064453125,0,2.2236328125.091796875,3.3203125.2724609375l11.5576171875,1.8994140625c5.3916015625.8857421875,10.1259765625,3.83203125,13.3291015625,8.294921875s4.4794921875,9.890625,3.5927734375,15.283203125l-2.0849609375,12.6875c-1.6376953125,9.962890625-10.1572265625,17.1943359375-20.2578125,17.1943359375Z"/>
              <path class="cls-2" d="M54.153967866335734,94.619738270732341c-1.1064453125,0-2.2236328125-.091796875-3.3203125-.2724609375l-11.5576171875-1.8994140625c-11.166015625-1.833984375-18.7568359375-12.412109375-16.921875-23.578125l2.0849609375-12.6875c1.6103515625-9.8017578125,10.3193359375-17.1943359375,20.2578125-17.1943359375,1.1064453125,0,2.2236328125.091796875,3.3203125.2724609375l11.5576171875,1.8994140625c5.3916015625.8857421875,10.1259765625,3.83203125,13.3291015625,8.294921875s4.4794921875,9.890625,3.5927734375,15.283203125l-2.0849609375,12.6875c-1.6376953125,9.962890625-10.1572265625,17.1943359375-20.2578125,17.1943359375Z"/>
              <path class="cls-2" d="M54.153967866335734,94.129027485325423c-1.1064453125,0-2.2236328125-.091796875-3.3203125-.2724609375l-11.5576171875-1.8994140625c-11.166015625-1.833984375-18.7568359375-12.412109375-16.921875-23.578125l2.0849609375-12.6875c1.6103515625-9.8017578125,10.3193359375-17.1943359375,20.2578125-17.1943359375,1.1064453125,0,2.2236328125.091796875,3.3203125.2724609375l11.5576171875,1.8994140625c5.3916015625.8857421875,10.1259765625,3.83203125,13.3291015625,8.294921875s4.4794921875,9.890625,3.5927734375,15.283203125l-2.0849609375,12.6875c-1.6376953125,9.962890625-10.1572265625,17.1943359375-20.2578125,17.1943359375Z"/>
              <path class="cls-2" d="M54.153967866335734,93.638316699918505c-1.1064453125,0-2.2236328125-.091796875-3.3203125-.2724609375l-11.5576171875-1.8994140625c-11.166015625-1.833984375-18.7568359375-12.412109375-16.921875-23.578125l2.0849609375-12.6875c1.6103515625-9.8017578125,10.3193359375-17.1943359375,20.2578125-17.1943359375,1.1064453125,0,2.2236328125.091796875,3.3203125.2724609375l11.5576171875,1.8994140625c5.3916015625.8857421875,10.1259765625,3.83203125,13.3291015625,8.294921875s4.4794921875,9.890625,3.5927734375,15.283203125l-2.0849609375,12.6875c-1.6376953125,9.962890625-10.1572265625,17.1943359375-20.2578125,17.1943359375Z"/>
              <path class="cls-2" d="M54.153967866335734,93.147605914511587c-1.1064453125,0-2.2236328125-.091796875-3.3203125-.2724609375l-11.5576171875-1.8994140625c-11.166015625-1.833984375-18.7568359375-12.412109375-16.921875-23.578125l2.0849609375-12.6875c1.6103515625-9.8017578125,10.3193359375-17.1943359375,20.2578125-17.1943359375,1.1064453125,0,2.2236328125.091796875,3.3203125.2724609375l11.5576171875,1.8994140625c5.3916015625.8857421875,10.1259765625,3.83203125,13.3291015625,8.294921875s4.4794921875,9.890625,3.5927734375,15.283203125l-2.0849609375,12.6875c-1.6376953125,9.962890625-10.1572265625,17.1943359375-20.2578125,17.1943359375Z"/>
              <path class="cls-2" d="M54.153967866335734,92.656895129104669c-1.1064453125,0-2.2236328125-.091796875-3.3203125-.2724609375l-11.5576171875-1.8994140625c-11.166015625-1.833984375-18.7568359375-12.412109375-16.921875-23.578125l2.0849609375-12.6875c1.6103515625-9.8017578125,10.3193359375-17.1943359375,20.2578125-17.1943359375,1.1064453125,0,2.2236328125.091796875,3.3203125.2724609375l11.5576171875,1.8994140625c5.3916015625.8857421875,10.1259765625,3.83203125,13.3291015625,8.294921875s4.4794921875,9.890625,3.5927734375,15.283203125l-2.0849609375,12.6875c-1.6376953125,9.962890625-10.1572265625,17.1943359375-20.2578125,17.1943359375Z"/>
              <path class="cls-2" d="M54.153967866335734,92.166184343697751c-1.1064453125,0-2.2236328125-.091796875-3.3203125-.2724609375l-11.5576171875-1.8994140625c-11.166015625-1.833984375-18.7568359375-12.412109375-16.921875-23.578125l2.0849609375-12.6875c1.6103515625-9.8017578125,10.3193359375-17.1943359375,20.2578125-17.1943359375,1.1064453125,0,2.2236328125.091796875,3.3203125.2724609375l11.5576171875,1.8994140625c5.3916015625.8857421875,10.1259765625,3.83203125,13.3291015625,8.294921875s4.4794921875,9.890625,3.5927734375,15.283203125l-2.0849609375,12.6875c-1.6376953125,9.962890625-10.1572265625,17.1943359375-20.2578125,17.1943359375Z"/>
              <path class="cls-2" d="M54.153967866335734,91.675473558290832c-1.1064453125,0-2.2236328125-.091796875-3.3203125-.2724609375l-11.5576171875-1.8994140625c-11.166015625-1.833984375-18.7568359375-12.412109375-16.921875-23.578125l2.0849609375-12.6875c1.6103515625-9.8017578125,10.3193359375-17.1943359375,20.2578125-17.1943359375,1.1064453125,0,2.2236328125.091796875,3.3203125.2724609375l11.5576171875,1.8994140625c5.3916015625.8857421875,10.1259765625,3.83203125,13.3291015625,8.294921875s4.4794921875,9.890625,3.5927734375,15.283203125l-2.0849609375,12.6875c-1.6376953125,9.962890625-10.1572265625,17.1943359375-20.2578125,17.1943359375Z"/>
              <path class="cls-2" d="M54.153967866335734,91.184762772883914c-1.1064453125,0-2.2236328125-.091796875-3.3203125-.2724609375l-11.5576171875-1.8994140625c-11.166015625-1.833984375-18.7568359375-12.412109375-16.921875-23.578125l2.0849609375-12.6875c1.6103515625-9.8017578125,10.3193359375-17.1943359375,20.2578125-17.1943359375,1.1064453125,0,2.2236328125.091796875,3.3203125.2724609375l11.5576171875,1.8994140625c5.3916015625.8857421875,10.1259765625,3.83203125,13.3291015625,8.294921875s4.4794921875,9.890625,3.5927734375,15.283203125l-2.0849609375,12.6875c-1.6376953125,9.962890625-10.1572265625,17.1943359375-20.2578125,17.1943359375Z"/>
              <path class="cls-2" d="M54.153967866335734,90.694051987476996c-1.1064453125,0-2.2236328125-.091796875-3.3203125-.2724609375l-11.5576171875-1.8994140625c-11.166015625-1.833984375-18.7568359375-12.412109375-16.921875-23.578125l2.0849609375-12.6875c1.6103515625-9.8017578125,10.3193359375-17.1943359375,20.2578125-17.1943359375,1.1064453125,0,2.2236328125.091796875,3.3203125.2724609375l11.5576171875,1.8994140625c5.3916015625.8857421875,10.1259765625,3.83203125,13.3291015625,8.294921875s4.4794921875,9.890625,3.5927734375,15.283203125l-2.0849609375,12.6875c-1.6376953125,9.962890625-10.1572265625,17.1943359375-20.2578125,17.1943359375Z"/>
              <path class="cls-2" d="M54.153967866335734,90.203341202070078c-1.1064453125,0-2.2236328125-.091796875-3.3203125-.2724609375l-11.5576171875-1.8994140625c-11.166015625-1.833984375-18.7568359375-12.412109375-16.921875-23.578125l2.0849609375-12.6875c1.6103515625-9.8017578125,10.3193359375-17.1943359375,20.2578125-17.1943359375,1.1064453125,0,2.2236328125.091796875,3.3203125.2724609375l11.5576171875,1.8994140625c5.3916015625.8857421875,10.1259765625,3.83203125,13.3291015625,8.294921875s4.4794921875,9.890625,3.5927734375,15.283203125l-2.0849609375,12.6875c-1.6376953125,9.962890625-10.1572265625,17.1943359375-20.2578125,17.1943359375Z"/>
            </g>
            <rect class="cls-1" x="27.38169333450913" y="40.916377694523362" width="44.087122644026969" height="42.942002575344304" rx="15.614523263213297" ry="15.614523263213297" transform="translate(-20.151366564452644 101.041416722166957) rotate(-80.667451683111651)"/>
          </g>
          <g>
            <rect class="cls-5" x="50.585313203699087" y="81.586114744614008" width="34.223947014700627" height="35.136585601765432" rx="12.444473586958413" ry="12.444473586958413" transform="translate(-15.183257397515646 12.290522230570318) rotate(-9.332548314311847)"/>
            <g>
              <path class="cls-2" d="M63.928381928835734,131.151369714394605c-8.5400390625,0-15.7431640625-6.1142578125-17.1279296875-14.537109375l-1.6611328125-10.1123046875c-.75-4.5595703125.3291015625-9.1494140625,3.037109375-12.9228515625,2.7080078125-3.7724609375,6.7109375-6.263671875,11.2705078125-7.0126953125l9.2109375-1.513671875c.927734375-.15234375,1.8720703125-.23046875,2.80859375-.23046875,8.541015625,0,15.744140625,6.1142578125,17.126953125,14.5390625l1.662109375,10.111328125c1.55078125,9.44140625-4.8671875,18.3837890625-14.3076171875,19.935546875l-9.2119140625,1.513671875c-.927734375.15234375-1.8720703125.2294921875-2.806640625.2294921875h-.0009765625Z"/>
              <path class="cls-2" d="M63.928381928835734,130.660658928987687c-8.5400390625,0-15.7431640625-6.1142578125-17.1279296875-14.537109375l-1.6611328125-10.1123046875c-.75-4.5595703125.3291015625-9.1494140625,3.037109375-12.9228515625,2.7080078125-3.7724609375,6.7109375-6.263671875,11.2705078125-7.0126953125l9.2109375-1.513671875c.927734375-.15234375,1.8720703125-.23046875,2.80859375-.23046875,8.541015625,0,15.744140625,6.1142578125,17.126953125,14.5390625l1.662109375,10.111328125c1.55078125,9.44140625-4.8671875,18.3837890625-14.3076171875,19.935546875l-9.2119140625,1.513671875c-.927734375.15234375-1.8720703125.2294921875-2.806640625.2294921875h-.0009765625Z"/>
              <path class="cls-2" d="M63.928381928835734,130.169948143580768c-8.5400390625,0-15.7431640625-6.1142578125-17.1279296875-14.537109375l-1.6611328125-10.1123046875c-.75-4.5595703125.3291015625-9.1494140625,3.037109375-12.9228515625,2.7080078125-3.7724609375,6.7109375-6.263671875,11.2705078125-7.0126953125l9.2109375-1.513671875c.927734375-.15234375,1.8720703125-.23046875,2.80859375-.23046875,8.541015625,0,15.744140625,6.1142578125,17.126953125,14.5390625l1.662109375,10.111328125c1.55078125,9.44140625-4.8671875,18.3837890625-14.3076171875,19.935546875l-9.2119140625,1.513671875c-.927734375.15234375-1.8720703125.2294921875-2.806640625.2294921875h-.0009765625Z"/>
              <path class="cls-2" d="M63.928381928835734,129.67923735817385c-8.5400390625,0-15.7431640625-6.1142578125-17.1279296875-14.537109375l-1.6611328125-10.1123046875c-.75-4.5595703125.3291015625-9.1494140625,3.037109375-12.9228515625,2.7080078125-3.7724609375,6.7109375-6.263671875,11.2705078125-7.0126953125l9.2109375-1.513671875c.927734375-.15234375,1.8720703125-.23046875,2.80859375-.23046875,8.541015625,0,15.744140625,6.1142578125,17.126953125,14.5390625l1.662109375,10.111328125c1.55078125,9.44140625-4.8671875,18.3837890625-14.3076171875,19.935546875l-9.2119140625,1.513671875c-.927734375.15234375-1.8720703125.2294921875-2.806640625.2294921875h-.0009765625Z"/>
              <path class="cls-2" d="M63.928381928835734,129.188526572766932c-8.5400390625,0-15.7431640625-6.1142578125-17.1279296875-14.537109375l-1.6611328125-10.1123046875c-.75-4.5595703125.3291015625-9.1494140625,3.037109375-12.9228515625,2.7080078125-3.7724609375,6.7109375-6.263671875,11.2705078125-7.0126953125l9.2109375-1.513671875c.927734375-.15234375,1.8720703125-.23046875,2.80859375-.23046875,8.541015625,0,15.744140625,6.1142578125,17.126953125,14.5390625l1.662109375,10.111328125c1.55078125,9.44140625-4.8671875,18.3837890625-14.3076171875,19.935546875l-9.2119140625,1.513671875c-.927734375.15234375-1.8720703125.2294921875-2.806640625.2294921875h-.0009765625Z"/>
              <path class="cls-2" d="M63.928381928835734,128.697815787360014c-8.5400390625,0-15.7431640625-6.1142578125-17.1279296875-14.537109375l-1.6611328125-10.1123046875c-.75-4.5595703125.3291015625-9.1494140625,3.037109375-12.9228515625,2.7080078125-3.7724609375,6.7109375-6.263671875,11.2705078125-7.0126953125l9.2109375-1.513671875c.927734375-.15234375,1.8720703125-.23046875,2.80859375-.23046875,8.541015625,0,15.744140625,6.1142578125,17.126953125,14.5390625l1.662109375,10.111328125c1.55078125,9.44140625-4.8671875,18.3837890625-14.3076171875,19.935546875l-9.2119140625,1.513671875c-.927734375.15234375-1.8720703125.2294921875-2.806640625.2294921875h-.0009765625Z"/>
              <path class="cls-2" d="M63.928381928835734,128.207105001953096c-8.5400390625,0-15.7431640625-6.1142578125-17.1279296875-14.537109375l-1.6611328125-10.1123046875c-.75-4.5595703125.3291015625-9.1494140625,3.037109375-12.9228515625,2.7080078125-3.7724609375,6.7109375-6.263671875,11.2705078125-7.0126953125l9.2109375-1.513671875c.927734375-.15234375,1.8720703125-.23046875,2.80859375-.23046875,8.541015625,0,15.744140625,6.1142578125,17.126953125,14.5390625l1.662109375,10.111328125c1.55078125,9.44140625-4.8671875,18.3837890625-14.3076171875,19.935546875l-9.2119140625,1.513671875c-.927734375.15234375-1.8720703125.2294921875-2.806640625.2294921875h-.0009765625Z"/>
              <path class="cls-2" d="M63.928381928835734,127.716394216546178c-8.5400390625,0-15.7431640625-6.1142578125-17.1279296875-14.537109375l-1.6611328125-10.1123046875c-.75-4.5595703125.3291015625-9.1494140625,3.037109375-12.9228515625,2.7080078125-3.7724609375,6.7109375-6.263671875,11.2705078125-7.0126953125l9.2109375-1.513671875c.927734375-.15234375,1.8720703125-.23046875,2.80859375-.23046875,8.541015625,0,15.744140625,6.1142578125,17.126953125,14.5390625l1.662109375,10.111328125c1.55078125,9.44140625-4.8671875,18.3837890625-14.3076171875,19.935546875l-9.2119140625,1.513671875c-.927734375.15234375-1.8720703125.2294921875-2.806640625.2294921875h-.0009765625Z"/>
              <path class="cls-2" d="M63.928381928835734,127.225683431139259c-8.5400390625,0-15.7431640625-6.1142578125-17.1279296875-14.537109375l-1.6611328125-10.1123046875c-.75-4.5595703125.3291015625-9.1494140625,3.037109375-12.9228515625,2.7080078125-3.7724609375,6.7109375-6.263671875,11.2705078125-7.0126953125l9.2109375-1.513671875c.927734375-.15234375,1.8720703125-.23046875,2.80859375-.23046875,8.541015625,0,15.744140625,6.1142578125,17.126953125,14.5390625l1.662109375,10.111328125c1.55078125,9.44140625-4.8671875,18.3837890625-14.3076171875,19.935546875l-9.2119140625,1.513671875c-.927734375.15234375-1.8720703125.2294921875-2.806640625.2294921875h-.0009765625Z"/>
              <path class="cls-2" d="M63.928381928835734,126.734972645732341c-8.5400390625,0-15.7431640625-6.1142578125-17.1279296875-14.537109375l-1.6611328125-10.1123046875c-.75-4.5595703125.3291015625-9.1494140625,3.037109375-12.9228515625,2.7080078125-3.7724609375,6.7109375-6.263671875,11.2705078125-7.0126953125l9.2109375-1.513671875c.927734375-.15234375,1.8720703125-.23046875,2.80859375-.23046875,8.541015625,0,15.744140625,6.1142578125,17.126953125,14.5390625l1.662109375,10.111328125c1.55078125,9.44140625-4.8671875,18.3837890625-14.3076171875,19.935546875l-9.2119140625,1.513671875c-.927734375.15234375-1.8720703125.2294921875-2.806640625.2294921875h-.0009765625Z"/>
              <path class="cls-2" d="M63.928381928835734,126.244261860325423c-8.5400390625,0-15.7431640625-6.1142578125-17.1279296875-14.537109375l-1.6611328125-10.1123046875c-.75-4.5595703125.3291015625-9.1494140625,3.037109375-12.9228515625,2.7080078125-3.7724609375,6.7109375-6.263671875,11.2705078125-7.0126953125l9.2109375-1.513671875c.927734375-.15234375,1.8720703125-.23046875,2.80859375-.23046875,8.541015625,0,15.744140625,6.1142578125,17.126953125,14.5390625l1.662109375,10.111328125c1.55078125,9.44140625-4.8671875,18.3837890625-14.3076171875,19.935546875l-9.2119140625,1.513671875c-.927734375.15234375-1.8720703125.2294921875-2.806640625.2294921875h-.0009765625Z"/>
              <path class="cls-2" d="M63.928381928835734,125.753551074918505c-8.5400390625,0-15.7431640625-6.1142578125-17.1279296875-14.537109375l-1.6611328125-10.1123046875c-.75-4.5595703125.3291015625-9.1494140625,3.037109375-12.9228515625,2.7080078125-3.7724609375,6.7109375-6.263671875,11.2705078125-7.0126953125l9.2109375-1.513671875c.927734375-.15234375,1.8720703125-.23046875,2.80859375-.23046875,8.541015625,0,15.744140625,6.1142578125,17.126953125,14.5390625l1.662109375,10.111328125c1.55078125,9.44140625-4.8671875,18.3837890625-14.3076171875,19.935546875l-9.2119140625,1.513671875c-.927734375.15234375-1.8720703125.2294921875-2.806640625.2294921875h-.0009765625Z"/>
              <path class="cls-2" d="M63.928381928835734,125.262840289511587c-8.5400390625,0-15.7431640625-6.1142578125-17.1279296875-14.537109375l-1.6611328125-10.1123046875c-.75-4.5595703125.3291015625-9.1494140625,3.037109375-12.9228515625,2.7080078125-3.7724609375,6.7109375-6.263671875,11.2705078125-7.0126953125l9.2109375-1.513671875c.927734375-.15234375,1.8720703125-.23046875,2.80859375-.23046875,8.541015625,0,15.744140625,6.1142578125,17.126953125,14.5390625l1.662109375,10.111328125c1.55078125,9.44140625-4.8671875,18.3837890625-14.3076171875,19.935546875l-9.2119140625,1.513671875c-.927734375.15234375-1.8720703125.2294921875-2.806640625.2294921875h-.0009765625Z"/>
              <path class="cls-2" d="M63.928381928835734,124.772129504104669c-8.5400390625,0-15.7431640625-6.1142578125-17.1279296875-14.537109375l-1.6611328125-10.1123046875c-.75-4.5595703125.3291015625-9.1494140625,3.037109375-12.9228515625,2.7080078125-3.7724609375,6.7109375-6.263671875,11.2705078125-7.0126953125l9.2109375-1.513671875c.927734375-.15234375,1.8720703125-.23046875,2.80859375-.23046875,8.541015625,0,15.744140625,6.1142578125,17.126953125,14.5390625l1.662109375,10.111328125c1.55078125,9.44140625-4.8671875,18.3837890625-14.3076171875,19.935546875l-9.2119140625,1.513671875c-.927734375.15234375-1.8720703125.2294921875-2.806640625.2294921875h-.0009765625Z"/>
              <path class="cls-2" d="M63.928381928835734,124.281418718697751c-8.5400390625,0-15.7431640625-6.1142578125-17.1279296875-14.537109375l-1.6611328125-10.1123046875c-.75-4.5595703125.3291015625-9.1494140625,3.037109375-12.9228515625,2.7080078125-3.7724609375,6.7109375-6.263671875,11.2705078125-7.0126953125l9.2109375-1.513671875c.927734375-.15234375,1.8720703125-.23046875,2.80859375-.23046875,8.541015625,0,15.744140625,6.1142578125,17.126953125,14.5390625l1.662109375,10.111328125c1.55078125,9.44140625-4.8671875,18.3837890625-14.3076171875,19.935546875l-9.2119140625,1.513671875c-.927734375.15234375-1.8720703125.2294921875-2.806640625.2294921875h-.0009765625Z"/>
              <path class="cls-2" d="M63.928381928835734,123.790707933290832c-8.5400390625,0-15.7431640625-6.1142578125-17.1279296875-14.537109375l-1.6611328125-10.1123046875c-.75-4.5595703125.3291015625-9.1494140625,3.037109375-12.9228515625,2.7080078125-3.7724609375,6.7109375-6.263671875,11.2705078125-7.0126953125l9.2109375-1.513671875c.927734375-.15234375,1.8720703125-.23046875,2.80859375-.23046875,8.541015625,0,15.744140625,6.1142578125,17.126953125,14.5390625l1.662109375,10.111328125c1.55078125,9.44140625-4.8671875,18.3837890625-14.3076171875,19.935546875l-9.2119140625,1.513671875c-.927734375.15234375-1.8720703125.2294921875-2.806640625.2294921875h-.0009765625Z"/>
              <path class="cls-2" d="M63.928381928835734,123.299997147883914c-8.5400390625,0-15.7431640625-6.1142578125-17.1279296875-14.537109375l-1.6611328125-10.1123046875c-.75-4.5595703125.3291015625-9.1494140625,3.037109375-12.9228515625,2.7080078125-3.7724609375,6.7109375-6.263671875,11.2705078125-7.0126953125l9.2109375-1.513671875c.927734375-.15234375,1.8720703125-.23046875,2.80859375-.23046875,8.541015625,0,15.744140625,6.1142578125,17.126953125,14.5390625l1.662109375,10.111328125c1.55078125,9.44140625-4.8671875,18.3837890625-14.3076171875,19.935546875l-9.2119140625,1.513671875c-.927734375.15234375-1.8720703125.2294921875-2.806640625.2294921875h-.0009765625Z"/>
              <path class="cls-2" d="M63.928381928835734,122.809286362476996c-8.5400390625,0-15.7431640625-6.1142578125-17.1279296875-14.537109375l-1.6611328125-10.1123046875c-.75-4.5595703125.3291015625-9.1494140625,3.037109375-12.9228515625,2.7080078125-3.7724609375,6.7109375-6.263671875,11.2705078125-7.0126953125l9.2109375-1.513671875c.927734375-.15234375,1.8720703125-.23046875,2.80859375-.23046875,8.541015625,0,15.744140625,6.1142578125,17.126953125,14.5390625l1.662109375,10.111328125c1.55078125,9.44140625-4.8671875,18.3837890625-14.3076171875,19.935546875l-9.2119140625,1.513671875c-.927734375.15234375-1.8720703125.2294921875-2.806640625.2294921875h-.0009765625Z"/>
              <path class="cls-2" d="M63.928381928835734,122.318575577070078c-8.5400390625,0-15.7431640625-6.1142578125-17.1279296875-14.537109375l-1.6611328125-10.1123046875c-.75-4.5595703125.3291015625-9.1494140625,3.037109375-12.9228515625,2.7080078125-3.7724609375,6.7109375-6.263671875,11.2705078125-7.0126953125l9.2109375-1.513671875c.927734375-.15234375,1.8720703125-.23046875,2.80859375-.23046875,8.541015625,0,15.744140625,6.1142578125,17.126953125,14.5390625l1.662109375,10.111328125c1.55078125,9.44140625-4.8671875,18.3837890625-14.3076171875,19.935546875l-9.2119140625,1.513671875c-.927734375.15234375-1.8720703125.2294921875-2.806640625.2294921875h-.0009765625Z"/>
            </g>
            <rect class="cls-1" x="50.585313203699087" y="81.586114744614008" width="34.223947014700627" height="35.136585601765432" rx="12.444473586958413" ry="12.444473586958413" transform="translate(-15.183257397515646 12.290522230570318) rotate(-9.332548314311847)"/>
          </g>
        </g>
        <path class="cls-3" d="M96.288710929362423,146.62823938411384c-5.788190316627151,2.812672008436493-19.196685238888676,8.454690063281305-37.47625642555613,8.375607483098065-17.840954486069677-.077176975846669-30.927726700709172-5.563411875751626-36.714366886022617-8.375607483098065-.039311282211202.039311282213021-19.363469535237527-131.187817867692502-19.289481736022935-131.230983993345944,12.249630845984939,3.754516954339124,31.531643767504647,8.281756469259562,55.622868622021997,8.375607483090789,24.86699511533152.096709420346087,44.728052542164733-4.569639211524191,57.1467886221144-8.375607483090789.093821729818956-.386253900103839-19.289552196534714,131.05532816856612-19.289552196534714,131.230983993345944Z"/>
      </g>
      <path class="cls-3" d="M.94519116587071,13.967634705262753C8.740012474097966,10.784312084715566,31.60361347608341,1.951132015501571,62.227014387130112,2.526870309975493c26.907918696126217.505775159945188,47.158177309322127,8.311567613291118,55.125559864380193,11.571412412220525"/>
    </g>
  </g>
</svg>