<?xml version="1.0" encoding="UTF-8"?>
<svg id="Livello_2" data-name="Livello 2" xmlns="http://www.w3.org/2000/svg" width="46.4775390625" height="58.296782601748419" viewBox="0 0 46.4775390625 58.296782601748419">
  <defs>
    <style>
      .cls-1 {
        fill: #f7c831;
      }

      .cls-2 {
        fill: #020101;
      }

      .cls-3 {
        fill: none;
        stroke: #000;
        stroke-width: 2.58848006783751px;
      }
    </style>
  </defs>
  <g id="Livello_1-2" data-name="Livello 1">
    <g>
      <path class="cls-3" d="M36.802657929193629,51.506747775396434L4.476224117882339,31.382863186854593c-3.092190622526687-1.924953664129134-3.092189477927604-6.426079396893329.000001914238965-8.351031824709935L36.802668824310786,2.907959116428174c3.276253773987264-2.039535027599413,7.517833943558799.31630244072403,7.517833058944234,4.175517635603683l-.00000922565232,40.24775668188704c-.000000884618203,3.859215065485841-4.241581879708974,6.215050610613616-7.517834728409071,4.175514341477538Z"/>
      <g>
        <path class="cls-2" d="M39.39111328125,58.296782601748419c-1.3076171875,0-2.5966796875-.3720703125-3.72802734375-1.076171875L3.3359375,37.096587289248419c-2.0888671875-1.2998046875-3.3359375-3.5458984375-3.3359375-6.005859375,0-2.4609375,1.2470703125-4.70703125,3.3359375-6.0068359375L35.66259765625,4.959868539248419c1.13134765625-.705078125,2.4208984375-1.0771484375,3.72900390625-1.0771484375,3.9072265625,0,7.0859375,3.177734375,7.0859375,7.0830078125v40.248046875c0,3.90625-3.17919921875,7.0830078125-7.08642578125,7.0830078125Z"/>
        <path class="cls-2" d="M39.39111328125,58.081075929429062c-1.3076171875,0-2.5966796875-.3720703125-3.72802734375-1.076171875L3.3359375,36.880880616929062c-2.0888671875-1.2998046875-3.3359375-3.5458984375-3.3359375-6.005859375,0-2.4609375,1.2470703125-4.70703125,3.3359375-6.0068359375L35.66259765625,4.744161866929062c1.13134765625-.705078125,2.4208984375-1.0771484375,3.72900390625-1.0771484375,3.9072265625,0,7.0859375,3.177734375,7.0859375,7.0830078125v40.248046875c0,3.90625-3.17919921875,7.0830078125-7.08642578125,7.0830078125Z"/>
        <path class="cls-2" d="M39.39111328125,57.865369257109705c-1.3076171875,0-2.5966796875-.3720703125-3.72802734375-1.076171875L3.3359375,36.665173944609705c-2.0888671875-1.2998046875-3.3359375-3.5458984375-3.3359375-6.005859375,0-2.4609375,1.2470703125-4.70703125,3.3359375-6.0068359375L35.66259765625,4.528455194609705c1.13134765625-.705078125,2.4208984375-1.0771484375,3.72900390625-1.0771484375,3.9072265625,0,7.0859375,3.177734375,7.0859375,7.0830078125v40.248046875c0,3.90625-3.17919921875,7.0830078125-7.08642578125,7.0830078125Z"/>
        <path class="cls-2" d="M39.39111328125,57.649662584790349c-1.3076171875,0-2.5966796875-.3720703125-3.72802734375-1.076171875L3.3359375,36.449467272290349c-2.0888671875-1.2998046875-3.3359375-3.5458984375-3.3359375-6.005859375,0-2.4609375,1.2470703125-4.70703125,3.3359375-6.0068359375L35.66259765625,4.312748522290349c1.13134765625-.705078125,2.4208984375-1.0771484375,3.72900390625-1.0771484375,3.9072265625,0,7.0859375,3.177734375,7.0859375,7.0830078125v40.248046875c0,3.90625-3.17919921875,7.0830078125-7.08642578125,7.0830078125Z"/>
        <path class="cls-2" d="M39.39111328125,57.433955912470992c-1.3076171875,0-2.5966796875-.3720703125-3.72802734375-1.076171875L3.3359375,36.233760599970992c-2.0888671875-1.2998046875-3.3359375-3.5458984375-3.3359375-6.005859375,0-2.4609375,1.2470703125-4.70703125,3.3359375-6.0068359375L35.66259765625,4.097041849970992c1.13134765625-.705078125,2.4208984375-1.0771484375,3.72900390625-1.0771484375,3.9072265625,0,7.0859375,3.177734375,7.0859375,7.0830078125v40.248046875c0,3.90625-3.17919921875,7.0830078125-7.08642578125,7.0830078125Z"/>
        <path class="cls-2" d="M39.39111328125,57.218249240151636c-1.3076171875,0-2.5966796875-.3720703125-3.72802734375-1.076171875L3.3359375,36.018053927651636c-2.0888671875-1.2998046875-3.3359375-3.5458984375-3.3359375-6.005859375,0-2.4609375,1.2470703125-4.70703125,3.3359375-6.0068359375L35.66259765625,3.881335177651636c1.13134765625-.705078125,2.4208984375-1.0771484375,3.72900390625-1.0771484375,3.9072265625,0,7.0859375,3.177734375,7.0859375,7.0830078125v40.248046875c0,3.90625-3.17919921875,7.0830078125-7.08642578125,7.0830078125Z"/>
        <path class="cls-2" d="M39.39111328125,57.002542567832279c-1.3076171875,0-2.5966796875-.3720703125-3.72802734375-1.076171875L3.3359375,35.802347255332279c-2.0888671875-1.2998046875-3.3359375-3.5458984375-3.3359375-6.005859375,0-2.4609375,1.2470703125-4.70703125,3.3359375-6.0068359375L35.66259765625,3.665628505332279c1.13134765625-.705078125,2.4208984375-1.0771484375,3.72900390625-1.0771484375,3.9072265625,0,7.0859375,3.177734375,7.0859375,7.0830078125v40.248046875c0,3.90625-3.17919921875,7.0830078125-7.08642578125,7.0830078125Z"/>
        <path class="cls-2" d="M39.39111328125,56.786835895512922c-1.3076171875,0-2.5966796875-.3720703125-3.72802734375-1.076171875L3.3359375,35.586640583012922c-2.0888671875-1.2998046875-3.3359375-3.5458984375-3.3359375-6.005859375,0-2.4609375,1.2470703125-4.70703125,3.3359375-6.0068359375L35.66259765625,3.449921833012922c1.13134765625-.705078125,2.4208984375-1.0771484375,3.72900390625-1.0771484375,3.9072265625,0,7.0859375,3.177734375,7.0859375,7.0830078125v40.248046875c0,3.90625-3.17919921875,7.0830078125-7.08642578125,7.0830078125Z"/>
        <path class="cls-2" d="M39.39111328125,56.571129223193566c-1.3076171875,0-2.5966796875-.3720703125-3.72802734375-1.076171875L3.3359375,35.370933910693566c-2.0888671875-1.2998046875-3.3359375-3.5458984375-3.3359375-6.005859375,0-2.4609375,1.2470703125-4.70703125,3.3359375-6.0068359375L35.66259765625,3.234215160693566c1.13134765625-.705078125,2.4208984375-1.0771484375,3.72900390625-1.0771484375,3.9072265625,0,7.0859375,3.177734375,7.0859375,7.0830078125v40.248046875c0,3.90625-3.17919921875,7.0830078125-7.08642578125,7.0830078125Z"/>
        <path class="cls-2" d="M39.39111328125,56.355422550874209c-1.3076171875,0-2.5966796875-.3720703125-3.72802734375-1.076171875L3.3359375,35.155227238374209c-2.0888671875-1.2998046875-3.3359375-3.5458984375-3.3359375-6.005859375,0-2.4609375,1.2470703125-4.70703125,3.3359375-6.0068359375L35.66259765625,3.018508488374209c1.13134765625-.705078125,2.4208984375-1.0771484375,3.72900390625-1.0771484375,3.9072265625,0,7.0859375,3.177734375,7.0859375,7.0830078125v40.248046875c0,3.90625-3.17919921875,7.0830078125-7.08642578125,7.0830078125Z"/>
        <path class="cls-2" d="M39.39111328125,56.139715878554853c-1.3076171875,0-2.5966796875-.3720703125-3.72802734375-1.076171875L3.3359375,34.939520566054853c-2.0888671875-1.2998046875-3.3359375-3.5458984375-3.3359375-6.005859375,0-2.4609375,1.2470703125-4.70703125,3.3359375-6.0068359375L35.66259765625,2.802801816054853c1.13134765625-.705078125,2.4208984375-1.0771484375,3.72900390625-1.0771484375,3.9072265625,0,7.0859375,3.177734375,7.0859375,7.0830078125v40.248046875c0,3.90625-3.17919921875,7.0830078125-7.08642578125,7.0830078125Z"/>
        <path class="cls-2" d="M39.39111328125,55.924009206235496c-1.3076171875,0-2.5966796875-.3720703125-3.72802734375-1.076171875L3.3359375,34.723813893735496c-2.0888671875-1.2998046875-3.3359375-3.5458984375-3.3359375-6.005859375,0-2.4609375,1.2470703125-4.70703125,3.3359375-6.0068359375L35.66259765625,2.587095143735496c1.13134765625-.705078125,2.4208984375-1.0771484375,3.72900390625-1.0771484375,3.9072265625,0,7.0859375,3.177734375,7.0859375,7.0830078125v40.248046875c0,3.90625-3.17919921875,7.0830078125-7.08642578125,7.0830078125Z"/>
        <path class="cls-2" d="M39.39111328125,55.70830253391614c-1.3076171875,0-2.5966796875-.3720703125-3.72802734375-1.076171875L3.3359375,34.50810722141614c-2.0888671875-1.2998046875-3.3359375-3.5458984375-3.3359375-6.005859375,0-2.4609375,1.2470703125-4.70703125,3.3359375-6.0068359375L35.66259765625,2.37138847141614c1.13134765625-.705078125,2.4208984375-1.0771484375,3.72900390625-1.0771484375,3.9072265625,0,7.0859375,3.177734375,7.0859375,7.0830078125v40.248046875c0,3.90625-3.17919921875,7.0830078125-7.08642578125,7.0830078125Z"/>
        <path class="cls-2" d="M39.39111328125,55.492595861596783c-1.3076171875,0-2.5966796875-.3720703125-3.72802734375-1.076171875L3.3359375,34.292400549096783c-2.0888671875-1.2998046875-3.3359375-3.5458984375-3.3359375-6.005859375,0-2.4609375,1.2470703125-4.70703125,3.3359375-6.0068359375L35.66259765625,2.155681799096783c1.13134765625-.705078125,2.4208984375-1.0771484375,3.72900390625-1.0771484375,3.9072265625,0,7.0859375,3.177734375,7.0859375,7.0830078125v40.248046875c0,3.90625-3.17919921875,7.0830078125-7.08642578125,7.0830078125Z"/>
        <path class="cls-2" d="M39.39111328125,55.276889189277426c-1.3076171875,0-2.5966796875-.3720703125-3.72802734375-1.076171875L3.3359375,34.076693876777426c-2.0888671875-1.2998046875-3.3359375-3.5458984375-3.3359375-6.005859375,0-2.4609375,1.2470703125-4.70703125,3.3359375-6.0068359375L35.66259765625,1.939975126777426c1.13134765625-.705078125,2.4208984375-1.0771484375,3.72900390625-1.0771484375,3.9072265625,0,7.0859375,3.177734375,7.0859375,7.0830078125v40.248046875c0,3.90625-3.17919921875,7.0830078125-7.08642578125,7.0830078125Z"/>
        <path class="cls-2" d="M39.39111328125,55.06118251695807c-1.3076171875,0-2.5966796875-.3720703125-3.72802734375-1.076171875L3.3359375,33.86098720445807c-2.0888671875-1.2998046875-3.3359375-3.5458984375-3.3359375-6.005859375,0-2.4609375,1.2470703125-4.70703125,3.3359375-6.0068359375L35.66259765625,1.72426845445807c1.13134765625-.705078125,2.4208984375-1.0771484375,3.72900390625-1.0771484375,3.9072265625,0,7.0859375,3.177734375,7.0859375,7.0830078125v40.248046875c0,3.90625-3.17919921875,7.0830078125-7.08642578125,7.0830078125Z"/>
        <path class="cls-2" d="M39.39111328125,54.845475844638713c-1.3076171875,0-2.5966796875-.3720703125-3.72802734375-1.076171875L3.3359375,33.645280532138713c-2.0888671875-1.2998046875-3.3359375-3.5458984375-3.3359375-6.005859375,0-2.4609375,1.2470703125-4.70703125,3.3359375-6.0068359375L35.66259765625,1.508561782138713c1.13134765625-.705078125,2.4208984375-1.0771484375,3.72900390625-1.0771484375,3.9072265625,0,7.0859375,3.177734375,7.0859375,7.0830078125v40.248046875c0,3.90625-3.17919921875,7.0830078125-7.08642578125,7.0830078125Z"/>
        <path class="cls-2" d="M39.39111328125,54.629769172319357c-1.3076171875,0-2.5966796875-.3720703125-3.72802734375-1.076171875L3.3359375,33.429573859819357c-2.0888671875-1.2998046875-3.3359375-3.5458984375-3.3359375-6.005859375,0-2.4609375,1.2470703125-4.70703125,3.3359375-6.0068359375L35.66259765625,1.292855109819357c1.13134765625-.705078125,2.4208984375-1.0771484375,3.72900390625-1.0771484375,3.9072265625,0,7.0859375,3.177734375,7.0859375,7.0830078125v40.248046875c0,3.90625-3.17919921875,7.0830078125-7.08642578125,7.0830078125Z"/>
        <path class="cls-2" d="M39.39111328125,54.4140625c-1.3076171875,0-2.5966796875-.3720703125-3.72802734375-1.076171875L3.3359375,33.2138671875c-2.0888671875-1.2998046875-3.3359375-3.5458984375-3.3359375-6.005859375,0-2.4609375,1.2470703125-4.70703125,3.3359375-6.0068359375L35.66259765625,1.0771484375c1.13134765625-.705078125,2.4208984375-1.0771484375,3.72900390625-1.0771484375,3.9072265625,0,7.0859375,3.177734375,7.0859375,7.0830078125v40.248046875c0,3.90625-3.17919921875,7.0830078125-7.08642578125,7.0830078125Z"/>
      </g>
      <path class="cls-1" d="M36.802657929193629,51.506747775396434L4.476224117882339,31.382863186854593c-3.092190622526687-1.924953664129134-3.092189477927604-6.426079396893329.000001914238965-8.351031824709935L36.802668824310786,2.907959116428174c3.276253773987264-2.039535027599413,7.517833943558799.31630244072403,7.517833058944234,4.175517635603683l-.00000922565232,40.24775668188704c-.000000884618203,3.859215065485841-4.241581879708974,6.215050610613616-7.517834728409071,4.175514341477538Z"/>
    </g>
  </g>
</svg>