<?xml version="1.0" encoding="UTF-8"?>
<svg id="Livello_2" data-name="Livello 2" xmlns="http://www.w3.org/2000/svg" width="179.013030629364039" height="172.535194313837565" viewBox="0 0 179.013030629364039 172.535194313837565">
  <defs>
    <style>
      .cls-1 {
        fill: #f46831;
      }

      .cls-2 {
        fill: #f7f0d0;
      }

      .cls-3 {
        fill: #020101;
      }

      .cls-4 {
        stroke-width: 2.58848006783751px;
      }

      .cls-4, .cls-5 {
        fill: none;
        stroke: #000;
      }

      .cls-5 {
        stroke-width: 7.896509750889313px;
      }
    </style>
  </defs>
  <g id="Livello_1-2" data-name="Livello 1">
    <g>
      <path class="cls-5" d="M154.768192256640759,8.463227628890309l-110.249657652100723,28.029330079072679v60.281941246787028c-2.608317587168131-.762240097363247-5.364242881976679-1.178681340486946-8.218827685955148-1.178681340486946h-.461900928564319c-16.158356297333739,0-29.257286666126674,13.098930368792935-29.257286666126674,29.257286666126674h0c0,16.158356297333739,13.098930368792935,29.257286666126674,29.257286666126674,29.257286666126674h.461900928564319c16.158247281301556,0,29.257177650094491-13.098930368792935,29.257177650094491-29.257286666126674h0c0-1.800072724205165-.171155170603924-3.558719356160509-.482286926591769-5.268526805677539V52.476924417853297l69.137531577005575-17.577745036986016v62.020528928813292c-2.755816278777274-.859918462239875-5.686385257220536-1.323890695417504-8.7254251877348-1.323890695417504h-.461900928563409c-16.158356297333739,0-29.257177650094491,13.098930368792935-29.257177650094491,29.257286666126674h0c0,16.158356297333739,13.098821352760751,29.257286666126674,29.257177650094491,29.257286666126674h.461900928563409c15.406799771130864,0,28.023007149203295-11.911527745727653,29.163968942536485-27.026382582542283h.117519282745889V8.463227628890309Z"/>
      <g>
        <path class="cls-3" d="M125.02490234375,172.535194313837565c-19.76123046875,0-35.837890625-16.076171875-35.837890625-35.8369140625,0-19.76171875,16.07666015625-35.837890625,35.837890625-35.837890625h.4619140625c.716796875,0,1.43212890625.0205078125,2.14453125.0634765625v-45.716796875l-55.97607421875,14.2314453125v61.4267578125c.31982421875,1.9443359375.48193359375,3.9033203125.48193359375,5.8330078125,0,19.7607421875-16.07666015625,35.8369140625-35.83740234375,35.8369140625h-.4619140625c-19.76123046875,0-35.837890625-16.076171875-35.837890625-35.8369140625,0-19.76171875,16.07666015625-35.837890625,35.837890625-35.837890625h.4619140625c.54638671875,0,1.0927734375.0126953125,1.63818359375.037109375v-57.677734375l123.41064453125-31.375v133.6640625h-1.1318359375c-3.9658203125,15.564453125-18.18994140625,27.0263671875-34.72998046875,27.0263671875h-.4619140625Z"/>
        <path class="cls-3" d="M125.02490234375,171.877151834596589c-19.76123046875,0-35.837890625-16.076171875-35.837890625-35.8369140625,0-19.76171875,16.07666015625-35.837890625,35.837890625-35.837890625h.4619140625c.716796875,0,1.43212890625.0205078125,2.14453125.0634765625v-45.716796875l-55.97607421875,14.2314453125v61.4267578125c.31982421875,1.9443359375.48193359375,3.9033203125.48193359375,5.8330078125,0,19.7607421875-16.07666015625,35.8369140625-35.83740234375,35.8369140625h-.4619140625c-19.76123046875,0-35.837890625-16.076171875-35.837890625-35.8369140625,0-19.76171875,16.07666015625-35.837890625,35.837890625-35.837890625h.4619140625c.54638671875,0,1.0927734375.0126953125,1.63818359375.037109375v-57.677734375l123.41064453125-31.375v133.6640625h-1.1318359375c-3.9658203125,15.564453125-18.18994140625,27.0263671875-34.72998046875,27.0263671875h-.4619140625Z"/>
        <path class="cls-3" d="M125.02490234375,171.219109355355613c-19.76123046875,0-35.837890625-16.076171875-35.837890625-35.8369140625,0-19.76171875,16.07666015625-35.837890625,35.837890625-35.837890625h.4619140625c.716796875,0,1.43212890625.0205078125,2.14453125.0634765625v-45.716796875l-55.97607421875,14.2314453125v61.4267578125c.31982421875,1.9443359375.48193359375,3.9033203125.48193359375,5.8330078125,0,19.7607421875-16.07666015625,35.8369140625-35.83740234375,35.8369140625h-.4619140625c-19.76123046875,0-35.837890625-16.076171875-35.837890625-35.8369140625,0-19.76171875,16.07666015625-35.837890625,35.837890625-35.837890625h.4619140625c.54638671875,0,1.0927734375.0126953125,1.63818359375.037109375v-57.677734375l123.41064453125-31.375v133.6640625h-1.1318359375c-3.9658203125,15.564453125-18.18994140625,27.0263671875-34.72998046875,27.0263671875h-.4619140625Z"/>
        <path class="cls-3" d="M125.02490234375,170.561066876114637c-19.76123046875,0-35.837890625-16.076171875-35.837890625-35.8369140625,0-19.76171875,16.07666015625-35.837890625,35.837890625-35.837890625h.4619140625c.716796875,0,1.43212890625.0205078125,2.14453125.0634765625v-45.716796875l-55.97607421875,14.2314453125v61.4267578125c.31982421875,1.9443359375.48193359375,3.9033203125.48193359375,5.8330078125,0,19.7607421875-16.07666015625,35.8369140625-35.83740234375,35.8369140625h-.4619140625c-19.76123046875,0-35.837890625-16.076171875-35.837890625-35.8369140625,0-19.76171875,16.07666015625-35.837890625,35.837890625-35.837890625h.4619140625c.54638671875,0,1.0927734375.0126953125,1.63818359375.037109375v-57.677734375l123.41064453125-31.375v133.6640625h-1.1318359375c-3.9658203125,15.564453125-18.18994140625,27.0263671875-34.72998046875,27.0263671875h-.4619140625Z"/>
        <path class="cls-3" d="M125.02490234375,169.903024396873661c-19.76123046875,0-35.837890625-16.076171875-35.837890625-35.8369140625,0-19.76171875,16.07666015625-35.837890625,35.837890625-35.837890625h.4619140625c.716796875,0,1.43212890625.0205078125,2.14453125.0634765625v-45.716796875l-55.97607421875,14.2314453125v61.4267578125c.31982421875,1.9443359375.48193359375,3.9033203125.48193359375,5.8330078125,0,19.7607421875-16.07666015625,35.8369140625-35.83740234375,35.8369140625h-.4619140625c-19.76123046875,0-35.837890625-16.076171875-35.837890625-35.8369140625,0-19.76171875,16.07666015625-35.837890625,35.837890625-35.837890625h.4619140625c.54638671875,0,1.0927734375.0126953125,1.63818359375.037109375v-57.677734375l123.41064453125-31.375v133.6640625h-1.1318359375c-3.9658203125,15.564453125-18.18994140625,27.0263671875-34.72998046875,27.0263671875h-.4619140625Z"/>
        <path class="cls-3" d="M125.02490234375,169.244981917632686c-19.76123046875,0-35.837890625-16.076171875-35.837890625-35.8369140625,0-19.76171875,16.07666015625-35.837890625,35.837890625-35.837890625h.4619140625c.716796875,0,1.43212890625.0205078125,2.14453125.0634765625v-45.716796875l-55.97607421875,14.2314453125v61.4267578125c.31982421875,1.9443359375.48193359375,3.9033203125.48193359375,5.8330078125,0,19.7607421875-16.07666015625,35.8369140625-35.83740234375,35.8369140625h-.4619140625c-19.76123046875,0-35.837890625-16.076171875-35.837890625-35.8369140625,0-19.76171875,16.07666015625-35.837890625,35.837890625-35.837890625h.4619140625c.54638671875,0,1.0927734375.0126953125,1.63818359375.037109375v-57.677734375l123.41064453125-31.375v133.6640625h-1.1318359375c-3.9658203125,15.564453125-18.18994140625,27.0263671875-34.72998046875,27.0263671875h-.4619140625Z"/>
        <path class="cls-3" d="M125.02490234375,168.58693943839171c-19.76123046875,0-35.837890625-16.076171875-35.837890625-35.8369140625,0-19.76171875,16.07666015625-35.837890625,35.837890625-35.837890625h.4619140625c.716796875,0,1.43212890625.0205078125,2.14453125.0634765625v-45.716796875l-55.97607421875,14.2314453125v61.4267578125c.31982421875,1.9443359375.48193359375,3.9033203125.48193359375,5.8330078125,0,19.7607421875-16.07666015625,35.8369140625-35.83740234375,35.8369140625h-.4619140625c-19.76123046875,0-35.837890625-16.076171875-35.837890625-35.8369140625,0-19.76171875,16.07666015625-35.837890625,35.837890625-35.837890625h.4619140625c.54638671875,0,1.0927734375.0126953125,1.63818359375.037109375v-57.677734375L161.3486328125,7.89650975089171v133.6640625h-1.1318359375c-3.9658203125,15.564453125-18.18994140625,27.0263671875-34.72998046875,27.0263671875h-.4619140625Z"/>
        <path class="cls-3" d="M125.02490234375,167.928896959150734c-19.76123046875,0-35.837890625-16.076171875-35.837890625-35.8369140625,0-19.76171875,16.07666015625-35.837890625,35.837890625-35.837890625h.4619140625c.716796875,0,1.43212890625.0205078125,2.14453125.0634765625v-45.716796875l-55.97607421875,14.2314453125v61.4267578125c.31982421875,1.9443359375.48193359375,3.9033203125.48193359375,5.8330078125,0,19.7607421875-16.07666015625,35.8369140625-35.83740234375,35.8369140625h-.4619140625c-19.76123046875,0-35.837890625-16.076171875-35.837890625-35.8369140625,0-19.76171875,16.07666015625-35.837890625,35.837890625-35.837890625h.4619140625c.54638671875,0,1.0927734375.0126953125,1.63818359375.037109375v-57.677734375L161.3486328125,7.238467271650734v133.6640625h-1.1318359375c-3.9658203125,15.564453125-18.18994140625,27.0263671875-34.72998046875,27.0263671875h-.4619140625Z"/>
        <path class="cls-3" d="M125.02490234375,167.270854479909758c-19.76123046875,0-35.837890625-16.076171875-35.837890625-35.8369140625,0-19.76171875,16.07666015625-35.837890625,35.837890625-35.837890625h.4619140625c.716796875,0,1.43212890625.0205078125,2.14453125.0634765625v-45.716796875l-55.97607421875,14.2314453125v61.4267578125c.31982421875,1.9443359375.48193359375,3.9033203125.48193359375,5.8330078125,0,19.7607421875-16.07666015625,35.8369140625-35.83740234375,35.8369140625h-.4619140625c-19.76123046875,0-35.837890625-16.076171875-35.837890625-35.8369140625,0-19.76171875,16.07666015625-35.837890625,35.837890625-35.837890625h.4619140625c.54638671875,0,1.0927734375.0126953125,1.63818359375.037109375v-57.677734375L161.3486328125,6.580424792409758v133.6640625h-1.1318359375c-3.9658203125,15.564453125-18.18994140625,27.0263671875-34.72998046875,27.0263671875h-.4619140625Z"/>
        <path class="cls-3" d="M125.02490234375,166.612812000668782c-19.76123046875,0-35.837890625-16.076171875-35.837890625-35.8369140625,0-19.76171875,16.07666015625-35.837890625,35.837890625-35.837890625h.4619140625c.716796875,0,1.43212890625.0205078125,2.14453125.0634765625v-45.716796875l-55.97607421875,14.2314453125v61.4267578125c.31982421875,1.9443359375.48193359375,3.9033203125.48193359375,5.8330078125,0,19.7607421875-16.07666015625,35.8369140625-35.83740234375,35.8369140625h-.4619140625c-19.76123046875,0-35.837890625-16.076171875-35.837890625-35.8369140625,0-19.76171875,16.07666015625-35.837890625,35.837890625-35.837890625h.4619140625c.54638671875,0,1.0927734375.0126953125,1.63818359375.037109375v-57.677734375L161.3486328125,5.922382313168782v133.6640625h-1.1318359375c-3.9658203125,15.564453125-18.18994140625,27.0263671875-34.72998046875,27.0263671875h-.4619140625Z"/>
        <path class="cls-3" d="M125.02490234375,165.954769521427806c-19.76123046875,0-35.837890625-16.076171875-35.837890625-35.8369140625,0-19.76171875,16.07666015625-35.837890625,35.837890625-35.837890625h.4619140625c.716796875,0,1.43212890625.0205078125,2.14453125.0634765625v-45.716796875l-55.97607421875,14.2314453125v61.4267578125c.31982421875,1.9443359375.48193359375,3.9033203125.48193359375,5.8330078125,0,19.7607421875-16.07666015625,35.8369140625-35.83740234375,35.8369140625h-.4619140625c-19.76123046875,0-35.837890625-16.076171875-35.837890625-35.8369140625,0-19.76171875,16.07666015625-35.837890625,35.837890625-35.837890625h.4619140625c.54638671875,0,1.0927734375.0126953125,1.63818359375.037109375v-57.677734375L161.3486328125,5.264339833927806v133.6640625h-1.1318359375c-3.9658203125,15.564453125-18.18994140625,27.0263671875-34.72998046875,27.0263671875h-.4619140625Z"/>
        <path class="cls-3" d="M125.02490234375,165.296727042186831c-19.76123046875,0-35.837890625-16.076171875-35.837890625-35.8369140625,0-19.76171875,16.07666015625-35.837890625,35.837890625-35.837890625h.4619140625c.716796875,0,1.43212890625.0205078125,2.14453125.0634765625v-45.716796875l-55.97607421875,14.2314453125v61.4267578125c.31982421875,1.9443359375.48193359375,3.9033203125.48193359375,5.8330078125,0,19.7607421875-16.07666015625,35.8369140625-35.83740234375,35.8369140625h-.4619140625c-19.76123046875,0-35.837890625-16.076171875-35.837890625-35.8369140625,0-19.76171875,16.07666015625-35.837890625,35.837890625-35.837890625h.4619140625c.54638671875,0,1.0927734375.0126953125,1.63818359375.037109375v-57.677734375L161.3486328125,4.606297354686831v133.6640625h-1.1318359375c-3.9658203125,15.564453125-18.18994140625,27.0263671875-34.72998046875,27.0263671875h-.4619140625Z"/>
        <path class="cls-3" d="M125.02490234375,164.638684562945855c-19.76123046875,0-35.837890625-16.076171875-35.837890625-35.8369140625,0-19.76171875,16.07666015625-35.837890625,35.837890625-35.837890625h.4619140625c.716796875,0,1.43212890625.0205078125,2.14453125.0634765625v-45.716796875l-55.97607421875,14.2314453125v61.4267578125c.31982421875,1.9443359375.48193359375,3.9033203125.48193359375,5.8330078125,0,19.7607421875-16.07666015625,35.8369140625-35.83740234375,35.8369140625h-.4619140625c-19.76123046875,0-35.837890625-16.076171875-35.837890625-35.8369140625,0-19.76171875,16.07666015625-35.837890625,35.837890625-35.837890625h.4619140625c.54638671875,0,1.0927734375.0126953125,1.63818359375.037109375v-57.677734375L161.3486328125,3.948254875445855v133.6640625h-1.1318359375c-3.9658203125,15.564453125-18.18994140625,27.0263671875-34.72998046875,27.0263671875h-.4619140625Z"/>
        <path class="cls-3" d="M125.02490234375,163.980642083704879c-19.76123046875,0-35.837890625-16.076171875-35.837890625-35.8369140625,0-19.76171875,16.07666015625-35.837890625,35.837890625-35.837890625h.4619140625c.716796875,0,1.43212890625.0205078125,2.14453125.0634765625v-45.716796875l-55.97607421875,14.2314453125v61.4267578125c.31982421875,1.9443359375.48193359375,3.9033203125.48193359375,5.8330078125,0,19.7607421875-16.07666015625,35.8369140625-35.83740234375,35.8369140625h-.4619140625c-19.76123046875,0-35.837890625-16.076171875-35.837890625-35.8369140625,0-19.76171875,16.07666015625-35.837890625,35.837890625-35.837890625h.4619140625c.54638671875,0,1.0927734375.0126953125,1.63818359375.037109375v-57.677734375L161.3486328125,3.290212396204879v133.6640625h-1.1318359375c-3.9658203125,15.564453125-18.18994140625,27.0263671875-34.72998046875,27.0263671875h-.4619140625Z"/>
        <path class="cls-3" d="M125.02490234375,163.322599604463903c-19.76123046875,0-35.837890625-16.076171875-35.837890625-35.8369140625,0-19.76171875,16.07666015625-35.837890625,35.837890625-35.837890625h.4619140625c.716796875,0,1.43212890625.0205078125,2.14453125.0634765625v-45.716796875l-55.97607421875,14.2314453125v61.4267578125c.31982421875,1.9443359375.48193359375,3.9033203125.48193359375,5.8330078125,0,19.7607421875-16.07666015625,35.8369140625-35.83740234375,35.8369140625h-.4619140625c-19.76123046875,0-35.837890625-16.076171875-35.837890625-35.8369140625,0-19.76171875,16.07666015625-35.837890625,35.837890625-35.837890625h.4619140625c.54638671875,0,1.0927734375.0126953125,1.63818359375.037109375v-57.677734375L161.3486328125,2.632169916963903v133.6640625h-1.1318359375c-3.9658203125,15.564453125-18.18994140625,27.0263671875-34.72998046875,27.0263671875h-.4619140625Z"/>
        <path class="cls-3" d="M125.02490234375,162.664557125222927c-19.76123046875,0-35.837890625-16.076171875-35.837890625-35.8369140625,0-19.76171875,16.07666015625-35.837890625,35.837890625-35.837890625h.4619140625c.716796875,0,1.43212890625.0205078125,2.14453125.0634765625v-45.716796875l-55.97607421875,14.2314453125v61.4267578125c.31982421875,1.9443359375.48193359375,3.9033203125.48193359375,5.8330078125,0,19.7607421875-16.07666015625,35.8369140625-35.83740234375,35.8369140625h-.4619140625c-19.76123046875,0-35.837890625-16.076171875-35.837890625-35.8369140625,0-19.76171875,16.07666015625-35.837890625,35.837890625-35.837890625h.4619140625c.54638671875,0,1.0927734375.0126953125,1.63818359375.037109375v-57.677734375L161.3486328125,1.974127437722927v133.6640625h-1.1318359375c-3.9658203125,15.564453125-18.18994140625,27.0263671875-34.72998046875,27.0263671875h-.4619140625Z"/>
        <path class="cls-3" d="M125.02490234375,162.006514645981952c-19.76123046875,0-35.837890625-16.076171875-35.837890625-35.8369140625,0-19.76171875,16.07666015625-35.837890625,35.837890625-35.837890625h.4619140625c.716796875,0,1.43212890625.0205078125,2.14453125.0634765625v-45.716796875l-55.97607421875,14.2314453125v61.4267578125c.31982421875,1.9443359375.48193359375,3.9033203125.48193359375,5.8330078125,0,19.7607421875-16.07666015625,35.8369140625-35.83740234375,35.8369140625h-.4619140625c-19.76123046875,0-35.837890625-16.076171875-35.837890625-35.8369140625,0-19.76171875,16.07666015625-35.837890625,35.837890625-35.837890625h.4619140625c.54638671875,0,1.0927734375.0126953125,1.63818359375.037109375v-57.677734375L161.3486328125,1.316084958481952v133.6640625h-1.1318359375c-3.9658203125,15.564453125-18.18994140625,27.0263671875-34.72998046875,27.0263671875h-.4619140625Z"/>
        <path class="cls-3" d="M125.02490234375,161.348472166740976c-19.76123046875,0-35.837890625-16.076171875-35.837890625-35.8369140625,0-19.76171875,16.07666015625-35.837890625,35.837890625-35.837890625h.4619140625c.716796875,0,1.43212890625.0205078125,2.14453125.0634765625v-45.716796875l-55.97607421875,14.2314453125v61.4267578125c.31982421875,1.9443359375.48193359375,3.9033203125.48193359375,5.8330078125,0,19.7607421875-16.07666015625,35.8369140625-35.83740234375,35.8369140625h-.4619140625c-19.76123046875,0-35.837890625-16.076171875-35.837890625-35.8369140625,0-19.76171875,16.07666015625-35.837890625,35.837890625-35.837890625h.4619140625c.54638671875,0,1.0927734375.0126953125,1.63818359375.037109375v-57.677734375L161.3486328125.658042479240976v133.6640625h-1.1318359375c-3.9658203125,15.564453125-18.18994140625,27.0263671875-34.72998046875,27.0263671875h-.4619140625Z"/>
        <path class="cls-3" d="M125.02490234375,160.6904296875c-19.76123046875,0-35.837890625-16.076171875-35.837890625-35.8369140625,0-19.76171875,16.07666015625-35.837890625,35.837890625-35.837890625h.4619140625c.716796875,0,1.43212890625.0205078125,2.14453125.0634765625v-45.716796875l-55.97607421875,14.2314453125v61.4267578125c.31982421875,1.9443359375.48193359375,3.9033203125.48193359375,5.8330078125,0,19.7607421875-16.07666015625,35.8369140625-35.83740234375,35.8369140625h-.4619140625c-19.76123046875,0-35.837890625-16.076171875-35.837890625-35.8369140625,0-19.76171875,16.07666015625-35.837890625,35.837890625-35.837890625h.4619140625c.54638671875,0,1.0927734375.0126953125,1.63818359375.037109375V31.375L161.3486328125,0v133.6640625h-1.1318359375c-3.9658203125,15.564453125-18.18994140625,27.0263671875-34.72998046875,27.0263671875h-.4619140625Z"/>
      </g>
      <path class="cls-2" d="M154.768192256640759,8.463227628890309l-110.249657652100723,28.029330079072679v60.281941246787028c-2.608317587168131-.762240097363247-5.364242881976679-1.178681340486946-8.218827685955148-1.178681340486946h-.461900928564319c-16.158356297333739,0-29.257286666126674,13.098930368792935-29.257286666126674,29.257286666126674h0c0,16.158356297333739,13.098930368792935,29.257286666126674,29.257286666126674,29.257286666126674h.461900928564319c16.158247281301556,0,29.257177650094491-13.098930368792935,29.257177650094491-29.257286666126674h0c0-1.800072724205165-.171155170603924-3.558719356160509-.482286926591769-5.268526805677539V52.476924417853297l69.137531577005575-17.577745036986016v62.020528928813292c-2.755816278777274-.859918462239875-5.686385257220536-1.323890695417504-8.7254251877348-1.323890695417504h-.461900928563409c-16.158356297333739,0-29.257177650094491,13.098930368792935-29.257177650094491,29.257286666126674h0c0,16.158356297333739,13.098821352760751,29.257286666126674,29.257177650094491,29.257286666126674h.461900928563409c15.406799771130864,0,28.023007149203295-11.911527745727653,29.163968942536485-27.026382582542283h.117519282745889V8.463227628890309Z"/>
    </g>
    <g>
      <path class="cls-4" d="M10.016638292482639,164.242943564695452L175.904610130011861,20.026013140963187l-3.520169163662104-3.740179736392747L6.27645855609444,159.072695105571256s2.200105727286427,4.510216740938631,3.7401797363882,5.170248459124196Z"/>
      <g>
        <path class="cls-3" d="M9.166350941864039,170.108303103676008c-1.9814453125-.849609375-3.87548828125-4.25390625-4.82861328125-6.2080078125l-.7294921875-1.49609375L172.542327504364039,17.189357791176008l6.470703125,6.875L10.410491566864039,170.641506228676008l-1.244140625-.533203125Z"/>
        <path class="cls-3" d="M9.166350941864039,169.892596431356651c-1.9814453125-.849609375-3.87548828125-4.25390625-4.82861328125-6.2080078125l-.7294921875-1.49609375L172.542327504364039,16.973651118856651l6.470703125,6.875L10.410491566864039,170.425799556356651l-1.244140625-.533203125Z"/>
        <path class="cls-3" d="M9.166350941864039,169.676889759037294c-1.9814453125-.849609375-3.87548828125-4.25390625-4.82861328125-6.2080078125l-.7294921875-1.49609375L172.542327504364039,16.757944446537294l6.470703125,6.875L10.410491566864039,170.210092884037294l-1.244140625-.533203125Z"/>
        <path class="cls-3" d="M9.166350941864039,169.461183086717938c-1.9814453125-.849609375-3.87548828125-4.25390625-4.82861328125-6.2080078125l-.7294921875-1.49609375L172.542327504364039,16.542237774217938l6.470703125,6.875L10.410491566864039,169.994386211717938l-1.244140625-.533203125Z"/>
        <path class="cls-3" d="M9.166350941864039,169.245476414398581c-1.9814453125-.849609375-3.87548828125-4.25390625-4.82861328125-6.2080078125l-.7294921875-1.49609375L172.542327504364039,16.326531101898581l6.470703125,6.875L10.410491566864039,169.778679539398581l-1.244140625-.533203125Z"/>
        <path class="cls-3" d="M9.166350941864039,169.029769742079225c-1.9814453125-.849609375-3.87548828125-4.25390625-4.82861328125-6.2080078125l-.7294921875-1.49609375L172.542327504364039,16.110824429579225l6.470703125,6.875L10.410491566864039,169.562972867079225l-1.244140625-.533203125Z"/>
        <path class="cls-3" d="M9.166350941864039,168.814063069759868c-1.9814453125-.849609375-3.87548828125-4.25390625-4.82861328125-6.2080078125l-.7294921875-1.49609375L172.542327504364039,15.895117757259868l6.470703125,6.875L10.410491566864039,169.347266194759868l-1.244140625-.533203125Z"/>
        <path class="cls-3" d="M9.166350941864039,168.598356397440512c-1.9814453125-.849609375-3.87548828125-4.25390625-4.82861328125-6.2080078125l-.7294921875-1.49609375L172.542327504364039,15.679411084940512l6.470703125,6.875L10.410491566864039,169.131559522440512l-1.244140625-.533203125Z"/>
        <path class="cls-3" d="M9.166350941864039,168.382649725121155c-1.9814453125-.849609375-3.87548828125-4.25390625-4.82861328125-6.2080078125l-.7294921875-1.49609375L172.542327504364039,15.463704412621155l6.470703125,6.875L10.410491566864039,168.915852850121155l-1.244140625-.533203125Z"/>
        <path class="cls-3" d="M9.166350941864039,168.166943052801798c-1.9814453125-.849609375-3.87548828125-4.25390625-4.82861328125-6.2080078125l-.7294921875-1.49609375L172.542327504364039,15.247997740301798l6.470703125,6.875L10.410491566864039,168.700146177801798l-1.244140625-.533203125Z"/>
        <path class="cls-3" d="M9.166350941864039,167.951236380482442c-1.9814453125-.849609375-3.87548828125-4.25390625-4.82861328125-6.2080078125l-.7294921875-1.49609375L172.542327504364039,15.032291067982442l6.470703125,6.875L10.410491566864039,168.484439505482442l-1.244140625-.533203125Z"/>
        <path class="cls-3" d="M9.166350941864039,167.735529708163085c-1.9814453125-.849609375-3.87548828125-4.25390625-4.82861328125-6.2080078125l-.7294921875-1.49609375L172.542327504364039,14.816584395663085l6.470703125,6.875L10.410491566864039,168.268732833163085l-1.244140625-.533203125Z"/>
        <path class="cls-3" d="M9.166350941864039,167.519823035843729c-1.9814453125-.849609375-3.87548828125-4.25390625-4.82861328125-6.2080078125l-.7294921875-1.49609375L172.542327504364039,14.600877723343729l6.470703125,6.875L10.410491566864039,168.053026160843729l-1.244140625-.533203125Z"/>
        <path class="cls-3" d="M9.166350941864039,167.304116363524372c-1.9814453125-.849609375-3.87548828125-4.25390625-4.82861328125-6.2080078125l-.7294921875-1.49609375L172.542327504364039,14.385171051024372l6.470703125,6.875L10.410491566864039,167.837319488524372l-1.244140625-.533203125Z"/>
        <path class="cls-3" d="M9.166350941864039,167.088409691205015c-1.9814453125-.849609375-3.87548828125-4.25390625-4.82861328125-6.2080078125l-.7294921875-1.49609375L172.542327504364039,14.169464378705015l6.470703125,6.875L10.410491566864039,167.621612816205015l-1.244140625-.533203125Z"/>
        <path class="cls-3" d="M9.166350941864039,166.872703018885659c-1.9814453125-.849609375-3.87548828125-4.25390625-4.82861328125-6.2080078125l-.7294921875-1.49609375L172.542327504364039,13.953757706385659l6.470703125,6.875L10.410491566864039,167.405906143885659l-1.244140625-.533203125Z"/>
        <path class="cls-3" d="M9.166350941864039,166.656996346566302c-1.9814453125-.849609375-3.87548828125-4.25390625-4.82861328125-6.2080078125l-.7294921875-1.49609375L172.542327504364039,13.738051034066302l6.470703125,6.875L10.410491566864039,167.190199471566302l-1.244140625-.533203125Z"/>
        <path class="cls-3" d="M9.166350941864039,166.441289674246946c-1.9814453125-.849609375-3.87548828125-4.25390625-4.82861328125-6.2080078125l-.7294921875-1.49609375L172.542327504364039,13.522344361746946l6.470703125,6.875L10.410491566864039,166.974492799246946l-1.244140625-.533203125Z"/>
        <path class="cls-3" d="M9.166350941864039,166.225583001927589c-1.9814453125-.849609375-3.87548828125-4.25390625-4.82861328125-6.2080078125l-.7294921875-1.49609375L172.542327504364039,13.306637689427589l6.470703125,6.875L10.410491566864039,166.758786126927589l-1.244140625-.533203125Z"/>
      </g>
      <path class="cls-1" d="M10.016638292482639,164.242943564695452L175.904610130011861,20.026013140963187l-3.520169163662104-3.740179736392747L6.27645855609444,159.072695105571256s2.200105727286427,4.510216740938631,3.7401797363882,5.170248459124196Z"/>
    </g>
  </g>
</svg>