<?xml version="1.0" encoding="UTF-8"?>
<svg id="Livello_2" data-name="Livello 2" xmlns="http://www.w3.org/2000/svg" width="233.142686538483758" height="245.429449732535431" viewBox="0 0 233.142686538483758 245.429449732535431">
  <defs>
    <style>
      .cls-1 {
        stroke-width: 5.721561371438058px;
      }

      .cls-1, .cls-2 {
        fill: #ffe69f;
        stroke: #020101;
        stroke-miterlimit: 10;
      }

      .cls-2 {
        stroke-width: 6.746750570052128px;
      }

      .cls-3 {
        fill: #242b7f;
      }

      .cls-4 {
        fill: #020101;
      }

      .cls-5 {
        fill: none;
        stroke: #000;
        stroke-width: 8.189945655015443px;
      }
    </style>
  </defs>
  <g id="Livello_1-2" data-name="Livello 1">
    <g>
      <g>
        <path class="cls-5" d="M116.663723426004253,226.31902166252803c-2.50062296584656,0-5.037698161522712-.087485351567011-7.540751276052106-.257595757404488C48.750789117194472,221.954474678410406,2.97407890553859,169.494855665861905,7.083460280905456,109.122672633098773,10.986279020632537,51.759013635057272,59.040038521879069,6.82556500661849,116.479032128228027,6.82556500661849c2.500622965877483,0,5.037698161553635.087485351574287,7.540751276053925.257595757433592,60.372183032755856,4.106951226709498,106.148893244411738,56.566570239232533,102.039511869044873,116.938753272021131-3.902818739697977,57.363658998045139-51.956578240973613,102.297107626454817-109.395571847322572,102.297107626454817Z"/>
        <g>
          <path class="cls-4" d="M116.663628425491879,245.429449732535431c-2.63720703125,0-5.32958984375-.091796875-8.0029296875-.2734375-31.0185546875-2.1103515625-59.38671875-16.20703125-79.88037109375-39.6923828125S-1.836859855758121,151.961676295035431.274468269241879,120.944098170035431C4.419976081741879,60.014410670035431,55.462944831741879,12.284918482535431,116.479058112991879,12.284918482535431c2.63720703125,0,5.32958984375.091796875,8.0029296875.2734375,31.0185546875,2.1103515625,59.38720703125,16.20703125,79.88037109375,39.6923828125,20.49365234375,23.4853515625,30.6171875,53.501953125,28.505859375,84.51953125-4.1455078125,60.9296875-55.1884765625,108.6591796875-116.20458984375,108.6591796875Z"/>
          <path class="cls-4" d="M116.663628425491879,244.746954261283463c-2.63720703125,0-5.32958984375-.091796875-8.0029296875-.2734375-31.0185546875-2.1103515625-59.38671875-16.20703125-79.88037109375-39.6923828125S-1.836859855758121,151.279180823783463.274468269241879,120.261602698783463C4.419976081741879,59.331915198783463,55.462944831741879,11.602423011283463,116.479058112991879,11.602423011283463c2.63720703125,0,5.32958984375.091796875,8.0029296875.2734375,31.0185546875,2.1103515625,59.38720703125,16.20703125,79.88037109375,39.6923828125,20.49365234375,23.4853515625,30.6171875,53.501953125,28.505859375,84.51953125-4.1455078125,60.9296875-55.1884765625,108.6591796875-116.20458984375,108.6591796875Z"/>
          <path class="cls-4" d="M116.663628425491879,244.064458790031495c-2.63720703125,0-5.32958984375-.091796875-8.0029296875-.2734375-31.0185546875-2.1103515625-59.38671875-16.20703125-79.88037109375-39.6923828125S-1.836859855758121,150.596685352531495.274468269241879,119.579107227531495C4.419976081741879,58.649419727531495,55.462944831741879,10.919927540031495,116.479058112991879,10.919927540031495c2.63720703125,0,5.32958984375.091796875,8.0029296875.2734375,31.0185546875,2.1103515625,59.38720703125,16.20703125,79.88037109375,39.6923828125,20.49365234375,23.4853515625,30.6171875,53.501953125,28.505859375,84.51953125-4.1455078125,60.9296875-55.1884765625,108.6591796875-116.20458984375,108.6591796875Z"/>
          <path class="cls-4" d="M116.663628425491879,243.381963318779526c-2.63720703125,0-5.32958984375-.091796875-8.0029296875-.2734375-31.0185546875-2.1103515625-59.38671875-16.20703125-79.88037109375-39.6923828125S-1.836859855758121,149.914189881279526.274468269241879,118.896611756279526C4.419976081741879,57.966924256279526,55.462944831741879,10.237432068779526,116.479058112991879,10.237432068779526c2.63720703125,0,5.32958984375.091796875,8.0029296875.2734375,31.0185546875,2.1103515625,59.38720703125,16.20703125,79.88037109375,39.6923828125,20.49365234375,23.4853515625,30.6171875,53.501953125,28.505859375,84.51953125-4.1455078125,60.9296875-55.1884765625,108.6591796875-116.20458984375,108.6591796875Z"/>
          <path class="cls-4" d="M116.663628425491879,242.699467847527558c-2.63720703125,0-5.32958984375-.091796875-8.0029296875-.2734375-31.0185546875-2.1103515625-59.38671875-16.20703125-79.88037109375-39.6923828125S-1.836859855758121,149.231694410027558.274468269241879,118.214116285027558C4.419976081741879,57.284428785027558,55.462944831741879,9.554936597527558,116.479058112991879,9.554936597527558c2.63720703125,0,5.32958984375.091796875,8.0029296875.2734375,31.0185546875,2.1103515625,59.38720703125,16.20703125,79.88037109375,39.6923828125,20.49365234375,23.4853515625,30.6171875,53.501953125,28.505859375,84.51953125-4.1455078125,60.9296875-55.1884765625,108.6591796875-116.20458984375,108.6591796875Z"/>
          <path class="cls-4" d="M116.663628425491879,242.016972376275589c-2.63720703125,0-5.32958984375-.091796875-8.0029296875-.2734375-31.0185546875-2.1103515625-59.38671875-16.20703125-79.88037109375-39.6923828125S-1.836859855758121,148.549198938775589.274468269241879,117.531620813775589C4.419976081741879,56.601933313775589,55.462944831741879,8.872441126275589,116.479058112991879,8.872441126275589c2.63720703125,0,5.32958984375.091796875,8.0029296875.2734375,31.0185546875,2.1103515625,59.38720703125,16.20703125,79.88037109375,39.6923828125,20.49365234375,23.4853515625,30.6171875,53.501953125,28.505859375,84.51953125-4.1455078125,60.9296875-55.1884765625,108.6591796875-116.20458984375,108.6591796875Z"/>
          <path class="cls-4" d="M116.663628425491879,241.334476905023621c-2.63720703125,0-5.32958984375-.091796875-8.0029296875-.2734375-31.0185546875-2.1103515625-59.38671875-16.20703125-79.88037109375-39.6923828125S-1.836859855758121,147.866703467523621.274468269241879,116.849125342523621C4.419976081741879,55.919437842523621,55.462944831741879,8.189945655023621,116.479058112991879,8.189945655023621c2.63720703125,0,5.32958984375.091796875,8.0029296875.2734375,31.0185546875,2.1103515625,59.38720703125,16.20703125,79.88037109375,39.6923828125,20.49365234375,23.4853515625,30.6171875,53.501953125,28.505859375,84.51953125-4.1455078125,60.9296875-55.1884765625,108.6591796875-116.20458984375,108.6591796875Z"/>
          <path class="cls-4" d="M116.663628425491879,240.651981433771653c-2.63720703125,0-5.32958984375-.091796875-8.0029296875-.2734375-31.0185546875-2.1103515625-59.38671875-16.20703125-79.88037109375-39.6923828125S-1.836859855758121,147.184207996271653.274468269241879,116.166629871271653C4.419976081741879,55.236942371271653,55.462944831741879,7.507450183771653,116.479058112991879,7.507450183771653c2.63720703125,0,5.32958984375.091796875,8.0029296875.2734375,31.0185546875,2.1103515625,59.38720703125,16.20703125,79.88037109375,39.6923828125,20.49365234375,23.4853515625,30.6171875,53.501953125,28.505859375,84.51953125-4.1455078125,60.9296875-55.1884765625,108.6591796875-116.20458984375,108.6591796875Z"/>
          <path class="cls-4" d="M116.663628425491879,239.969485962519684c-2.63720703125,0-5.32958984375-.091796875-8.0029296875-.2734375-31.0185546875-2.1103515625-59.38671875-16.20703125-79.88037109375-39.6923828125S-1.836859855758121,146.501712525019684.274468269241879,115.484134400019684C4.419976081741879,54.554446900019684,55.462944831741879,6.824954712519684,116.479058112991879,6.824954712519684c2.63720703125,0,5.32958984375.091796875,8.0029296875.2734375,31.0185546875,2.1103515625,59.38720703125,16.20703125,79.88037109375,39.6923828125,20.49365234375,23.4853515625,30.6171875,53.501953125,28.505859375,84.51953125-4.1455078125,60.9296875-55.1884765625,108.6591796875-116.20458984375,108.6591796875Z"/>
          <path class="cls-4" d="M116.663628425491879,239.286990491267716c-2.63720703125,0-5.32958984375-.091796875-8.0029296875-.2734375-31.0185546875-2.1103515625-59.38671875-16.20703125-79.88037109375-39.6923828125S-1.836859855758121,145.819217053767716.274468269241879,114.801638928767716C4.419976081741879,53.871951428767716,55.462944831741879,6.142459241267716,116.479058112991879,6.142459241267716c2.63720703125,0,5.32958984375.091796875,8.0029296875.2734375,31.0185546875,2.1103515625,59.38720703125,16.20703125,79.88037109375,39.6923828125,20.49365234375,23.4853515625,30.6171875,53.501953125,28.505859375,84.51953125-4.1455078125,60.9296875-55.1884765625,108.6591796875-116.20458984375,108.6591796875Z"/>
          <path class="cls-4" d="M116.663628425491879,238.604495020015747c-2.63720703125,0-5.32958984375-.091796875-8.0029296875-.2734375-31.0185546875-2.1103515625-59.38671875-16.20703125-79.88037109375-39.6923828125S-1.836859855758121,145.136721582515747.274468269241879,114.119143457515747C4.419976081741879,53.189455957515747,55.462944831741879,5.459963770015747,116.479058112991879,5.459963770015747c2.63720703125,0,5.32958984375.091796875,8.0029296875.2734375,31.0185546875,2.1103515625,59.38720703125,16.20703125,79.88037109375,39.6923828125,20.49365234375,23.4853515625,30.6171875,53.501953125,28.505859375,84.51953125-4.1455078125,60.9296875-55.1884765625,108.6591796875-116.20458984375,108.6591796875Z"/>
          <path class="cls-4" d="M116.663628425491879,237.921999548763779c-2.63720703125,0-5.32958984375-.091796875-8.0029296875-.2734375-31.0185546875-2.1103515625-59.38671875-16.20703125-79.88037109375-39.6923828125S-1.836859855758121,144.454226111263779.274468269241879,113.436647986263779C4.419976081741879,52.506960486263779,55.462944831741879,4.777468298763779,116.479058112991879,4.777468298763779c2.63720703125,0,5.32958984375.091796875,8.0029296875.2734375,31.0185546875,2.1103515625,59.38720703125,16.20703125,79.88037109375,39.6923828125,20.49365234375,23.4853515625,30.6171875,53.501953125,28.505859375,84.51953125-4.1455078125,60.9296875-55.1884765625,108.6591796875-116.20458984375,108.6591796875Z"/>
          <path class="cls-4" d="M116.663628425491879,237.23950407751181c-2.63720703125,0-5.32958984375-.091796875-8.0029296875-.2734375-31.0185546875-2.1103515625-59.38671875-16.20703125-79.88037109375-39.6923828125S-1.836859855758121,143.77173064001181.274468269241879,112.75415251501181C4.419976081741879,51.82446501501181,55.462944831741879,4.09497282751181,116.479058112991879,4.09497282751181c2.63720703125,0,5.32958984375.091796875,8.0029296875.2734375,31.0185546875,2.1103515625,59.38720703125,16.20703125,79.88037109375,39.6923828125,20.49365234375,23.4853515625,30.6171875,53.501953125,28.505859375,84.51953125-4.1455078125,60.9296875-55.1884765625,108.6591796875-116.20458984375,108.6591796875Z"/>
          <path class="cls-4" d="M116.663628425491879,236.557008606259842c-2.63720703125,0-5.32958984375-.091796875-8.0029296875-.2734375-31.0185546875-2.1103515625-59.38671875-16.20703125-79.88037109375-39.6923828125S-1.836859855758121,143.089235168759842.274468269241879,112.071657043759842C4.419976081741879,51.141969543759842,55.462944831741879,3.412477356259842,116.479058112991879,3.412477356259842c2.63720703125,0,5.32958984375.091796875,8.0029296875.2734375,31.0185546875,2.1103515625,59.38720703125,16.20703125,79.88037109375,39.6923828125,20.49365234375,23.4853515625,30.6171875,53.501953125,28.505859375,84.51953125-4.1455078125,60.9296875-55.1884765625,108.6591796875-116.20458984375,108.6591796875Z"/>
          <path class="cls-4" d="M116.663628425491879,235.874513135007874c-2.63720703125,0-5.32958984375-.091796875-8.0029296875-.2734375-31.0185546875-2.1103515625-59.38671875-16.20703125-79.88037109375-39.6923828125S-1.836859855758121,142.406739697507874.274468269241879,111.389161572507874C4.419976081741879,50.459474072507874,55.462944831741879,2.729981885007874,116.479058112991879,2.729981885007874c2.63720703125,0,5.32958984375.091796875,8.0029296875.2734375,31.0185546875,2.1103515625,59.38720703125,16.20703125,79.88037109375,39.6923828125,20.49365234375,23.4853515625,30.6171875,53.501953125,28.505859375,84.51953125-4.1455078125,60.9296875-55.1884765625,108.6591796875-116.20458984375,108.6591796875Z"/>
          <path class="cls-4" d="M116.663628425491879,235.192017663755905c-2.63720703125,0-5.32958984375-.091796875-8.0029296875-.2734375-31.0185546875-2.1103515625-59.38671875-16.20703125-79.88037109375-39.6923828125S-1.836859855758121,141.724244226255905.274468269241879,110.706666101255905C4.419976081741879,49.776978601255905,55.462944831741879,2.047486413755905,116.479058112991879,2.047486413755905c2.63720703125,0,5.32958984375.091796875,8.0029296875.2734375,31.0185546875,2.1103515625,59.38720703125,16.20703125,79.88037109375,39.6923828125,20.49365234375,23.4853515625,30.6171875,53.501953125,28.505859375,84.51953125-4.1455078125,60.9296875-55.1884765625,108.6591796875-116.20458984375,108.6591796875Z"/>
          <path class="cls-4" d="M116.663628425491879,234.509522192503937c-2.63720703125,0-5.32958984375-.091796875-8.0029296875-.2734375-31.0185546875-2.1103515625-59.38671875-16.20703125-79.88037109375-39.6923828125S-1.836859855758121,141.041748755003937.274468269241879,110.024170630003937C4.419976081741879,49.094483130003937,55.462944831741879,1.364990942503937,116.479058112991879,1.364990942503937c2.63720703125,0,5.32958984375.091796875,8.0029296875.2734375,31.0185546875,2.1103515625,59.38720703125,16.20703125,79.88037109375,39.6923828125,20.49365234375,23.4853515625,30.6171875,53.501953125,28.505859375,84.51953125-4.1455078125,60.9296875-55.1884765625,108.6591796875-116.20458984375,108.6591796875Z"/>
          <path class="cls-4" d="M116.663628425491879,233.827026721251968c-2.63720703125,0-5.32958984375-.091796875-8.0029296875-.2734375-31.0185546875-2.1103515625-59.38671875-16.20703125-79.88037109375-39.6923828125S-1.836859855758121,140.359253283751968.274468269241879,109.341675158751968C4.419976081741879,48.411987658751968,55.462944831741879.682495471251968,116.479058112991879.682495471251968c2.63720703125,0,5.32958984375.091796875,8.0029296875.2734375,31.0185546875,2.1103515625,59.38720703125,16.20703125,79.88037109375,39.6923828125,20.49365234375,23.4853515625,30.6171875,53.501953125,28.505859375,84.51953125-4.1455078125,60.9296875-55.1884765625,108.6591796875-116.20458984375,108.6591796875Z"/>
          <path class="cls-4" d="M116.663628425491879,233.14453125c-2.63720703125,0-5.32958984375-.091796875-8.0029296875-.2734375-31.0185546875-2.1103515625-59.38671875-16.20703125-79.88037109375-39.6923828125S-1.836859855758121,139.6767578125.274468269241879,108.6591796875C4.419976081741879,47.7294921875,55.462944831741879,0,116.479058112991879,0c2.63720703125,0,5.32958984375.091796875,8.0029296875.2734375,31.0185546875,2.1103515625,59.38720703125,16.20703125,79.88037109375,39.6923828125,20.49365234375,23.4853515625,30.6171875,53.501953125,28.505859375,84.51953125-4.1455078125,60.9296875-55.1884765625,108.6591796875-116.20458984375,108.6591796875Z"/>
        </g>
        <path class="cls-3" d="M116.663723426004253,226.31902166252803c-2.50062296584656,0-5.037698161522712-.087485351567011-7.540751276052106-.257595757404488C48.750789117194472,221.954474678410406,2.97407890553859,169.494855665861905,7.083460280905456,109.122672633098773,10.986279020632537,51.759013635057272,59.040038521879069,6.82556500661849,116.479032128228027,6.82556500661849c2.500622965877483,0,5.037698161553635.087485351574287,7.540751276053925.257595757433592,60.372183032755856,4.106951226709498,106.148893244411738,56.566570239232533,102.039511869044873,116.938753272021131-3.902818739697977,57.363658998045139-51.956578240973613,102.297107626454817-109.395571847322572,102.297107626454817Z"/>
      </g>
      <g>
        <path class="cls-2" d="M148.71988208365201,162.887951742652149c-49.499697950912378-3.368186035651888-86.896648063426255-46.225680175644811-83.528462027796195-95.725378126560827.868170606940112-12.759495512378635,4.376697727400824-24.703676151024411,9.930194940938236-35.363523225565586-26.839169281478462,13.989150731718837-45.972337178367525,41.204385517528863-48.177089545517447,73.610417830142978-3.36818603563006,49.499697950886912,34.028764076912921,92.357192090905301,83.528462027796195,95.725378126538999,36.740202438568303,2.500015428689949,69.804805036645121-17.469123605493223,85.795183185628048-48.164938802230608-14.156527220306089,7.379146390503593-30.455230479901729,11.081477866187925-47.548288581048837,9.918044197675044Z"/>
        <path class="cls-1" d="M150.823127176213347,46.479907111997818l7.703897313835114,23.710157935525785c.189436640512213.583026029875327.732747364236275.977764376591949,1.345777210413871.977764376591949l24.930335399849355-.000000000211003c1.370776408250094-.000000000029104,1.940717467099603,1.754098213928955.831736057332819,2.559820370894158l-20.169065014079024,14.653683482578344c-.495951563600102.360329902778176-.703477793611455.99902996441233-.514041153099242,1.582055994309485l7.703897314235292,23.710157935369352c.42359320563628,1.303685835457145-1.068531857979906,2.387778151267412-2.177513267748509,1.582055994309485l-20.169065013820727-14.653683482894849c-.49595156362011-.360329902803642-1.167520551047346-.360329902803642-1.663472114647448,0l-20.169065013840736,14.653683482894849c-1.108981409768603.805722156987031-2.601106473384789-.27837015885234-2.177513267748509-1.582055994309485l7.703897314235292-23.710157935369352c.189436640539498-.583026029897155-.018089589480951-1.221726091531309-.514041153099242-1.582055994331313l-20.16906501404992-14.653683482556517c-1.108981409777698-.805722156965203-.539040350946379-2.559820370923262.831736057303715-2.559820370894158l24.930335399849355.000000000211003c.613029846166683,0,1.156340569901658-.394738346716622,1.345777210432061-.977764376613777l7.703897313816924-23.710157935503958c.423593205649013-1.303685835457145,2.267961215209652-1.303685835457145,2.691554420829561,0Z"/>
      </g>
    </g>
  </g>
</svg>