<?xml version="1.0" encoding="UTF-8"?>
<svg id="Livello_2" data-name="Livello 2" xmlns="http://www.w3.org/2000/svg" width="325.205078125" height="195.822756555084197" xmlns:xlink="http://www.w3.org/1999/xlink" viewBox="0 0 325.205078125 195.822756555084197">
  <defs>
    <style>
      .cls-1, .cls-2, .cls-3, .cls-4, .cls-5, .cls-6, .cls-7 {
        fill: none;
      }

      .cls-2, .cls-3, .cls-8 {
        stroke-linecap: round;
      }

      .cls-2, .cls-3, .cls-8, .cls-4, .cls-5, .cls-6, .cls-9, .cls-7 {
        stroke: #000;
      }

      .cls-2, .cls-3, .cls-8, .cls-4, .cls-5, .cls-9 {
        stroke-miterlimit: 10;
      }

      .cls-2, .cls-8, .cls-4 {
        stroke-width: .802812163582362px;
      }

      .cls-3, .cls-5 {
        stroke-width: 2.037042517193046px;
      }

      .cls-10 {
        fill: #f7f0d0;
      }

      .cls-11 {
        fill: #020101;
      }

      .cls-12 {
        clip-path: url(#clippath-1);
      }

      .cls-13, .cls-9 {
        fill: #408cf4;
      }

      .cls-14 {
        fill: #fff;
      }

      .cls-8, .cls-15 {
        fill: #ff5e34;
      }

      .cls-6 {
        stroke-width: 3.197716464610698px;
      }

      .cls-9 {
        stroke-width: 1.819450647000939px;
      }

      .cls-16 {
        clip-path: url(#clippath);
      }

      .cls-7 {
        stroke-width: 6.011618360505151px;
      }
    </style>
    <clipPath id="clippath">
      <path class="cls-10" d="M205.384839846163231,55.350555153239839c0,1.066697648648187-.037318868173315,2.14894482571799-.109883334069309,3.216679109596953-1.751913533749757,25.753128946143988-24.129758180548379,45.280226718499762-49.882887126692367,43.527276549513772-24.469774535029501-1.664836174673837-43.637159883583081-22.163261154788415-43.637159883583081-46.66517138186282,0-1.066697648648187.037318868171496-2.148944825708895.109883334069309-3.216679109593315,1.751913533749757-25.753128946145807,24.129758180548379-45.280226718501581,49.882887126690548-43.527276549513772,24.469774535029501,1.664836174673837,43.6371598835849,22.163261154788415,43.6371598835849,46.665171381859182Z"/>
    </clipPath>
    <clipPath id="clippath-1">
      <path class="cls-15" d="M187.504266153311619,79.791333542360007c3.896561827830737-5.117068841766013,1.939258923426678-11.49531263015524,1.939258923426678-11.49531263015524l-.018099161363352.004524790336291c-.031673532383138-.253139947390082-.081335865383153-.501782694624126-.140158139813138-.750397851679736-.61023971186296-2.472632379878632-2.251138374678703-4.344074628572343-4.081912690675381-6.025641224072388-.162706162085669-.149211705966081-.330049437623529-.298423411941258-.49728137015336-.447634834215933-.520627915768273-.464526305529944-.631084340260713-1.233212967183135-.26645246705084-1.828092545121763,1.170031934037979-1.908851513657282,3.245186359174113-6.095391118593398,3.430821840986027-6.602297530971555,1.012559789571242-2.811688163365034,1.545933246030472-5.790600438029287,1.631793901757192-8.77856229336976.049772693735576-1.699665756859758-.348077773989644-5.270773762418685-1.030603770566813-6.346625436377508l.00446960996851-.004524790343567c-.00446960996851-.009021990503243-.013519190652005-.013546780835895-.022568771331862-.02259636151939-.058767094058567-.090413036252357-.122003798082005-.162726911134087-.185350862844643-.212444424512796-9.262245826645085-10.378793023492108-22.515963717531122-16.625955842944677-37.541688830358908-16.580735529725644-27.818411012318393.085860655732176-50.497129231182043,23.040342773681914-50.257563654808109,50.858726195825511.03164594219561,3.973428083243562.524379056141697,7.838343968878689,1.428454238293853,11.545057733712383,2.477157170211285,10.627408180553175,8.141201429643843,23.854004919581712,14.817777888460114,32.48793946317528l21.869580863314695.018071571177643,6.292383132653413.004524790341748,1.961827694753083-.009049580681676c.018099161356076-.424916439218578-.013546780837714-1.075851673969737-.334503402964401-1.740333689562249-.718751909484126-1.469122170981791-2.210470441987127-1.636373872461263-2.517852693094028-2.87495245757782-.162726911145-.655460025092907.162726911137725-1.184336281388823.307382251106901-1.672544605004077.185350862842824-.614764502206526.334503402964401-1.238578585107462.447512800727054-1.866917458348325l.330006202810182.067816674738424c4.095459471513095.289283089747187,8.209018104385905.36614934516183,12.308974776055038.235040786032187l-.587615760177869.113009397762653c1.591181149438853,2.811688163375948,3.295316516265302,5.428975883223757,5.071848528539704,7.725334571121493l12.86949697455384.013546780837714.131108559127824.235068376217896c.004524790341748-.063291884398495.013574371025243-.144655339969177.013574371025243-.235068376217896l6.29232795228927.009049580681676,1.202211474304931-.005532837991268c.452989970388444-.002084758103592.789895547826745-.412325167102608.711119855110155-.858417814113636-.049201205776626-.278617621321246-.136678870636388-.580599631712175-.286007037626405-.885432618139021-.714199528956669-1.469122170981791-2.210470441987127-1.636373872461263-2.513300312573847-2.87495245757782-.162782091505505-.655460025092907.162726911148638-1.184336281388823.307354660930287-1.672544605004077.592195730878302-1.988976436798112.831788897441584-4.086409890822324.70068033831194-6.156749783196574l-.528903846494359.099435026750143c.483655943076883-.284785889582054.958317485856242-.592168140694412,1.419404657619452-.926671543660632,3.36313319099645-2.431964447181599,5.826771170559368-6.08443590830575,6.821286979145953-10.116603495425807.989935837871599-4.027642796769214.506224714412383-8.407888157868001-1.347118372908881-12.123651503381552l-.153677330465143-.302857460763335Z"/>
    </clipPath>
  </defs>
  <g id="Livello_1-2" data-name="Livello 1">
    <g>
      <g>
        <path class="cls-7" d="M306.672837138197792,183.157691373040507H18.532761980608484l-13.522792441766796-13.522792441766796v-91.904664907870028l13.522792441766796-13.522792441770434h288.14007515758567c5.280978940823843,5.280978940822024,8.241813500950229,8.241813500950229,13.522792441770434,13.522792441770434v91.904664907870028c-5.280978940820205,5.280978940820205-8.241813500946591,8.24181350094841-13.522792441766796,13.522792441766796Z"/>
        <g>
          <polygon class="cls-11" points="16.4580078125 195.822756555084197 0 179.365725305084197 0 83.311037805084197 16.45751953125 66.853029992584197 308.748046875 66.853029992584197 325.205078125 83.311037805084197 325.205078125 179.365725305084197 308.748046875 195.822756555084197 16.4580078125 195.822756555084197"/>
          <polygon class="cls-11" points="16.4580078125 194.729075931143598 0 178.272044681143598 0 82.217357181143598 16.45751953125 65.759349368643598 308.748046875 65.759349368643598 325.205078125 82.217357181143598 325.205078125 178.272044681143598 308.748046875 194.729075931143598 16.4580078125 194.729075931143598"/>
          <polygon class="cls-11" points="16.4580078125 193.635395307202998 0 177.178364057202998 0 81.123676557202998 16.45751953125 64.665668744702998 308.748046875 64.665668744702998 325.205078125 81.123676557202998 325.205078125 177.178364057202998 308.748046875 193.635395307202998 16.4580078125 193.635395307202998"/>
          <polygon class="cls-11" points="16.4580078125 192.541714683262398 0 176.084683433262398 0 80.029995933262398 16.45751953125 63.571988120762398 308.748046875 63.571988120762398 325.205078125 80.029995933262398 325.205078125 176.084683433262398 308.748046875 192.541714683262398 16.4580078125 192.541714683262398"/>
          <polygon class="cls-11" points="16.4580078125 191.448034059321799 0 174.991002809321799 0 78.936315309321799 16.45751953125 62.478307496821799 308.748046875 62.478307496821799 325.205078125 78.936315309321799 325.205078125 174.991002809321799 308.748046875 191.448034059321799 16.4580078125 191.448034059321799"/>
          <polygon class="cls-11" points="16.4580078125 190.354353435381199 0 173.897322185381199 0 77.842634685381199 16.45751953125 61.384626872881199 308.748046875 61.384626872881199 325.205078125 77.842634685381199 325.205078125 173.897322185381199 308.748046875 190.354353435381199 16.4580078125 190.354353435381199"/>
          <polygon class="cls-11" points="16.4580078125 189.2606728114406 0 172.8036415614406 0 76.7489540614406 16.45751953125 60.2909462489406 308.748046875 60.2909462489406 325.205078125 76.7489540614406 325.205078125 172.8036415614406 308.748046875 189.2606728114406 16.4580078125 189.2606728114406"/>
          <polygon class="cls-11" points="16.4580078125 188.1669921875 0 171.7099609375 0 75.6552734375 16.45751953125 59.197265625 308.748046875 59.197265625 325.205078125 75.6552734375 325.205078125 171.7099609375 308.748046875 188.1669921875 16.4580078125 188.1669921875"/>
        </g>
        <path class="cls-13" d="M306.672837138197792,183.157691373040507H18.532761980608484l-13.522792441766796-13.522792441766796v-91.904664907870028l13.522792441766796-13.522792441770434h288.14007515758567c5.280978940823843,5.280978940822024,8.241813500950229,8.241813500950229,13.522792441770434,13.522792441770434v91.904664907870028c-5.280978940820205,5.280978940820205-8.241813500946591,8.24181350094841-13.522792441766796,13.522792441766796Z"/>
      </g>
      <g>
        <g>
          <path class="cls-6" d="M211.295862053546443,55.345581363226302c0,1.201382646642742-.042030879758386,2.42027815984693-.123757590416062,3.622828330922857-1.973116300123365,29.004809611729797-27.176466341912601,50.997467449187752-56.181275953640579,49.02318362463302-27.559414357554488-1.875044247331971-49.146941215054539-24.961672483143047-49.146941215054539-52.557280098277261,0-1.201382646635466.0420308797693-2.42027815984693.123757590426976-3.622828330924676,1.973116300112451-29.004809611726159,27.176466341908963-50.997467449189571,56.181275953629665-49.02318362463302,27.559414357554488,1.87504424733379,49.146941215054539,24.961672483143047,49.146941215054539,52.55728009827908Z"/>
          <g>
            <path class="cls-11" d="M158.60791015625,115.575871571923926c-1.25927734375,0-2.537109375-.0439453125-3.79833984375-.1298828125-28.95166015625-1.9697265625-51.63037109375-26.22265625-51.63037109375-55.21484375,0-1.2587890625.04345703125-2.5380859375.1298828125-3.8046875,1.9697265625-28.951171875,26.22705078125-51.6298828125,55.224609375-51.6298828125,1.25830078125,0,2.53564453125.0439453125,3.7958984375.1298828125,28.9521484375,1.9697265625,51.630859375,26.2236328125,51.630859375,55.2158203125,0,1.2578125-.04345703125,2.537109375-.1298828125,3.8046875-1.96923828125,28.9501953125-26.2255859375,51.62890625-55.22265625,51.62890625Z"/>
            <path class="cls-11" d="M158.60791015625,115.309395199872597c-1.25927734375,0-2.537109375-.0439453125-3.79833984375-.1298828125-28.95166015625-1.9697265625-51.63037109375-26.22265625-51.63037109375-55.21484375,0-1.2587890625.04345703125-2.5380859375.1298828125-3.8046875,1.9697265625-28.951171875,26.22705078125-51.6298828125,55.224609375-51.6298828125,1.25830078125,0,2.53564453125.0439453125,3.7958984375.1298828125,28.9521484375,1.9697265625,51.630859375,26.2236328125,51.630859375,55.2158203125,0,1.2578125-.04345703125,2.537109375-.1298828125,3.8046875-1.96923828125,28.9501953125-26.2255859375,51.62890625-55.22265625,51.62890625Z"/>
            <path class="cls-11" d="M158.60791015625,115.042918827821268c-1.25927734375,0-2.537109375-.0439453125-3.79833984375-.1298828125-28.95166015625-1.9697265625-51.63037109375-26.22265625-51.63037109375-55.21484375,0-1.2587890625.04345703125-2.5380859375.1298828125-3.8046875,1.9697265625-28.951171875,26.22705078125-51.6298828125,55.224609375-51.6298828125,1.25830078125,0,2.53564453125.0439453125,3.7958984375.1298828125,28.9521484375,1.9697265625,51.630859375,26.2236328125,51.630859375,55.2158203125,0,1.2578125-.04345703125,2.537109375-.1298828125,3.8046875-1.96923828125,28.9501953125-26.2255859375,51.62890625-55.22265625,51.62890625Z"/>
            <path class="cls-11" d="M158.60791015625,114.776442455769939c-1.25927734375,0-2.537109375-.0439453125-3.79833984375-.1298828125-28.95166015625-1.9697265625-51.63037109375-26.22265625-51.63037109375-55.21484375,0-1.2587890625.04345703125-2.5380859375.1298828125-3.8046875,1.9697265625-28.951171875,26.22705078125-51.6298828125,55.224609375-51.6298828125,1.25830078125,0,2.53564453125.0439453125,3.7958984375.1298828125,28.9521484375,1.9697265625,51.630859375,26.2236328125,51.630859375,55.2158203125,0,1.2578125-.04345703125,2.537109375-.1298828125,3.8046875-1.96923828125,28.9501953125-26.2255859375,51.62890625-55.22265625,51.62890625Z"/>
            <path class="cls-11" d="M158.60791015625,114.509966083718609c-1.25927734375,0-2.537109375-.0439453125-3.79833984375-.1298828125-28.95166015625-1.9697265625-51.63037109375-26.22265625-51.63037109375-55.21484375,0-1.2587890625.04345703125-2.5380859375.1298828125-3.8046875,1.9697265625-28.951171875,26.22705078125-51.6298828125,55.224609375-51.6298828125,1.25830078125,0,2.53564453125.0439453125,3.7958984375.1298828125,28.9521484375,1.9697265625,51.630859375,26.2236328125,51.630859375,55.2158203125,0,1.2578125-.04345703125,2.537109375-.1298828125,3.8046875-1.96923828125,28.9501953125-26.2255859375,51.62890625-55.22265625,51.62890625Z"/>
            <path class="cls-11" d="M158.60791015625,114.24348971166728c-1.25927734375,0-2.537109375-.0439453125-3.79833984375-.1298828125-28.95166015625-1.9697265625-51.63037109375-26.22265625-51.63037109375-55.21484375,0-1.2587890625.04345703125-2.5380859375.1298828125-3.8046875,1.9697265625-28.951171875,26.22705078125-51.6298828125,55.224609375-51.6298828125,1.25830078125,0,2.53564453125.0439453125,3.7958984375.1298828125,28.9521484375,1.9697265625,51.630859375,26.2236328125,51.630859375,55.2158203125,0,1.2578125-.04345703125,2.537109375-.1298828125,3.8046875-1.96923828125,28.9501953125-26.2255859375,51.62890625-55.22265625,51.62890625Z"/>
            <path class="cls-11" d="M158.60791015625,113.977013339615951c-1.25927734375,0-2.537109375-.0439453125-3.79833984375-.1298828125-28.95166015625-1.9697265625-51.63037109375-26.22265625-51.63037109375-55.21484375,0-1.2587890625.04345703125-2.5380859375.1298828125-3.8046875,1.9697265625-28.951171875,26.22705078125-51.6298828125,55.224609375-51.6298828125,1.25830078125,0,2.53564453125.0439453125,3.7958984375.1298828125,28.9521484375,1.9697265625,51.630859375,26.2236328125,51.630859375,55.2158203125,0,1.2578125-.04345703125,2.537109375-.1298828125,3.8046875-1.96923828125,28.9501953125-26.2255859375,51.62890625-55.22265625,51.62890625Z"/>
            <path class="cls-11" d="M158.60791015625,113.710536967564622c-1.25927734375,0-2.537109375-.0439453125-3.79833984375-.1298828125-28.95166015625-1.9697265625-51.63037109375-26.22265625-51.63037109375-55.21484375,0-1.2587890625.04345703125-2.5380859375.1298828125-3.8046875,1.9697265625-28.951171875,26.22705078125-51.6298828125,55.224609375-51.6298828125,1.25830078125,0,2.53564453125.0439453125,3.7958984375.1298828125,28.9521484375,1.9697265625,51.630859375,26.2236328125,51.630859375,55.2158203125,0,1.2578125-.04345703125,2.537109375-.1298828125,3.8046875-1.96923828125,28.9501953125-26.2255859375,51.62890625-55.22265625,51.62890625Z"/>
            <path class="cls-11" d="M158.60791015625,113.444060595513292c-1.25927734375,0-2.537109375-.0439453125-3.79833984375-.1298828125-28.95166015625-1.9697265625-51.63037109375-26.22265625-51.63037109375-55.21484375,0-1.2587890625.04345703125-2.5380859375.1298828125-3.8046875,1.9697265625-28.951171875,26.22705078125-51.6298828125,55.224609375-51.6298828125,1.25830078125,0,2.53564453125.0439453125,3.7958984375.1298828125,28.9521484375,1.9697265625,51.630859375,26.2236328125,51.630859375,55.2158203125,0,1.2578125-.04345703125,2.537109375-.1298828125,3.8046875-1.96923828125,28.9501953125-26.2255859375,51.62890625-55.22265625,51.62890625Z"/>
            <path class="cls-11" d="M158.60791015625,113.177584223461963c-1.25927734375,0-2.537109375-.0439453125-3.79833984375-.1298828125-28.95166015625-1.9697265625-51.63037109375-26.22265625-51.63037109375-55.21484375,0-1.2587890625.04345703125-2.5380859375.1298828125-3.8046875,1.9697265625-28.951171875,26.22705078125-51.6298828125,55.224609375-51.6298828125,1.25830078125,0,2.53564453125.0439453125,3.7958984375.1298828125,28.9521484375,1.9697265625,51.630859375,26.2236328125,51.630859375,55.2158203125,0,1.2578125-.04345703125,2.537109375-.1298828125,3.8046875-1.96923828125,28.9501953125-26.2255859375,51.62890625-55.22265625,51.62890625Z"/>
            <path class="cls-11" d="M158.60791015625,112.911107851410634c-1.25927734375,0-2.537109375-.0439453125-3.79833984375-.1298828125-28.95166015625-1.9697265625-51.63037109375-26.22265625-51.63037109375-55.21484375,0-1.2587890625.04345703125-2.5380859375.1298828125-3.8046875,1.9697265625-28.951171875,26.22705078125-51.6298828125,55.224609375-51.6298828125,1.25830078125,0,2.53564453125.0439453125,3.7958984375.1298828125,28.9521484375,1.9697265625,51.630859375,26.2236328125,51.630859375,55.2158203125,0,1.2578125-.04345703125,2.537109375-.1298828125,3.8046875-1.96923828125,28.9501953125-26.2255859375,51.62890625-55.22265625,51.62890625Z"/>
            <path class="cls-11" d="M158.60791015625,112.644631479359305c-1.25927734375,0-2.537109375-.0439453125-3.79833984375-.1298828125-28.95166015625-1.9697265625-51.63037109375-26.22265625-51.63037109375-55.21484375,0-1.2587890625.04345703125-2.5380859375.1298828125-3.8046875,1.9697265625-28.951171875,26.22705078125-51.6298828125,55.224609375-51.6298828125,1.25830078125,0,2.53564453125.0439453125,3.7958984375.1298828125,28.9521484375,1.9697265625,51.630859375,26.2236328125,51.630859375,55.2158203125,0,1.2578125-.04345703125,2.537109375-.1298828125,3.8046875-1.96923828125,28.9501953125-26.2255859375,51.62890625-55.22265625,51.62890625Z"/>
            <path class="cls-11" d="M158.60791015625,112.378155107307975c-1.25927734375,0-2.537109375-.0439453125-3.79833984375-.1298828125-28.95166015625-1.9697265625-51.63037109375-26.22265625-51.63037109375-55.21484375,0-1.2587890625.04345703125-2.5380859375.1298828125-3.8046875,1.9697265625-28.951171875,26.22705078125-51.6298828125,55.224609375-51.6298828125,1.25830078125,0,2.53564453125.0439453125,3.7958984375.1298828125,28.9521484375,1.9697265625,51.630859375,26.2236328125,51.630859375,55.2158203125,0,1.2578125-.04345703125,2.537109375-.1298828125,3.8046875-1.96923828125,28.9501953125-26.2255859375,51.62890625-55.22265625,51.62890625Z"/>
            <path class="cls-11" d="M158.60791015625,112.111678735256646c-1.25927734375,0-2.537109375-.0439453125-3.79833984375-.1298828125-28.95166015625-1.9697265625-51.63037109375-26.22265625-51.63037109375-55.21484375,0-1.2587890625.04345703125-2.5380859375.1298828125-3.8046875,1.9697265625-28.951171875,26.22705078125-51.6298828125,55.224609375-51.6298828125,1.25830078125,0,2.53564453125.0439453125,3.7958984375.1298828125,28.9521484375,1.9697265625,51.630859375,26.2236328125,51.630859375,55.2158203125,0,1.2578125-.04345703125,2.537109375-.1298828125,3.8046875-1.96923828125,28.9501953125-26.2255859375,51.62890625-55.22265625,51.62890625Z"/>
            <path class="cls-11" d="M158.60791015625,111.845202363205317c-1.25927734375,0-2.537109375-.0439453125-3.79833984375-.1298828125-28.95166015625-1.9697265625-51.63037109375-26.22265625-51.63037109375-55.21484375,0-1.2587890625.04345703125-2.5380859375.1298828125-3.8046875,1.9697265625-28.951171875,26.22705078125-51.6298828125,55.224609375-51.6298828125,1.25830078125,0,2.53564453125.0439453125,3.7958984375.1298828125,28.9521484375,1.9697265625,51.630859375,26.2236328125,51.630859375,55.2158203125,0,1.2578125-.04345703125,2.537109375-.1298828125,3.8046875-1.96923828125,28.9501953125-26.2255859375,51.62890625-55.22265625,51.62890625Z"/>
            <path class="cls-11" d="M158.60791015625,111.578725991153988c-1.25927734375,0-2.537109375-.0439453125-3.79833984375-.1298828125-28.95166015625-1.9697265625-51.63037109375-26.22265625-51.63037109375-55.21484375,0-1.2587890625.04345703125-2.5380859375.1298828125-3.8046875C105.27880859375,23.478140053653988,129.5361328125.799429116153988,158.53369140625.799429116153988c1.25830078125,0,2.53564453125.0439453125,3.7958984375.1298828125,28.9521484375,1.9697265625,51.630859375,26.2236328125,51.630859375,55.2158203125,0,1.2578125-.04345703125,2.537109375-.1298828125,3.8046875-1.96923828125,28.9501953125-26.2255859375,51.62890625-55.22265625,51.62890625Z"/>
            <path class="cls-11" d="M158.60791015625,111.312249619102658c-1.25927734375,0-2.537109375-.0439453125-3.79833984375-.1298828125-28.95166015625-1.9697265625-51.63037109375-26.22265625-51.63037109375-55.21484375,0-1.2587890625.04345703125-2.5380859375.1298828125-3.8046875C105.27880859375,23.211663681602658,129.5361328125.532952744102658,158.53369140625.532952744102658c1.25830078125,0,2.53564453125.0439453125,3.7958984375.1298828125,28.9521484375,1.9697265625,51.630859375,26.2236328125,51.630859375,55.2158203125,0,1.2578125-.04345703125,2.537109375-.1298828125,3.8046875-1.96923828125,28.9501953125-26.2255859375,51.62890625-55.22265625,51.62890625Z"/>
            <path class="cls-11" d="M158.60791015625,111.045773247051329c-1.25927734375,0-2.537109375-.0439453125-3.79833984375-.1298828125-28.95166015625-1.9697265625-51.63037109375-26.22265625-51.63037109375-55.21484375,0-1.2587890625.04345703125-2.5380859375.1298828125-3.8046875C105.27880859375,22.945187309551329,129.5361328125.266476372051329,158.53369140625.266476372051329c1.25830078125,0,2.53564453125.0439453125,3.7958984375.1298828125,28.9521484375,1.9697265625,51.630859375,26.2236328125,51.630859375,55.2158203125,0,1.2578125-.04345703125,2.537109375-.1298828125,3.8046875-1.96923828125,28.9501953125-26.2255859375,51.62890625-55.22265625,51.62890625Z"/>
            <path class="cls-11" d="M158.60791015625,110.779296875c-1.25927734375,0-2.537109375-.0439453125-3.79833984375-.1298828125-28.95166015625-1.9697265625-51.63037109375-26.22265625-51.63037109375-55.21484375,0-1.2587890625.04345703125-2.5380859375.1298828125-3.8046875C105.27880859375,22.6787109375,129.5361328125,0,158.53369140625,0c1.25830078125,0,2.53564453125.0439453125,3.7958984375.1298828125,28.9521484375,1.9697265625,51.630859375,26.2236328125,51.630859375,55.2158203125,0,1.2578125-.04345703125,2.537109375-.1298828125,3.8046875-1.96923828125,28.9501953125-26.2255859375,51.62890625-55.22265625,51.62890625Z"/>
          </g>
          <path class="cls-10" d="M211.295862053546443,55.345581363226302c0,1.201382646642742-.042030879758386,2.42027815984693-.123757590416062,3.622828330922857-1.973116300123365,29.004809611729797-27.176466341912601,50.997467449187752-56.181275953640579,49.02318362463302-27.559414357554488-1.875044247331971-49.146941215054539-24.961672483143047-49.146941215054539-52.557280098277261,0-1.201382646635466.0420308797693-2.42027815984693.123757590426976-3.622828330924676,1.973116300112451-29.004809611726159,27.176466341908963-50.997467449189571,56.181275953629665-49.02318362463302,27.559414357554488,1.87504424733379,49.146941215054539,24.961672483143047,49.146941215054539,52.55728009827908Z"/>
        </g>
        <g>
          <path class="cls-10" d="M205.384839846163231,55.350555153239839c0,1.066697648648187-.037318868173315,2.14894482571799-.109883334069309,3.216679109596953-1.751913533749757,25.753128946143988-24.129758180548379,45.280226718499762-49.882887126692367,43.527276549513772-24.469774535029501-1.664836174673837-43.637159883583081-22.163261154788415-43.637159883583081-46.66517138186282,0-1.066697648648187.037318868171496-2.148944825708895.109883334069309-3.216679109593315,1.751913533749757-25.753128946145807,24.129758180548379-45.280226718501581,49.882887126690548-43.527276549513772,24.469774535029501,1.664836174673837,43.6371598835849,22.163261154788415,43.6371598835849,46.665171381859182Z"/>
          <g class="cls-16">
            <g>
              <path class="cls-8" d="M169.738710629771958,66.954074109713474c-.052855574480418.066264554538066-.077779473624105,26.850551888741393-.632987826324097,32.638949290376331-.160766329676335,1.676091489316605-.319422654923983,3.390901103430224.046930169848565,5.028963708118681.366352824770729,1.638062604684819,1.365058422250513,3.21324223596821,2.850720257099965,3.735123377662603,1.587531487715751.5576661864161,3.021863644626137.330856102418693,3.503266196479672-1.376646625800277,1.311958100373886-4.653427837143681.975564037560616,8.159295838879189,11.70508564478223,3.522107773025709,3.415145536109776-1.475990515033118,2.825505080752919-4.024550781130529,2.750237772223045-6.094175376716521-.202944102136826-5.580352394161309-10.190177558120922-43.034062960625306-11.748233569549484-48.359941744214666"/>
              <g>
                <path class="cls-15" d="M187.504266153311619,79.791333542360007c3.896561827830737-5.117068841766013,1.939258923426678-11.49531263015524,1.939258923426678-11.49531263015524l-.018099161363352.004524790336291c-.031673532383138-.253139947390082-.081335865383153-.501782694624126-.140158139813138-.750397851679736-.61023971186296-2.472632379878632-2.251138374678703-4.344074628572343-4.081912690675381-6.025641224072388-.162706162085669-.149211705966081-.330049437623529-.298423411941258-.49728137015336-.447634834215933-.520627915768273-.464526305529944-.631084340260713-1.233212967183135-.26645246705084-1.828092545121763,1.170031934037979-1.908851513657282,3.245186359174113-6.095391118593398,3.430821840986027-6.602297530971555,1.012559789571242-2.811688163365034,1.545933246030472-5.790600438029287,1.631793901757192-8.77856229336976.049772693735576-1.699665756859758-.348077773989644-5.270773762418685-1.030603770566813-6.346625436377508l.00446960996851-.004524790343567c-.00446960996851-.009021990503243-.013519190652005-.013546780835895-.022568771331862-.02259636151939-.058767094058567-.090413036252357-.122003798082005-.162726911134087-.185350862844643-.212444424512796-9.262245826645085-10.378793023492108-22.515963717531122-16.625955842944677-37.541688830358908-16.580735529725644-27.818411012318393.085860655732176-50.497129231182043,23.040342773681914-50.257563654808109,50.858726195825511.03164594219561,3.973428083243562.524379056141697,7.838343968878689,1.428454238293853,11.545057733712383,2.477157170211285,10.627408180553175,8.141201429643843,23.854004919581712,14.817777888460114,32.48793946317528l21.869580863314695.018071571177643,6.292383132653413.004524790341748,1.961827694753083-.009049580681676c.018099161356076-.424916439218578-.013546780837714-1.075851673969737-.334503402964401-1.740333689562249-.718751909484126-1.469122170981791-2.210470441987127-1.636373872461263-2.517852693094028-2.87495245757782-.162726911145-.655460025092907.162726911137725-1.184336281388823.307382251106901-1.672544605004077.185350862842824-.614764502206526.334503402964401-1.238578585107462.447512800727054-1.866917458348325l.330006202810182.067816674738424c4.095459471513095.289283089747187,8.209018104385905.36614934516183,12.308974776055038.235040786032187l-.587615760177869.113009397762653c1.591181149438853,2.811688163375948,3.295316516265302,5.428975883223757,5.071848528539704,7.725334571121493l12.86949697455384.013546780837714.131108559127824.235068376217896c.004524790341748-.063291884398495.013574371025243-.144655339969177.013574371025243-.235068376217896l6.29232795228927.009049580681676,1.202211474304931-.005532837991268c.452989970388444-.002084758103592.789895547826745-.412325167102608.711119855110155-.858417814113636-.049201205776626-.278617621321246-.136678870636388-.580599631712175-.286007037626405-.885432618139021-.714199528956669-1.469122170981791-2.210470441987127-1.636373872461263-2.513300312573847-2.87495245757782-.162782091505505-.655460025092907.162726911148638-1.184336281388823.307354660930287-1.672544605004077.592195730878302-1.988976436798112.831788897441584-4.086409890822324.70068033831194-6.156749783196574l-.528903846494359.099435026750143c.483655943076883-.284785889582054.958317485856242-.592168140694412,1.419404657619452-.926671543660632,3.36313319099645-2.431964447181599,5.826771170559368-6.08443590830575,6.821286979145953-10.116603495425807.989935837871599-4.027642796769214.506224714412383-8.407888157868001-1.347118372908881-12.123651503381552l-.153677330465143-.302857460763335Z"/>
                <g class="cls-12">
                  <path class="cls-9" d="M95.238698471941461,81.896405838220744c1.642240063945792-10.480057456106806,7.770083003004402-19.749105434417288,15.117137597229885-19.749105434417288,5.231931505169996,0,7.742583504401409,4.736815230215143,7.11107151368924,9.671771839231951-1.254249893241649,9.801348020409932-12.08786528390192,15.222834839283678-13.27275209067011,23.579788068385824-.604535199869133,5.920210172900624,3.383706516720849,9.429880267391127,7.868463409433389,9.429880267391127,8.379278251877622,0,5.879537263643215-6.55380313245405,11.946060854941607-21.410080658199149,3.615724116201818-8.632868496219089,7.008973057219919-10.658393497640645,2.505506170082299-17.592673400860804-1.285781874266831-2.369264094329992-3.42048236305709-4.070645509138558-5.147210852839635-6.283282360789599-1.7159778103196-2.198860887605406-3.531644578075429-4.384074066430912-3.773795062599675-7.573117216124956-.39010600464826-2.025853603423457-.073709150636205-4.416217530661015-1.180499338948721-5.917572177317197-1.851102344055107-2.363780683779623-5.098174920774909-.87266382107191-7.977392290980788-1.24609038476774-3.961268187831593-.373023742296937-6.121671171646085-5.307748428789637-5.36238423038958-10.172684943676359,1.596523615422484-10.229315969298113,11.404793508731018-17.644734289127882,21.619043199694715-17.644734289127882,8.650773547109566,0,14.616643806568391,4.731570874240788,13.827685159658358,12.253680987148982-.375968002832451,3.584563940628868-2.794398860283763,7.207343182739351-6.120123125952887,7.207343182739351-2.789336671728961,0-5.208414664357406-2.178253430187397-5.925145337207141-5.061190462391096-1.626848236406659-5.693102864706816-1.156132307512962-9.435808519674538-6.511467344307675-9.435808519674538-5.460306720258814,0-8.328744364074737,4.566888801535242-9.070671811579814,9.675205249743158-1.464346023754842,10.082310479276202,7.581159263467271,6.281777327934833,10.174596974084125,17.181653190269571.711641883488483,3.033282047519606,1.067237791532534,6.349241316747793,3.037895095221756,8.276750310371426,1.04613714588595,1.420077350219799,2.727202476657112,2.197249184184329,4.352302500294172,3.496103631456208,5.107070991383807,4.188747666630661,5.681829281296814,12.582256543406402,4.710915573225066,21.866957416348669-1.564451933720193,14.960617111797546-9.195490469897777,28.750592737804254-20.978424288940005,28.750592737804254-12.854262394932448,0-19.291573237758712-14.36567485676278-16.950812273138581-29.303387033543913Z"/>
                </g>
              </g>
              <g>
                <path class="cls-14" d="M189.400597679290513,68.518098144291798c.166262216545874,1.292827510475036-.044935734207684,2.612777276404813-.709984600394819,3.738350878167694-1.487372802090249,2.50880863045677-4.201491147901834,2.594695772762861-6.645995088500058,2.404839984512364-5.279948768751638-.40231345605207-10.483506789360035-1.753905853365723-15.300617495839106-3.95532892187839-1.80641651492806-.822708415755187-3.558910148807627-1.762946605191246-5.239506607971634-2.816194192397234-2.067043773300611-1.297347886367788-3.981306050309286-3.358639301663061-4.417182672070339-5.505817859258968-.040442160780003-.194376164157802-.04942930762445-.415874583784898-.026961440518789-.655454507053946l-.03145501394647-.054244510924036c.008987146840809-.004520375914581.022467867102023-.013561127736466.035948587363237-.01808150364559,5.338365223225992-3.204946520703743,11.786643081235525-4.366683129765079,17.933851520081589-3.480689451260332,3.585871589339149.506282102000114,7.068390990005355,1.713222470159963,10.159969503112734,3.616300728583155l.044935734207684-.049724135016731c1.819897235185636,1.68157983879064,3.451064386717917,3.55301546582632,4.057696798452525,6.025661088995548.058416454452527.248620675087295.107845762086072.497241350170953.139300776023447.750382401176466Z"/>
                <path class="cls-13" d="M189.400597679290513,68.518098144291798c.166262216545874,1.292827510475036-.044935734207684,2.612777276404813-.709984600394819,3.738350878167694-1.487372802090249,2.50880863045677-4.201491147901834,2.594695772762861-6.645995088500058,2.404839984512364-5.279948768751638-.40231345605207-10.483506789360035-1.753905853365723-15.300617495839106-3.95532892187839-1.80641651492806-.822708415755187-3.558910148807627-1.762946605191246-5.239506607971634-2.816194192397234-2.067043773300611-1.297347886367788-3.981306050309286-3.358639301663061-4.417182672070339-5.505817859258968-.040442160780003-.194376164157802-.04942930762445-.415874583784898-.026961440518789-.655454507053946l-.03145501394647-.054244510924036c.008987146840809-.004520375914581.022467867102023-.013561127736466.035948587363237-.01808150364559,5.338365223225992-3.204946520703743,11.786643081235525-4.366683129765079,17.933851520081589-3.480689451260332,3.585871589339149.506282102000114,7.068390990005355,1.713222470159963,10.159969503112734,3.616300728583155l.044935734207684-.049724135016731c1.819897235185636,1.68157983879064,3.451064386717917,3.55301546582632,4.057696798452525,6.025661088995548.058416454452527.248620675087295.107845762086072.497241350170953.139300776023447.750382401176466Z"/>
              </g>
              <path d="M188.769981331704912,37.73885856816014c.68257676252324,1.075849466749787,1.080369842664368,4.646946436227154,1.030645707647636,6.346607778663383-.085887142315187,2.987968476983951-.619291499770043,5.966896202166026-1.631855703777546,8.778570018625032-.18533541233046.506282102003752-2.255667579451256,4.683109443509238-3.426444940330839,6.59522845374704-.366150448764529.596689620220786-.262181802820123,1.369673900955604.262181802823761,1.835272619759053.167253908697603.149172405050194.334507817395206.298344810107665.497241350189142.447517215165135l-.045203759113065.049724135016731c-3.110018626583042-1.903078258423193-6.613309957388992-3.110018626583042-10.220569934155719-3.616300728583155-6.183874245873085-.885993678504747-12.670613677768415.275742930556589-18.04082025970456,3.480689451260332.664495258872194-6.418933793233009,21.214124149031704-27.104173960715343,31.249358670855145-24.220174129666702.040683383194846.013561127723733.081366766389692.031642631367504.1220501495809.063285262744103.063285262753197.04972413501855.126570525499119.122050149597271.185335412341374.21245766780703.009040751825523.009040751818247.013561127732828.018081503643771.018081503643771.027122255462018Z"/>
              <g>
                <path class="cls-3" d="M188.566564415719768,37.499278644891092c-9.262250241081347-10.378783091033256-22.515992411323168-16.625942599648624-37.541721938581759-16.580738840537379-27.818393354606087.085887142295178-50.497119298721373,23.040356016963415-50.257539375441411,50.858749371580416.031642631367504,3.973410425531256.524363605640247,7.838331829187155,1.428438787781488,11.545040075989164,2.477165999078352,10.627403766115094,8.141197015218495,23.854023680900355,14.817792235355228,32.487941670384316l21.869578656094745.018081503641952,6.292363267735709.004520375920038,1.33666614181675-.006159751816085c.362439090693442-.001670226220085.644223183251597-.317860493922126.599680573919613-.67755597633186-.040388347944827-.326148524143719-.129393783759951-.69378541403421-.309011387878854-1.065669749306835-.718739769799868-1.469122170994524-2.210463820341829-1.636376079684851-2.517849382273198-2.874959079224936-.162733532781203-.655454507053946.162733532783022-1.184338488612411.307385561931369-1.672539086966935.185335412341374-.614771123860919.33450781738793-1.234062623630962.447517215161497-1.862394875217433v-.004520375910943c.257661426911-1.414877660061393.343548569217091-2.856877575579347.2531410509946-4.28983673928451"/>
                <path class="cls-2" d="M188.774501707612217,37.734338192254654c-.004520375907305-.009040751829161-.013561127725552-.013561127738285-.022601879551075-.022601879556532"/>
                <path class="cls-5" d="M157.197675917832385,61.64635355055907c-.022601879551075.239579923272686-.020601826196071.543218318720392.020081557006051.737594482878194.43847646334325,2.147178557595907,2.364156601304785,4.20846997289118,4.443529520231095,5.505817859258968,1.690620590619801,1.053247587205988,3.453567195800133,1.993485776642046,5.270758311915415,2.816194192397234,4.84584297629408,2.201423068512668,10.080438280918315,3.55301546582632,15.391879976024939,3.95532892187839,2.459084495440038.189855788250497,5.189391545511171.103968645944406,6.685635971964075-2.404839984512364.669015634786774-1.125573601762881.881473302590166-2.445523367692658.714219393888925-3.738350878167694-.031642631365685-.253141051005514-.081366766386054-.501761726089171-.140131653228309-.750382401176466-.610250747948157-2.472645623169228-2.251147203547589-4.344081250204908-4.081899447377509-6.025661088995548-.162733532793936-.14917240505747-.329987441491539-.298344810114941-.497241350189142-.447517215165135-.524363605643885-.465598718803449-.62833225158829-1.238582999538266-.262181802823761-1.835272619759053,1.170777360879583-1.912119010237802,3.241109528000379-6.088946351743289,3.426444940330839-6.59522845374704,1.012564204007504-2.811673816459006,1.54596856146236-5.790601541641081,1.631855703777546-8.778570018625032.049724135016731-1.699661342436229-.348068945124396-5.270758311913596-1.030645707647636-6.346607778663383-.004520375910943-.009040751818247-.009040751818247-.018081503643771-.018081503643771-.027122255462018-.058764886842255-.090407518209759-.122050149588176-.162733532788479-.185335412341374-.21245766780703-.040683383191208-.031642631376599-.081366766386054-.049724135020369-.1220501495809-.063285262744103-10.03523452182344-2.883999831048641-30.584863411982951,17.801240336433693-31.249358670855145,24.220174129666702"/>
                <path class="cls-4" d="M157.068585069788242,61.728493526383318c.027122255460199-.018081503643771.058764886834979-.036163007282084.090407518211578-.054244510924036h.004520375909124c.009040751816428-.004520375914581.018081503641952-.013561127736466.03164263137478-.01808150364559,5.370206581936145-3.204946520703743,11.856946013831475-4.366683129765079,18.04082025970456-3.480689451260332,3.607259976766727.506282102000114,7.110551307572678,1.713222470159963,10.220569934155719,3.616300728583155"/>
                <path class="cls-4" d="M181.591624385469913,103.379237167810061c.1310909014137,2.070332167109882-.108489021855348,4.167786589690877-.700658266159735,6.156751990412886-.144652029146528.488200598354524-.470119094719848,1.017084579912989-.307385561936826,1.672539086966935.302865186022245,1.238582999540085,1.799109612475149,1.405836908230413,2.51332900637135,2.874959079224936.142101399258536.290123690167093.228192160378967.577662273946771.278588471686817.844933143012895.087924027768167.46629466932427-.27057098964724.896933470939985-.745077674262575.899115110871207l-1.160846125287208.005337223570677s-4.018614184635226-.004520375920038-5.926212818963904-.009040751825523h-.976401196707229c-2.938244341978134-.004520375914581-12.403911499040987-.013561127736466-12.403911499040987-.013561127736466-1.77650773291316-2.296350962646102-3.480689451258513-4.913648614954582-5.071861771841213-7.725322431422683"/>
                <path class="cls-2" d="M179.259110415528994,115.823832050044075c-.004520375907305-.375191200591871-.054244510927674-1.00352345218198-.370670824675472-1.690620590623439-.465598718805268-1.026125331727599-1.229542247710924-1.57761119283532-1.568570441020711-1.790068860636893"/>
                <path class="cls-5" d="M187.802620886810473,80.008893709355107l.153692780964775.302865186022245c1.85335412339191,3.715748998616618,2.337034345848224,8.095993256112706,1.347072021395434,12.123648192567998-.994482700360095,4.032175312366235-3.458087571711076,7.684639048233294-6.821247249285079,10.116601288211314-.325467065573321.23505954734901-.655454507057584.456557966976106-.98996232445279.669015634779498-.144652029139252.085887142304273-.284783682374837.171774284608546-.42943571151045.257661426909181-4.018614184642502,2.377717729046708-8.832814529559982,3.245629903907684-13.511403597165554,3.77903426136254-3.277272535275188.370670824686385-6.572626574199603.610250747955433-9.872500989025866.714219393899839-.198896540065107.004520375920038-.388752328324699.013561127736466-.587648868402539.013561127736466h-.004520375896391c-3.901084410963449.108489021855348-7.820250325567031.027122255456561-11.716814360610442-.248620675094571"/>
                <path class="cls-3" d="M189.741862152506656,68.513577768382675s1.957322769347229,6.378250410032706-1.939241265696182,11.495315940972432c-1.505285178278427,1.975404272991-3.883002907321497,3.760952757729683-7.576150026376126,4.922689366791019"/>
                <path class="cls-2" d="M138.883112780928059,115.828352425949561c.013561127732828-.366150448766348-.027122255467475-.917636309875888-.289304058289417-1.509805554183913-.479159846538096-1.098451346297225-1.383235028679337-1.600213072390034-1.663498335141412-1.740344725618343"/>
                <path class="cls-2" d="M175.543361416917833,115.828352425949561v-.004520375905486c.013561127734647-.366150448768167-.027122255460199-.917636309888621-.289304058278503-1.505285178278427-.479159846538096-1.098451346297225-1.383235028688432-1.600213072390034-1.663498335150507-1.740344725618343"/>
                <path class="cls-2" d="M142.960491852405539,115.823832050044075c0-.375191200591871-.054244510927674-1.00352345218198-.366150448775443-1.690620590623439-.470119094712572-1.026125331727599-1.234062623614591-1.57761119283532-1.573090816922559-1.790068860636893"/>
              </g>
              <path d="M148.475499661381036,34.939351828637882c4.168415274147264-.585280846091337,8.369931203404121,3.12500398346674,8.614972272225714,7.81536422336103.24504106880886,4.690360239896108-3.217766570785898,8.683935763318004-7.734397338590497,8.919900587807206-4.5166307678046.235964824485563-8.376728477320285-3.375036128587453-8.621769546140058-8.065396368479924-.245041068810679-4.690360239888832,2.632702829721893-7.952592884414116,7.741194612504842-8.669868442688312Z"/>
              <path class="cls-10" d="M145.273967261338839,39.597262321312883c.917194525158266-.128781887700825,1.841672331276641.687608205080323,1.895589782392562,1.719648548976693.053917451108646,1.032040343896369-.708019160243566,1.910764118989391-1.701833053513838,1.962684484622514-.99381389327209.051920365636761-1.843167964987515-.742623864407506-1.897085416107075-1.77466420829478-.053917451103189-1.03204034389455.579285043113487-1.749843567551579,1.70332868722835-1.907668825304427Z"/>
              <path class="cls-3" d="M175.234714840287779,36.542320967297201c.902616413039141-1.191454581392463,2.427922404385754-1.881989920188062,3.918774909616332-1.774104720747346"/>
              <g>
                <g>
                  <path class="cls-8" d="M122.296009067085834,71.016498825118106c.052855574471323.066264554528971.077779472405382,26.850551888739574.632987824850716,32.638949290401797.160766329601756,1.6760914893257.31942265476755,3.390901103441138-.046930170075939,5.028963708111405-.366352824845308,1.638062604666629-1.365058422397851,3.213242235902726-2.850720257263674,3.735123377533455-1.587531487753949.557666186341521-3.021863644642508.330856102282269-3.503266196426921-1.376646625951253-1.311958100161064-4.653427837209165-.975564037924414,8.159295838831895-11.705085644935025,3.522107772503659-3.41514553604793-1.475990515198646-2.82550508057102-4.024550781257858-2.750237771950196-6.094175376852945.202944102389665-5.5803523941413,10.19017756005087-43.034062960161464,11.748233571721357-48.359941743678064"/>
                  <path class="cls-2" d="M105.765722569329228,114.68058575116811c-.718128830863861-1.388880959675589-.870687930735585-3.060048007699152-.415912693570135-4.556002158564297"/>
                  <path class="cls-2" d="M109.983098975830217,115.061715881345663c-.462067666761868-1.330621055170923-.373378270034664-2.843306008524451.24101883496769-4.110813451703507"/>
                </g>
                <g>
                  <path class="cls-5" d="M122.296009067085834,71.016498825118106c.052855574471323.066264554528971.077779472405382,26.850551888739574.632987824850716,32.638949290401797.160766329601756,1.6760914893257.31942265476755,3.390901103441138-.046930170075939,5.028963708111405-.366352824845308,1.638062604666629-1.365058422397851,3.213242235902726-2.850720257263674,3.735123377533455-1.587531487753949.557666186341521-3.021863644642508.330856102282269-3.503266196426921-1.376646625951253-1.311958100161064-4.653427837209165-.975564037924414,8.159295838831895-11.705085644935025,3.522107772503659-3.41514553604793-1.475990515198646-2.82550508057102-4.024550781257858-2.750237771950196-6.094175376852945.202944102389665-5.5803523941413,10.19017756005087-43.034062960161464,11.748233571721357-48.359941743678064"/>
                  <path class="cls-5" d="M105.765722569329228,114.68058575116811c-.718128830863861-1.388880959675589-.870687930735585-3.060048007699152-.415912693570135-4.556002158564297"/>
                  <path class="cls-5" d="M109.983098975830217,115.061715881345663c-.462067666761868-1.330621055170923-.373378270034664-2.843306008524451.24101883496769-4.110813451703507"/>
                </g>
              </g>
              <path class="cls-1" d="M115.181738252755167,35.833906603098512l.705135352804064-.181949290743432"/>
            </g>
          </g>
        </g>
      </g>
    </g>
  </g>
</svg>