<?xml version="1.0" encoding="UTF-8"?>
<svg id="Livello_2" data-name="Livello 2" xmlns="http://www.w3.org/2000/svg" width="312.2255859375" height="183.649024042379096" viewBox="0 0 312.2255859375 183.649024042379096">
  <defs>
    <style>
      .cls-1 {
        fill: #f7c831;
      }

      .cls-2 {
        fill: #ffeebd;
      }

      .cls-3 {
        fill: #020101;
      }

      .cls-4 {
        fill: none;
        stroke: #000;
        stroke-width: 5.888529424887695px;
      }
    </style>
  </defs>
  <g id="Livello_1-2" data-name="Livello 1">
    <g>
      <g>
        <path class="cls-4" d="M294.072509086039645,171.243251035019057H18.153497544109996c-5.172849974900601-5.172849974896963-8.07306093041916-8.073060930415522-13.245910905316123-13.245910905312485v-92.458427980778652c5.172849974896963-5.172849974900601,8.073060930415522-8.07306093041916,13.245910905312485-13.245910905316123h275.919011541933287c5.172849974896963,5.172849974900601,8.073060930415522,8.07306093041916,13.245910905316123,13.245910905316123v92.458427980778652c-5.172849974900601,5.172849974896963-8.073060930415522,8.073060930415522-13.245910905316123,13.245910905312485Z"/>
        <g>
          <polygon class="cls-3" points="16.12109375 183.649024042379096 0 167.528906854879096 0 71.005469354879096 16.12109375 54.884375604879096 296.1044921875 54.884375604879096 312.2255859375 71.005469354879096 312.2255859375 167.528906854879096 296.1044921875 183.649024042379096 16.12109375 183.649024042379096"/>
          <polygon class="cls-3" points="16.12109375 182.577736720179018 0 166.457619532679018 0 69.934182032679018 16.12109375 53.813088282679018 296.1044921875 53.813088282679018 312.2255859375 69.934182032679018 312.2255859375 166.457619532679018 296.1044921875 182.577736720179018 16.12109375 182.577736720179018"/>
          <polygon class="cls-3" points="16.12109375 181.50644939797894 0 165.38633221047894 0 68.86289471047894 16.12109375 52.74180096047894 296.1044921875 52.74180096047894 312.2255859375 68.86289471047894 312.2255859375 165.38633221047894 296.1044921875 181.50644939797894 16.12109375 181.50644939797894"/>
          <polygon class="cls-3" points="16.12109375 180.435162075778862 0 164.315044888278862 0 67.791607388278862 16.12109375 51.670513638278862 296.1044921875 51.670513638278862 312.2255859375 67.791607388278862 312.2255859375 164.315044888278862 296.1044921875 180.435162075778862 16.12109375 180.435162075778862"/>
          <polygon class="cls-3" points="16.12109375 179.363874753578784 0 163.243757566078784 0 66.720320066078784 16.12109375 50.599226316078784 296.1044921875 50.599226316078784 312.2255859375 66.720320066078784 312.2255859375 163.243757566078784 296.1044921875 179.363874753578784 16.12109375 179.363874753578784"/>
          <polygon class="cls-3" points="16.12109375 178.292587431378706 0 162.172470243878706 0 65.649032743878706 16.12109375 49.527938993878706 296.1044921875 49.527938993878706 312.2255859375 65.649032743878706 312.2255859375 162.172470243878706 296.1044921875 178.292587431378706 16.12109375 178.292587431378706"/>
          <polygon class="cls-3" points="16.12109375 177.221300109178628 0 161.101182921678628 0 64.577745421678628 16.12109375 48.456651671678628 296.1044921875 48.456651671678628 312.2255859375 64.577745421678628 312.2255859375 161.101182921678628 296.1044921875 177.221300109178628 16.12109375 177.221300109178628"/>
          <polygon class="cls-3" points="16.12109375 176.15001278697855 0 160.02989559947855 0 63.50645809947855 16.12109375 47.38536434947855 296.1044921875 47.38536434947855 312.2255859375 63.50645809947855 312.2255859375 160.02989559947855 296.1044921875 176.15001278697855 16.12109375 176.15001278697855"/>
        </g>
        <path class="cls-1" d="M294.072509086039645,171.243251035019057H18.153497544109996c-5.172849974900601-5.172849974896963-8.07306093041916-8.073060930415522-13.245910905316123-13.245910905312485v-92.458427980778652c5.172849974896963-5.172849974900601,8.073060930415522-8.07306093041916,13.245910905312485-13.245910905316123h275.919011541933287c5.172849974896963,5.172849974900601,8.073060930415522,8.07306093041916,13.245910905316123,13.245910905316123v92.458427980778652c-5.172849974900601,5.172849974896963-8.073060930415522,8.073060930415522-13.245910905316123,13.245910905312485Z"/>
      </g>
      <g>
        <path d="M156.243716367618617.0949685916421l10.543451663656015,32.449407611138668c.0183996588421.056628327101862.071170505776536.094968591643919.130713052549254.094968591640281l34.119326301926776-.000000000283762c.133141182133841,0,.188498588246148.170372577453236.080785109250428.248631000784371l-27.603114815046865,20.054836818198964c-.04817093222664.034998230878045-.068327602140926.09703408203859-.049927943302464.153662409142271l10.54345166418716,32.449407610969502c.041142887930619.126624788852496-.103784682800324.231920832467949-.211498161796044.153662409134995l-27.603114814723085-20.054836818655531c-.04817093222664-.034998230878045-.11339928626694-.034998230878045-.161570218497218-.000000000001819l-27.603114814715809,20.05483681865735c-.10771347899572.078258423332954-.252641049726662-.027037620282499-.211498161796044-.153662409134995l10.543451664183522-32.449407610969502c.0183996588421-.056628327103681-.001757011072186-.118664178264225-.049927943302464-.153662409142271l-27.603114815043227-20.054836818198964c-.107713478999358-.078258423334773-.052356072887051-.248631000784371.08078510924679-.248631000784371l34.119326301926776.000000000283762c.05954254676908,0,.112313393707154-.0383402645366.130713052549254-.094968591640281L155.982290262527385.0949685916421c.041142887926981-.126624788856134.220283217164251-.126624788856134.261426105091232,0Z"/>
        <path class="cls-4" d="M156.243716367618617.0949685916421l10.543451663656015,32.449407611138668c.0183996588421.056628327101862.071170505776536.094968591643919.130713052549254.094968591640281l34.119326301926776-.000000000283762c.133141182133841,0,.188498588246148.170372577453236.080785109250428.248631000784371l-27.603114815046865,20.054836818198964c-.04817093222664.034998230878045-.068327602140926.09703408203859-.049927943302464.153662409142271l10.54345166418716,32.449407610969502c.041142887930619.126624788852496-.103784682800324.231920832467949-.211498161796044.153662409134995l-27.603114814723085-20.054836818655531c-.04817093222664-.034998230878045-.11339928626694-.034998230878045-.161570218497218-.000000000001819l-27.603114814715809,20.05483681865735c-.10771347899572.078258423332954-.252641049726662-.027037620282499-.211498161796044-.153662409134995l10.543451664183522-32.449407610969502c.0183996588421-.056628327103681-.001757011072186-.118664178264225-.049927943302464-.153662409142271l-27.603114815043227-20.054836818198964c-.107713478999358-.078258423334773-.052356072887051-.248631000784371.08078510924679-.248631000784371l34.119326301926776.000000000283762c.05954254676908,0,.112313393707154-.0383402645366.130713052549254-.094968591640281L155.982290262527385.0949685916421c.041142887926981-.126624788856134.220283217164251-.126624788856134.261426105091232,0Z"/>
        <g>
          <path class="cls-3" d="M180.91015625,98.501361611803077l-24.7978515625-18.0166015625-26.0888671875,18.955078125-1.6748046875.0263671875c-1.607421875,0-3.1328125-.7763671875-4.080078125-2.0771484375-.9453125-1.2998046875-1.21484375-2.9892578125-.7197265625-4.51953125l9.4736328125-29.1611328125-24.798828125-18.017578125c-1.7666015625-1.2734375-2.5107421875-3.541015625-1.8359375-5.630859375.67578125-2.0908203125,2.6044921875-3.4951171875,4.80078125-3.4951171875h30.654296875l9.47265625-29.1533203125c.6728515625-2.08203125,2.6015625-3.4853515625,4.7978515625-3.4853515625,2.1796875,0,4.1044921875,1.390625,4.7900390625,3.4609375l9.4794921875,29.177734375h30.654296875c2.19140625,0,4.119140625,1.400390625,4.796875,3.484375.677734375,2.0849609375-.056640625,4.3515625-1.8291015625,5.640625l-24.8017578125,18.0185546875,9.47265625,29.1533203125c.4970703125,1.5380859375.2275390625,3.2275390625-.7177734375,4.5263671875-.947265625,1.30078125-2.47265625,2.078125-4.080078125,2.078125l-1.5966796875.0009765625-1.37109375-.9658203125Z"/>
          <path class="cls-3" d="M180.91015625,98.010650826396159l-24.7978515625-18.0166015625-26.0888671875,18.955078125-1.6748046875.0263671875c-1.607421875,0-3.1328125-.7763671875-4.080078125-2.0771484375-.9453125-1.2998046875-1.21484375-2.9892578125-.7197265625-4.51953125l9.4736328125-29.1611328125-24.798828125-18.017578125c-1.7666015625-1.2734375-2.5107421875-3.541015625-1.8359375-5.630859375.67578125-2.0908203125,2.6044921875-3.4951171875,4.80078125-3.4951171875h30.654296875l9.47265625-29.1533203125c.6728515625-2.08203125,2.6015625-3.4853515625,4.7978515625-3.4853515625,2.1796875,0,4.1044921875,1.390625,4.7900390625,3.4609375l9.4794921875,29.177734375h30.654296875c2.19140625,0,4.119140625,1.400390625,4.796875,3.484375.677734375,2.0849609375-.056640625,4.3515625-1.8291015625,5.640625l-24.8017578125,18.0185546875,9.47265625,29.1533203125c.4970703125,1.5380859375.2275390625,3.2275390625-.7177734375,4.5263671875-.947265625,1.30078125-2.47265625,2.078125-4.080078125,2.078125l-1.5966796875.0009765625-1.37109375-.9658203125Z"/>
          <path class="cls-3" d="M180.91015625,97.519940040989241l-24.7978515625-18.0166015625-26.0888671875,18.955078125-1.6748046875.0263671875c-1.607421875,0-3.1328125-.7763671875-4.080078125-2.0771484375-.9453125-1.2998046875-1.21484375-2.9892578125-.7197265625-4.51953125l9.4736328125-29.1611328125-24.798828125-18.017578125c-1.7666015625-1.2734375-2.5107421875-3.541015625-1.8359375-5.630859375.67578125-2.0908203125,2.6044921875-3.4951171875,4.80078125-3.4951171875h30.654296875l9.47265625-29.1533203125c.6728515625-2.08203125,2.6015625-3.4853515625,4.7978515625-3.4853515625,2.1796875,0,4.1044921875,1.390625,4.7900390625,3.4609375l9.4794921875,29.177734375h30.654296875c2.19140625,0,4.119140625,1.400390625,4.796875,3.484375.677734375,2.0849609375-.056640625,4.3515625-1.8291015625,5.640625l-24.8017578125,18.0185546875,9.47265625,29.1533203125c.4970703125,1.5380859375.2275390625,3.2275390625-.7177734375,4.5263671875-.947265625,1.30078125-2.47265625,2.078125-4.080078125,2.078125l-1.5966796875.0009765625-1.37109375-.9658203125Z"/>
          <path class="cls-3" d="M180.91015625,97.029229255582322l-24.7978515625-18.0166015625-26.0888671875,18.955078125-1.6748046875.0263671875c-1.607421875,0-3.1328125-.7763671875-4.080078125-2.0771484375-.9453125-1.2998046875-1.21484375-2.9892578125-.7197265625-4.51953125l9.4736328125-29.1611328125-24.798828125-18.017578125c-1.7666015625-1.2734375-2.5107421875-3.541015625-1.8359375-5.630859375.67578125-2.0908203125,2.6044921875-3.4951171875,4.80078125-3.4951171875h30.654296875l9.47265625-29.1533203125c.6728515625-2.08203125,2.6015625-3.4853515625,4.7978515625-3.4853515625,2.1796875,0,4.1044921875,1.390625,4.7900390625,3.4609375l9.4794921875,29.177734375h30.654296875c2.19140625,0,4.119140625,1.400390625,4.796875,3.484375.677734375,2.0849609375-.056640625,4.3515625-1.8291015625,5.640625l-24.8017578125,18.0185546875,9.47265625,29.1533203125c.4970703125,1.5380859375.2275390625,3.2275390625-.7177734375,4.5263671875-.947265625,1.30078125-2.47265625,2.078125-4.080078125,2.078125l-1.5966796875.0009765625-1.37109375-.9658203125Z"/>
          <path class="cls-3" d="M180.91015625,96.538518470175404l-24.7978515625-18.0166015625-26.0888671875,18.955078125-1.6748046875.0263671875c-1.607421875,0-3.1328125-.7763671875-4.080078125-2.0771484375-.9453125-1.2998046875-1.21484375-2.9892578125-.7197265625-4.51953125l9.4736328125-29.1611328125-24.798828125-18.017578125c-1.7666015625-1.2734375-2.5107421875-3.541015625-1.8359375-5.630859375.67578125-2.0908203125,2.6044921875-3.4951171875,4.80078125-3.4951171875h30.654296875l9.47265625-29.1533203125c.6728515625-2.08203125,2.6015625-3.4853515625,4.7978515625-3.4853515625,2.1796875,0,4.1044921875,1.390625,4.7900390625,3.4609375l9.4794921875,29.177734375h30.654296875c2.19140625,0,4.119140625,1.400390625,4.796875,3.484375.677734375,2.0849609375-.056640625,4.3515625-1.8291015625,5.640625l-24.8017578125,18.0185546875,9.47265625,29.1533203125c.4970703125,1.5380859375.2275390625,3.2275390625-.7177734375,4.5263671875-.947265625,1.30078125-2.47265625,2.078125-4.080078125,2.078125l-1.5966796875.0009765625-1.37109375-.9658203125Z"/>
          <path class="cls-3" d="M180.91015625,96.047807684768486l-24.7978515625-18.0166015625-26.0888671875,18.955078125-1.6748046875.0263671875c-1.607421875,0-3.1328125-.7763671875-4.080078125-2.0771484375-.9453125-1.2998046875-1.21484375-2.9892578125-.7197265625-4.51953125l9.4736328125-29.1611328125-24.798828125-18.017578125c-1.7666015625-1.2734375-2.5107421875-3.541015625-1.8359375-5.630859375.67578125-2.0908203125,2.6044921875-3.4951171875,4.80078125-3.4951171875h30.654296875l9.47265625-29.1533203125c.6728515625-2.08203125,2.6015625-3.4853515625,4.7978515625-3.4853515625,2.1796875,0,4.1044921875,1.390625,4.7900390625,3.4609375l9.4794921875,29.177734375h30.654296875c2.19140625,0,4.119140625,1.400390625,4.796875,3.484375.677734375,2.0849609375-.056640625,4.3515625-1.8291015625,5.640625l-24.8017578125,18.0185546875,9.47265625,29.1533203125c.4970703125,1.5380859375.2275390625,3.2275390625-.7177734375,4.5263671875-.947265625,1.30078125-2.47265625,2.078125-4.080078125,2.078125l-1.5966796875.0009765625-1.37109375-.9658203125Z"/>
          <path class="cls-3" d="M180.91015625,95.557096899361568l-24.7978515625-18.0166015625-26.0888671875,18.955078125-1.6748046875.0263671875c-1.607421875,0-3.1328125-.7763671875-4.080078125-2.0771484375-.9453125-1.2998046875-1.21484375-2.9892578125-.7197265625-4.51953125l9.4736328125-29.1611328125-24.798828125-18.017578125c-1.7666015625-1.2734375-2.5107421875-3.541015625-1.8359375-5.630859375.67578125-2.0908203125,2.6044921875-3.4951171875,4.80078125-3.4951171875h30.654296875l9.47265625-29.1533203125c.6728515625-2.08203125,2.6015625-3.4853515625,4.7978515625-3.4853515625,2.1796875,0,4.1044921875,1.390625,4.7900390625,3.4609375l9.4794921875,29.177734375h30.654296875c2.19140625,0,4.119140625,1.400390625,4.796875,3.484375.677734375,2.0849609375-.056640625,4.3515625-1.8291015625,5.640625l-24.8017578125,18.0185546875,9.47265625,29.1533203125c.4970703125,1.5380859375.2275390625,3.2275390625-.7177734375,4.5263671875-.947265625,1.30078125-2.47265625,2.078125-4.080078125,2.078125l-1.5966796875.0009765625-1.37109375-.9658203125Z"/>
          <path class="cls-3" d="M180.91015625,95.06638611395465l-24.7978515625-18.0166015625-26.0888671875,18.955078125-1.6748046875.0263671875c-1.607421875,0-3.1328125-.7763671875-4.080078125-2.0771484375-.9453125-1.2998046875-1.21484375-2.9892578125-.7197265625-4.51953125l9.4736328125-29.1611328125-24.798828125-18.017578125c-1.7666015625-1.2734375-2.5107421875-3.541015625-1.8359375-5.630859375.67578125-2.0908203125,2.6044921875-3.4951171875,4.80078125-3.4951171875h30.654296875l9.47265625-29.1533203125c.6728515625-2.08203125,2.6015625-3.4853515625,4.7978515625-3.4853515625,2.1796875,0,4.1044921875,1.390625,4.7900390625,3.4609375l9.4794921875,29.177734375h30.654296875c2.19140625,0,4.119140625,1.400390625,4.796875,3.484375.677734375,2.0849609375-.056640625,4.3515625-1.8291015625,5.640625l-24.8017578125,18.0185546875,9.47265625,29.1533203125c.4970703125,1.5380859375.2275390625,3.2275390625-.7177734375,4.5263671875-.947265625,1.30078125-2.47265625,2.078125-4.080078125,2.078125l-1.5966796875.0009765625-1.37109375-.9658203125Z"/>
          <path class="cls-3" d="M180.91015625,94.575675328547732l-24.7978515625-18.0166015625-26.0888671875,18.955078125-1.6748046875.0263671875c-1.607421875,0-3.1328125-.7763671875-4.080078125-2.0771484375-.9453125-1.2998046875-1.21484375-2.9892578125-.7197265625-4.51953125l9.4736328125-29.1611328125-24.798828125-18.017578125c-1.7666015625-1.2734375-2.5107421875-3.541015625-1.8359375-5.630859375.67578125-2.0908203125,2.6044921875-3.4951171875,4.80078125-3.4951171875h30.654296875l9.47265625-29.1533203125C151.98828125,1.403800328547732,153.9169921875.000480016047732,156.11328125.000480016047732c2.1796875,0,4.1044921875,1.390625,4.7900390625,3.4609375l9.4794921875,29.177734375h30.654296875c2.19140625,0,4.119140625,1.400390625,4.796875,3.484375.677734375,2.0849609375-.056640625,4.3515625-1.8291015625,5.640625l-24.8017578125,18.0185546875,9.47265625,29.1533203125c.4970703125,1.5380859375.2275390625,3.2275390625-.7177734375,4.5263671875-.947265625,1.30078125-2.47265625,2.078125-4.080078125,2.078125l-1.5966796875.0009765625-1.37109375-.9658203125Z"/>
          <path class="cls-3" d="M180.91015625,94.084964543140813l-24.7978515625-18.0166015625-26.0888671875,18.955078125-1.6748046875.0263671875c-1.607421875,0-3.1328125-.7763671875-4.080078125-2.0771484375-.9453125-1.2998046875-1.21484375-2.9892578125-.7197265625-4.51953125l9.4736328125-29.1611328125-24.798828125-18.017578125c-1.7666015625-1.2734375-2.5107421875-3.541015625-1.8359375-5.630859375.67578125-2.0908203125,2.6044921875-3.4951171875,4.80078125-3.4951171875h30.654296875l9.47265625-29.1533203125c.6728515625-2.08203125,2.6015625-3.4853515625,4.7978515625-3.4853515625,2.1796875,0,4.1044921875,1.390625,4.7900390625,3.4609375l9.4794921875,29.177734375h30.654296875c2.19140625,0,4.119140625,1.400390625,4.796875,3.484375.677734375,2.0849609375-.056640625,4.3515625-1.8291015625,5.640625l-24.8017578125,18.0185546875,9.47265625,29.1533203125c.4970703125,1.5380859375.2275390625,3.2275390625-.7177734375,4.5263671875-.947265625,1.30078125-2.47265625,2.078125-4.080078125,2.078125l-1.5966796875.0009765625-1.37109375-.9658203125Z"/>
          <path class="cls-3" d="M180.91015625,93.594253757733895l-24.7978515625-18.0166015625-26.0888671875,18.955078125-1.6748046875.0263671875c-1.607421875,0-3.1328125-.7763671875-4.080078125-2.0771484375-.9453125-1.2998046875-1.21484375-2.9892578125-.7197265625-4.51953125l9.4736328125-29.1611328125-24.798828125-18.017578125c-1.7666015625-1.2734375-2.5107421875-3.541015625-1.8359375-5.630859375.67578125-2.0908203125,2.6044921875-3.4951171875,4.80078125-3.4951171875h30.654296875l9.47265625-29.1533203125c.6728515625-2.08203125,2.6015625-3.4853515625,4.7978515625-3.4853515625,2.1796875,0,4.1044921875,1.390625,4.7900390625,3.4609375l9.4794921875,29.177734375h30.654296875c2.19140625,0,4.119140625,1.400390625,4.796875,3.484375.677734375,2.0849609375-.056640625,4.3515625-1.8291015625,5.640625l-24.8017578125,18.0185546875,9.47265625,29.1533203125c.4970703125,1.5380859375.2275390625,3.2275390625-.7177734375,4.5263671875-.947265625,1.30078125-2.47265625,2.078125-4.080078125,2.078125l-1.5966796875.0009765625-1.37109375-.9658203125Z"/>
          <path class="cls-3" d="M180.91015625,93.103542972326977l-24.7978515625-18.0166015625-26.0888671875,18.955078125-1.6748046875.0263671875c-1.607421875,0-3.1328125-.7763671875-4.080078125-2.0771484375-.9453125-1.2998046875-1.21484375-2.9892578125-.7197265625-4.51953125l9.4736328125-29.1611328125-24.798828125-18.017578125c-1.7666015625-1.2734375-2.5107421875-3.541015625-1.8359375-5.630859375.67578125-2.0908203125,2.6044921875-3.4951171875,4.80078125-3.4951171875h30.654296875l9.47265625-29.1533203125c.6728515625-2.08203125,2.6015625-3.4853515625,4.7978515625-3.4853515625,2.1796875,0,4.1044921875,1.390625,4.7900390625,3.4609375l9.4794921875,29.177734375h30.654296875c2.19140625,0,4.119140625,1.400390625,4.796875,3.484375.677734375,2.0849609375-.056640625,4.3515625-1.8291015625,5.640625l-24.8017578125,18.0185546875,9.47265625,29.1533203125c.4970703125,1.5380859375.2275390625,3.2275390625-.7177734375,4.5263671875-.947265625,1.30078125-2.47265625,2.078125-4.080078125,2.078125l-1.5966796875.0009765625-1.37109375-.9658203125Z"/>
          <path class="cls-3" d="M180.91015625,92.612832186920059l-24.7978515625-18.0166015625-26.0888671875,18.955078125-1.6748046875.0263671875c-1.607421875,0-3.1328125-.7763671875-4.080078125-2.0771484375-.9453125-1.2998046875-1.21484375-2.9892578125-.7197265625-4.51953125l9.4736328125-29.1611328125-24.798828125-18.017578125c-1.7666015625-1.2734375-2.5107421875-3.541015625-1.8359375-5.630859375.67578125-2.0908203125,2.6044921875-3.4951171875,4.80078125-3.4951171875h30.654296875l9.47265625-29.1533203125c.6728515625-2.08203125,2.6015625-3.4853515625,4.7978515625-3.4853515625,2.1796875,0,4.1044921875,1.390625,4.7900390625,3.4609375l9.4794921875,29.177734375h30.654296875c2.19140625,0,4.119140625,1.400390625,4.796875,3.484375.677734375,2.0849609375-.056640625,4.3515625-1.8291015625,5.640625l-24.8017578125,18.0185546875,9.47265625,29.1533203125c.4970703125,1.5380859375.2275390625,3.2275390625-.7177734375,4.5263671875-.947265625,1.30078125-2.47265625,2.078125-4.080078125,2.078125l-1.5966796875.0009765625-1.37109375-.9658203125Z"/>
          <path class="cls-3" d="M180.91015625,92.122121401513141l-24.7978515625-18.0166015625-26.0888671875,18.955078125-1.6748046875.0263671875c-1.607421875,0-3.1328125-.7763671875-4.080078125-2.0771484375-.9453125-1.2998046875-1.21484375-2.9892578125-.7197265625-4.51953125l9.4736328125-29.1611328125-24.798828125-18.017578125c-1.7666015625-1.2734375-2.5107421875-3.541015625-1.8359375-5.630859375.67578125-2.0908203125,2.6044921875-3.4951171875,4.80078125-3.4951171875h30.654296875l9.47265625-29.1533203125c.6728515625-2.08203125,2.6015625-3.4853515625,4.7978515625-3.4853515625,2.1796875,0,4.1044921875,1.390625,4.7900390625,3.4609375l9.4794921875,29.177734375h30.654296875c2.19140625,0,4.119140625,1.400390625,4.796875,3.484375.677734375,2.0849609375-.056640625,4.3515625-1.8291015625,5.640625l-24.8017578125,18.0185546875,9.47265625,29.1533203125c.4970703125,1.5380859375.2275390625,3.2275390625-.7177734375,4.5263671875-.947265625,1.30078125-2.47265625,2.078125-4.080078125,2.078125l-1.5966796875.0009765625-1.37109375-.9658203125Z"/>
          <path class="cls-3" d="M180.91015625,91.631410616106223l-24.7978515625-18.0166015625-26.0888671875,18.955078125-1.6748046875.0263671875c-1.607421875,0-3.1328125-.7763671875-4.080078125-2.0771484375-.9453125-1.2998046875-1.21484375-2.9892578125-.7197265625-4.51953125l9.4736328125-29.1611328125-24.798828125-18.017578125c-1.7666015625-1.2734375-2.5107421875-3.541015625-1.8359375-5.630859375.67578125-2.0908203125,2.6044921875-3.4951171875,4.80078125-3.4951171875h30.654296875L151.3154296875.541566866106223c.6728515625-2.08203125,2.6015625-3.4853515625,4.7978515625-3.4853515625,2.1796875,0,4.1044921875,1.390625,4.7900390625,3.4609375l9.4794921875,29.177734375h30.654296875c2.19140625,0,4.119140625,1.400390625,4.796875,3.484375.677734375,2.0849609375-.056640625,4.3515625-1.8291015625,5.640625l-24.8017578125,18.0185546875,9.47265625,29.1533203125c.4970703125,1.5380859375.2275390625,3.2275390625-.7177734375,4.5263671875-.947265625,1.30078125-2.47265625,2.078125-4.080078125,2.078125l-1.5966796875.0009765625-1.37109375-.9658203125Z"/>
          <path class="cls-3" d="M180.91015625,91.140699830699305l-24.7978515625-18.0166015625-26.0888671875,18.955078125-1.6748046875.0263671875c-1.607421875,0-3.1328125-.7763671875-4.080078125-2.0771484375-.9453125-1.2998046875-1.21484375-2.9892578125-.7197265625-4.51953125l9.4736328125-29.1611328125-24.798828125-18.017578125c-1.7666015625-1.2734375-2.5107421875-3.541015625-1.8359375-5.630859375.67578125-2.0908203125,2.6044921875-3.4951171875,4.80078125-3.4951171875h30.654296875L151.3154296875.050856080699305c.6728515625-2.08203125,2.6015625-3.4853515625,4.7978515625-3.4853515625,2.1796875,0,4.1044921875,1.390625,4.7900390625,3.4609375l9.4794921875,29.177734375h30.654296875c2.19140625,0,4.119140625,1.400390625,4.796875,3.484375.677734375,2.0849609375-.056640625,4.3515625-1.8291015625,5.640625l-24.8017578125,18.0185546875,9.47265625,29.1533203125c.4970703125,1.5380859375.2275390625,3.2275390625-.7177734375,4.5263671875-.947265625,1.30078125-2.47265625,2.078125-4.080078125,2.078125l-1.5966796875.0009765625-1.37109375-.9658203125Z"/>
          <path class="cls-3" d="M180.91015625,90.649989045292386l-24.7978515625-18.0166015625-26.0888671875,18.955078125-1.6748046875.0263671875c-1.607421875,0-3.1328125-.7763671875-4.080078125-2.0771484375-.9453125-1.2998046875-1.21484375-2.9892578125-.7197265625-4.51953125l9.4736328125-29.1611328125-24.798828125-18.017578125c-1.7666015625-1.2734375-2.5107421875-3.541015625-1.8359375-5.630859375.67578125-2.0908203125,2.6044921875-3.4951171875,4.80078125-3.4951171875h30.654296875L151.3154296875-.439854704707614c.6728515625-2.08203125,2.6015625-3.4853515625,4.7978515625-3.4853515625,2.1796875,0,4.1044921875,1.390625,4.7900390625,3.4609375l9.4794921875,29.177734375h30.654296875c2.19140625,0,4.119140625,1.400390625,4.796875,3.484375.677734375,2.0849609375-.056640625,4.3515625-1.8291015625,5.640625l-24.8017578125,18.0185546875,9.47265625,29.1533203125c.4970703125,1.5380859375.2275390625,3.2275390625-.7177734375,4.5263671875-.947265625,1.30078125-2.47265625,2.078125-4.080078125,2.078125l-1.5966796875.0009765625-1.37109375-.9658203125Z"/>
          <path class="cls-3" d="M180.91015625,90.159278259885468l-24.7978515625-18.0166015625-26.0888671875,18.955078125-1.6748046875.0263671875c-1.607421875,0-3.1328125-.7763671875-4.080078125-2.0771484375-.9453125-1.2998046875-1.21484375-2.9892578125-.7197265625-4.51953125l9.4736328125-29.1611328125-24.798828125-18.017578125c-1.7666015625-1.2734375-2.5107421875-3.541015625-1.8359375-5.630859375.67578125-2.0908203125,2.6044921875-3.4951171875,4.80078125-3.4951171875h30.654296875L151.3154296875-.930565490114532c.6728515625-2.08203125,2.6015625-3.4853515625,4.7978515625-3.4853515625,2.1796875,0,4.1044921875,1.390625,4.7900390625,3.4609375l9.4794921875,29.177734375h30.654296875c2.19140625,0,4.119140625,1.400390625,4.796875,3.484375.677734375,2.0849609375-.056640625,4.3515625-1.8291015625,5.640625l-24.8017578125,18.0185546875,9.47265625,29.1533203125c.4970703125,1.5380859375.2275390625,3.2275390625-.7177734375,4.5263671875-.947265625,1.30078125-2.47265625,2.078125-4.080078125,2.078125l-1.5966796875.0009765625-1.37109375-.9658203125Z"/>
          <path class="cls-3" d="M180.91015625,89.66856747447855l-24.7978515625-18.0166015625-26.0888671875,18.955078125-1.6748046875.0263671875c-1.607421875,0-3.1328125-.7763671875-4.080078125-2.0771484375-.9453125-1.2998046875-1.21484375-2.9892578125-.7197265625-4.51953125l9.4736328125-29.1611328125-24.798828125-18.017578125c-1.7666015625-1.2734375-2.5107421875-3.541015625-1.8359375-5.630859375.67578125-2.0908203125,2.6044921875-3.4951171875,4.80078125-3.4951171875h30.654296875l9.47265625-29.1533203125c.6728515625-2.08203125,2.6015625-3.4853515625,4.7978515625-3.4853515625,2.1796875,0,4.1044921875,1.390625,4.7900390625,3.4609375l9.4794921875,29.177734375h30.654296875c2.19140625,0,4.119140625,1.400390625,4.796875,3.484375.677734375,2.0849609375-.056640625,4.3515625-1.8291015625,5.640625l-24.8017578125,18.0185546875,9.47265625,29.1533203125c.4970703125,1.5380859375.2275390625,3.2275390625-.7177734375,4.5263671875-.947265625,1.30078125-2.47265625,2.078125-4.080078125,2.078125l-1.5966796875.0009765625-1.37109375-.9658203125Z"/>
        </g>
        <path class="cls-2" d="M156.243716367618617.0949685916421l10.543451663656015,32.449407611138668c.0183996588421.056628327101862.071170505776536.094968591643919.130713052549254.094968591640281l34.119326301926776-.000000000283762c.133141182133841,0,.188498588246148.170372577453236.080785109250428.248631000784371l-27.603114815046865,20.054836818198964c-.04817093222664.034998230878045-.068327602140926.09703408203859-.049927943302464.153662409142271l10.54345166418716,32.449407610969502c.041142887930619.126624788852496-.103784682800324.231920832467949-.211498161796044.153662409134995l-27.603114814723085-20.054836818655531c-.04817093222664-.034998230878045-.11339928626694-.034998230878045-.161570218497218-.000000000001819l-27.603114814715809,20.05483681865735c-.10771347899572.078258423332954-.252641049726662-.027037620282499-.211498161796044-.153662409134995l10.543451664183522-32.449407610969502c.0183996588421-.056628327103681-.001757011072186-.118664178264225-.049927943302464-.153662409142271l-27.603114815043227-20.054836818198964c-.107713478999358-.078258423334773-.052356072887051-.248631000784371.08078510924679-.248631000784371l34.119326301926776.000000000283762c.05954254676908,0,.112313393707154-.0383402645366.130713052549254-.094968591640281L155.982290262527385.0949685916421c.041142887926981-.126624788856134.220283217164251-.126624788856134.261426105091232,0Z"/>
      </g>
    </g>
  </g>
</svg>