<?xml version="1.0" encoding="UTF-8"?>
<svg id="Livello_2" data-name="Livello 2" xmlns="http://www.w3.org/2000/svg" width="46.4775390625" height="58.296782601748419" viewBox="0 0 46.4775390625 58.296782601748419">
  <defs>
    <style>
      .cls-1 {
        fill: #f7c831;
      }

      .cls-2 {
        fill: #020101;
      }

      .cls-3 {
        fill: none;
        stroke: #000;
        stroke-width: 2.58848006783751px;
      }
    </style>
  </defs>
  <g id="Livello_1-2" data-name="Livello 1">
    <g>
      <path class="cls-3" d="M9.674984591688371,2.90793776845203l32.32643381131129,20.123884588541841c3.092190622526687,1.924953664129134,3.092189477927604,6.426079396893329-.000001914238965,8.351031824709935L9.674973696571215,51.50672642742029c-3.276253773987264,2.039535027599413-7.517833943558799-.31630244072403-7.517833058944234-4.175517635603683l.00000922565232-40.24775668188704c.000000884618203-3.859215065485841,4.241581879708974-6.215050610613616,7.517834728409071-4.175514341477538Z"/>
      <g>
        <path class="cls-2" d="M7.08642578125,58.296782601748419c-3.9072265625,0-7.08642578125-3.1767578125-7.08642578125-7.0830078125V10.965727914248419C0,7.060454476748419,3.17919921875,3.882720101748419,7.08642578125,3.882720101748419c1.3076171875,0,2.59716796875.3720703125,3.728515625,1.0771484375l32.32666015625,20.1240234375c2.0888671875,1.2998046875,3.3359375,3.5458984375,3.3359375,6.0068359375,0,2.4599609375-1.2470703125,4.7060546875-3.3359375,6.005859375L10.81494140625,57.220610726748419c-1.13134765625.7041015625-2.4208984375,1.076171875-3.728515625,1.076171875Z"/>
        <path class="cls-2" d="M7.08642578125,58.081075929429062c-3.9072265625,0-7.08642578125-3.1767578125-7.08642578125-7.0830078125V10.750021241929062C0,6.844747804429062,3.17919921875,3.667013429429062,7.08642578125,3.667013429429062c1.3076171875,0,2.59716796875.3720703125,3.728515625,1.0771484375l32.32666015625,20.1240234375c2.0888671875,1.2998046875,3.3359375,3.5458984375,3.3359375,6.0068359375,0,2.4599609375-1.2470703125,4.7060546875-3.3359375,6.005859375L10.81494140625,57.004904054429062c-1.13134765625.7041015625-2.4208984375,1.076171875-3.728515625,1.076171875Z"/>
        <path class="cls-2" d="M7.08642578125,57.865369257109705c-3.9072265625,0-7.08642578125-3.1767578125-7.08642578125-7.0830078125V10.534314569609705C0,6.629041132109705,3.17919921875,3.451306757109705,7.08642578125,3.451306757109705c1.3076171875,0,2.59716796875.3720703125,3.728515625,1.0771484375l32.32666015625,20.1240234375c2.0888671875,1.2998046875,3.3359375,3.5458984375,3.3359375,6.0068359375,0,2.4599609375-1.2470703125,4.7060546875-3.3359375,6.005859375L10.81494140625,56.789197382109705c-1.13134765625.7041015625-2.4208984375,1.076171875-3.728515625,1.076171875Z"/>
        <path class="cls-2" d="M7.08642578125,57.649662584790349c-3.9072265625,0-7.08642578125-3.1767578125-7.08642578125-7.0830078125V10.318607897290349C0,6.413334459790349,3.17919921875,3.235600084790349,7.08642578125,3.235600084790349c1.3076171875,0,2.59716796875.3720703125,3.728515625,1.0771484375l32.32666015625,20.1240234375c2.0888671875,1.2998046875,3.3359375,3.5458984375,3.3359375,6.0068359375,0,2.4599609375-1.2470703125,4.7060546875-3.3359375,6.005859375L10.81494140625,56.573490709790349c-1.13134765625.7041015625-2.4208984375,1.076171875-3.728515625,1.076171875Z"/>
        <path class="cls-2" d="M7.08642578125,57.433955912470992c-3.9072265625,0-7.08642578125-3.1767578125-7.08642578125-7.0830078125V10.102901224970992C0,6.197627787470992,3.17919921875,3.019893412470992,7.08642578125,3.019893412470992c1.3076171875,0,2.59716796875.3720703125,3.728515625,1.0771484375l32.32666015625,20.1240234375c2.0888671875,1.2998046875,3.3359375,3.5458984375,3.3359375,6.0068359375,0,2.4599609375-1.2470703125,4.7060546875-3.3359375,6.005859375L10.81494140625,56.357784037470992c-1.13134765625.7041015625-2.4208984375,1.076171875-3.728515625,1.076171875Z"/>
        <path class="cls-2" d="M7.08642578125,57.218249240151636c-3.9072265625,0-7.08642578125-3.1767578125-7.08642578125-7.0830078125V9.887194552651636C0,5.981921115151636,3.17919921875,2.804186740151636,7.08642578125,2.804186740151636c1.3076171875,0,2.59716796875.3720703125,3.728515625,1.0771484375l32.32666015625,20.1240234375c2.0888671875,1.2998046875,3.3359375,3.5458984375,3.3359375,6.0068359375,0,2.4599609375-1.2470703125,4.7060546875-3.3359375,6.005859375L10.81494140625,56.142077365151636c-1.13134765625.7041015625-2.4208984375,1.076171875-3.728515625,1.076171875Z"/>
        <path class="cls-2" d="M7.08642578125,57.002542567832279c-3.9072265625,0-7.08642578125-3.1767578125-7.08642578125-7.0830078125V9.671487880332279C0,5.766214442832279,3.17919921875,2.588480067832279,7.08642578125,2.588480067832279c1.3076171875,0,2.59716796875.3720703125,3.728515625,1.0771484375l32.32666015625,20.1240234375c2.0888671875,1.2998046875,3.3359375,3.5458984375,3.3359375,6.0068359375,0,2.4599609375-1.2470703125,4.7060546875-3.3359375,6.005859375L10.81494140625,55.926370692832279c-1.13134765625.7041015625-2.4208984375,1.076171875-3.728515625,1.076171875Z"/>
        <path class="cls-2" d="M7.08642578125,56.786835895512922c-3.9072265625,0-7.08642578125-3.1767578125-7.08642578125-7.0830078125V9.455781208012922C0,5.550507770512922,3.17919921875,2.372773395512922,7.08642578125,2.372773395512922c1.3076171875,0,2.59716796875.3720703125,3.728515625,1.0771484375l32.32666015625,20.1240234375c2.0888671875,1.2998046875,3.3359375,3.5458984375,3.3359375,6.0068359375,0,2.4599609375-1.2470703125,4.7060546875-3.3359375,6.005859375L10.81494140625,55.710664020512922c-1.13134765625.7041015625-2.4208984375,1.076171875-3.728515625,1.076171875Z"/>
        <path class="cls-2" d="M7.08642578125,56.571129223193566c-3.9072265625,0-7.08642578125-3.1767578125-7.08642578125-7.0830078125V9.240074535693566C0,5.334801098193566,3.17919921875,2.157066723193566,7.08642578125,2.157066723193566c1.3076171875,0,2.59716796875.3720703125,3.728515625,1.0771484375l32.32666015625,20.1240234375c2.0888671875,1.2998046875,3.3359375,3.5458984375,3.3359375,6.0068359375,0,2.4599609375-1.2470703125,4.7060546875-3.3359375,6.005859375L10.81494140625,55.494957348193566c-1.13134765625.7041015625-2.4208984375,1.076171875-3.728515625,1.076171875Z"/>
        <path class="cls-2" d="M7.08642578125,56.355422550874209c-3.9072265625,0-7.08642578125-3.1767578125-7.08642578125-7.0830078125V9.024367863374209C0,5.119094425874209,3.17919921875,1.941360050874209,7.08642578125,1.941360050874209c1.3076171875,0,2.59716796875.3720703125,3.728515625,1.0771484375l32.32666015625,20.1240234375c2.0888671875,1.2998046875,3.3359375,3.5458984375,3.3359375,6.0068359375,0,2.4599609375-1.2470703125,4.7060546875-3.3359375,6.005859375L10.81494140625,55.279250675874209c-1.13134765625.7041015625-2.4208984375,1.076171875-3.728515625,1.076171875Z"/>
        <path class="cls-2" d="M7.08642578125,56.139715878554853c-3.9072265625,0-7.08642578125-3.1767578125-7.08642578125-7.0830078125V8.808661191054853C0,4.903387753554853,3.17919921875,1.725653378554853,7.08642578125,1.725653378554853c1.3076171875,0,2.59716796875.3720703125,3.728515625,1.0771484375l32.32666015625,20.1240234375c2.0888671875,1.2998046875,3.3359375,3.5458984375,3.3359375,6.0068359375,0,2.4599609375-1.2470703125,4.7060546875-3.3359375,6.005859375L10.81494140625,55.063544003554853c-1.13134765625.7041015625-2.4208984375,1.076171875-3.728515625,1.076171875Z"/>
        <path class="cls-2" d="M7.08642578125,55.924009206235496c-3.9072265625,0-7.08642578125-3.1767578125-7.08642578125-7.0830078125V8.592954518735496C0,4.687681081235496,3.17919921875,1.509946706235496,7.08642578125,1.509946706235496c1.3076171875,0,2.59716796875.3720703125,3.728515625,1.0771484375l32.32666015625,20.1240234375c2.0888671875,1.2998046875,3.3359375,3.5458984375,3.3359375,6.0068359375,0,2.4599609375-1.2470703125,4.7060546875-3.3359375,6.005859375L10.81494140625,54.847837331235496c-1.13134765625.7041015625-2.4208984375,1.076171875-3.728515625,1.076171875Z"/>
        <path class="cls-2" d="M7.08642578125,55.70830253391614c-3.9072265625,0-7.08642578125-3.1767578125-7.08642578125-7.0830078125V8.37724784641614C0,4.47197440891614,3.17919921875,1.29424003391614,7.08642578125,1.29424003391614c1.3076171875,0,2.59716796875.3720703125,3.728515625,1.0771484375l32.32666015625,20.1240234375c2.0888671875,1.2998046875,3.3359375,3.5458984375,3.3359375,6.0068359375,0,2.4599609375-1.2470703125,4.7060546875-3.3359375,6.005859375L10.81494140625,54.63213065891614c-1.13134765625.7041015625-2.4208984375,1.076171875-3.728515625,1.076171875Z"/>
        <path class="cls-2" d="M7.08642578125,55.492595861596783c-3.9072265625,0-7.08642578125-3.1767578125-7.08642578125-7.0830078125V8.161541174096783C0,4.256267736596783,3.17919921875,1.078533361596783,7.08642578125,1.078533361596783c1.3076171875,0,2.59716796875.3720703125,3.728515625,1.0771484375l32.32666015625,20.1240234375c2.0888671875,1.2998046875,3.3359375,3.5458984375,3.3359375,6.0068359375,0,2.4599609375-1.2470703125,4.7060546875-3.3359375,6.005859375L10.81494140625,54.416423986596783c-1.13134765625.7041015625-2.4208984375,1.076171875-3.728515625,1.076171875Z"/>
        <path class="cls-2" d="M7.08642578125,55.276889189277426c-3.9072265625,0-7.08642578125-3.1767578125-7.08642578125-7.0830078125V7.945834501777426C0,4.040561064277426,3.17919921875.862826689277426,7.08642578125.862826689277426c1.3076171875,0,2.59716796875.3720703125,3.728515625,1.0771484375l32.32666015625,20.1240234375c2.0888671875,1.2998046875,3.3359375,3.5458984375,3.3359375,6.0068359375,0,2.4599609375-1.2470703125,4.7060546875-3.3359375,6.005859375L10.81494140625,54.200717314277426c-1.13134765625.7041015625-2.4208984375,1.076171875-3.728515625,1.076171875Z"/>
        <path class="cls-2" d="M7.08642578125,55.06118251695807c-3.9072265625,0-7.08642578125-3.1767578125-7.08642578125-7.0830078125V7.73012782945807C0,3.82485439195807,3.17919921875.64712001695807,7.08642578125.64712001695807c1.3076171875,0,2.59716796875.3720703125,3.728515625,1.0771484375l32.32666015625,20.1240234375c2.0888671875,1.2998046875,3.3359375,3.5458984375,3.3359375,6.0068359375,0,2.4599609375-1.2470703125,4.7060546875-3.3359375,6.005859375L10.81494140625,53.98501064195807c-1.13134765625.7041015625-2.4208984375,1.076171875-3.728515625,1.076171875Z"/>
        <path class="cls-2" d="M7.08642578125,54.845475844638713c-3.9072265625,0-7.08642578125-3.1767578125-7.08642578125-7.0830078125V7.514421157138713C0,3.609147719638713,3.17919921875.431413344638713,7.08642578125.431413344638713c1.3076171875,0,2.59716796875.3720703125,3.728515625,1.0771484375l32.32666015625,20.1240234375c2.0888671875,1.2998046875,3.3359375,3.5458984375,3.3359375,6.0068359375,0,2.4599609375-1.2470703125,4.7060546875-3.3359375,6.005859375L10.81494140625,53.769303969638713c-1.13134765625.7041015625-2.4208984375,1.076171875-3.728515625,1.076171875Z"/>
        <path class="cls-2" d="M7.08642578125,54.629769172319357c-3.9072265625,0-7.08642578125-3.1767578125-7.08642578125-7.0830078125V7.298714484819357C0,3.393441047319357,3.17919921875.215706672319357,7.08642578125.215706672319357c1.3076171875,0,2.59716796875.3720703125,3.728515625,1.0771484375l32.32666015625,20.1240234375c2.0888671875,1.2998046875,3.3359375,3.5458984375,3.3359375,6.0068359375,0,2.4599609375-1.2470703125,4.7060546875-3.3359375,6.005859375L10.81494140625,53.553597297319357c-1.13134765625.7041015625-2.4208984375,1.076171875-3.728515625,1.076171875Z"/>
        <path class="cls-2" d="M7.08642578125,54.4140625c-3.9072265625,0-7.08642578125-3.1767578125-7.08642578125-7.0830078125V7.0830078125C0,3.177734375,3.17919921875,0,7.08642578125,0c1.3076171875,0,2.59716796875.3720703125,3.728515625,1.0771484375l32.32666015625,20.1240234375c2.0888671875,1.2998046875,3.3359375,3.5458984375,3.3359375,6.0068359375,0,2.4599609375-1.2470703125,4.7060546875-3.3359375,6.005859375L10.81494140625,53.337890625c-1.13134765625.7041015625-2.4208984375,1.076171875-3.728515625,1.076171875Z"/>
      </g>
      <path class="cls-1" d="M9.674984591688371,2.90793776845203l32.32643381131129,20.123884588541841c3.092190622526687,1.924953664129134,3.092189477927604,6.426079396893329-.000001914238965,8.351031824709935L9.674973696571215,51.50672642742029c-3.276253773987264,2.039535027599413-7.517833943558799-.31630244072403-7.517833058944234-4.175517635603683l.00000922565232-40.24775668188704c.000000884618203-3.859215065485841,4.241581879708974-6.215050610613616,7.517834728409071-4.175514341477538Z"/>
    </g>
  </g>
</svg>