<?xml version="1.0" encoding="UTF-8"?>
<svg id="Livello_2" data-name="Livello 2" xmlns="http://www.w3.org/2000/svg" width="124.438112020161498" height="134.585097270515689" viewBox="0 0 124.438112020161498 134.585097270515689">
  <defs>
    <style>
      .cls-1 {
        fill: #f7f0d0;
      }

      .cls-2 {
        fill: #020101;
      }

      .cls-3 {
        fill: none;
        stroke: #000;
        stroke-width: 6.754648180351965px;
      }
    </style>
  </defs>
  <g id="Livello_1-2" data-name="Livello 1">
    <g>
      <path class="cls-3" d="M117.03568674716189,74.250830405404486c4.008250211954874-11.552366667976457,0-22.398108512375984,0-22.398108512375984l-13.203021162575169-3.418376683850511c.040393627972662.145965485944544.078361528943788.291509106322337.117278627436463.43705272670195-.52226957109815-1.633463472771837-1.136189436478162-3.225584120045824-1.838701070784737-4.769190227194485l7.371467973007384-12.13411928392452c-5.33480648522891-11.003097700633589-15.837782556998718-15.837677090607031-15.837782556998718-15.837677090607031l-11.753280143933807,6.918595287570497c.141008565540687.079732592033906.279275004901137.160730780766244.418490641786775.24130710393365-1.516606710905762-.783826222213975-3.085313819246949-1.481170003335137-4.698844144011673-2.086547090995737l-3.367647349503386-13.793316556242644c-11.552788533543207-4.008144745561367-22.398108512374165,0-22.398108512374165,0l-3.418693083025573,13.203126628966857c.146281885117787-.040499094366169.291614572714025-.078466995335475.437369125877012-.117700493001394-1.633358006381968.522691436663081-3.22568958643933,1.136505835653224-4.769401159976042,1.838912003568112l-12.13411928392452-7.371678905792578c-11.003097700635408,5.334911951622416-15.837888023390406,15.838098956173781-15.837888023390406,15.838098956173781l6.918700753962185,11.75317467754212c.079943524815462-.140903099149.1609417135478-.279275004901137.241518036713387-.418490641786775-.78403715499735,1.516606710905762-1.481064536939812,3.085524752030324-2.086863490167161,4.698738677619986l-13.793211089854594,3.367752815895074c-4.008144745559548,11.552788533543207,0,22.398108512374165,0,22.398108512374165l13.203021162578807,3.41879854941908c-.0403936279763-.146387351511294-.0782560625521-.291930971890906-.117278627436463-.4374745922687.522375037489837,1.633463472771837,1.136294902869849,3.225584120045824,1.838701070784737,4.769612092759417l-7.371467973007384,12.13411928392452c5.334911951620597,11.003097700635408,15.837888023386768,15.837677090607031,15.837888023386768,15.837677090607031l11.753280143933807-6.918595287570497c-.141008565540687-.080154457598837-.279380471289187-.161152646331175-.418596108174825-.241728969496762,1.516606710902124.784248087778906,3.085313819246949,1.481170003331499,4.698949610403361,2.086968956560668l3.36754188310988,13.793316556242644c11.552788533539569,4.008144745561367,22.398213978765853,0,22.398213978765853,0l3.418693083025573-13.203126628968676c-.146387351509475.040499094367988-.291720039105712.078466995335475-.4374745922687.117278627436463,1.633358006380149-.52226957109815,3.225795052829199-1.136083970086474,4.769401159977861-1.838912003568112l12.13411928392452,7.371678905792578c11.003097700635408-5.334911951622416,15.837888023390406-15.837677090607031,15.837888023390406-15.837677090607031l-6.918700753962185-11.753596543107051c-.079838058423775.141324964713931-.1609417135478.279696870466069-.241623503108713.418912507349887.784248087780725-1.516606710902124,1.481275469726825-3.085524752030324,2.086968956562487-4.699160543186736l13.793211089850956-3.367752815893255ZM62.219318791294427,82.745937314295588c-11.332363775141857,0-20.519119280006635-9.186966437648152-20.519119280006635-20.519119280008454,0-11.332574707925232,9.186755504864777-20.519119280004816,20.519119280006635-20.519119280004816,11.332469241533545,0,20.519119280004816,9.186544572079583,20.519119280004816,20.519119280004816,0,11.332152842360301-9.186650038471271,20.519119280008454-20.519119280004816,20.519119280008454Z"/>
      <g>
        <path class="cls-2" d="M61.135991521330652,134.585097270515689c-4.482421875,0-8.78515625-.7041015625-12.787109375-2.0927734375l-2.8955078125-1.0048828125-3.2294921875-13.228515625-11.1103515625,6.5400390625-2.6728515625-1.23046875c-.50390625-.232421875-12.4052734375-5.82421875-18.548828125-18.4951171875l-1.337890625-2.7587890625,7.0703125-11.638671875-12.4814453125-3.2314453125-1.0205078125-2.7607421875c-.19140625-.5205078125-4.6533203125-12.8896484375-.0380859375-26.1943359375l1.0048828125-2.896484375,13.23046875-3.2294921875-6.541015625-11.111328125,1.23046875-2.6728515625c.232421875-.50390625,5.82421875-12.4052734375,18.4951171875-18.548828125l2.7587890625-1.337890625,11.6396484375,7.0712890625,3.2314453125-12.4814453125,2.7607421875-1.0205078125c.58984375-.2177734375,5.978515625-2.1298828125,13.4072265625-2.1298828125,4.482421875,0,8.7841796875.7041015625,12.7861328125,2.091796875l2.896484375,1.0048828125,3.23046875,13.23046875,11.1103515625-6.5400390625,2.6728515625,1.23046875c.50390625.2314453125,12.4052734375,5.822265625,18.548828125,18.494140625l1.337890625,2.7587890625-7.0703125,11.6396484375,12.48046875,3.23046875,1.01953125,2.7607421875c.1923828125.51953125,4.6552734375,12.8896484375.0380859375,26.1953125l-1.0048828125,2.8955078125-13.2294921875,3.2294921875,6.541015625,11.111328125-1.23046875,2.6728515625c-.232421875.50390625-5.82421875,12.4052734375-18.4951171875,18.548828125l-2.7587890625,1.337890625-11.638671875-7.0712890625-3.2314453125,12.4814453125-2.7607421875,1.01953125c-.58984375.21875-5.978515625,2.130859375-13.408203125,2.130859375ZM62.218999333830652,57.468886333015689c-8.2099609375,0-14.8896484375,6.6796875-14.8896484375,14.8896484375,0,8.2109375,6.6796875,14.890625,14.8896484375,14.890625,8.2109375,0,14.890625-6.6796875,14.890625-14.890625,0-8.2099609375-6.6796875-14.8896484375-14.890625-14.8896484375Z"/>
        <path class="cls-2" d="M61.135991521330652,134.022209922153706c-4.482421875,0-8.78515625-.7041015625-12.787109375-2.0927734375l-2.8955078125-1.0048828125-3.2294921875-13.228515625-11.1103515625,6.5400390625-2.6728515625-1.23046875c-.50390625-.232421875-12.4052734375-5.82421875-18.548828125-18.4951171875l-1.337890625-2.7587890625,7.0703125-11.638671875-12.4814453125-3.2314453125-1.0205078125-2.7607421875c-.19140625-.5205078125-4.6533203125-12.8896484375-.0380859375-26.1943359375l1.0048828125-2.896484375,13.23046875-3.2294921875-6.541015625-11.111328125,1.23046875-2.6728515625c.232421875-.50390625,5.82421875-12.4052734375,18.4951171875-18.548828125l2.7587890625-1.337890625,11.6396484375,7.0712890625,3.2314453125-12.4814453125,2.7607421875-1.0205078125c.58984375-.2177734375,5.978515625-2.1298828125,13.4072265625-2.1298828125,4.482421875,0,8.7841796875.7041015625,12.7861328125,2.091796875l2.896484375,1.0048828125,3.23046875,13.23046875,11.1103515625-6.5400390625,2.6728515625,1.23046875c.50390625.2314453125,12.4052734375,5.822265625,18.548828125,18.494140625l1.337890625,2.7587890625-7.0703125,11.6396484375,12.48046875,3.23046875,1.01953125,2.7607421875c.1923828125.51953125,4.6552734375,12.8896484375.0380859375,26.1953125l-1.0048828125,2.8955078125-13.2294921875,3.2294921875,6.541015625,11.111328125-1.23046875,2.6728515625c-.232421875.50390625-5.82421875,12.4052734375-18.4951171875,18.548828125l-2.7587890625,1.337890625-11.638671875-7.0712890625-3.2314453125,12.4814453125-2.7607421875,1.01953125c-.58984375.21875-5.978515625,2.130859375-13.408203125,2.130859375ZM62.218999333830652,56.905998984653706c-8.2099609375,0-14.8896484375,6.6796875-14.8896484375,14.8896484375,0,8.2109375,6.6796875,14.890625,14.8896484375,14.890625,8.2109375,0,14.890625-6.6796875,14.890625-14.890625,0-8.2099609375-6.6796875-14.8896484375-14.890625-14.8896484375Z"/>
        <path class="cls-2" d="M61.135991521330652,133.459322573791724c-4.482421875,0-8.78515625-.7041015625-12.787109375-2.0927734375l-2.8955078125-1.0048828125-3.2294921875-13.228515625-11.1103515625,6.5400390625-2.6728515625-1.23046875c-.50390625-.232421875-12.4052734375-5.82421875-18.548828125-18.4951171875l-1.337890625-2.7587890625,7.0703125-11.638671875-12.4814453125-3.2314453125-1.0205078125-2.7607421875c-.19140625-.5205078125-4.6533203125-12.8896484375-.0380859375-26.1943359375l1.0048828125-2.896484375,13.23046875-3.2294921875-6.541015625-11.111328125,1.23046875-2.6728515625c.232421875-.50390625,5.82421875-12.4052734375,18.4951171875-18.548828125l2.7587890625-1.337890625,11.6396484375,7.0712890625,3.2314453125-12.4814453125,2.7607421875-1.0205078125c.58984375-.2177734375,5.978515625-2.1298828125,13.4072265625-2.1298828125,4.482421875,0,8.7841796875.7041015625,12.7861328125,2.091796875l2.896484375,1.0048828125,3.23046875,13.23046875,11.1103515625-6.5400390625,2.6728515625,1.23046875c.50390625.2314453125,12.4052734375,5.822265625,18.548828125,18.494140625l1.337890625,2.7587890625-7.0703125,11.6396484375,12.48046875,3.23046875,1.01953125,2.7607421875c.1923828125.51953125,4.6552734375,12.8896484375.0380859375,26.1953125l-1.0048828125,2.8955078125-13.2294921875,3.2294921875,6.541015625,11.111328125-1.23046875,2.6728515625c-.232421875.50390625-5.82421875,12.4052734375-18.4951171875,18.548828125l-2.7587890625,1.337890625-11.638671875-7.0712890625-3.2314453125,12.4814453125-2.7607421875,1.01953125c-.58984375.21875-5.978515625,2.130859375-13.408203125,2.130859375ZM62.218999333830652,56.343111636291724c-8.2099609375,0-14.8896484375,6.6796875-14.8896484375,14.8896484375,0,8.2109375,6.6796875,14.890625,14.8896484375,14.890625,8.2109375,0,14.890625-6.6796875,14.890625-14.890625,0-8.2099609375-6.6796875-14.8896484375-14.890625-14.8896484375Z"/>
        <path class="cls-2" d="M61.135991521330652,132.896435225429741c-4.482421875,0-8.78515625-.7041015625-12.787109375-2.0927734375l-2.8955078125-1.0048828125-3.2294921875-13.228515625-11.1103515625,6.5400390625-2.6728515625-1.23046875c-.50390625-.232421875-12.4052734375-5.82421875-18.548828125-18.4951171875l-1.337890625-2.7587890625,7.0703125-11.638671875-12.4814453125-3.2314453125-1.0205078125-2.7607421875c-.19140625-.5205078125-4.6533203125-12.8896484375-.0380859375-26.1943359375l1.0048828125-2.896484375,13.23046875-3.2294921875-6.541015625-11.111328125,1.23046875-2.6728515625c.232421875-.50390625,5.82421875-12.4052734375,18.4951171875-18.548828125l2.7587890625-1.337890625,11.6396484375,7.0712890625,3.2314453125-12.4814453125,2.7607421875-1.0205078125c.58984375-.2177734375,5.978515625-2.1298828125,13.4072265625-2.1298828125,4.482421875,0,8.7841796875.7041015625,12.7861328125,2.091796875l2.896484375,1.0048828125,3.23046875,13.23046875,11.1103515625-6.5400390625,2.6728515625,1.23046875c.50390625.2314453125,12.4052734375,5.822265625,18.548828125,18.494140625l1.337890625,2.7587890625-7.0703125,11.6396484375,12.48046875,3.23046875,1.01953125,2.7607421875c.1923828125.51953125,4.6552734375,12.8896484375.0380859375,26.1953125l-1.0048828125,2.8955078125-13.2294921875,3.2294921875,6.541015625,11.111328125-1.23046875,2.6728515625c-.232421875.50390625-5.82421875,12.4052734375-18.4951171875,18.548828125l-2.7587890625,1.337890625-11.638671875-7.0712890625-3.2314453125,12.4814453125-2.7607421875,1.01953125c-.58984375.21875-5.978515625,2.130859375-13.408203125,2.130859375ZM62.218999333830652,55.780224287929741c-8.2099609375,0-14.8896484375,6.6796875-14.8896484375,14.8896484375,0,8.2109375,6.6796875,14.890625,14.8896484375,14.890625,8.2109375,0,14.890625-6.6796875,14.890625-14.890625,0-8.2099609375-6.6796875-14.8896484375-14.890625-14.8896484375Z"/>
        <path class="cls-2" d="M61.135991521330652,132.333547877067758c-4.482421875,0-8.78515625-.7041015625-12.787109375-2.0927734375l-2.8955078125-1.0048828125-3.2294921875-13.228515625-11.1103515625,6.5400390625-2.6728515625-1.23046875c-.50390625-.232421875-12.4052734375-5.82421875-18.548828125-18.4951171875l-1.337890625-2.7587890625,7.0703125-11.638671875-12.4814453125-3.2314453125-1.0205078125-2.7607421875c-.19140625-.5205078125-4.6533203125-12.8896484375-.0380859375-26.1943359375l1.0048828125-2.896484375,13.23046875-3.2294921875-6.541015625-11.111328125,1.23046875-2.6728515625c.232421875-.50390625,5.82421875-12.4052734375,18.4951171875-18.548828125l2.7587890625-1.337890625,11.6396484375,7.0712890625,3.2314453125-12.4814453125,2.7607421875-1.0205078125c.58984375-.2177734375,5.978515625-2.1298828125,13.4072265625-2.1298828125,4.482421875,0,8.7841796875.7041015625,12.7861328125,2.091796875l2.896484375,1.0048828125,3.23046875,13.23046875,11.1103515625-6.5400390625,2.6728515625,1.23046875c.50390625.2314453125,12.4052734375,5.822265625,18.548828125,18.494140625l1.337890625,2.7587890625-7.0703125,11.6396484375,12.48046875,3.23046875,1.01953125,2.7607421875c.1923828125.51953125,4.6552734375,12.8896484375.0380859375,26.1953125l-1.0048828125,2.8955078125-13.2294921875,3.2294921875,6.541015625,11.111328125-1.23046875,2.6728515625c-.232421875.50390625-5.82421875,12.4052734375-18.4951171875,18.548828125l-2.7587890625,1.337890625-11.638671875-7.0712890625-3.2314453125,12.4814453125-2.7607421875,1.01953125c-.58984375.21875-5.978515625,2.130859375-13.408203125,2.130859375ZM62.218999333830652,55.217336939567758c-8.2099609375,0-14.8896484375,6.6796875-14.8896484375,14.8896484375,0,8.2109375,6.6796875,14.890625,14.8896484375,14.890625,8.2109375,0,14.890625-6.6796875,14.890625-14.890625,0-8.2099609375-6.6796875-14.8896484375-14.890625-14.8896484375Z"/>
        <path class="cls-2" d="M61.135991521330652,131.770660528705776c-4.482421875,0-8.78515625-.7041015625-12.787109375-2.0927734375l-2.8955078125-1.0048828125-3.2294921875-13.228515625-11.1103515625,6.5400390625-2.6728515625-1.23046875c-.50390625-.232421875-12.4052734375-5.82421875-18.548828125-18.4951171875l-1.337890625-2.7587890625,7.0703125-11.638671875-12.4814453125-3.2314453125-1.0205078125-2.7607421875c-.19140625-.5205078125-4.6533203125-12.8896484375-.0380859375-26.1943359375l1.0048828125-2.896484375,13.23046875-3.2294921875-6.541015625-11.111328125,1.23046875-2.6728515625c.232421875-.50390625,5.82421875-12.4052734375,18.4951171875-18.548828125l2.7587890625-1.337890625,11.6396484375,7.0712890625,3.2314453125-12.4814453125,2.7607421875-1.0205078125c.58984375-.2177734375,5.978515625-2.1298828125,13.4072265625-2.1298828125,4.482421875,0,8.7841796875.7041015625,12.7861328125,2.091796875l2.896484375,1.0048828125,3.23046875,13.23046875,11.1103515625-6.5400390625,2.6728515625,1.23046875c.50390625.2314453125,12.4052734375,5.822265625,18.548828125,18.494140625l1.337890625,2.7587890625-7.0703125,11.6396484375,12.48046875,3.23046875,1.01953125,2.7607421875c.1923828125.51953125,4.6552734375,12.8896484375.0380859375,26.1953125l-1.0048828125,2.8955078125-13.2294921875,3.2294921875,6.541015625,11.111328125-1.23046875,2.6728515625c-.232421875.50390625-5.82421875,12.4052734375-18.4951171875,18.548828125l-2.7587890625,1.337890625-11.638671875-7.0712890625-3.2314453125,12.4814453125-2.7607421875,1.01953125c-.58984375.21875-5.978515625,2.130859375-13.408203125,2.130859375ZM62.218999333830652,54.654449591205776c-8.2099609375,0-14.8896484375,6.6796875-14.8896484375,14.8896484375,0,8.2109375,6.6796875,14.890625,14.8896484375,14.890625,8.2109375,0,14.890625-6.6796875,14.890625-14.890625,0-8.2099609375-6.6796875-14.8896484375-14.890625-14.8896484375Z"/>
        <path class="cls-2" d="M61.135991521330652,131.207773180343793c-4.482421875,0-8.78515625-.7041015625-12.787109375-2.0927734375l-2.8955078125-1.0048828125-3.2294921875-13.228515625-11.1103515625,6.5400390625-2.6728515625-1.23046875c-.50390625-.232421875-12.4052734375-5.82421875-18.548828125-18.4951171875l-1.337890625-2.7587890625,7.0703125-11.638671875-12.4814453125-3.2314453125-1.0205078125-2.7607421875c-.19140625-.5205078125-4.6533203125-12.8896484375-.0380859375-26.1943359375l1.0048828125-2.896484375,13.23046875-3.2294921875-6.541015625-11.111328125,1.23046875-2.6728515625c.232421875-.50390625,5.82421875-12.4052734375,18.4951171875-18.548828125l2.7587890625-1.337890625,11.6396484375,7.0712890625,3.2314453125-12.4814453125,2.7607421875-1.0205078125c.58984375-.2177734375,5.978515625-2.1298828125,13.4072265625-2.1298828125,4.482421875,0,8.7841796875.7041015625,12.7861328125,2.091796875l2.896484375,1.0048828125,3.23046875,13.23046875,11.1103515625-6.5400390625,2.6728515625,1.23046875c.50390625.2314453125,12.4052734375,5.822265625,18.548828125,18.494140625l1.337890625,2.7587890625-7.0703125,11.6396484375,12.48046875,3.23046875,1.01953125,2.7607421875c.1923828125.51953125,4.6552734375,12.8896484375.0380859375,26.1953125l-1.0048828125,2.8955078125-13.2294921875,3.2294921875,6.541015625,11.111328125-1.23046875,2.6728515625c-.232421875.50390625-5.82421875,12.4052734375-18.4951171875,18.548828125l-2.7587890625,1.337890625-11.638671875-7.0712890625-3.2314453125,12.4814453125-2.7607421875,1.01953125c-.58984375.21875-5.978515625,2.130859375-13.408203125,2.130859375ZM62.218999333830652,54.091562242843793c-8.2099609375,0-14.8896484375,6.6796875-14.8896484375,14.8896484375,0,8.2109375,6.6796875,14.890625,14.8896484375,14.890625,8.2109375,0,14.890625-6.6796875,14.890625-14.890625,0-8.2099609375-6.6796875-14.8896484375-14.890625-14.8896484375Z"/>
        <path class="cls-2" d="M61.135991521330652,130.64488583198181c-4.482421875,0-8.78515625-.7041015625-12.787109375-2.0927734375l-2.8955078125-1.0048828125-3.2294921875-13.228515625-11.1103515625,6.5400390625-2.6728515625-1.23046875c-.50390625-.232421875-12.4052734375-5.82421875-18.548828125-18.4951171875l-1.337890625-2.7587890625,7.0703125-11.638671875-12.4814453125-3.2314453125-1.0205078125-2.7607421875c-.19140625-.5205078125-4.6533203125-12.8896484375-.0380859375-26.1943359375l1.0048828125-2.896484375,13.23046875-3.2294921875-6.541015625-11.111328125,1.23046875-2.6728515625c.232421875-.50390625,5.82421875-12.4052734375,18.4951171875-18.548828125l2.7587890625-1.337890625,11.6396484375,7.0712890625,3.2314453125-12.4814453125,2.7607421875-1.0205078125c.58984375-.2177734375,5.978515625-2.1298828125,13.4072265625-2.1298828125,4.482421875,0,8.7841796875.7041015625,12.7861328125,2.091796875l2.896484375,1.0048828125,3.23046875,13.23046875,11.1103515625-6.5400390625,2.6728515625,1.23046875c.50390625.2314453125,12.4052734375,5.822265625,18.548828125,18.494140625l1.337890625,2.7587890625-7.0703125,11.6396484375,12.48046875,3.23046875,1.01953125,2.7607421875c.1923828125.51953125,4.6552734375,12.8896484375.0380859375,26.1953125l-1.0048828125,2.8955078125-13.2294921875,3.2294921875,6.541015625,11.111328125-1.23046875,2.6728515625c-.232421875.50390625-5.82421875,12.4052734375-18.4951171875,18.548828125l-2.7587890625,1.337890625-11.638671875-7.0712890625-3.2314453125,12.4814453125-2.7607421875,1.01953125c-.58984375.21875-5.978515625,2.130859375-13.408203125,2.130859375ZM62.218999333830652,53.52867489448181c-8.2099609375,0-14.8896484375,6.6796875-14.8896484375,14.8896484375,0,8.2109375,6.6796875,14.890625,14.8896484375,14.890625,8.2109375,0,14.890625-6.6796875,14.890625-14.890625,0-8.2099609375-6.6796875-14.8896484375-14.890625-14.8896484375Z"/>
        <path class="cls-2" d="M61.135991521330652,130.081998483619827c-4.482421875,0-8.78515625-.7041015625-12.787109375-2.0927734375l-2.8955078125-1.0048828125-3.2294921875-13.228515625-11.1103515625,6.5400390625-2.6728515625-1.23046875c-.50390625-.232421875-12.4052734375-5.82421875-18.548828125-18.4951171875l-1.337890625-2.7587890625,7.0703125-11.638671875-12.4814453125-3.2314453125-1.0205078125-2.7607421875c-.19140625-.5205078125-4.6533203125-12.8896484375-.0380859375-26.1943359375l1.0048828125-2.896484375,13.23046875-3.2294921875-6.541015625-11.111328125,1.23046875-2.6728515625c.232421875-.50390625,5.82421875-12.4052734375,18.4951171875-18.548828125l2.7587890625-1.337890625,11.6396484375,7.0712890625,3.2314453125-12.4814453125,2.7607421875-1.0205078125c.58984375-.2177734375,5.978515625-2.1298828125,13.4072265625-2.1298828125,4.482421875,0,8.7841796875.7041015625,12.7861328125,2.091796875l2.896484375,1.0048828125,3.23046875,13.23046875,11.1103515625-6.5400390625,2.6728515625,1.23046875c.50390625.2314453125,12.4052734375,5.822265625,18.548828125,18.494140625l1.337890625,2.7587890625-7.0703125,11.6396484375,12.48046875,3.23046875,1.01953125,2.7607421875c.1923828125.51953125,4.6552734375,12.8896484375.0380859375,26.1953125l-1.0048828125,2.8955078125-13.2294921875,3.2294921875,6.541015625,11.111328125-1.23046875,2.6728515625c-.232421875.50390625-5.82421875,12.4052734375-18.4951171875,18.548828125l-2.7587890625,1.337890625-11.638671875-7.0712890625-3.2314453125,12.4814453125-2.7607421875,1.01953125c-.58984375.21875-5.978515625,2.130859375-13.408203125,2.130859375ZM62.218999333830652,52.965787546119827c-8.2099609375,0-14.8896484375,6.6796875-14.8896484375,14.8896484375,0,8.2109375,6.6796875,14.890625,14.8896484375,14.890625,8.2109375,0,14.890625-6.6796875,14.890625-14.890625,0-8.2099609375-6.6796875-14.8896484375-14.890625-14.8896484375Z"/>
        <path class="cls-2" d="M61.135991521330652,129.519111135257845c-4.482421875,0-8.78515625-.7041015625-12.787109375-2.0927734375l-2.8955078125-1.0048828125-3.2294921875-13.228515625-11.1103515625,6.5400390625-2.6728515625-1.23046875c-.50390625-.232421875-12.4052734375-5.82421875-18.548828125-18.4951171875l-1.337890625-2.7587890625,7.0703125-11.638671875-12.4814453125-3.2314453125-1.0205078125-2.7607421875c-.19140625-.5205078125-4.6533203125-12.8896484375-.0380859375-26.1943359375l1.0048828125-2.896484375,13.23046875-3.2294921875-6.541015625-11.111328125,1.23046875-2.6728515625c.232421875-.50390625,5.82421875-12.4052734375,18.4951171875-18.548828125l2.7587890625-1.337890625,11.6396484375,7.0712890625,3.2314453125-12.4814453125,2.7607421875-1.0205078125c.58984375-.2177734375,5.978515625-2.1298828125,13.4072265625-2.1298828125,4.482421875,0,8.7841796875.7041015625,12.7861328125,2.091796875l2.896484375,1.0048828125,3.23046875,13.23046875,11.1103515625-6.5400390625,2.6728515625,1.23046875c.50390625.2314453125,12.4052734375,5.822265625,18.548828125,18.494140625l1.337890625,2.7587890625-7.0703125,11.6396484375,12.48046875,3.23046875,1.01953125,2.7607421875c.1923828125.51953125,4.6552734375,12.8896484375.0380859375,26.1953125l-1.0048828125,2.8955078125-13.2294921875,3.2294921875,6.541015625,11.111328125-1.23046875,2.6728515625c-.232421875.50390625-5.82421875,12.4052734375-18.4951171875,18.548828125l-2.7587890625,1.337890625-11.638671875-7.0712890625-3.2314453125,12.4814453125-2.7607421875,1.01953125c-.58984375.21875-5.978515625,2.130859375-13.408203125,2.130859375ZM62.218999333830652,52.402900197757845c-8.2099609375,0-14.8896484375,6.6796875-14.8896484375,14.8896484375,0,8.2109375,6.6796875,14.890625,14.8896484375,14.890625,8.2109375,0,14.890625-6.6796875,14.890625-14.890625,0-8.2099609375-6.6796875-14.8896484375-14.890625-14.8896484375Z"/>
        <path class="cls-2" d="M61.135991521330652,128.956223786895862c-4.482421875,0-8.78515625-.7041015625-12.787109375-2.0927734375l-2.8955078125-1.0048828125-3.2294921875-13.228515625-11.1103515625,6.5400390625-2.6728515625-1.23046875c-.50390625-.232421875-12.4052734375-5.82421875-18.548828125-18.4951171875l-1.337890625-2.7587890625,7.0703125-11.638671875-12.4814453125-3.2314453125-1.0205078125-2.7607421875c-.19140625-.5205078125-4.6533203125-12.8896484375-.0380859375-26.1943359375l1.0048828125-2.896484375,13.23046875-3.2294921875-6.541015625-11.111328125,1.23046875-2.6728515625c.232421875-.50390625,5.82421875-12.4052734375,18.4951171875-18.548828125l2.7587890625-1.337890625,11.6396484375,7.0712890625,3.2314453125-12.4814453125,2.7607421875-1.0205078125c.58984375-.2177734375,5.978515625-2.1298828125,13.4072265625-2.1298828125,4.482421875,0,8.7841796875.7041015625,12.7861328125,2.091796875l2.896484375,1.0048828125,3.23046875,13.23046875,11.1103515625-6.5400390625,2.6728515625,1.23046875c.50390625.2314453125,12.4052734375,5.822265625,18.548828125,18.494140625l1.337890625,2.7587890625-7.0703125,11.6396484375,12.48046875,3.23046875,1.01953125,2.7607421875c.1923828125.51953125,4.6552734375,12.8896484375.0380859375,26.1953125l-1.0048828125,2.8955078125-13.2294921875,3.2294921875,6.541015625,11.111328125-1.23046875,2.6728515625c-.232421875.50390625-5.82421875,12.4052734375-18.4951171875,18.548828125l-2.7587890625,1.337890625-11.638671875-7.0712890625-3.2314453125,12.4814453125-2.7607421875,1.01953125c-.58984375.21875-5.978515625,2.130859375-13.408203125,2.130859375ZM62.218999333830652,51.840012849395862c-8.2099609375,0-14.8896484375,6.6796875-14.8896484375,14.8896484375,0,8.2109375,6.6796875,14.890625,14.8896484375,14.890625,8.2109375,0,14.890625-6.6796875,14.890625-14.890625,0-8.2099609375-6.6796875-14.8896484375-14.890625-14.8896484375Z"/>
        <path class="cls-2" d="M61.135991521330652,128.393336438533879c-4.482421875,0-8.78515625-.7041015625-12.787109375-2.0927734375l-2.8955078125-1.0048828125-3.2294921875-13.228515625-11.1103515625,6.5400390625-2.6728515625-1.23046875c-.50390625-.232421875-12.4052734375-5.82421875-18.548828125-18.4951171875l-1.337890625-2.7587890625,7.0703125-11.638671875-12.4814453125-3.2314453125-1.0205078125-2.7607421875c-.19140625-.5205078125-4.6533203125-12.8896484375-.0380859375-26.1943359375l1.0048828125-2.896484375,13.23046875-3.2294921875-6.541015625-11.111328125,1.23046875-2.6728515625c.232421875-.50390625,5.82421875-12.4052734375,18.4951171875-18.548828125l2.7587890625-1.337890625,11.6396484375,7.0712890625,3.2314453125-12.4814453125,2.7607421875-1.0205078125c.58984375-.2177734375,5.978515625-2.1298828125,13.4072265625-2.1298828125,4.482421875,0,8.7841796875.7041015625,12.7861328125,2.091796875l2.896484375,1.0048828125,3.23046875,13.23046875,11.1103515625-6.5400390625,2.6728515625,1.23046875c.50390625.2314453125,12.4052734375,5.822265625,18.548828125,18.494140625l1.337890625,2.7587890625-7.0703125,11.6396484375,12.48046875,3.23046875,1.01953125,2.7607421875c.1923828125.51953125,4.6552734375,12.8896484375.0380859375,26.1953125l-1.0048828125,2.8955078125-13.2294921875,3.2294921875,6.541015625,11.111328125-1.23046875,2.6728515625c-.232421875.50390625-5.82421875,12.4052734375-18.4951171875,18.548828125l-2.7587890625,1.337890625-11.638671875-7.0712890625-3.2314453125,12.4814453125-2.7607421875,1.01953125c-.58984375.21875-5.978515625,2.130859375-13.408203125,2.130859375ZM62.218999333830652,51.277125501033879c-8.2099609375,0-14.8896484375,6.6796875-14.8896484375,14.8896484375,0,8.2109375,6.6796875,14.890625,14.8896484375,14.890625,8.2109375,0,14.890625-6.6796875,14.890625-14.890625,0-8.2099609375-6.6796875-14.8896484375-14.890625-14.8896484375Z"/>
        <path class="cls-2" d="M61.135991521330652,127.830449090171896c-4.482421875,0-8.78515625-.7041015625-12.787109375-2.0927734375l-2.8955078125-1.0048828125-3.2294921875-13.228515625-11.1103515625,6.5400390625-2.6728515625-1.23046875c-.50390625-.232421875-12.4052734375-5.82421875-18.548828125-18.4951171875l-1.337890625-2.7587890625,7.0703125-11.638671875-12.4814453125-3.2314453125-1.0205078125-2.7607421875c-.19140625-.5205078125-4.6533203125-12.8896484375-.0380859375-26.1943359375l1.0048828125-2.896484375,13.23046875-3.2294921875-6.541015625-11.111328125,1.23046875-2.6728515625c.232421875-.50390625,5.82421875-12.4052734375,18.4951171875-18.548828125l2.7587890625-1.337890625,11.6396484375,7.0712890625,3.2314453125-12.4814453125,2.7607421875-1.0205078125c.58984375-.2177734375,5.978515625-2.1298828125,13.4072265625-2.1298828125,4.482421875,0,8.7841796875.7041015625,12.7861328125,2.091796875l2.896484375,1.0048828125,3.23046875,13.23046875,11.1103515625-6.5400390625,2.6728515625,1.23046875c.50390625.2314453125,12.4052734375,5.822265625,18.548828125,18.494140625l1.337890625,2.7587890625-7.0703125,11.6396484375,12.48046875,3.23046875,1.01953125,2.7607421875c.1923828125.51953125,4.6552734375,12.8896484375.0380859375,26.1953125l-1.0048828125,2.8955078125-13.2294921875,3.2294921875,6.541015625,11.111328125-1.23046875,2.6728515625c-.232421875.50390625-5.82421875,12.4052734375-18.4951171875,18.548828125l-2.7587890625,1.337890625-11.638671875-7.0712890625-3.2314453125,12.4814453125-2.7607421875,1.01953125c-.58984375.21875-5.978515625,2.130859375-13.408203125,2.130859375ZM62.218999333830652,50.714238152671896c-8.2099609375,0-14.8896484375,6.6796875-14.8896484375,14.8896484375,0,8.2109375,6.6796875,14.890625,14.8896484375,14.890625,8.2109375,0,14.890625-6.6796875,14.890625-14.890625,0-8.2099609375-6.6796875-14.8896484375-14.890625-14.8896484375Z"/>
        <path class="cls-2" d="M61.135991521330652,127.267561741809914c-4.482421875,0-8.78515625-.7041015625-12.787109375-2.0927734375l-2.8955078125-1.0048828125-3.2294921875-13.228515625-11.1103515625,6.5400390625-2.6728515625-1.23046875c-.50390625-.232421875-12.4052734375-5.82421875-18.548828125-18.4951171875l-1.337890625-2.7587890625,7.0703125-11.638671875-12.4814453125-3.2314453125-1.0205078125-2.7607421875c-.19140625-.5205078125-4.6533203125-12.8896484375-.0380859375-26.1943359375l1.0048828125-2.896484375,13.23046875-3.2294921875-6.541015625-11.111328125,1.23046875-2.6728515625c.232421875-.50390625,5.82421875-12.4052734375,18.4951171875-18.548828125l2.7587890625-1.337890625,11.6396484375,7.0712890625,3.2314453125-12.4814453125,2.7607421875-1.0205078125c.58984375-.2177734375,5.978515625-2.1298828125,13.4072265625-2.1298828125,4.482421875,0,8.7841796875.7041015625,12.7861328125,2.091796875l2.896484375,1.0048828125,3.23046875,13.23046875,11.1103515625-6.5400390625,2.6728515625,1.23046875c.50390625.2314453125,12.4052734375,5.822265625,18.548828125,18.494140625l1.337890625,2.7587890625-7.0703125,11.6396484375,12.48046875,3.23046875,1.01953125,2.7607421875c.1923828125.51953125,4.6552734375,12.8896484375.0380859375,26.1953125l-1.0048828125,2.8955078125-13.2294921875,3.2294921875,6.541015625,11.111328125-1.23046875,2.6728515625c-.232421875.50390625-5.82421875,12.4052734375-18.4951171875,18.548828125l-2.7587890625,1.337890625-11.638671875-7.0712890625-3.2314453125,12.4814453125-2.7607421875,1.01953125c-.58984375.21875-5.978515625,2.130859375-13.408203125,2.130859375ZM62.218999333830652,50.151350804309914c-8.2099609375,0-14.8896484375,6.6796875-14.8896484375,14.8896484375,0,8.2109375,6.6796875,14.890625,14.8896484375,14.890625,8.2109375,0,14.890625-6.6796875,14.890625-14.890625,0-8.2099609375-6.6796875-14.8896484375-14.890625-14.8896484375Z"/>
        <path class="cls-2" d="M61.135991521330652,126.704674393447931c-4.482421875,0-8.78515625-.7041015625-12.787109375-2.0927734375l-2.8955078125-1.0048828125-3.2294921875-13.228515625-11.1103515625,6.5400390625-2.6728515625-1.23046875c-.50390625-.232421875-12.4052734375-5.82421875-18.548828125-18.4951171875l-1.337890625-2.7587890625,7.0703125-11.638671875-12.4814453125-3.2314453125-1.0205078125-2.7607421875c-.19140625-.5205078125-4.6533203125-12.8896484375-.0380859375-26.1943359375l1.0048828125-2.896484375,13.23046875-3.2294921875-6.541015625-11.111328125,1.23046875-2.6728515625c.232421875-.50390625,5.82421875-12.4052734375,18.4951171875-18.548828125l2.7587890625-1.337890625,11.6396484375,7.0712890625,3.2314453125-12.4814453125,2.7607421875-1.0205078125c.58984375-.2177734375,5.978515625-2.1298828125,13.4072265625-2.1298828125,4.482421875,0,8.7841796875.7041015625,12.7861328125,2.091796875l2.896484375,1.0048828125,3.23046875,13.23046875,11.1103515625-6.5400390625,2.6728515625,1.23046875c.50390625.2314453125,12.4052734375,5.822265625,18.548828125,18.494140625l1.337890625,2.7587890625-7.0703125,11.6396484375,12.48046875,3.23046875,1.01953125,2.7607421875c.1923828125.51953125,4.6552734375,12.8896484375.0380859375,26.1953125l-1.0048828125,2.8955078125-13.2294921875,3.2294921875,6.541015625,11.111328125-1.23046875,2.6728515625c-.232421875.50390625-5.82421875,12.4052734375-18.4951171875,18.548828125l-2.7587890625,1.337890625-11.638671875-7.0712890625-3.2314453125,12.4814453125-2.7607421875,1.01953125c-.58984375.21875-5.978515625,2.130859375-13.408203125,2.130859375ZM62.218999333830652,49.588463455947931c-8.2099609375,0-14.8896484375,6.6796875-14.8896484375,14.8896484375,0,8.2109375,6.6796875,14.890625,14.8896484375,14.890625,8.2109375,0,14.890625-6.6796875,14.890625-14.890625,0-8.2099609375-6.6796875-14.8896484375-14.890625-14.8896484375Z"/>
        <path class="cls-2" d="M61.135991521330652,126.141787045085948c-4.482421875,0-8.78515625-.7041015625-12.787109375-2.0927734375l-2.8955078125-1.0048828125-3.2294921875-13.228515625-11.1103515625,6.5400390625-2.6728515625-1.23046875c-.50390625-.232421875-12.4052734375-5.82421875-18.548828125-18.4951171875l-1.337890625-2.7587890625,7.0703125-11.638671875-12.4814453125-3.2314453125-1.0205078125-2.7607421875c-.19140625-.5205078125-4.6533203125-12.8896484375-.0380859375-26.1943359375l1.0048828125-2.896484375,13.23046875-3.2294921875-6.541015625-11.111328125,1.23046875-2.6728515625c.232421875-.50390625,5.82421875-12.4052734375,18.4951171875-18.548828125l2.7587890625-1.337890625,11.6396484375,7.0712890625,3.2314453125-12.4814453125,2.7607421875-1.0205078125c.58984375-.2177734375,5.978515625-2.1298828125,13.4072265625-2.1298828125,4.482421875,0,8.7841796875.7041015625,12.7861328125,2.091796875l2.896484375,1.0048828125,3.23046875,13.23046875,11.1103515625-6.5400390625,2.6728515625,1.23046875c.50390625.2314453125,12.4052734375,5.822265625,18.548828125,18.494140625l1.337890625,2.7587890625-7.0703125,11.6396484375,12.48046875,3.23046875,1.01953125,2.7607421875c.1923828125.51953125,4.6552734375,12.8896484375.0380859375,26.1953125l-1.0048828125,2.8955078125-13.2294921875,3.2294921875,6.541015625,11.111328125-1.23046875,2.6728515625c-.232421875.50390625-5.82421875,12.4052734375-18.4951171875,18.548828125l-2.7587890625,1.337890625-11.638671875-7.0712890625-3.2314453125,12.4814453125-2.7607421875,1.01953125c-.58984375.21875-5.978515625,2.130859375-13.408203125,2.130859375ZM62.218999333830652,49.025576107585948c-8.2099609375,0-14.8896484375,6.6796875-14.8896484375,14.8896484375,0,8.2109375,6.6796875,14.890625,14.8896484375,14.890625,8.2109375,0,14.890625-6.6796875,14.890625-14.890625,0-8.2099609375-6.6796875-14.8896484375-14.890625-14.8896484375Z"/>
        <path class="cls-2" d="M61.135991521330652,125.578899696723965c-4.482421875,0-8.78515625-.7041015625-12.787109375-2.0927734375l-2.8955078125-1.0048828125-3.2294921875-13.228515625-11.1103515625,6.5400390625-2.6728515625-1.23046875c-.50390625-.232421875-12.4052734375-5.82421875-18.548828125-18.4951171875l-1.337890625-2.7587890625,7.0703125-11.638671875-12.4814453125-3.2314453125-1.0205078125-2.7607421875c-.19140625-.5205078125-4.6533203125-12.8896484375-.0380859375-26.1943359375l1.0048828125-2.896484375,13.23046875-3.2294921875-6.541015625-11.111328125,1.23046875-2.6728515625c.232421875-.50390625,5.82421875-12.4052734375,18.4951171875-18.548828125l2.7587890625-1.337890625,11.6396484375,7.0712890625,3.2314453125-12.4814453125,2.7607421875-1.0205078125c.58984375-.2177734375,5.978515625-2.1298828125,13.4072265625-2.1298828125,4.482421875,0,8.7841796875.7041015625,12.7861328125,2.091796875l2.896484375,1.0048828125,3.23046875,13.23046875,11.1103515625-6.5400390625,2.6728515625,1.23046875c.50390625.2314453125,12.4052734375,5.822265625,18.548828125,18.494140625l1.337890625,2.7587890625-7.0703125,11.6396484375,12.48046875,3.23046875,1.01953125,2.7607421875c.1923828125.51953125,4.6552734375,12.8896484375.0380859375,26.1953125l-1.0048828125,2.8955078125-13.2294921875,3.2294921875,6.541015625,11.111328125-1.23046875,2.6728515625c-.232421875.50390625-5.82421875,12.4052734375-18.4951171875,18.548828125l-2.7587890625,1.337890625-11.638671875-7.0712890625-3.2314453125,12.4814453125-2.7607421875,1.01953125c-.58984375.21875-5.978515625,2.130859375-13.408203125,2.130859375ZM62.218999333830652,48.462688759223965c-8.2099609375,0-14.8896484375,6.6796875-14.8896484375,14.8896484375,0,8.2109375,6.6796875,14.890625,14.8896484375,14.890625,8.2109375,0,14.890625-6.6796875,14.890625-14.890625,0-8.2099609375-6.6796875-14.8896484375-14.890625-14.8896484375Z"/>
        <path class="cls-2" d="M61.135991521330652,125.016012348361983c-4.482421875,0-8.78515625-.7041015625-12.787109375-2.0927734375l-2.8955078125-1.0048828125-3.2294921875-13.228515625-11.1103515625,6.5400390625-2.6728515625-1.23046875c-.50390625-.232421875-12.4052734375-5.82421875-18.548828125-18.4951171875l-1.337890625-2.7587890625,7.0703125-11.638671875-12.4814453125-3.2314453125-1.0205078125-2.7607421875c-.19140625-.5205078125-4.6533203125-12.8896484375-.0380859375-26.1943359375l1.0048828125-2.896484375,13.23046875-3.2294921875-6.541015625-11.111328125,1.23046875-2.6728515625c.232421875-.50390625,5.82421875-12.4052734375,18.4951171875-18.548828125l2.7587890625-1.337890625,11.6396484375,7.0712890625,3.2314453125-12.4814453125,2.7607421875-1.0205078125c.58984375-.2177734375,5.978515625-2.1298828125,13.4072265625-2.1298828125,4.482421875,0,8.7841796875.7041015625,12.7861328125,2.091796875l2.896484375,1.0048828125,3.23046875,13.23046875,11.1103515625-6.5400390625,2.6728515625,1.23046875c.50390625.2314453125,12.4052734375,5.822265625,18.548828125,18.494140625l1.337890625,2.7587890625-7.0703125,11.6396484375,12.48046875,3.23046875,1.01953125,2.7607421875c.1923828125.51953125,4.6552734375,12.8896484375.0380859375,26.1953125l-1.0048828125,2.8955078125-13.2294921875,3.2294921875,6.541015625,11.111328125-1.23046875,2.6728515625c-.232421875.50390625-5.82421875,12.4052734375-18.4951171875,18.548828125l-2.7587890625,1.337890625-11.638671875-7.0712890625-3.2314453125,12.4814453125-2.7607421875,1.01953125c-.58984375.21875-5.978515625,2.130859375-13.408203125,2.130859375ZM62.218999333830652,47.899801410861983c-8.2099609375,0-14.8896484375,6.6796875-14.8896484375,14.8896484375,0,8.2109375,6.6796875,14.890625,14.8896484375,14.890625,8.2109375,0,14.890625-6.6796875,14.890625-14.890625,0-8.2099609375-6.6796875-14.8896484375-14.890625-14.8896484375Z"/>
        <path class="cls-2" d="M61.135991521330652,124.453125c-4.482421875,0-8.78515625-.7041015625-12.787109375-2.0927734375l-2.8955078125-1.0048828125-3.2294921875-13.228515625-11.1103515625,6.5400390625-2.6728515625-1.23046875c-.50390625-.232421875-12.4052734375-5.82421875-18.548828125-18.4951171875l-1.337890625-2.7587890625,7.0703125-11.638671875-12.4814453125-3.2314453125-1.0205078125-2.7607421875c-.19140625-.5205078125-4.6533203125-12.8896484375-.0380859375-26.1943359375l1.0048828125-2.896484375,13.23046875-3.2294921875-6.541015625-11.111328125,1.23046875-2.6728515625c.232421875-.50390625,5.82421875-12.4052734375,18.4951171875-18.548828125l2.7587890625-1.337890625,11.6396484375,7.0712890625,3.2314453125-12.4814453125,2.7607421875-1.0205078125c.58984375-.2177734375,5.978515625-2.1298828125,13.4072265625-2.1298828125,4.482421875,0,8.7841796875.7041015625,12.7861328125,2.091796875l2.896484375,1.0048828125,3.23046875,13.23046875,11.1103515625-6.5400390625,2.6728515625,1.23046875c.50390625.2314453125,12.4052734375,5.822265625,18.548828125,18.494140625l1.337890625,2.7587890625-7.0703125,11.6396484375,12.48046875,3.23046875,1.01953125,2.7607421875c.1923828125.51953125,4.6552734375,12.8896484375.0380859375,26.1953125l-1.0048828125,2.8955078125-13.2294921875,3.2294921875,6.541015625,11.111328125-1.23046875,2.6728515625c-.232421875.50390625-5.82421875,12.4052734375-18.4951171875,18.548828125l-2.7587890625,1.337890625-11.638671875-7.0712890625-3.2314453125,12.4814453125-2.7607421875,1.01953125c-.58984375.21875-5.978515625,2.130859375-13.408203125,2.130859375ZM62.218999333830652,47.3369140625c-8.2099609375,0-14.8896484375,6.6796875-14.8896484375,14.8896484375,0,8.2109375,6.6796875,14.890625,14.8896484375,14.890625,8.2109375,0,14.890625-6.6796875,14.890625-14.890625,0-8.2099609375-6.6796875-14.8896484375-14.890625-14.8896484375Z"/>
      </g>
      <path class="cls-1" d="M117.03568674716189,74.250830405404486c4.008250211954874-11.552366667976457,0-22.398108512375984,0-22.398108512375984l-13.203021162575169-3.418376683850511c.040393627972662.145965485944544.078361528943788.291509106322337.117278627436463.43705272670195-.52226957109815-1.633463472771837-1.136189436478162-3.225584120045824-1.838701070784737-4.769190227194485l7.371467973007384-12.13411928392452c-5.33480648522891-11.003097700633589-15.837782556998718-15.837677090607031-15.837782556998718-15.837677090607031l-11.753280143933807,6.918595287570497c.141008565540687.079732592033906.279275004901137.160730780766244.418490641786775.24130710393365-1.516606710905762-.783826222213975-3.085313819246949-1.481170003335137-4.698844144011673-2.086547090995737l-3.367647349503386-13.793316556242644c-11.552788533543207-4.008144745561367-22.398108512374165,0-22.398108512374165,0l-3.418693083025573,13.203126628966857c.146281885117787-.040499094366169.291614572714025-.078466995335475.437369125877012-.117700493001394-1.633358006381968.522691436663081-3.22568958643933,1.136505835653224-4.769401159976042,1.838912003568112l-12.13411928392452-7.371678905792578c-11.003097700635408,5.334911951622416-15.837888023390406,15.838098956173781-15.837888023390406,15.838098956173781l6.918700753962185,11.75317467754212c.079943524815462-.140903099149.1609417135478-.279275004901137.241518036713387-.418490641786775-.78403715499735,1.516606710905762-1.481064536939812,3.085524752030324-2.086863490167161,4.698738677619986l-13.793211089854594,3.367752815895074c-4.008144745559548,11.552788533543207,0,22.398108512374165,0,22.398108512374165l13.203021162578807,3.41879854941908c-.0403936279763-.146387351511294-.0782560625521-.291930971890906-.117278627436463-.4374745922687.522375037489837,1.633463472771837,1.136294902869849,3.225584120045824,1.838701070784737,4.769612092759417l-7.371467973007384,12.13411928392452c5.334911951620597,11.003097700635408,15.837888023386768,15.837677090607031,15.837888023386768,15.837677090607031l11.753280143933807-6.918595287570497c-.141008565540687-.080154457598837-.279380471289187-.161152646331175-.418596108174825-.241728969496762,1.516606710902124.784248087778906,3.085313819246949,1.481170003331499,4.698949610403361,2.086968956560668l3.36754188310988,13.793316556242644c11.552788533539569,4.008144745561367,22.398213978765853,0,22.398213978765853,0l3.418693083025573-13.203126628968676c-.146387351509475.040499094367988-.291720039105712.078466995335475-.4374745922687.117278627436463,1.633358006380149-.52226957109815,3.225795052829199-1.136083970086474,4.769401159977861-1.838912003568112l12.13411928392452,7.371678905792578c11.003097700635408-5.334911951622416,15.837888023390406-15.837677090607031,15.837888023390406-15.837677090607031l-6.918700753962185-11.753596543107051c-.079838058423775.141324964713931-.1609417135478.279696870466069-.241623503108713.418912507349887.784248087780725-1.516606710902124,1.481275469726825-3.085524752030324,2.086968956562487-4.699160543186736l13.793211089850956-3.367752815893255ZM62.219318791294427,82.745937314295588c-11.332363775141857,0-20.519119280006635-9.186966437648152-20.519119280006635-20.519119280008454,0-11.332574707925232,9.186755504864777-20.519119280004816,20.519119280006635-20.519119280004816,11.332469241533545,0,20.519119280004816,9.186544572079583,20.519119280004816,20.519119280004816,0,11.332152842360301-9.186650038471271,20.519119280008454-20.519119280004816,20.519119280008454Z"/>
    </g>
  </g>
</svg>