<?xml version="1.0" encoding="UTF-8"?>
<svg id="Livello_2" data-name="Livello 2" xmlns="http://www.w3.org/2000/svg" width="282.552276919234828" height="286.497739221083975" xmlns:xlink="http://www.w3.org/1999/xlink" viewBox="0 0 282.552276919234828 286.497739221083975">
  <defs>
    <style>
      .cls-1, .cls-2, .cls-3 {
        fill: none;
      }

      .cls-4, .cls-5, .cls-2, .cls-6, .cls-7, .cls-3 {
        stroke: #000;
        stroke-miterlimit: 10;
        stroke-width: 2.04996555304305px;
      }

      .cls-4, .cls-8 {
        fill: #408cf4;
      }

      .cls-5, .cls-2, .cls-6, .cls-7 {
        stroke-linecap: round;
      }

      .cls-5, .cls-9 {
        fill: #f79696;
      }

      .cls-10 {
        fill: #cc6e6e;
      }

      .cls-11 {
        fill: #fff;
      }

      .cls-12, .cls-7 {
        fill: #ff5e34;
      }

      .cls-13 {
        clip-path: url(#clippath);
      }
    </style>
    <clipPath id="clippath">
      <path class="cls-12" d="M244.027602878049947,209.586204507986622c9.949796579871872-13.066338046302917,4.951860808654601-29.353062352340203,4.951860808654601-29.353062352340203l-.046215864592341.011553966145584c-.080877763039098-.646388045179265-.207689586615743-1.281292575215048-.357891146541988-1.916126654246909-1.558235507705831-6.313819793871517-5.748239060713786-11.09251201232837-10.423086485864587-15.386360358646925-.4154670929438-.381009255685058-.842774966967227-.762018511375572-1.269798528717729-1.143027042628091-1.329413489274884-1.186159093664173-1.611461870181301-3.148985876614461-.680381311151905-4.667999574223359,2.987654309117715-4.874216065654764,8.286521698941215-15.56446538882301,8.760538374056523-16.85884127994359,2.585552180706145-7.179592293832684,3.947511165919423-14.786188178057273,4.166754718683478-22.415891994578487.127093627630529-4.340064210909986-.888809981246595-13.458820640273188-2.631627143271544-16.205987445026039l.01141306412228-.011553966149222c-.01141306412228-.023037481285428-.034520996419815-.034591447431012-.05762892871644-.057699379725818-.150060657901122-.230867969923565-.311534379922705-.415520075257518-.473289905994534-.542472800858377-23.650968705204832-26.502050754281299-57.494085475344036-42.454062297088967-95.861989012730191-42.338593086622495-71.033783878650866.219243552763146-128.94345988025907,58.83307743028854-128.331733733525652,129.866790857926389.080807312021534,10.146073102363516,1.338991954943594,20.015062370212036,3.647530752148668,29.480085528955897,6.325373760019829,27.136884833311342,20.788403140996706,44.765911918831989,37.836914251668532,66.812499702751666l55.843559140473189.046145413576596,16.067480753278687.011553966147403,5.009489737364675-.023107932296625c.046215864595979-1.085016052726132-.034591447430103-2.747166804752851-.854148082799838-4.44390900421422-1.835319342224466-3.75137554545654-5.644394267412281-4.178449586856004-6.429289004338898-7.341136466868193-.415520075252061-1.673704718174122.415520075252971-3.02418018825847.784894736926617-4.270810865033127.473289905996353-1.569789473855053.854148082805295-3.16268688000855,1.142715432456498-4.767138252309451l.84266456766818.173168590195928c10.457677933299237.738678872334276,20.961571731188997.934955394826829,31.430733179625349.600172180584195l-1.500465676970634.288567349651203c4.063050827406187,7.179592293836322,8.414528102435725,13.862786749379666,12.950868835834626,19.72649502056629l32.862015961729412.034591447427374.334783214241725.60024263160085c.011553966151951-.161614624048525.034661898448576-.369374661675465.034661898448576-.60024263160085l16.067339851250836.023107932296625,3.069824153660193-.014127996661045c1.156701281071946-.005323390207195,2.01698327077429-1.052864478648189,1.815831036407872-2.19195357557328-.125634343979073-.711444801381731-.349006898825792-1.482550126282149-.730313535505047-2.26093536427652-1.823694925061318-3.75137554545654-5.644394267411371-4.178449586856004-6.417664587178479-7.341136466868193-.415660977275365-1.673704718174122.415520075258428-3.02418018825847.78482428591451-4.270810865033127,1.51216054514407-5.07881353425546,2.123957142887775-10.434570001001703,1.789173928646051-15.721143572885921l-1.350545921092817.253905451208993c1.23500625960969-.727195357201708,2.447045488955155-1.512090094132873,3.624422819853862-2.366238176933621,8.587696692632562-6.209975000563645,14.878549456229848.608344871181544,17.418026674376051-9.687718438070078,2.527782349963672-10.284509343104219,1.292635188323402-21.469382633600617-3.43984116554293-30.957513724644741l-.392412142955436-.773340770776485Z"/>
    </clipPath>
  </defs>
  <g id="Livello_1-2" data-name="Livello 1">
    <g>
      <g>
        <path class="cls-5" d="M109.091232155946273,5.114306093553751c2.106423399834057,3.427711175469085.572651490293538,7.62713364882984-3.425775442884515,9.379672618884797-3.998426933179871,1.752538970058595-8.947385953440062.394543582096958-11.053809353270481-3.033167593372127-2.106423399833147-3.427711175472723-.572651490294447-7.627133648824383,3.425775442879967-9.379672618884797,3.998426933186238-1.752538970060414,8.947385953451885-.394543582089682,11.053809353275028,3.033167593372127Z"/>
        <g>
          <g>
            <path class="cls-10" d="M187.461923294796179,30.002454873048919l13.683586167951944,23.395776018907782-122.101795434786254,35.644096585197985-.042079315332558-.115366333684506c-13.361858180223862-19.982492174762228-14.82442944901868-52.0461187735782.708146026820032-70.534178483545475l-.422364272709274-.526933011651636c4.373306261446487-3.492489162219499,7.330734814605421-5.314733472050648,7.330734814605421-5.314733472050648C100.726273903643232,6.681363995607171,119.954022855428775.323309733572387,135.525801864580899,1.087746215060179c23.937644769252074,1.174171104312336,43.103194508857996,13.804744113935158,51.93612143021528,28.91470865798874Z"/>
            <g>
              <path class="cls-10" d="M79.287416466740069,17.86584964827307c4.373306261446487-3.492489162219499,7.330734814605421-5.314733472050648,7.330734814605421-5.314733472050648C100.726273903643232,6.681363995607171,119.954022855428775.323309733572387,135.525801864580899,1.087746215060179c23.937644769252074,1.174171104312336,43.103194508857996,13.804744113935158,51.93612143021528,28.91470865798874l13.683586167951944,23.395776018907782-122.101795434786254,35.644096585197985-10.792875302308857,3.147778094016758-19.656184925727757,18.431694984672504c-18.213648991168156-46.990425524092643,15.161348239874314-80.364739785925849,30.692762666814815-92.755950907570877Z"/>
              <path class="cls-10" d="M79.709780739449343,18.392782659924706c-15.532575475838712,18.488059709967274-14.070004207043894,50.551686308783246-.708146026820032,70.534178483545475"/>
            </g>
          </g>
          <g>
            <path class="cls-9" d="M187.461923294796179,30.002454873048919l13.683586167951944,23.395776018907782-122.101795434786254,35.644096585197985-.042079315332558-.115366333684506c-13.361858180223862-19.982492174762228-14.82442944901868-52.0461187735782.708146026820032-70.534178483545475l-.422364272709274-.526933011651636c4.373306261446487-3.492489162219499,7.330734814605421-5.314733472050648,7.330734814605421-5.314733472050648C100.726273903643232,6.681363995607171,119.954022855428775.323309733572387,135.525801864580899,1.087746215060179c23.937644769252074,1.174171104312336,43.103194508857996,13.804744113935158,51.93612143021528,28.91470865798874Z"/>
            <g>
              <path class="cls-2" d="M79.287416466740069,17.86584964827307c4.373306261446487-3.492489162219499,7.330734814605421-5.314733472050648,7.330734814605421-5.314733472050648C100.726273903643232,6.681363995607171,119.954022855428775.323309733572387,135.525801864580899,1.087746215060179c23.937644769252074,1.174171104312336,43.103194508857996,13.804744113935158,51.93612143021528,28.91470865798874l13.683586167951944,23.395776018907782-122.101795434786254,35.644096585197985-10.792875302308857,3.147778094016758-19.656184925727757,18.431694984672504c-18.213648991168156-46.990425524092643,15.161348239874314-80.364739785925849,30.692762666814815-92.755950907570877Z"/>
              <path class="cls-2" d="M79.709780739449343,18.392782659924706c-15.532575475838712,18.488059709967274-14.070004207043894,50.551686308783246-.708146026820032,70.534178483545475"/>
            </g>
          </g>
        </g>
        <path d="M144.985686200471719,22.073520335778085c-.500118343755275.615042210185493-1.31188213706082,1.254557086354907-2.033406748318157,1.63889377333544-.604600180667148.322059480000462-1.205483331968026.569372111782286-1.875284518068838.758415891557888-.3347256351326.094434916993123-.66923617296743.188917767251041-.988557277715699.319684902564404-.086959980431857.047666956792455-.188957942049456.05929162179018-.275767549213924.106917350196454-.651899244417109.357633920477383-.995096201244451.946307784081-.770223325281222,1.490521367810288.24067999334784.582271505569224.852882984635471.379732988845717,1.463734748743263.0444918583853.349100889393412-.191584575200977.727429026617756-.445369745219068,1.031992889329558-.610498125090089,4.046702113492756-2.19426625725464,8.641410793607974.080794429768503,9.99639992160246,3.240856025277026l.08264390801196.186529796859759c1.782727194397012,4.309788676813696-1.231747938865738,9.85491701558567-5.333752858311527,13.448209267156926-1.246085015480276,1.02464567692914-2.533793548124777,1.938745711950105-3.909477741176488,2.703418488401439-2.842627625195746,1.580023160655401-5.929557823568757,2.52356124648577-9.037798915683197,2.878276270717834-2.821873372055961.322026403586278-6.054339670709851-.205014118100735-7.224932969301335-2.519486917773975-.330116822602577-.652727842996683-.613991027756128-1.4851597834313-.744846530581526-2.213542119090562-.247066176541921-1.375073452418292-.087435559692494-3.190266538425931.902102936602205-4.549888338344317.847679922994757-1.164776642377547,2.771577475562481-2.513041846312262,4.107547388593957-2.545980341899849.795876649392085-.019607809808804,1.640510932880716.254670647795137,2.519729710676074.150358111875903.250020081663934-.047691137353468.441210903214596-.108551398298005.661870767068649-.231968154776041.52971454764247-.29617772662823.882398629476484-.769448177234153.69028972128126-1.260105722973094-.029529327355704-.07541965348355-.088319941673944-.08847190000597-.117778902768805-.163738471885154-.776894203057054-.854568385857419-3.442930356592115.334322979182616-4.561559340391796.519110318306048-2.829496810039927.467338572803783-4.958029376207378-.417522343312157-6.131035199528924-2.467266528183245-.585532974940179-1.011048344786104-.957878353785418-2.175477790045989-.988861040863412-3.413071182145359-.102046302798954-2.841039829951114,1.693885460386809-5.90593307859308,3.944277158359-8.204793537861406,1.566082551995351-1.599786567443516,3.35825751439279-2.963674789076322,5.321268779392085-4.050088385323761,1.944418784288246-1.076097665387351,4.070762498006843-1.956174196617212,6.162114770423614-2.450296103277651,1.671232935960688-.394878913275534,3.555128525694272-.6389466184919,5.059566064731371-.204069221599639,1.257227225148199.363446122375535,2.339244257647806,1.298858126858249,2.818985203052762,2.42855387432428.352139615730266.829126030086627.446332123765387,1.811326715975156.261697213257321,2.780626423977083-.132074286026182.693192098775398-.526436253558131,1.569468333269469-1.030938263920689,2.18992942947807Z"/>
      </g>
      <g>
        <path class="cls-7" d="M200.867308325235172,176.795926055669042c-.06522548803332.206377819245972,18.632142241650399,48.994703541917261,22.615046141174389,63.29894854624763,1.153292054990743,4.141944843935562,2.347104980998665,8.374231113259157,4.72180232933988,11.942342889198699,2.374697348347581,3.568111775937723,6.198816522416564,6.406690903422714,10.217943736316556,6.288595072448516,4.294713257093463-.126192487172375,7.505197166418839-1.981566417009162,7.087272731118901-6.492293743078335-1.138962280361739-12.293007652664528,9.804500531217855,18.551498954329873,31.124992576777004-2.335706009802379,6.786191025330481-6.648278218402993,3.044703794565976-12.181665441341465.968136276031146-17.045137183366023-5.599072676451215-13.113434309463628-57.9385408748185-78.151889677283179-66.533935836808269-89.416640180454124"/>
        <g>
          <path class="cls-12" d="M244.027602878049947,209.586204507986622c9.949796579871872-13.066338046302917,4.951860808654601-29.353062352340203,4.951860808654601-29.353062352340203l-.046215864592341.011553966145584c-.080877763039098-.646388045179265-.207689586615743-1.281292575215048-.357891146541988-1.916126654246909-1.558235507705831-6.313819793871517-5.748239060713786-11.09251201232837-10.423086485864587-15.386360358646925-.4154670929438-.381009255685058-.842774966967227-.762018511375572-1.269798528717729-1.143027042628091-1.329413489274884-1.186159093664173-1.611461870181301-3.148985876614461-.680381311151905-4.667999574223359,2.987654309117715-4.874216065654764,8.286521698941215-15.56446538882301,8.760538374056523-16.85884127994359,2.585552180706145-7.179592293832684,3.947511165919423-14.786188178057273,4.166754718683478-22.415891994578487.127093627630529-4.340064210909986-.888809981246595-13.458820640273188-2.631627143271544-16.205987445026039l.01141306412228-.011553966149222c-.01141306412228-.023037481285428-.034520996419815-.034591447431012-.05762892871644-.057699379725818-.150060657901122-.230867969923565-.311534379922705-.415520075257518-.473289905994534-.542472800858377-23.650968705204832-26.502050754281299-57.494085475344036-42.454062297088967-95.861989012730191-42.338593086622495-71.033783878650866.219243552763146-128.94345988025907,58.83307743028854-128.331733733525652,129.866790857926389.080807312021534,10.146073102363516,1.338991954943594,20.015062370212036,3.647530752148668,29.480085528955897,6.325373760019829,27.136884833311342,20.788403140996706,44.765911918831989,37.836914251668532,66.812499702751666l55.843559140473189.046145413576596,16.067480753278687.011553966147403,5.009489737364675-.023107932296625c.046215864595979-1.085016052726132-.034591447430103-2.747166804752851-.854148082799838-4.44390900421422-1.835319342224466-3.75137554545654-5.644394267412281-4.178449586856004-6.429289004338898-7.341136466868193-.415520075252061-1.673704718174122.415520075252971-3.02418018825847.784894736926617-4.270810865033127.473289905996353-1.569789473855053.854148082805295-3.16268688000855,1.142715432456498-4.767138252309451l.84266456766818.173168590195928c10.457677933299237.738678872334276,20.961571731188997.934955394826829,31.430733179625349.600172180584195l-1.500465676970634.288567349651203c4.063050827406187,7.179592293836322,8.414528102435725,13.862786749379666,12.950868835834626,19.72649502056629l32.862015961729412.034591447427374.334783214241725.60024263160085c.011553966151951-.161614624048525.034661898448576-.369374661675465.034661898448576-.60024263160085l16.067339851250836.023107932296625,3.069824153660193-.014127996661045c1.156701281071946-.005323390207195,2.01698327077429-1.052864478648189,1.815831036407872-2.19195357557328-.125634343979073-.711444801381731-.349006898825792-1.482550126282149-.730313535505047-2.26093536427652-1.823694925061318-3.75137554545654-5.644394267411371-4.178449586856004-6.417664587178479-7.341136466868193-.415660977275365-1.673704718174122.415520075258428-3.02418018825847.78482428591451-4.270810865033127,1.51216054514407-5.07881353425546,2.123957142887775-10.434570001001703,1.789173928646051-15.721143572885921l-1.350545921092817.253905451208993c1.23500625960969-.727195357201708,2.447045488955155-1.512090094132873,3.624422819853862-2.366238176933621,8.587696692632562-6.209975000563645,14.878549456229848.608344871181544,17.418026674376051-9.687718438070078,2.527782349963672-10.284509343104219,1.292635188323402-21.469382633600617-3.43984116554293-30.957513724644741l-.392412142955436-.773340770776485Z"/>
          <g class="cls-13">
            <path class="cls-4" d="M8.429229152970038,214.961466612177901c4.193428795309046-26.760627558602209,19.84075929104074-50.428965428791344,38.601323579175187-50.428965428791344,13.359637674536316,0,19.770539843938423,12.095367675246962,18.15798597646517,24.696685595989038-3.202703267510515,25.027555912252865-30.866134293230061,38.871219478176499-33.891720237571462,60.210540739064527-1.543669144710293,15.117144173033012,8.640230288887324,7.934183725294133,20.091971789271156,7.934183725294133,21.396327782320441,0,15.013286672194226-.590175416171405,30.5040393786403-38.525397760000487,9.232682820094851-22.043865652205568,17.897279508090833-27.216005251686511,6.397762392455661-44.922557210429659-3.283219581848243-6.049870841037773-8.734136713647786-10.394315951933095-13.14330509877982-16.044242105239391-4.381716729416439-5.614749490910981-9.017987317253755-11.19464981681449-9.636313977832287-19.337810897231975-.996128269578548-5.172978678474465-.188214915425306-11.276727541870059-3.014382628613021-15.110408101452776-4.726754658524442-6.035869056402589-13.018092778129358-2.228330483614627-20.370119618343779-3.181868117697377-10.115023040495544-.952509037260825-15.631571004896614-13.55323474821671-13.692746229349723-25.975757689175225,4.07669271278246-26.120363936957801,29.12192349594352-45.055493699312137,55.203815977472004-45.055493699312137,22.089585859393083,0,37.323322195768014,12.081976311985272,35.308731283687848,31.289541540438222-.960027150625137,9.153115903907747-7.13544438696772,18.403813853921747-15.627618099651045,18.403813853921747-7.12251818468485,0-13.29958786842144-5.562128740013577-15.12974602129907-12.923653666442988-4.15412605621168-14.537229977378956-2.952161876931314-24.094157743613323-16.626908124399051-24.094157743613323-13.94278944639882,0-21.267290460123149,11.661463768808972-23.161788098268516,24.705452744514332-3.739179744269677,25.744988211761665,19.358346112290747,16.040399032430287,25.980640022522493,43.873024913413246,1.817164025947932,7.745428065998567,2.72517141966091,16.212667045823764,7.757207395640762,21.134524632028842,2.671291321980789,3.626140527649113,6.9638596983159,5.610634036884221,11.113521726440922,8.92723418546484,13.040808725356328,10.695887566758756,14.508443096324299,32.128552979313099,12.029233393357572,55.836860218538277-3.994798283025375,38.20165149400782-23.480510170340494,57.269255861368947-53.568007762759407,57.269255861368947-32.82311475217557,0-49.260665659265214-20.537641412891389-43.283577018261894-58.68080559064947Z"/>
          </g>
        </g>
        <g>
          <path class="cls-11" d="M248.869849393086952,180.80021214759654c.424547410422747,3.301210480003647-.114742543362809,6.671677123918926-1.812932185070167,9.54580792644083-3.797978185159991,6.406195162240692-10.728427804013336,6.625506347978444-16.970422162716204,6.140713200564278-13.482248844614332-1.027299764755298-26.769435365520621-4.478565266581427-39.069836013545682-10.099857237772085-4.61265024300792-2.100770305456535-9.087609433985563-4.501650654550758-13.378980555593444-7.191098353292546-5.278156994484561-3.312753173988312-10.166189341557583-8.576221631619774-11.279192012132626-14.059001274979892-.103268289020889-.496335841400651-.126216797693814-1.06192784671839-.068845526016048-1.673690627972974l-.080319780351601-.13851232783054c.022948508673835-.011542693988304.057371271678676-.034628081957635.091794034681698-.046170775949577,13.631414150986529-8.183770036090209,30.096969122928385-11.150242390498533,45.793749054363616-8.88787436923667,9.156454959998882,1.292781726435351,18.04900207027913,4.374681020704884,25.943289053338958,9.234155188820296l.114742543358261-.126969633847693c4.647073006020037,4.293882162803129,8.812227329930465,9.072557473014967,10.361251665268355,15.386411083372877.149165306364011.634848169229372.275382104058735,1.269696338462381.355701884414884,1.916087201683695Z"/>
          <path class="cls-8" d="M248.869849393086952,180.80021214759654c.424547410422747,3.301210480003647-.114742543362809,6.671677123918926-1.812932185070167,9.54580792644083-3.797978185159991,6.406195162240692-10.728427804013336,6.625506347978444-16.970422162716204,6.140713200564278-13.482248844614332-1.027299764755298-26.769435365520621-4.478565266581427-39.069836013545682-10.099857237772085-4.61265024300792-2.100770305456535-9.087609433985563-4.501650654550758-13.378980555593444-7.191098353292546-5.278156994484561-3.312753173988312-10.166189341557583-8.576221631619774-11.279192012132626-14.059001274979892-.103268289020889-.496335841400651-.126216797693814-1.06192784671839-.068845526016048-1.673690627972974l-.080319780351601-.13851232783054c.022948508673835-.011542693988304.057371271678676-.034628081957635.091794034681698-.046170775949577,13.631414150986529-8.183770036090209,30.096969122928385-11.150242390498533,45.793749054363616-8.88787436923667,9.156454959998882,1.292781726435351,18.04900207027913,4.374681020704884,25.943289053338958,9.234155188820296l.114742543358261-.126969633847693c4.647073006020037,4.293882162803129,8.812227329930465,9.072557473014967,10.361251665268355,15.386411083372877.149165306364011.634848169229372.275382104058735,1.269696338462381.355701884414884,1.916087201683695Z"/>
        </g>
        <path d="M247.259582533307366,102.206008796745664c1.742946791885515,2.747161168670573,2.758703862657057,11.865889417631479,2.631734228811183,16.205942356380547-.219311185733204,7.629720724762592-1.581349076084734,15.236356061552215-4.166912528957255,22.415911720858276-.473250453424043,1.292781726438989-5.759804299022107,11.958230969521537-8.749362041403401,16.840790525611737-.934958212870697,1.523635606155949-.669476251192464,3.497436277768429.669476251185188,4.686333758329056.4270796774872.380908901537623.854159354970761.761817803078884,1.269696338466929,1.142726704614688l-.115426939863937.126969633847693c-7.941373462382217-4.859474168115412-16.886961301553129-7.941373462384945-26.098031102402274-9.234155188820296-15.79040537288256-2.262368021261864-32.354171242833218.704104333146461-46.066891698232212,8.88787436923667,1.696776015947762-16.390625460155206,54.169862876419757-69.209993140209917,79.794643525397987-61.845754377125559.103884245877452.034628081959454.207768491751267.080798857899936.311652737623263.161597715807147.161597715804419.126969633842236.323195431606109.311652737618715.473250453428591.542506617341132.02308538797206.023085387972969.034628081954907.046170775945939.046170775945939.069256163918908Z"/>
        <g>
          <path class="cls-2" d="M246.740161303932837,101.594246015485624c-23.650979977364841-26.502025391921052-57.494158744397282-42.454028480604393-95.862073553944356-42.338601540741365-71.033738790003554.219311185730476-128.943434517892456,58.833111246769477-128.331671736634235,129.866850036776668.080798857900845,10.146028013714385,1.338952502376742,20.015031371762234,3.647491299582725,29.480040440308585,6.325396304342576,27.136873561141329,20.788391868833969,44.765959825519531,37.836950886192426,66.812505338828487l55.84355350439364.046170775945939,16.067430028550007.011542693984666,3.413151592089889-.015728809183202c.925481330530602-.004264890918421,1.645011656063616-.81165073082957,1.531272949590857-1.730126309767002-.103130878947923-.832814058518125-.330404567936966-1.771567870546278-.789054706710886-2.721167453646558-1.835288343780121-3.751375545458359-5.644377359166356-4.178455222934645-6.429280550218209-7.341153375111389-.415536983497987-1.673690627969336.415536983497077-3.02418582433711.784903191051853-4.270796774826522.473250453424953-1.569806382100069.854159354961666-3.151155458188441,1.142726704612869-4.755589922244326v-.011542693986485c.657933557202341-3.612863217626.877244742938274-7.294982599165451.646390863219494-10.954016592739208"/>
          <path class="cls-2" d="M247.271125227289303,102.194466102753722c-.011542693981937-.023085387969331-.034628081955816-.034628081953997-.057713469927876-.057713469926966"/>
          <path class="cls-3" d="M166.640300636665415,163.253342913258166c-.057713469931514.611762781258221-.052606371695219,1.387097653898309.051277874178595,1.883433495298959,1.119641316641719,5.482779643360118,6.036828954689554,10.746248100991579,11.346468188262406,14.059001274979892,4.31696755077428,2.689447698741787,8.818618205325038,5.09032804783601,13.458781187706336,7.191098353292546,12.373767953021343,5.621291971190658,25.740207588835801,9.072557473016786,39.30287302241868,10.099857237772085,6.279225528401184.484793147414166,13.251012695957797.265481961676414,17.071644405332336-6.140713200564278,1.708318709930609-2.874130802521904,2.250825327277198-6.244597446437183,1.823745649794546-9.54580792644083-.080798857900845-.646390863221313-.20776849174672-1.281239032454323-.357823513569201-1.916087201683695-1.558263688112675-6.31385361035791-5.748261605042899-11.092528920569748-10.423052669379103-15.386411083372877-.415536983496168-.380908901535804-.842616660979729-.761817803077065-1.269696338466929-1.142726704614688-1.338952502377651-1.188897480560627-1.604434464055885-3.162698152173107-.669476251185188-4.686333758329056,2.989557742381294-4.8825595560902,8.276111587979358-15.548008799172749,8.749362041403401-16.840790525611737,2.58556345287252-7.179555659306061,3.947601343224051-14.786190996095684,4.166912528957255-22.415911720858276.126969633845874-4.340052938749068-.888787436925668-13.458781187709974-2.631734228811183-16.205942356380547-.011542693991032-.023085387972969-.023085387973879-.046170775945939-.046170775945939-.069256163918908-.150055021822482-.230853879722417-.311652737624172-.415536983498896-.473250453428591-.542506617341132-.103884245871996-.080798857907212-.20776849174581-.126969633847693-.311652737623263-.161597715807147-25.624780648978231-7.364238763084359-78.097867509450225,45.455128916970352-79.794643525397987,61.845754377125559"/>
          <path class="cls-3" d="M166.310669609305478,163.463085780584152c.069256163917998-.046170775945939.150055021818844-.092341551888239.230853879718779-.13851232783054h.011542693987394c.02308538797115-.011542693988304.04617077594412-.034628081957635.080798857899936-.046170775949577,13.712720455398994-8.183770036090209,30.276486325349651-11.150242390498533,46.066891698232212-8.88787436923667,9.211069800849145,1.292781726435351,18.156657640020057,4.374681020704884,26.098031102402274,9.234155188820296"/>
          <path class="cls-3" d="M228.929784483496405,253.672631829083912c.334738125594413,5.286553845602612-.27702465566199,10.642363855116855-1.789117567835092,15.721149208970019-.369366207553867,1.246610950489412-1.200440174547111,2.597106146857186-.784903191050034,4.270796774826522.773360497065369,3.162698152176745,4.593992206438088,3.58977782965303,6.417737856234453,7.341153375111389.362853222628473.740825329543441.58268434513684,1.475049639075223.711370368354437,2.157520724183996.224512334069004,1.190674576984748-.690897880308512,2.290302573361259-1.902541682296032,2.295873349465182l-2.964198521032813.013628498947583s-10.261454953575594-.011542693984666-15.132471815681129-.023085387972969h-2.493221900978824c-7.502751090916718-.011542693984666-31.673152297655179-.034628081957635-31.673152297655179-.034628081957635-4.536278736507484-5.863688544897741-8.887874369239398-12.546908362812246-12.950902652322839-19.726464022120126"/>
          <path class="cls-2" d="M222.973754386704968,285.449668372615633c-.011542693983756-.958043600840028-.138512327827812-2.562478064897732-.946500906853544-4.31696755077428-1.188897480557898-2.620191534828336-3.139612764199228-4.028400201121258-4.005314813152836-4.570906818464209"/>
          <path class="cls-3" d="M244.789446020296054,210.141740260072766l.392451595525927.773360497061731c4.732504534268628,9.488094456513863,5.967572790773374,20.672964928971851,3.439722807836006,30.957505270522233-2.539392676927491,10.296083035536867-8.830160899310613,3.477743437506433-17.417925224913233,9.687712801985981-.831073966997792.600220087275375-1.673690627975702,1.165812092589476-2.527849982946464,1.708318709932428-.369366207551138.219311185734114-.727189721112154.438622371470046-1.096555928665111.657933557202341-10.261454953578323,6.071457036650827-22.554424048695182,8.28765428197039-34.501112324232963,9.649692172319192-8.368453139870326.946500906853544-16.783077055682952,1.558263688109946-25.209243665480244,1.823745649789998-.507878535388045.011542693988304-.992671682799482.034628081961273-1.500550218186618.034628081961273h-.011542693982847c-9.961344909942454.277024655664718-19.968860595824481.069256163917089-29.91866281178045-.634848169236648"/>
          <path class="cls-2" d="M249.741261740299706,180.788669453608236s4.99798649594959,16.286741214280482-4.951815720003651,29.35307080646453c-3.843717097348417,5.044157271891891-9.915174133997425,9.603521396375072-19.345555120583413,12.569993750783397"/>
          <path class="cls-2" d="M119.874411703523037,285.461211066603937c.034628081956726-.934958212870697-.069256163917998-2.343166879163618-.738732415105915-3.855259791334902-1.223525562518262-2.804874638604815-3.532064359724245-4.086113671057319-4.24771138685901-4.443937184614697"/>
          <path class="cls-2" d="M213.485659930190195,285.461211066603937v-.011542693988304c.034628081963092-.934958212867059-.069256163911632-2.343166879165437-.738732415103186-3.843717097346598-1.223525562515533-2.804874638604815-3.532064359723336-4.086113671057319-4.24771138685901-4.443937184614697"/>
          <path class="cls-2" d="M130.285921678919294,285.449668372615633c0-.958043600840028-.138512327832359-2.562478064897732-.934958212870697-4.31696755077428-1.200440174543473-2.620191534828336-3.151155458182075-4.028400201121258-4.016857507133864-4.570906818464209"/>
        </g>
        <path d="M148.095920549482798,101.336591072597002c7.749683374532651,8.562625700673379,19.896324559062123,5.352231541844958,18.473099592422841,17.260563892068603-1.423224966635644,11.908332350230921-11.873020798387188,20.450925908637146-23.340272253592957,19.080416748354764-11.467251455202131-1.3705091602842-19.609543694803506-12.135137101577129-18.186318728166043-24.043469451804413,1.423224966634734-11.908332350223645,14.214361743473091-22.063866150416288,23.053491389336159-12.297511188618955Z"/>
        <ellipse class="cls-11" cx="147.710700661936244" cy="128.617649898707896" rx="4.665758547147193" ry="4.492940314047634" transform="translate(2.472997379911646 260.021456924491247) rotate(-83.184619168424106)"/>
        <path class="cls-2" d="M212.697536762083473,99.1506727710821c2.304813858005218-3.042356632024166,6.199653721089817-4.805625497177971,10.006517262081616-4.530142690613502"/>
        <g>
          <path class="cls-7" d="M69.904860491321415,179.249056649257909c.096153536911515.193908911358449-10.884805056643017,51.27532270548727-12.623126707182564,66.021616696045385-.503349613724822,4.269944826421124-1.03286159730942,8.635383341279521-2.831267752908389,12.525928861045031-1.798406155605335,3.890545519758234-5.141096488555377,7.282866297407963-9.130662376214786,7.783560030942681-4.263124795630574.535026617442782-7.720512537714967-.805155964317237-8.000452168695119-5.326544649968127-.762914664792333-12.322062872706738-6.83839176708625,19.837407647140935-31.114368994569304,2.473201879838598-7.726905103328136-5.526927666043775-4.87982199500857-11.569379042037326-3.574990613410591-16.694113680056034,3.518231731393826-13.817880434744438,45.245776684776501-86.124398813939479,52.008748694965107-98.575809498703165"/>
          <path class="cls-2" d="M8.495453401896157,263.524098573087031c-1.042720319508589-3.853935956103669-.521544880389229-8.1071609367973,1.42084923731727-11.59531132201846"/>
          <path class="cls-2" d="M18.81545934310634,266.7514456026056c-.435087381049016-3.57033462160507.602661555240047-7.297818753122556,2.820145911629879-10.129665053427743"/>
        </g>
        <path class="cls-1" d="M59.353402249908868,97.341750154300826c.600183241167542-.154868018753405,1.200366482334175-.30973603750499,1.800549723502627-.46460405626749"/>
      </g>
      <g>
        <path class="cls-6" d="M216.263790971313028,69.132562869765025c8.281813728115594,1.178385516304843,11.857831576192439,2.277388219172281,26.19335076779862,6.979472341787186,7.77912040757019,2.349869362689788,15.5729566938071,4.265797349169588,23.40512404715264,5.653805723259211,4.253157175420711.754340249366578,7.740767022732143.825978219696481,10.343912155479302.267316330375252,1.415062740517897-.304416990908067,2.563582755989955-.796876672917278,3.42100364210819-1.466719104571894.848427145449023-.663977563250228,1.423101236577168-1.51177937542343,1.701777683381806-2.533200187308466.381273340460211-1.394463552915113.218152220411866-3.117066263905144-.535472568727528-5.146438588832098-1.156636037570934-3.111873216337699-3.287223131557766-5.820600302817184-6.208790254244377-8.066076409691959-7.19808595226732-4.342978588358164-15.856973569421825-5.92131682092986-24.996961089745128-5.294073526469219-9.660279427464047.664605214598851-23.726335533206111,4.675147455400293-33.323944383203525,9.605913421451987h0Z"/>
        <path class="cls-5" d="M199.582980535876231,52.116672723594093c.028345750484732.006482236027296,3.483233959988866.212770353517044,25.775974157844757,1.709788086298431,3.427976660980676.561152292826591,6.732559604868584,1.065846525685629,10.036824298695137,1.570806600184369,8.172926569757692,1.250450479470601,16.34892186563593,2.500705239175659,24.366196587096056,4.23474482050915.725691660526536.157383967594797,1.437411178728325.326564061208046,2.13450975399428.509673736403784-4.113855665623305-.759972992102121-8.437018776988225-.958771858866385-12.866586940294837-.65510202591031-10.179009241080166.700317049289879-24.785403930715802,4.945746073513874-34.815606435849077,10.233279148185829l-.043421776941614.021413977887278c-3.712760713300668,1.943251928583777-7.329785613376771,4.003379697871424-10.844261925953106,6.182640132425149-3.504857615365836,2.174367084511687-6.891375673870243,4.458047797099425-10.150336425606838,6.857183467454888-15.39972130454953,11.338042129067617-26.156645338553062,16.416055175957808-41.538151727587319,18.023875265689639-15.379949972687427,1.606909283764253-31.563685637747767-1.132470186768842-50.079165392984578-7.204138326889733-.023106829957214-.009279172347306-.046187530995667-.017843185087258-.070551451088249-.024013128117076-5.243499932447776-1.551961029399536-24.832685675634821-10.229720460065437-24.931643936008186-10.352915520154056,62.891305627623296-39.390448569083674,108.583880179951848-30.445763380796052,123.026221214683574-31.107236233967342Z"/>
      </g>
    </g>
  </g>
</svg>