<?xml version="1.0" encoding="UTF-8"?>
<svg id="Livello_2" data-name="Livello 2" xmlns="http://www.w3.org/2000/svg" width="1055.13104248046875" height="1270.087452930703876" viewBox="0 0 1055.13104248046875 1270.087452930703876">
  <defs>
    <style>
      .cls-1 {
        fill: #f7f0d0;
      }

      .cls-2 {
        fill: #020101;
      }

      .cls-3 {
        fill: none;
        stroke: #000;
        stroke-width: 7.5473147664888px;
      }
    </style>
  </defs>
  <g id="Livello_1-2" data-name="Livello 1">
    <g>
      <path class="cls-3" d="M992.397701726747982,1243.201904296875H62.733333260074687c-22.042692012017142-22.042692012017142-34.401151501963795-34.401151501962886-56.443843513980937-56.443843513981847V65.531593924617482C29.424937942821089,42.396145727891053,42.3960623030016,29.425021367711452,65.531510499728938,6.289573170983203h924.068013987364793c23.135448196726429,23.135448196726429,36.10657255690785,36.106572556906031,59.242020753634279,59.242020753634279v1121.226466858279309c-22.042692012017142,22.042692012015323-34.401151501964705,34.401151501962886-56.443843513980028,56.443843513978209Z"/>
      <g>
        <polygon class="cls-2" points="60.12811279296875 1270.087452930703876 0 1209.959034961953876 0 83.522267383822054 62.92633056640625 20.595997852572054 992.20465087890625 20.595997852572054 1055.13104248046875 83.522267383822054 1055.13104248046875 1209.959034961953876 995.00286865234375 1270.087452930703876 60.12811279296875 1270.087452930703876"/>
        <polygon class="cls-2" points="60.12811279296875 1268.714386407198617 0 1208.585968438448617 0 82.149200860317251 62.92633056640625 19.222931329067251 992.20465087890625 19.222931329067251 1055.13104248046875 82.149200860317251 1055.13104248046875 1208.585968438448617 995.00286865234375 1268.714386407198617 60.12811279296875 1268.714386407198617"/>
        <polygon class="cls-2" points="60.12811279296875 1267.341319883693359 0 1207.212901914943359 0 80.776134336812447 62.92633056640625 17.849864805562447 992.20465087890625 17.849864805562447 1055.13104248046875 80.776134336812447 1055.13104248046875 1207.212901914943359 995.00286865234375 1267.341319883693359 60.12811279296875 1267.341319883693359"/>
        <polygon class="cls-2" points="60.12811279296875 1265.9682533601881 0 1205.8398353914381 0 79.403067813307644 62.92633056640625 16.476798282057644 992.20465087890625 16.476798282057644 1055.13104248046875 79.403067813307644 1055.13104248046875 1205.8398353914381 995.00286865234375 1265.9682533601881 60.12811279296875 1265.9682533601881"/>
        <polygon class="cls-2" points="60.12811279296875 1264.595186836682842 0 1204.466768867932842 0 78.03000128980284 62.92633056640625 15.10373175855284 992.20465087890625 15.10373175855284 1055.13104248046875 78.03000128980284 1055.13104248046875 1204.466768867932842 995.00286865234375 1264.595186836682842 60.12811279296875 1264.595186836682842"/>
        <polygon class="cls-2" points="60.12811279296875 1263.222120313177584 0 1203.093702344427584 0 76.656934766298036 62.92633056640625 13.730665235048036 992.20465087890625 13.730665235048036 1055.13104248046875 76.656934766298036 1055.13104248046875 1203.093702344427584 995.00286865234375 1263.222120313177584 60.12811279296875 1263.222120313177584"/>
        <polygon class="cls-2" points="60.12811279296875 1261.849053789672325 0 1201.720635820922325 0 75.283868242793233 62.92633056640625 12.357598711543233 992.20465087890625 12.357598711543233 1055.13104248046875 75.283868242793233 1055.13104248046875 1201.720635820922325 995.00286865234375 1261.849053789672325 60.12811279296875 1261.849053789672325"/>
        <polygon class="cls-2" points="60.12811279296875 1260.475987266167067 0 1200.347569297417067 0 73.910801719288429 62.92633056640625 10.984532188038429 992.20465087890625 10.984532188038429 1055.13104248046875 73.910801719288429 1055.13104248046875 1200.347569297417067 995.00286865234375 1260.475987266167067 60.12811279296875 1260.475987266167067"/>
        <polygon class="cls-2" points="60.12811279296875 1259.102920742661809 0 1198.974502773911809 0 72.537735195783625 62.92633056640625 9.611465664533625 992.20465087890625 9.611465664533625 1055.13104248046875 72.537735195783625 1055.13104248046875 1198.974502773911809 995.00286865234375 1259.102920742661809 60.12811279296875 1259.102920742661809"/>
        <polygon class="cls-2" points="60.12811279296875 1257.72985421915655 0 1197.60143625040655 0 71.164668672278822 62.92633056640625 8.238399141028822 992.20465087890625 8.238399141028822 1055.13104248046875 71.164668672278822 1055.13104248046875 1197.60143625040655 995.00286865234375 1257.72985421915655 60.12811279296875 1257.72985421915655"/>
        <polygon class="cls-2" points="60.12811279296875 1256.356787695651292 0 1196.228369726901292 0 69.791602148774018 62.92633056640625 6.865332617524018 992.20465087890625 6.865332617524018 1055.13104248046875 69.791602148774018 1055.13104248046875 1196.228369726901292 995.00286865234375 1256.356787695651292 60.12811279296875 1256.356787695651292"/>
        <polygon class="cls-2" points="60.12811279296875 1254.983721172146033 0 1194.855303203396033 0 68.418535625269215 62.92633056640625 5.492266094019215 992.20465087890625 5.492266094019215 1055.13104248046875 68.418535625269215 1055.13104248046875 1194.855303203396033 995.00286865234375 1254.983721172146033 60.12811279296875 1254.983721172146033"/>
        <polygon class="cls-2" points="60.12811279296875 1253.610654648640775 0 1193.482236679890775 0 67.045469101764411 62.92633056640625 4.119199570514411 992.20465087890625 4.119199570514411 1055.13104248046875 67.045469101764411 1055.13104248046875 1193.482236679890775 995.00286865234375 1253.610654648640775 60.12811279296875 1253.610654648640775"/>
        <polygon class="cls-2" points="60.12811279296875 1252.237588125135517 0 1192.109170156385517 0 65.672402578259607 62.92633056640625 2.746133047009607 992.20465087890625 2.746133047009607 1055.13104248046875 65.672402578259607 1055.13104248046875 1192.109170156385517 995.00286865234375 1252.237588125135517 60.12811279296875 1252.237588125135517"/>
        <polygon class="cls-2" points="60.12811279296875 1250.864521601630258 0 1190.736103632880258 0 64.299336054754804 62.92633056640625 1.373066523504804 992.20465087890625 1.373066523504804 1055.13104248046875 64.299336054754804 1055.13104248046875 1190.736103632880258 995.00286865234375 1250.864521601630258 60.12811279296875 1250.864521601630258"/>
        <polygon class="cls-2" points="60.12811279296875 1249.491455078125 0 1189.363037109375 0 62.92626953125 62.92633056640625 0 992.20465087890625 0 1055.13104248046875 62.92626953125 1055.13104248046875 1189.363037109375 995.00286865234375 1249.491455078125 60.12811279296875 1249.491455078125"/>
      </g>
      <path class="cls-1" d="M992.397701726747982,1243.201904296875H62.733333260074687c-22.042692012017142-22.042692012017142-34.401151501963795-34.401151501962886-56.443843513980937-56.443843513981847V65.531593924617482C29.424937942821089,42.396145727891053,42.3960623030016,29.425021367711452,65.531510499728938,6.289573170983203h924.068013987364793c23.135448196726429,23.135448196726429,36.10657255690785,36.106572556906031,59.242020753634279,59.242020753634279v1121.226466858279309c-22.042692012017142,22.042692012015323-34.401151501964705,34.401151501962886-56.443843513980028,56.443843513978209Z"/>
    </g>
  </g>
</svg>