<?xml version="1.0" encoding="UTF-8"?>
<svg id="Livello_2" data-name="Livello 2" xmlns="http://www.w3.org/2000/svg" width="235.5068359375" height="142.334453195882816" viewBox="0 0 235.5068359375 142.334453195882816">
  <defs>
    <style>
      .cls-1 {
        fill: #ffbe08;
      }

      .cls-2 {
        fill: #f7f0d0;
      }

      .cls-3 {
        fill: #020101;
      }

      .cls-4 {
        fill: #f7c831;
        stroke: #020101;
        stroke-miterlimit: 10;
        stroke-width: 2.234022176494359px;
      }

      .cls-5 {
        fill: none;
        stroke: #000;
        stroke-width: 2.711901088918827px;
      }
    </style>
  </defs>
  <g id="Livello_1-2" data-name="Livello 1">
    <g>
      <g>
        <path class="cls-5" d="M226.15213016116104,79.248964503585739v-14.189417500329h-7.0947087501645v-7.094846385887649H23.543899090122068c.000008749933841,0-7.094703489739913,0-7.094708750162681,0v7.094846385887649h-7.094708750162681v14.189417500329H2.259772839632205v21.283988614763075h7.094743159097561-.000034408933061v14.189417500329h7.094708750162681v7.094846385887649h7.094708750162681v7.094571114434075h7.0947087501645v7.094846385887649h174.229464888243456v-7.094846385887649h7.094708750162681v-7.094571114434075h7.094639932303835v-7.094846385887649h7.0947087501645v-14.189417500329h-.000034408933061,7.094743159097561v-21.283988614763075h-7.0947087501645Z"/>
        <g>
          <polygon class="cls-3" points="28.37890625 142.334453195882816 28.37890625 135.239726633382816 21.2841796875 135.239726633382816 21.2841796875 128.145000070882816 14.189453125 128.145000070882816 14.189453125 121.050273508382816 7.0947265625 121.050273508382816 7.0947265625 106.860820383382816 0 106.860820383382816 0 81.057109445882816 7.0947265625 81.057109445882816 7.0947265625 66.867656320882816 14.189453125 66.867656320882816 14.189453125 59.772929758382816 221.3173828125 59.772929758382816 221.3173828125 66.867656320882816 228.412109375 66.867656320882816 228.412109375 81.057109445882816 235.5068359375 81.057109445882816 235.5068359375 106.860820383382816 228.412109375 106.860820383382816 228.412109375 121.050273508382816 221.3173828125 121.050273508382816 221.3173828125 128.145000070882816 214.22265625 128.145000070882816 214.22265625 135.239726633382816 207.1279296875 135.239726633382816 207.1279296875 142.334453195882816 28.37890625 142.334453195882816"/>
          <polygon class="cls-3" points="28.37890625 142.108461438472659 28.37890625 135.013734875972659 21.2841796875 135.013734875972659 21.2841796875 127.919008313472659 14.189453125 127.919008313472659 14.189453125 120.824281750972659 7.0947265625 120.824281750972659 7.0947265625 106.634828625972659 0 106.634828625972659 0 80.831117688472659 7.0947265625 80.831117688472659 7.0947265625 66.641664563472659 14.189453125 66.641664563472659 14.189453125 59.546938000972659 221.3173828125 59.546938000972659 221.3173828125 66.641664563472659 228.412109375 66.641664563472659 228.412109375 80.831117688472659 235.5068359375 80.831117688472659 235.5068359375 106.634828625972659 228.412109375 106.634828625972659 228.412109375 120.824281750972659 221.3173828125 120.824281750972659 221.3173828125 127.919008313472659 214.22265625 127.919008313472659 214.22265625 135.013734875972659 207.1279296875 135.013734875972659 207.1279296875 142.108461438472659 28.37890625 142.108461438472659"/>
          <polygon class="cls-3" points="28.37890625 141.882469681062503 28.37890625 134.787743118562503 21.2841796875 134.787743118562503 21.2841796875 127.693016556062503 14.189453125 127.693016556062503 14.189453125 120.598289993562503 7.0947265625 120.598289993562503 7.0947265625 106.408836868562503 0 106.408836868562503 0 80.605125931062503 7.0947265625 80.605125931062503 7.0947265625 66.415672806062503 14.189453125 66.415672806062503 14.189453125 59.320946243562503 221.3173828125 59.320946243562503 221.3173828125 66.415672806062503 228.412109375 66.415672806062503 228.412109375 80.605125931062503 235.5068359375 80.605125931062503 235.5068359375 106.408836868562503 228.412109375 106.408836868562503 228.412109375 120.598289993562503 221.3173828125 120.598289993562503 221.3173828125 127.693016556062503 214.22265625 127.693016556062503 214.22265625 134.787743118562503 207.1279296875 134.787743118562503 207.1279296875 141.882469681062503 28.37890625 141.882469681062503"/>
          <polygon class="cls-3" points="28.37890625 141.656477923652346 28.37890625 134.561751361152346 21.2841796875 134.561751361152346 21.2841796875 127.467024798652346 14.189453125 127.467024798652346 14.189453125 120.372298236152346 7.0947265625 120.372298236152346 7.0947265625 106.182845111152346 0 106.182845111152346 0 80.379134173652346 7.0947265625 80.379134173652346 7.0947265625 66.189681048652346 14.189453125 66.189681048652346 14.189453125 59.094954486152346 221.3173828125 59.094954486152346 221.3173828125 66.189681048652346 228.412109375 66.189681048652346 228.412109375 80.379134173652346 235.5068359375 80.379134173652346 235.5068359375 106.182845111152346 228.412109375 106.182845111152346 228.412109375 120.372298236152346 221.3173828125 120.372298236152346 221.3173828125 127.467024798652346 214.22265625 127.467024798652346 214.22265625 134.561751361152346 207.1279296875 134.561751361152346 207.1279296875 141.656477923652346 28.37890625 141.656477923652346"/>
          <polygon class="cls-3" points="28.37890625 141.43048616624219 28.37890625 134.33575960374219 21.2841796875 134.33575960374219 21.2841796875 127.24103304124219 14.189453125 127.24103304124219 14.189453125 120.14630647874219 7.0947265625 120.14630647874219 7.0947265625 105.95685335374219 0 105.95685335374219 0 80.15314241624219 7.0947265625 80.15314241624219 7.0947265625 65.96368929124219 14.189453125 65.96368929124219 14.189453125 58.86896272874219 221.3173828125 58.86896272874219 221.3173828125 65.96368929124219 228.412109375 65.96368929124219 228.412109375 80.15314241624219 235.5068359375 80.15314241624219 235.5068359375 105.95685335374219 228.412109375 105.95685335374219 228.412109375 120.14630647874219 221.3173828125 120.14630647874219 221.3173828125 127.24103304124219 214.22265625 127.24103304124219 214.22265625 134.33575960374219 207.1279296875 134.33575960374219 207.1279296875 141.43048616624219 28.37890625 141.43048616624219"/>
          <polygon class="cls-3" points="28.37890625 141.204494408832034 28.37890625 134.109767846332034 21.2841796875 134.109767846332034 21.2841796875 127.015041283832034 14.189453125 127.015041283832034 14.189453125 119.920314721332034 7.0947265625 119.920314721332034 7.0947265625 105.730861596332034 0 105.730861596332034 0 79.927150658832034 7.0947265625 79.927150658832034 7.0947265625 65.737697533832034 14.189453125 65.737697533832034 14.189453125 58.642970971332034 221.3173828125 58.642970971332034 221.3173828125 65.737697533832034 228.412109375 65.737697533832034 228.412109375 79.927150658832034 235.5068359375 79.927150658832034 235.5068359375 105.730861596332034 228.412109375 105.730861596332034 228.412109375 119.920314721332034 221.3173828125 119.920314721332034 221.3173828125 127.015041283832034 214.22265625 127.015041283832034 214.22265625 134.109767846332034 207.1279296875 134.109767846332034 207.1279296875 141.204494408832034 28.37890625 141.204494408832034"/>
          <polygon class="cls-3" points="28.37890625 140.978502651421877 28.37890625 133.883776088921877 21.2841796875 133.883776088921877 21.2841796875 126.789049526421877 14.189453125 126.789049526421877 14.189453125 119.694322963921877 7.0947265625 119.694322963921877 7.0947265625 105.504869838921877 0 105.504869838921877 0 79.701158901421877 7.0947265625 79.701158901421877 7.0947265625 65.511705776421877 14.189453125 65.511705776421877 14.189453125 58.416979213921877 221.3173828125 58.416979213921877 221.3173828125 65.511705776421877 228.412109375 65.511705776421877 228.412109375 79.701158901421877 235.5068359375 79.701158901421877 235.5068359375 105.504869838921877 228.412109375 105.504869838921877 228.412109375 119.694322963921877 221.3173828125 119.694322963921877 221.3173828125 126.789049526421877 214.22265625 126.789049526421877 214.22265625 133.883776088921877 207.1279296875 133.883776088921877 207.1279296875 140.978502651421877 28.37890625 140.978502651421877"/>
          <polygon class="cls-3" points="28.37890625 140.752510894011721 28.37890625 133.657784331511721 21.2841796875 133.657784331511721 21.2841796875 126.563057769011721 14.189453125 126.563057769011721 14.189453125 119.468331206511721 7.0947265625 119.468331206511721 7.0947265625 105.278878081511721 0 105.278878081511721 0 79.475167144011721 7.0947265625 79.475167144011721 7.0947265625 65.285714019011721 14.189453125 65.285714019011721 14.189453125 58.190987456511721 221.3173828125 58.190987456511721 221.3173828125 65.285714019011721 228.412109375 65.285714019011721 228.412109375 79.475167144011721 235.5068359375 79.475167144011721 235.5068359375 105.278878081511721 228.412109375 105.278878081511721 228.412109375 119.468331206511721 221.3173828125 119.468331206511721 221.3173828125 126.563057769011721 214.22265625 126.563057769011721 214.22265625 133.657784331511721 207.1279296875 133.657784331511721 207.1279296875 140.752510894011721 28.37890625 140.752510894011721"/>
          <polygon class="cls-3" points="28.37890625 140.526519136601564 28.37890625 133.431792574101564 21.2841796875 133.431792574101564 21.2841796875 126.337066011601564 14.189453125 126.337066011601564 14.189453125 119.242339449101564 7.0947265625 119.242339449101564 7.0947265625 105.052886324101564 0 105.052886324101564 0 79.249175386601564 7.0947265625 79.249175386601564 7.0947265625 65.059722261601564 14.189453125 65.059722261601564 14.189453125 57.964995699101564 221.3173828125 57.964995699101564 221.3173828125 65.059722261601564 228.412109375 65.059722261601564 228.412109375 79.249175386601564 235.5068359375 79.249175386601564 235.5068359375 105.052886324101564 228.412109375 105.052886324101564 228.412109375 119.242339449101564 221.3173828125 119.242339449101564 221.3173828125 126.337066011601564 214.22265625 126.337066011601564 214.22265625 133.431792574101564 207.1279296875 133.431792574101564 207.1279296875 140.526519136601564 28.37890625 140.526519136601564"/>
          <polygon class="cls-3" points="28.37890625 140.300527379191408 28.37890625 133.205800816691408 21.2841796875 133.205800816691408 21.2841796875 126.111074254191408 14.189453125 126.111074254191408 14.189453125 119.016347691691408 7.0947265625 119.016347691691408 7.0947265625 104.826894566691408 0 104.826894566691408 0 79.023183629191408 7.0947265625 79.023183629191408 7.0947265625 64.833730504191408 14.189453125 64.833730504191408 14.189453125 57.739003941691408 221.3173828125 57.739003941691408 221.3173828125 64.833730504191408 228.412109375 64.833730504191408 228.412109375 79.023183629191408 235.5068359375 79.023183629191408 235.5068359375 104.826894566691408 228.412109375 104.826894566691408 228.412109375 119.016347691691408 221.3173828125 119.016347691691408 221.3173828125 126.111074254191408 214.22265625 126.111074254191408 214.22265625 133.205800816691408 207.1279296875 133.205800816691408 207.1279296875 140.300527379191408 28.37890625 140.300527379191408"/>
          <polygon class="cls-3" points="28.37890625 140.074535621781251 28.37890625 132.979809059281251 21.2841796875 132.979809059281251 21.2841796875 125.885082496781251 14.189453125 125.885082496781251 14.189453125 118.790355934281251 7.0947265625 118.790355934281251 7.0947265625 104.600902809281251 0 104.600902809281251 0 78.797191871781251 7.0947265625 78.797191871781251 7.0947265625 64.607738746781251 14.189453125 64.607738746781251 14.189453125 57.513012184281251 221.3173828125 57.513012184281251 221.3173828125 64.607738746781251 228.412109375 64.607738746781251 228.412109375 78.797191871781251 235.5068359375 78.797191871781251 235.5068359375 104.600902809281251 228.412109375 104.600902809281251 228.412109375 118.790355934281251 221.3173828125 118.790355934281251 221.3173828125 125.885082496781251 214.22265625 125.885082496781251 214.22265625 132.979809059281251 207.1279296875 132.979809059281251 207.1279296875 140.074535621781251 28.37890625 140.074535621781251"/>
          <polygon class="cls-3" points="28.37890625 139.848543864371095 28.37890625 132.753817301871095 21.2841796875 132.753817301871095 21.2841796875 125.659090739371095 14.189453125 125.659090739371095 14.189453125 118.564364176871095 7.0947265625 118.564364176871095 7.0947265625 104.374911051871095 0 104.374911051871095 0 78.571200114371095 7.0947265625 78.571200114371095 7.0947265625 64.381746989371095 14.189453125 64.381746989371095 14.189453125 57.287020426871095 221.3173828125 57.287020426871095 221.3173828125 64.381746989371095 228.412109375 64.381746989371095 228.412109375 78.571200114371095 235.5068359375 78.571200114371095 235.5068359375 104.374911051871095 228.412109375 104.374911051871095 228.412109375 118.564364176871095 221.3173828125 118.564364176871095 221.3173828125 125.659090739371095 214.22265625 125.659090739371095 214.22265625 132.753817301871095 207.1279296875 132.753817301871095 207.1279296875 139.848543864371095 28.37890625 139.848543864371095"/>
          <polygon class="cls-3" points="28.37890625 139.622552106960939 28.37890625 132.527825544460939 21.2841796875 132.527825544460939 21.2841796875 125.433098981960939 14.189453125 125.433098981960939 14.189453125 118.338372419460939 7.0947265625 118.338372419460939 7.0947265625 104.148919294460939 0 104.148919294460939 0 78.345208356960939 7.0947265625 78.345208356960939 7.0947265625 64.155755231960939 14.189453125 64.155755231960939 14.189453125 57.061028669460939 221.3173828125 57.061028669460939 221.3173828125 64.155755231960939 228.412109375 64.155755231960939 228.412109375 78.345208356960939 235.5068359375 78.345208356960939 235.5068359375 104.148919294460939 228.412109375 104.148919294460939 228.412109375 118.338372419460939 221.3173828125 118.338372419460939 221.3173828125 125.433098981960939 214.22265625 125.433098981960939 214.22265625 132.527825544460939 207.1279296875 132.527825544460939 207.1279296875 139.622552106960939 28.37890625 139.622552106960939"/>
          <polygon class="cls-3" points="28.37890625 139.396560349550782 28.37890625 132.301833787050782 21.2841796875 132.301833787050782 21.2841796875 125.207107224550782 14.189453125 125.207107224550782 14.189453125 118.112380662050782 7.0947265625 118.112380662050782 7.0947265625 103.922927537050782 0 103.922927537050782 0 78.119216599550782 7.0947265625 78.119216599550782 7.0947265625 63.929763474550782 14.189453125 63.929763474550782 14.189453125 56.835036912050782 221.3173828125 56.835036912050782 221.3173828125 63.929763474550782 228.412109375 63.929763474550782 228.412109375 78.119216599550782 235.5068359375 78.119216599550782 235.5068359375 103.922927537050782 228.412109375 103.922927537050782 228.412109375 118.112380662050782 221.3173828125 118.112380662050782 221.3173828125 125.207107224550782 214.22265625 125.207107224550782 214.22265625 132.301833787050782 207.1279296875 132.301833787050782 207.1279296875 139.396560349550782 28.37890625 139.396560349550782"/>
          <polygon class="cls-3" points="28.37890625 139.170568592140626 28.37890625 132.075842029640626 21.2841796875 132.075842029640626 21.2841796875 124.981115467140626 14.189453125 124.981115467140626 14.189453125 117.886388904640626 7.0947265625 117.886388904640626 7.0947265625 103.696935779640626 0 103.696935779640626 0 77.893224842140626 7.0947265625 77.893224842140626 7.0947265625 63.703771717140626 14.189453125 63.703771717140626 14.189453125 56.609045154640626 221.3173828125 56.609045154640626 221.3173828125 63.703771717140626 228.412109375 63.703771717140626 228.412109375 77.893224842140626 235.5068359375 77.893224842140626 235.5068359375 103.696935779640626 228.412109375 103.696935779640626 228.412109375 117.886388904640626 221.3173828125 117.886388904640626 221.3173828125 124.981115467140626 214.22265625 124.981115467140626 214.22265625 132.075842029640626 207.1279296875 132.075842029640626 207.1279296875 139.170568592140626 28.37890625 139.170568592140626"/>
          <polygon class="cls-3" points="28.37890625 138.944576834730469 28.37890625 131.849850272230469 21.2841796875 131.849850272230469 21.2841796875 124.755123709730469 14.189453125 124.755123709730469 14.189453125 117.660397147230469 7.0947265625 117.660397147230469 7.0947265625 103.470944022230469 0 103.470944022230469 0 77.667233084730469 7.0947265625 77.667233084730469 7.0947265625 63.477779959730469 14.189453125 63.477779959730469 14.189453125 56.383053397230469 221.3173828125 56.383053397230469 221.3173828125 63.477779959730469 228.412109375 63.477779959730469 228.412109375 77.667233084730469 235.5068359375 77.667233084730469 235.5068359375 103.470944022230469 228.412109375 103.470944022230469 228.412109375 117.660397147230469 221.3173828125 117.660397147230469 221.3173828125 124.755123709730469 214.22265625 124.755123709730469 214.22265625 131.849850272230469 207.1279296875 131.849850272230469 207.1279296875 138.944576834730469 28.37890625 138.944576834730469"/>
          <polygon class="cls-3" points="28.37890625 138.718585077320313 28.37890625 131.623858514820313 21.2841796875 131.623858514820313 21.2841796875 124.529131952320313 14.189453125 124.529131952320313 14.189453125 117.434405389820313 7.0947265625 117.434405389820313 7.0947265625 103.244952264820313 0 103.244952264820313 0 77.441241327320313 7.0947265625 77.441241327320313 7.0947265625 63.251788202320313 14.189453125 63.251788202320313 14.189453125 56.157061639820313 221.3173828125 56.157061639820313 221.3173828125 63.251788202320313 228.412109375 63.251788202320313 228.412109375 77.441241327320313 235.5068359375 77.441241327320313 235.5068359375 103.244952264820313 228.412109375 103.244952264820313 228.412109375 117.434405389820313 221.3173828125 117.434405389820313 221.3173828125 124.529131952320313 214.22265625 124.529131952320313 214.22265625 131.623858514820313 207.1279296875 131.623858514820313 207.1279296875 138.718585077320313 28.37890625 138.718585077320313"/>
          <polygon class="cls-3" points="28.37890625 138.492593319910156 28.37890625 131.397866757410156 21.2841796875 131.397866757410156 21.2841796875 124.303140194910156 14.189453125 124.303140194910156 14.189453125 117.208413632410156 7.0947265625 117.208413632410156 7.0947265625 103.018960507410156 0 103.018960507410156 0 77.215249569910156 7.0947265625 77.215249569910156 7.0947265625 63.025796444910156 14.189453125 63.025796444910156 14.189453125 55.931069882410156 221.3173828125 55.931069882410156 221.3173828125 63.025796444910156 228.412109375 63.025796444910156 228.412109375 77.215249569910156 235.5068359375 77.215249569910156 235.5068359375 103.018960507410156 228.412109375 103.018960507410156 228.412109375 117.208413632410156 221.3173828125 117.208413632410156 221.3173828125 124.303140194910156 214.22265625 124.303140194910156 214.22265625 131.397866757410156 207.1279296875 131.397866757410156 207.1279296875 138.492593319910156 28.37890625 138.492593319910156"/>
          <polygon class="cls-3" points="28.37890625 138.2666015625 28.37890625 131.171875 21.2841796875 131.171875 21.2841796875 124.0771484375 14.189453125 124.0771484375 14.189453125 116.982421875 7.0947265625 116.982421875 7.0947265625 102.79296875 0 102.79296875 0 76.9892578125 7.0947265625 76.9892578125 7.0947265625 62.7998046875 14.189453125 62.7998046875 14.189453125 55.705078125 221.3173828125 55.705078125 221.3173828125 62.7998046875 228.412109375 62.7998046875 228.412109375 76.9892578125 235.5068359375 76.9892578125 235.5068359375 102.79296875 228.412109375 102.79296875 228.412109375 116.982421875 221.3173828125 116.982421875 221.3173828125 124.0771484375 214.22265625 124.0771484375 214.22265625 131.171875 207.1279296875 131.171875 207.1279296875 138.2666015625 28.37890625 138.2666015625"/>
        </g>
        <path class="cls-1" d="M226.15213016116104,79.248964503585739v-14.189417500329h-7.0947087501645v-7.094846385887649H23.543899090122068c.000008749933841,0-7.094703489739913,0-7.094708750162681,0v7.094846385887649h-7.094708750162681v14.189417500329H2.259772839632205v21.283988614763075h7.094743159097561-.000034408933061v14.189417500329h7.094708750162681v7.094846385887649h7.094708750162681v7.094571114434075h7.0947087501645v7.094846385887649h174.229464888243456v-7.094846385887649h7.094708750162681v-7.094571114434075h7.094639932303835v-7.094846385887649h7.0947087501645v-14.189417500329h-.000034408933061,7.094743159097561v-21.283988614763075h-7.0947087501645Z"/>
      </g>
      <g>
        <g>
          <g>
            <polygon class="cls-3" points="177.5595703125 77.129303168167098 177.5595703125 70.708404730667098 175.224609375 70.708404730667098 175.224609375 67.383209418167098 183.2197265625 67.383209418167098 183.2197265625 70.708404730667098 180.884765625 70.708404730667098 180.884765625 77.129303168167098 177.5595703125 77.129303168167098"/>
            <polygon class="cls-3" points="183.056640625 77.129303168167098 183.056640625 73.804107855667098 185.3916015625 73.804107855667098 185.3916015625 70.708404730667098 183.056640625 70.708404730667098 183.056640625 67.383209418167098 191.0517578125 67.383209418167098 191.0517578125 70.708404730667098 188.716796875 70.708404730667098 188.716796875 73.804107855667098 191.0517578125 73.804107855667098 191.0517578125 77.129303168167098 183.056640625 77.129303168167098"/>
            <polygon class="cls-3" points="195.5595703125 77.129303168167098 195.5595703125 75.378326605667098 194.21484375 75.378326605667098 194.21484375 77.129303168167098 190.8896484375 77.129303168167098 190.8896484375 67.383209418167098 194.21484375 67.383209418167098 194.21484375 68.551178168167098 195.5595703125 68.551178168167098 195.5595703125 67.383209418167098 198.884765625 67.383209418167098 198.884765625 77.129303168167098 195.5595703125 77.129303168167098"/>
            <polygon class="cls-3" points="198.7216796875 77.129303168167098 198.7216796875 67.383209418167098 206.716796875 67.383209418167098 206.716796875 73.627350043167098 202.046875 73.627350043167098 202.046875 73.804107855667098 206.716796875 73.804107855667098 206.716796875 77.129303168167098 198.7216796875 77.129303168167098"/>
          </g>
          <g>
            <polygon class="cls-3" points="177.5595703125 76.867031998375751 177.5595703125 70.446133560875751 175.224609375 70.446133560875751 175.224609375 67.120938248375751 183.2197265625 67.120938248375751 183.2197265625 70.446133560875751 180.884765625 70.446133560875751 180.884765625 76.867031998375751 177.5595703125 76.867031998375751"/>
            <polygon class="cls-3" points="183.056640625 76.867031998375751 183.056640625 73.541836685875751 185.3916015625 73.541836685875751 185.3916015625 70.446133560875751 183.056640625 70.446133560875751 183.056640625 67.120938248375751 191.0517578125 67.120938248375751 191.0517578125 70.446133560875751 188.716796875 70.446133560875751 188.716796875 73.541836685875751 191.0517578125 73.541836685875751 191.0517578125 76.867031998375751 183.056640625 76.867031998375751"/>
            <polygon class="cls-3" points="195.5595703125 76.867031998375751 195.5595703125 75.116055435875751 194.21484375 75.116055435875751 194.21484375 76.867031998375751 190.8896484375 76.867031998375751 190.8896484375 67.120938248375751 194.21484375 67.120938248375751 194.21484375 68.288906998375751 195.5595703125 68.288906998375751 195.5595703125 67.120938248375751 198.884765625 67.120938248375751 198.884765625 76.867031998375751 195.5595703125 76.867031998375751"/>
            <polygon class="cls-3" points="198.7216796875 76.867031998375751 198.7216796875 67.120938248375751 206.716796875 67.120938248375751 206.716796875 73.365078873375751 202.046875 73.365078873375751 202.046875 73.541836685875751 206.716796875 73.541836685875751 206.716796875 76.867031998375751 198.7216796875 76.867031998375751"/>
          </g>
          <g>
            <polygon class="cls-3" points="177.5595703125 76.604760828584403 177.5595703125 70.183862391084403 175.224609375 70.183862391084403 175.224609375 66.858667078584403 183.2197265625 66.858667078584403 183.2197265625 70.183862391084403 180.884765625 70.183862391084403 180.884765625 76.604760828584403 177.5595703125 76.604760828584403"/>
            <polygon class="cls-3" points="183.056640625 76.604760828584403 183.056640625 73.279565516084403 185.3916015625 73.279565516084403 185.3916015625 70.183862391084403 183.056640625 70.183862391084403 183.056640625 66.858667078584403 191.0517578125 66.858667078584403 191.0517578125 70.183862391084403 188.716796875 70.183862391084403 188.716796875 73.279565516084403 191.0517578125 73.279565516084403 191.0517578125 76.604760828584403 183.056640625 76.604760828584403"/>
            <polygon class="cls-3" points="195.5595703125 76.604760828584403 195.5595703125 74.853784266084403 194.21484375 74.853784266084403 194.21484375 76.604760828584403 190.8896484375 76.604760828584403 190.8896484375 66.858667078584403 194.21484375 66.858667078584403 194.21484375 68.026635828584403 195.5595703125 68.026635828584403 195.5595703125 66.858667078584403 198.884765625 66.858667078584403 198.884765625 76.604760828584403 195.5595703125 76.604760828584403"/>
            <polygon class="cls-3" points="198.7216796875 76.604760828584403 198.7216796875 66.858667078584403 206.716796875 66.858667078584403 206.716796875 73.102807703584403 202.046875 73.102807703584403 202.046875 73.279565516084403 206.716796875 73.279565516084403 206.716796875 76.604760828584403 198.7216796875 76.604760828584403"/>
          </g>
          <g>
            <polygon class="cls-3" points="177.5595703125 76.342489658793056 177.5595703125 69.921591221293056 175.224609375 69.921591221293056 175.224609375 66.596395908793056 183.2197265625 66.596395908793056 183.2197265625 69.921591221293056 180.884765625 69.921591221293056 180.884765625 76.342489658793056 177.5595703125 76.342489658793056"/>
            <polygon class="cls-3" points="183.056640625 76.342489658793056 183.056640625 73.017294346293056 185.3916015625 73.017294346293056 185.3916015625 69.921591221293056 183.056640625 69.921591221293056 183.056640625 66.596395908793056 191.0517578125 66.596395908793056 191.0517578125 69.921591221293056 188.716796875 69.921591221293056 188.716796875 73.017294346293056 191.0517578125 73.017294346293056 191.0517578125 76.342489658793056 183.056640625 76.342489658793056"/>
            <polygon class="cls-3" points="195.5595703125 76.342489658793056 195.5595703125 74.591513096293056 194.21484375 74.591513096293056 194.21484375 76.342489658793056 190.8896484375 76.342489658793056 190.8896484375 66.596395908793056 194.21484375 66.596395908793056 194.21484375 67.764364658793056 195.5595703125 67.764364658793056 195.5595703125 66.596395908793056 198.884765625 66.596395908793056 198.884765625 76.342489658793056 195.5595703125 76.342489658793056"/>
            <polygon class="cls-3" points="198.7216796875 76.342489658793056 198.7216796875 66.596395908793056 206.716796875 66.596395908793056 206.716796875 72.840536533793056 202.046875 72.840536533793056 202.046875 73.017294346293056 206.716796875 73.017294346293056 206.716796875 76.342489658793056 198.7216796875 76.342489658793056"/>
          </g>
          <g>
            <polygon class="cls-3" points="177.5595703125 76.080218489001709 177.5595703125 69.659320051501709 175.224609375 69.659320051501709 175.224609375 66.334124739001709 183.2197265625 66.334124739001709 183.2197265625 69.659320051501709 180.884765625 69.659320051501709 180.884765625 76.080218489001709 177.5595703125 76.080218489001709"/>
            <polygon class="cls-3" points="183.056640625 76.080218489001709 183.056640625 72.755023176501709 185.3916015625 72.755023176501709 185.3916015625 69.659320051501709 183.056640625 69.659320051501709 183.056640625 66.334124739001709 191.0517578125 66.334124739001709 191.0517578125 69.659320051501709 188.716796875 69.659320051501709 188.716796875 72.755023176501709 191.0517578125 72.755023176501709 191.0517578125 76.080218489001709 183.056640625 76.080218489001709"/>
            <polygon class="cls-3" points="195.5595703125 76.080218489001709 195.5595703125 74.329241926501709 194.21484375 74.329241926501709 194.21484375 76.080218489001709 190.8896484375 76.080218489001709 190.8896484375 66.334124739001709 194.21484375 66.334124739001709 194.21484375 67.502093489001709 195.5595703125 67.502093489001709 195.5595703125 66.334124739001709 198.884765625 66.334124739001709 198.884765625 76.080218489001709 195.5595703125 76.080218489001709"/>
            <polygon class="cls-3" points="198.7216796875 76.080218489001709 198.7216796875 66.334124739001709 206.716796875 66.334124739001709 206.716796875 72.578265364001709 202.046875 72.578265364001709 202.046875 72.755023176501709 206.716796875 72.755023176501709 206.716796875 76.080218489001709 198.7216796875 76.080218489001709"/>
          </g>
          <g>
            <polygon class="cls-3" points="177.5595703125 75.817947319210361 177.5595703125 69.397048881710361 175.224609375 69.397048881710361 175.224609375 66.071853569210361 183.2197265625 66.071853569210361 183.2197265625 69.397048881710361 180.884765625 69.397048881710361 180.884765625 75.817947319210361 177.5595703125 75.817947319210361"/>
            <polygon class="cls-3" points="183.056640625 75.817947319210361 183.056640625 72.492752006710361 185.3916015625 72.492752006710361 185.3916015625 69.397048881710361 183.056640625 69.397048881710361 183.056640625 66.071853569210361 191.0517578125 66.071853569210361 191.0517578125 69.397048881710361 188.716796875 69.397048881710361 188.716796875 72.492752006710361 191.0517578125 72.492752006710361 191.0517578125 75.817947319210361 183.056640625 75.817947319210361"/>
            <polygon class="cls-3" points="195.5595703125 75.817947319210361 195.5595703125 74.066970756710361 194.21484375 74.066970756710361 194.21484375 75.817947319210361 190.8896484375 75.817947319210361 190.8896484375 66.071853569210361 194.21484375 66.071853569210361 194.21484375 67.239822319210361 195.5595703125 67.239822319210361 195.5595703125 66.071853569210361 198.884765625 66.071853569210361 198.884765625 75.817947319210361 195.5595703125 75.817947319210361"/>
            <polygon class="cls-3" points="198.7216796875 75.817947319210361 198.7216796875 66.071853569210361 206.716796875 66.071853569210361 206.716796875 72.315994194210361 202.046875 72.315994194210361 202.046875 72.492752006710361 206.716796875 72.492752006710361 206.716796875 75.817947319210361 198.7216796875 75.817947319210361"/>
          </g>
          <g>
            <polygon class="cls-3" points="177.5595703125 75.555676149419014 177.5595703125 69.134777711919014 175.224609375 69.134777711919014 175.224609375 65.809582399419014 183.2197265625 65.809582399419014 183.2197265625 69.134777711919014 180.884765625 69.134777711919014 180.884765625 75.555676149419014 177.5595703125 75.555676149419014"/>
            <polygon class="cls-3" points="183.056640625 75.555676149419014 183.056640625 72.230480836919014 185.3916015625 72.230480836919014 185.3916015625 69.134777711919014 183.056640625 69.134777711919014 183.056640625 65.809582399419014 191.0517578125 65.809582399419014 191.0517578125 69.134777711919014 188.716796875 69.134777711919014 188.716796875 72.230480836919014 191.0517578125 72.230480836919014 191.0517578125 75.555676149419014 183.056640625 75.555676149419014"/>
            <polygon class="cls-3" points="195.5595703125 75.555676149419014 195.5595703125 73.804699586919014 194.21484375 73.804699586919014 194.21484375 75.555676149419014 190.8896484375 75.555676149419014 190.8896484375 65.809582399419014 194.21484375 65.809582399419014 194.21484375 66.977551149419014 195.5595703125 66.977551149419014 195.5595703125 65.809582399419014 198.884765625 65.809582399419014 198.884765625 75.555676149419014 195.5595703125 75.555676149419014"/>
            <polygon class="cls-3" points="198.7216796875 75.555676149419014 198.7216796875 65.809582399419014 206.716796875 65.809582399419014 206.716796875 72.053723024419014 202.046875 72.053723024419014 202.046875 72.230480836919014 206.716796875 72.230480836919014 206.716796875 75.555676149419014 198.7216796875 75.555676149419014"/>
          </g>
          <g>
            <polygon class="cls-3" points="177.5595703125 75.293404979627667 177.5595703125 68.872506542127667 175.224609375 68.872506542127667 175.224609375 65.547311229627667 183.2197265625 65.547311229627667 183.2197265625 68.872506542127667 180.884765625 68.872506542127667 180.884765625 75.293404979627667 177.5595703125 75.293404979627667"/>
            <polygon class="cls-3" points="183.056640625 75.293404979627667 183.056640625 71.968209667127667 185.3916015625 71.968209667127667 185.3916015625 68.872506542127667 183.056640625 68.872506542127667 183.056640625 65.547311229627667 191.0517578125 65.547311229627667 191.0517578125 68.872506542127667 188.716796875 68.872506542127667 188.716796875 71.968209667127667 191.0517578125 71.968209667127667 191.0517578125 75.293404979627667 183.056640625 75.293404979627667"/>
            <polygon class="cls-3" points="195.5595703125 75.293404979627667 195.5595703125 73.542428417127667 194.21484375 73.542428417127667 194.21484375 75.293404979627667 190.8896484375 75.293404979627667 190.8896484375 65.547311229627667 194.21484375 65.547311229627667 194.21484375 66.715279979627667 195.5595703125 66.715279979627667 195.5595703125 65.547311229627667 198.884765625 65.547311229627667 198.884765625 75.293404979627667 195.5595703125 75.293404979627667"/>
            <polygon class="cls-3" points="198.7216796875 75.293404979627667 198.7216796875 65.547311229627667 206.716796875 65.547311229627667 206.716796875 71.791451854627667 202.046875 71.791451854627667 202.046875 71.968209667127667 206.716796875 71.968209667127667 206.716796875 75.293404979627667 198.7216796875 75.293404979627667"/>
          </g>
          <g>
            <polygon class="cls-3" points="177.5595703125 75.031133809836319 177.5595703125 68.610235372336319 175.224609375 68.610235372336319 175.224609375 65.285040059836319 183.2197265625 65.285040059836319 183.2197265625 68.610235372336319 180.884765625 68.610235372336319 180.884765625 75.031133809836319 177.5595703125 75.031133809836319"/>
            <polygon class="cls-3" points="183.056640625 75.031133809836319 183.056640625 71.705938497336319 185.3916015625 71.705938497336319 185.3916015625 68.610235372336319 183.056640625 68.610235372336319 183.056640625 65.285040059836319 191.0517578125 65.285040059836319 191.0517578125 68.610235372336319 188.716796875 68.610235372336319 188.716796875 71.705938497336319 191.0517578125 71.705938497336319 191.0517578125 75.031133809836319 183.056640625 75.031133809836319"/>
            <polygon class="cls-3" points="195.5595703125 75.031133809836319 195.5595703125 73.280157247336319 194.21484375 73.280157247336319 194.21484375 75.031133809836319 190.8896484375 75.031133809836319 190.8896484375 65.285040059836319 194.21484375 65.285040059836319 194.21484375 66.453008809836319 195.5595703125 66.453008809836319 195.5595703125 65.285040059836319 198.884765625 65.285040059836319 198.884765625 75.031133809836319 195.5595703125 75.031133809836319"/>
            <polygon class="cls-3" points="198.7216796875 75.031133809836319 198.7216796875 65.285040059836319 206.716796875 65.285040059836319 206.716796875 71.529180684836319 202.046875 71.529180684836319 202.046875 71.705938497336319 206.716796875 71.705938497336319 206.716796875 75.031133809836319 198.7216796875 75.031133809836319"/>
          </g>
          <g>
            <polygon class="cls-3" points="177.5595703125 74.768862640044972 177.5595703125 68.347964202544972 175.224609375 68.347964202544972 175.224609375 65.022768890044972 183.2197265625 65.022768890044972 183.2197265625 68.347964202544972 180.884765625 68.347964202544972 180.884765625 74.768862640044972 177.5595703125 74.768862640044972"/>
            <polygon class="cls-3" points="183.056640625 74.768862640044972 183.056640625 71.443667327544972 185.3916015625 71.443667327544972 185.3916015625 68.347964202544972 183.056640625 68.347964202544972 183.056640625 65.022768890044972 191.0517578125 65.022768890044972 191.0517578125 68.347964202544972 188.716796875 68.347964202544972 188.716796875 71.443667327544972 191.0517578125 71.443667327544972 191.0517578125 74.768862640044972 183.056640625 74.768862640044972"/>
            <polygon class="cls-3" points="195.5595703125 74.768862640044972 195.5595703125 73.017886077544972 194.21484375 73.017886077544972 194.21484375 74.768862640044972 190.8896484375 74.768862640044972 190.8896484375 65.022768890044972 194.21484375 65.022768890044972 194.21484375 66.190737640044972 195.5595703125 66.190737640044972 195.5595703125 65.022768890044972 198.884765625 65.022768890044972 198.884765625 74.768862640044972 195.5595703125 74.768862640044972"/>
            <polygon class="cls-3" points="198.7216796875 74.768862640044972 198.7216796875 65.022768890044972 206.716796875 65.022768890044972 206.716796875 71.266909515044972 202.046875 71.266909515044972 202.046875 71.443667327544972 206.716796875 71.443667327544972 206.716796875 74.768862640044972 198.7216796875 74.768862640044972"/>
          </g>
          <g>
            <polygon class="cls-3" points="177.5595703125 74.506591470253625 177.5595703125 68.085693032753625 175.224609375 68.085693032753625 175.224609375 64.760497720253625 183.2197265625 64.760497720253625 183.2197265625 68.085693032753625 180.884765625 68.085693032753625 180.884765625 74.506591470253625 177.5595703125 74.506591470253625"/>
            <polygon class="cls-3" points="183.056640625 74.506591470253625 183.056640625 71.181396157753625 185.3916015625 71.181396157753625 185.3916015625 68.085693032753625 183.056640625 68.085693032753625 183.056640625 64.760497720253625 191.0517578125 64.760497720253625 191.0517578125 68.085693032753625 188.716796875 68.085693032753625 188.716796875 71.181396157753625 191.0517578125 71.181396157753625 191.0517578125 74.506591470253625 183.056640625 74.506591470253625"/>
            <polygon class="cls-3" points="195.5595703125 74.506591470253625 195.5595703125 72.755614907753625 194.21484375 72.755614907753625 194.21484375 74.506591470253625 190.8896484375 74.506591470253625 190.8896484375 64.760497720253625 194.21484375 64.760497720253625 194.21484375 65.928466470253625 195.5595703125 65.928466470253625 195.5595703125 64.760497720253625 198.884765625 64.760497720253625 198.884765625 74.506591470253625 195.5595703125 74.506591470253625"/>
            <polygon class="cls-3" points="198.7216796875 74.506591470253625 198.7216796875 64.760497720253625 206.716796875 64.760497720253625 206.716796875 71.004638345253625 202.046875 71.004638345253625 202.046875 71.181396157753625 206.716796875 71.181396157753625 206.716796875 74.506591470253625 198.7216796875 74.506591470253625"/>
          </g>
          <g>
            <polygon class="cls-3" points="177.5595703125 74.244320300462277 177.5595703125 67.823421862962277 175.224609375 67.823421862962277 175.224609375 64.498226550462277 183.2197265625 64.498226550462277 183.2197265625 67.823421862962277 180.884765625 67.823421862962277 180.884765625 74.244320300462277 177.5595703125 74.244320300462277"/>
            <polygon class="cls-3" points="183.056640625 74.244320300462277 183.056640625 70.919124987962277 185.3916015625 70.919124987962277 185.3916015625 67.823421862962277 183.056640625 67.823421862962277 183.056640625 64.498226550462277 191.0517578125 64.498226550462277 191.0517578125 67.823421862962277 188.716796875 67.823421862962277 188.716796875 70.919124987962277 191.0517578125 70.919124987962277 191.0517578125 74.244320300462277 183.056640625 74.244320300462277"/>
            <polygon class="cls-3" points="195.5595703125 74.244320300462277 195.5595703125 72.493343737962277 194.21484375 72.493343737962277 194.21484375 74.244320300462277 190.8896484375 74.244320300462277 190.8896484375 64.498226550462277 194.21484375 64.498226550462277 194.21484375 65.666195300462277 195.5595703125 65.666195300462277 195.5595703125 64.498226550462277 198.884765625 64.498226550462277 198.884765625 74.244320300462277 195.5595703125 74.244320300462277"/>
            <polygon class="cls-3" points="198.7216796875 74.244320300462277 198.7216796875 64.498226550462277 206.716796875 64.498226550462277 206.716796875 70.742367175462277 202.046875 70.742367175462277 202.046875 70.919124987962277 206.716796875 70.919124987962277 206.716796875 74.244320300462277 198.7216796875 74.244320300462277"/>
          </g>
          <g>
            <polygon class="cls-3" points="177.5595703125 73.98204913067093 177.5595703125 67.56115069317093 175.224609375 67.56115069317093 175.224609375 64.23595538067093 183.2197265625 64.23595538067093 183.2197265625 67.56115069317093 180.884765625 67.56115069317093 180.884765625 73.98204913067093 177.5595703125 73.98204913067093"/>
            <polygon class="cls-3" points="183.056640625 73.98204913067093 183.056640625 70.65685381817093 185.3916015625 70.65685381817093 185.3916015625 67.56115069317093 183.056640625 67.56115069317093 183.056640625 64.23595538067093 191.0517578125 64.23595538067093 191.0517578125 67.56115069317093 188.716796875 67.56115069317093 188.716796875 70.65685381817093 191.0517578125 70.65685381817093 191.0517578125 73.98204913067093 183.056640625 73.98204913067093"/>
            <polygon class="cls-3" points="195.5595703125 73.98204913067093 195.5595703125 72.23107256817093 194.21484375 72.23107256817093 194.21484375 73.98204913067093 190.8896484375 73.98204913067093 190.8896484375 64.23595538067093 194.21484375 64.23595538067093 194.21484375 65.40392413067093 195.5595703125 65.40392413067093 195.5595703125 64.23595538067093 198.884765625 64.23595538067093 198.884765625 73.98204913067093 195.5595703125 73.98204913067093"/>
            <polygon class="cls-3" points="198.7216796875 73.98204913067093 198.7216796875 64.23595538067093 206.716796875 64.23595538067093 206.716796875 70.48009600567093 202.046875 70.48009600567093 202.046875 70.65685381817093 206.716796875 70.65685381817093 206.716796875 73.98204913067093 198.7216796875 73.98204913067093"/>
          </g>
        </g>
        <g>
          <path class="cls-2" d="M176.01171875,65.02306475567093h6.4208984375v1.7509765625h-2.3349609375v6.4208984375h-1.7509765625v-6.4208984375h-2.3349609375v-1.7509765625Z"/>
          <path class="cls-2" d="M190.2646484375,66.77404131817093h-2.3349609375v4.669921875h2.3349609375v1.7509765625h-6.4208984375v-1.7509765625h2.3349609375v-4.669921875h-2.3349609375v-1.7509765625h6.4208984375v1.7509765625Z"/>
          <path class="cls-2" d="M191.6767578125,65.02306475567093h1.7509765625v1.16796875h1.16796875v1.1669921875h.5830078125v-1.1669921875h1.16796875v-1.16796875h1.7509765625v8.171875h-1.7509765625v-4.669921875h-.583984375v2.9189453125h-1.7509765625v-2.9189453125h-.583984375v4.669921875h-1.7509765625v-8.171875Z"/>
          <path class="cls-2" d="M199.5087890625,65.02306475567093h6.4208984375v1.7509765625h-4.669921875v1.16796875h4.669921875v1.7509765625h-4.669921875v1.7509765625h4.669921875v1.7509765625h-6.4208984375v-8.171875Z"/>
        </g>
      </g>
      <g>
        <path class="cls-5" d="M117.568797959213043,74.939737710907139c-.828020394292253,0-1.66811105672241-.028968643531698-2.496936135557917-.085296561512223-19.990778090783351-1.359916876921488-35.148620818959898-18.730642097136297-33.787899257491517-38.721420187919648,1.292323375348133-18.994578627094597,17.204155519901178-33.87319581900374,36.223679367816658-33.87319581900374.828020394292253,0,1.66811105672241.028968643531698,2.496936135559736.085296561512223,19.990778090783351,1.359916876921488,35.148620818958079,18.730642097136297,33.787899257493336,38.721420187921467-1.292323375349952,18.994578627092778-17.204155519902997,33.873195819001921-36.223679367820296,33.873195819001921Z"/>
        <g>
          <path class="cls-3" d="M117.568359375,81.267070383382816c-.8828125,0-1.7744140625-.0302734375-2.650390625-.08984375-10.2705078125-.69921875-19.6640625-5.3671875-26.4501953125-13.1435546875-6.78515625-7.7763671875-10.1376953125-17.7158203125-9.4384765625-27.986328125,1.3720703125-20.17578125,18.2744140625-35.9794921875,38.478515625-35.9794921875.8671875,0,1.7587890625.0302734375,2.6484375.08984375,10.2724609375.69921875,19.666015625,5.3671875,26.4521484375,13.1435546875,6.7861328125,7.77734375,10.1376953125,17.7158203125,9.4384765625,27.986328125-1.3720703125,20.17578125-18.2744140625,35.9794921875-38.478515625,35.9794921875Z"/>
          <path class="cls-3" d="M117.568359375,81.041078625972659c-.8828125,0-1.7744140625-.0302734375-2.650390625-.08984375-10.2705078125-.69921875-19.6640625-5.3671875-26.4501953125-13.1435546875-6.78515625-7.7763671875-10.1376953125-17.7158203125-9.4384765625-27.986328125,1.3720703125-20.17578125,18.2744140625-35.9794921875,38.478515625-35.9794921875.8671875,0,1.7587890625.0302734375,2.6484375.08984375,10.2724609375.69921875,19.666015625,5.3671875,26.4521484375,13.1435546875,6.7861328125,7.77734375,10.1376953125,17.7158203125,9.4384765625,27.986328125-1.3720703125,20.17578125-18.2744140625,35.9794921875-38.478515625,35.9794921875Z"/>
          <path class="cls-3" d="M117.568359375,80.815086868562503c-.8828125,0-1.7744140625-.0302734375-2.650390625-.08984375-10.2705078125-.69921875-19.6640625-5.3671875-26.4501953125-13.1435546875-6.78515625-7.7763671875-10.1376953125-17.7158203125-9.4384765625-27.986328125,1.3720703125-20.17578125,18.2744140625-35.9794921875,38.478515625-35.9794921875.8671875,0,1.7587890625.0302734375,2.6484375.08984375,10.2724609375.69921875,19.666015625,5.3671875,26.4521484375,13.1435546875,6.7861328125,7.77734375,10.1376953125,17.7158203125,9.4384765625,27.986328125-1.3720703125,20.17578125-18.2744140625,35.9794921875-38.478515625,35.9794921875Z"/>
          <path class="cls-3" d="M117.568359375,80.589095111152346c-.8828125,0-1.7744140625-.0302734375-2.650390625-.08984375-10.2705078125-.69921875-19.6640625-5.3671875-26.4501953125-13.1435546875-6.78515625-7.7763671875-10.1376953125-17.7158203125-9.4384765625-27.986328125,1.3720703125-20.17578125,18.2744140625-35.9794921875,38.478515625-35.9794921875.8671875,0,1.7587890625.0302734375,2.6484375.08984375,10.2724609375.69921875,19.666015625,5.3671875,26.4521484375,13.1435546875,6.7861328125,7.77734375,10.1376953125,17.7158203125,9.4384765625,27.986328125-1.3720703125,20.17578125-18.2744140625,35.9794921875-38.478515625,35.9794921875Z"/>
          <path class="cls-3" d="M117.568359375,80.36310335374219c-.8828125,0-1.7744140625-.0302734375-2.650390625-.08984375-10.2705078125-.69921875-19.6640625-5.3671875-26.4501953125-13.1435546875-6.78515625-7.7763671875-10.1376953125-17.7158203125-9.4384765625-27.986328125,1.3720703125-20.17578125,18.2744140625-35.9794921875,38.478515625-35.9794921875.8671875,0,1.7587890625.0302734375,2.6484375.08984375,10.2724609375.69921875,19.666015625,5.3671875,26.4521484375,13.1435546875,6.7861328125,7.77734375,10.1376953125,17.7158203125,9.4384765625,27.986328125-1.3720703125,20.17578125-18.2744140625,35.9794921875-38.478515625,35.9794921875Z"/>
          <path class="cls-3" d="M117.568359375,80.137111596332034c-.8828125,0-1.7744140625-.0302734375-2.650390625-.08984375-10.2705078125-.69921875-19.6640625-5.3671875-26.4501953125-13.1435546875-6.78515625-7.7763671875-10.1376953125-17.7158203125-9.4384765625-27.986328125,1.3720703125-20.17578125,18.2744140625-35.9794921875,38.478515625-35.9794921875.8671875,0,1.7587890625.0302734375,2.6484375.08984375,10.2724609375.69921875,19.666015625,5.3671875,26.4521484375,13.1435546875,6.7861328125,7.77734375,10.1376953125,17.7158203125,9.4384765625,27.986328125-1.3720703125,20.17578125-18.2744140625,35.9794921875-38.478515625,35.9794921875Z"/>
          <path class="cls-3" d="M117.568359375,79.911119838921877c-.8828125,0-1.7744140625-.0302734375-2.650390625-.08984375-10.2705078125-.69921875-19.6640625-5.3671875-26.4501953125-13.1435546875-6.78515625-7.7763671875-10.1376953125-17.7158203125-9.4384765625-27.986328125,1.3720703125-20.17578125,18.2744140625-35.9794921875,38.478515625-35.9794921875.8671875,0,1.7587890625.0302734375,2.6484375.08984375,10.2724609375.69921875,19.666015625,5.3671875,26.4521484375,13.1435546875,6.7861328125,7.77734375,10.1376953125,17.7158203125,9.4384765625,27.986328125-1.3720703125,20.17578125-18.2744140625,35.9794921875-38.478515625,35.9794921875Z"/>
          <path class="cls-3" d="M117.568359375,79.685128081511721c-.8828125,0-1.7744140625-.0302734375-2.650390625-.08984375-10.2705078125-.69921875-19.6640625-5.3671875-26.4501953125-13.1435546875-6.78515625-7.7763671875-10.1376953125-17.7158203125-9.4384765625-27.986328125,1.3720703125-20.17578125,18.2744140625-35.9794921875,38.478515625-35.9794921875.8671875,0,1.7587890625.0302734375,2.6484375.08984375,10.2724609375.69921875,19.666015625,5.3671875,26.4521484375,13.1435546875,6.7861328125,7.77734375,10.1376953125,17.7158203125,9.4384765625,27.986328125-1.3720703125,20.17578125-18.2744140625,35.9794921875-38.478515625,35.9794921875Z"/>
          <path class="cls-3" d="M117.568359375,79.459136324101564c-.8828125,0-1.7744140625-.0302734375-2.650390625-.08984375-10.2705078125-.69921875-19.6640625-5.3671875-26.4501953125-13.1435546875-6.78515625-7.7763671875-10.1376953125-17.7158203125-9.4384765625-27.986328125,1.3720703125-20.17578125,18.2744140625-35.9794921875,38.478515625-35.9794921875.8671875,0,1.7587890625.0302734375,2.6484375.08984375,10.2724609375.69921875,19.666015625,5.3671875,26.4521484375,13.1435546875,6.7861328125,7.77734375,10.1376953125,17.7158203125,9.4384765625,27.986328125-1.3720703125,20.17578125-18.2744140625,35.9794921875-38.478515625,35.9794921875Z"/>
          <path class="cls-3" d="M117.568359375,79.233144566691408c-.8828125,0-1.7744140625-.0302734375-2.650390625-.08984375-10.2705078125-.69921875-19.6640625-5.3671875-26.4501953125-13.1435546875-6.78515625-7.7763671875-10.1376953125-17.7158203125-9.4384765625-27.986328125,1.3720703125-20.17578125,18.2744140625-35.9794921875,38.478515625-35.9794921875.8671875,0,1.7587890625.0302734375,2.6484375.08984375,10.2724609375.69921875,19.666015625,5.3671875,26.4521484375,13.1435546875,6.7861328125,7.77734375,10.1376953125,17.7158203125,9.4384765625,27.986328125-1.3720703125,20.17578125-18.2744140625,35.9794921875-38.478515625,35.9794921875Z"/>
          <path class="cls-3" d="M117.568359375,79.007152809281251c-.8828125,0-1.7744140625-.0302734375-2.650390625-.08984375-10.2705078125-.69921875-19.6640625-5.3671875-26.4501953125-13.1435546875-6.78515625-7.7763671875-10.1376953125-17.7158203125-9.4384765625-27.986328125C80.4013671875,17.611644996781251,97.3037109375,1.807934059281251,117.5078125,1.807934059281251c.8671875,0,1.7587890625.0302734375,2.6484375.08984375,10.2724609375.69921875,19.666015625,5.3671875,26.4521484375,13.1435546875,6.7861328125,7.77734375,10.1376953125,17.7158203125,9.4384765625,27.986328125-1.3720703125,20.17578125-18.2744140625,35.9794921875-38.478515625,35.9794921875Z"/>
          <path class="cls-3" d="M117.568359375,78.781161051871095c-.8828125,0-1.7744140625-.0302734375-2.650390625-.08984375-10.2705078125-.69921875-19.6640625-5.3671875-26.4501953125-13.1435546875-6.78515625-7.7763671875-10.1376953125-17.7158203125-9.4384765625-27.986328125C80.4013671875,17.385653239371095,97.3037109375,1.581942301871095,117.5078125,1.581942301871095c.8671875,0,1.7587890625.0302734375,2.6484375.08984375,10.2724609375.69921875,19.666015625,5.3671875,26.4521484375,13.1435546875,6.7861328125,7.77734375,10.1376953125,17.7158203125,9.4384765625,27.986328125-1.3720703125,20.17578125-18.2744140625,35.9794921875-38.478515625,35.9794921875Z"/>
          <path class="cls-3" d="M117.568359375,78.555169294460939c-.8828125,0-1.7744140625-.0302734375-2.650390625-.08984375-10.2705078125-.69921875-19.6640625-5.3671875-26.4501953125-13.1435546875-6.78515625-7.7763671875-10.1376953125-17.7158203125-9.4384765625-27.986328125C80.4013671875,17.159661481960939,97.3037109375,1.355950544460939,117.5078125,1.355950544460939c.8671875,0,1.7587890625.0302734375,2.6484375.08984375,10.2724609375.69921875,19.666015625,5.3671875,26.4521484375,13.1435546875,6.7861328125,7.77734375,10.1376953125,17.7158203125,9.4384765625,27.986328125-1.3720703125,20.17578125-18.2744140625,35.9794921875-38.478515625,35.9794921875Z"/>
          <path class="cls-3" d="M117.568359375,78.329177537050782c-.8828125,0-1.7744140625-.0302734375-2.650390625-.08984375-10.2705078125-.69921875-19.6640625-5.3671875-26.4501953125-13.1435546875-6.78515625-7.7763671875-10.1376953125-17.7158203125-9.4384765625-27.986328125C80.4013671875,16.933669724550782,97.3037109375,1.129958787050782,117.5078125,1.129958787050782c.8671875,0,1.7587890625.0302734375,2.6484375.08984375,10.2724609375.69921875,19.666015625,5.3671875,26.4521484375,13.1435546875,6.7861328125,7.77734375,10.1376953125,17.7158203125,9.4384765625,27.986328125-1.3720703125,20.17578125-18.2744140625,35.9794921875-38.478515625,35.9794921875Z"/>
          <path class="cls-3" d="M117.568359375,78.103185779640626c-.8828125,0-1.7744140625-.0302734375-2.650390625-.08984375-10.2705078125-.69921875-19.6640625-5.3671875-26.4501953125-13.1435546875-6.78515625-7.7763671875-10.1376953125-17.7158203125-9.4384765625-27.986328125C80.4013671875,16.707677967140626,97.3037109375.903967029640626,117.5078125.903967029640626c.8671875,0,1.7587890625.0302734375,2.6484375.08984375,10.2724609375.69921875,19.666015625,5.3671875,26.4521484375,13.1435546875,6.7861328125,7.77734375,10.1376953125,17.7158203125,9.4384765625,27.986328125-1.3720703125,20.17578125-18.2744140625,35.9794921875-38.478515625,35.9794921875Z"/>
          <path class="cls-3" d="M117.568359375,77.877194022230469c-.8828125,0-1.7744140625-.0302734375-2.650390625-.08984375-10.2705078125-.69921875-19.6640625-5.3671875-26.4501953125-13.1435546875-6.78515625-7.7763671875-10.1376953125-17.7158203125-9.4384765625-27.986328125C80.4013671875,16.481686209730469,97.3037109375.677975272230469,117.5078125.677975272230469c.8671875,0,1.7587890625.0302734375,2.6484375.08984375,10.2724609375.69921875,19.666015625,5.3671875,26.4521484375,13.1435546875,6.7861328125,7.77734375,10.1376953125,17.7158203125,9.4384765625,27.986328125-1.3720703125,20.17578125-18.2744140625,35.9794921875-38.478515625,35.9794921875Z"/>
          <path class="cls-3" d="M117.568359375,77.651202264820313c-.8828125,0-1.7744140625-.0302734375-2.650390625-.08984375-10.2705078125-.69921875-19.6640625-5.3671875-26.4501953125-13.1435546875-6.78515625-7.7763671875-10.1376953125-17.7158203125-9.4384765625-27.986328125C80.4013671875,16.255694452320313,97.3037109375.451983514820313,117.5078125.451983514820313c.8671875,0,1.7587890625.0302734375,2.6484375.08984375,10.2724609375.69921875,19.666015625,5.3671875,26.4521484375,13.1435546875,6.7861328125,7.77734375,10.1376953125,17.7158203125,9.4384765625,27.986328125-1.3720703125,20.17578125-18.2744140625,35.9794921875-38.478515625,35.9794921875Z"/>
          <path class="cls-3" d="M117.568359375,77.425210507410156c-.8828125,0-1.7744140625-.0302734375-2.650390625-.08984375-10.2705078125-.69921875-19.6640625-5.3671875-26.4501953125-13.1435546875-6.78515625-7.7763671875-10.1376953125-17.7158203125-9.4384765625-27.986328125C80.4013671875,16.029702694910156,97.3037109375.225991757410156,117.5078125.225991757410156c.8671875,0,1.7587890625.0302734375,2.6484375.08984375,10.2724609375.69921875,19.666015625,5.3671875,26.4521484375,13.1435546875,6.7861328125,7.77734375,10.1376953125,17.7158203125,9.4384765625,27.986328125-1.3720703125,20.17578125-18.2744140625,35.9794921875-38.478515625,35.9794921875Z"/>
          <path class="cls-3" d="M117.568359375,77.19921875c-.8828125,0-1.7744140625-.0302734375-2.650390625-.08984375-10.2705078125-.69921875-19.6640625-5.3671875-26.4501953125-13.1435546875-6.78515625-7.7763671875-10.1376953125-17.7158203125-9.4384765625-27.986328125C80.4013671875,15.8037109375,97.3037109375,0,117.5078125,0c.8671875,0,1.7587890625.0302734375,2.6484375.08984375,10.2724609375.69921875,19.666015625,5.3671875,26.4521484375,13.1435546875,6.7861328125,7.77734375,10.1376953125,17.7158203125,9.4384765625,27.986328125-1.3720703125,20.17578125-18.2744140625,35.9794921875-38.478515625,35.9794921875Z"/>
        </g>
        <path class="cls-2" d="M117.568797959213043,74.939737710907139c-.828020394292253,0-1.66811105672241-.028968643531698-2.496936135557917-.085296561512223-19.990778090783351-1.359916876921488-35.148620818959898-18.730642097136297-33.787899257491517-38.721420187919648,1.292323375348133-18.994578627094597,17.204155519901178-33.87319581900374,36.223679367816658-33.87319581900374.828020394292253,0,1.66811105672241.028968643531698,2.496936135559736.085296561512223,19.990778090783351,1.359916876921488,35.148620818958079,18.730642097136297,33.787899257493336,38.721420187921467-1.292323375349952,18.994578627092778-17.204155519902997,33.873195819001921-36.223679367820296,33.873195819001921Z"/>
      </g>
      <circle class="cls-4" cx="117.53820561991688" cy="38.599781291906766" r="29.746406445397184"/>
    </g>
  </g>
</svg>