<?xml version="1.0" encoding="UTF-8"?>
<svg id="Livello_2" data-name="Livello 2" xmlns="http://www.w3.org/2000/svg" width="235.5068359375" height="142.334453448813292" viewBox="0 0 235.5068359375 142.334453448813292">
  <defs>
    <style>
      .cls-1 {
        fill: #242b7f;
      }

      .cls-2 {
        fill: #f7f0d0;
      }

      .cls-3 {
        fill: #020101;
      }

      .cls-4 {
        stroke-width: 1.894555853222352px;
      }

      .cls-4, .cls-5 {
        fill: #ffe69f;
        stroke: #020101;
        stroke-miterlimit: 10;
      }

      .cls-5 {
        stroke-width: 2.234022315400049px;
      }

      .cls-6 {
        fill: none;
        stroke: #000;
        stroke-width: 2.711901257537785px;
      }
    </style>
  </defs>
  <g id="Livello_1-2" data-name="Livello 1">
    <g>
      <g>
        <path class="cls-6" d="M226.15213016116104,79.248751932967934v-14.189417500327181h-7.094708750162681v-7.094846385887649H23.543899090122068c.000008749932022,0-7.094703489738095,0-7.094708750162681,0v7.094846385887649h-7.0947087501645v14.189417500327181H2.259772839632205v21.283988614764894h7.094743159095742-.000034408933061v14.189417500329h7.0947087501645v7.094846385887649h7.094708750162681v7.094571114435894h7.0947087501645v7.094846385887649h174.229464888248913v-7.094846385887649h7.094708750159043v-7.094571114435894h7.094639932303835v-7.094846385887649h7.094708750162681v-14.189417500329h-.000034408933061,7.094743159097561v-21.283988614764894h-7.0947087501645Z"/>
        <g>
          <polygon class="cls-3" points="28.37890625 142.334453448813292 28.37890625 135.238750323813292 21.2841796875 135.238750323813292 21.2841796875 128.145000323813292 14.189453125 128.145000323813292 14.189453125 121.049297198813292 7.0947265625 121.049297198813292 7.0947265625 106.860820636313292 0 106.860820636313292 0 81.057109698813292 7.0947265625 81.057109698813292 7.0947265625 66.867656573813292 14.189453125 66.867656573813292 14.189453125 59.772930011313292 221.3173828125 59.772930011313292 221.3173828125 66.867656573813292 228.412109375 66.867656573813292 228.412109375 81.057109698813292 235.5068359375 81.057109698813292 235.5068359375 106.860820636313292 228.412109375 106.860820636313292 228.412109375 121.049297198813292 221.3173828125 121.049297198813292 221.3173828125 128.145000323813292 214.22265625 128.145000323813292 214.22265625 135.238750323813292 207.1279296875 135.238750323813292 207.1279296875 142.334453448813292 28.37890625 142.334453448813292"/>
          <polygon class="cls-3" points="28.37890625 142.108461677351443 28.37890625 135.012758552351443 21.2841796875 135.012758552351443 21.2841796875 127.919008552351443 14.189453125 127.919008552351443 14.189453125 120.823305427351443 7.0947265625 120.823305427351443 7.0947265625 106.634828864851443 0 106.634828864851443 0 80.831117927351443 7.0947265625 80.831117927351443 7.0947265625 66.641664802351443 14.189453125 66.641664802351443 14.189453125 59.546938239851443 221.3173828125 59.546938239851443 221.3173828125 66.641664802351443 228.412109375 66.641664802351443 228.412109375 80.831117927351443 235.5068359375 80.831117927351443 235.5068359375 106.634828864851443 228.412109375 106.634828864851443 228.412109375 120.823305427351443 221.3173828125 120.823305427351443 221.3173828125 127.919008552351443 214.22265625 127.919008552351443 214.22265625 135.012758552351443 207.1279296875 135.012758552351443 207.1279296875 142.108461677351443 28.37890625 142.108461677351443"/>
          <polygon class="cls-3" points="28.37890625 141.882469905889593 28.37890625 134.786766780889593 21.2841796875 134.786766780889593 21.2841796875 127.693016780889593 14.189453125 127.693016780889593 14.189453125 120.597313655889593 7.0947265625 120.597313655889593 7.0947265625 106.408837093389593 0 106.408837093389593 0 80.605126155889593 7.0947265625 80.605126155889593 7.0947265625 66.415673030889593 14.189453125 66.415673030889593 14.189453125 59.320946468389593 221.3173828125 59.320946468389593 221.3173828125 66.415673030889593 228.412109375 66.415673030889593 228.412109375 80.605126155889593 235.5068359375 80.605126155889593 235.5068359375 106.408837093389593 228.412109375 106.408837093389593 228.412109375 120.597313655889593 221.3173828125 120.597313655889593 221.3173828125 127.693016780889593 214.22265625 127.693016780889593 214.22265625 134.786766780889593 207.1279296875 134.786766780889593 207.1279296875 141.882469905889593 28.37890625 141.882469905889593"/>
          <polygon class="cls-3" points="28.37890625 141.656478134427743 28.37890625 134.560775009427743 21.2841796875 134.560775009427743 21.2841796875 127.467025009427743 14.189453125 127.467025009427743 14.189453125 120.371321884427743 7.0947265625 120.371321884427743 7.0947265625 106.182845321927743 0 106.182845321927743 0 80.379134384427743 7.0947265625 80.379134384427743 7.0947265625 66.189681259427743 14.189453125 66.189681259427743 14.189453125 59.094954696927743 221.3173828125 59.094954696927743 221.3173828125 66.189681259427743 228.412109375 66.189681259427743 228.412109375 80.379134384427743 235.5068359375 80.379134384427743 235.5068359375 106.182845321927743 228.412109375 106.182845321927743 228.412109375 120.371321884427743 221.3173828125 120.371321884427743 221.3173828125 127.467025009427743 214.22265625 127.467025009427743 214.22265625 134.560775009427743 207.1279296875 134.560775009427743 207.1279296875 141.656478134427743 28.37890625 141.656478134427743"/>
          <polygon class="cls-3" points="28.37890625 141.430486362965894 28.37890625 134.334783237965894 21.2841796875 134.334783237965894 21.2841796875 127.241033237965894 14.189453125 127.241033237965894 14.189453125 120.145330112965894 7.0947265625 120.145330112965894 7.0947265625 105.956853550465894 0 105.956853550465894 0 80.153142612965894 7.0947265625 80.153142612965894 7.0947265625 65.963689487965894 14.189453125 65.963689487965894 14.189453125 58.868962925465894 221.3173828125 58.868962925465894 221.3173828125 65.963689487965894 228.412109375 65.963689487965894 228.412109375 80.153142612965894 235.5068359375 80.153142612965894 235.5068359375 105.956853550465894 228.412109375 105.956853550465894 228.412109375 120.145330112965894 221.3173828125 120.145330112965894 221.3173828125 127.241033237965894 214.22265625 127.241033237965894 214.22265625 134.334783237965894 207.1279296875 134.334783237965894 207.1279296875 141.430486362965894 28.37890625 141.430486362965894"/>
          <polygon class="cls-3" points="28.37890625 141.204494591504044 28.37890625 134.108791466504044 21.2841796875 134.108791466504044 21.2841796875 127.015041466504044 14.189453125 127.015041466504044 14.189453125 119.919338341504044 7.0947265625 119.919338341504044 7.0947265625 105.730861779004044 0 105.730861779004044 0 79.927150841504044 7.0947265625 79.927150841504044 7.0947265625 65.737697716504044 14.189453125 65.737697716504044 14.189453125 58.642971154004044 221.3173828125 58.642971154004044 221.3173828125 65.737697716504044 228.412109375 65.737697716504044 228.412109375 79.927150841504044 235.5068359375 79.927150841504044 235.5068359375 105.730861779004044 228.412109375 105.730861779004044 228.412109375 119.919338341504044 221.3173828125 119.919338341504044 221.3173828125 127.015041466504044 214.22265625 127.015041466504044 214.22265625 134.108791466504044 207.1279296875 134.108791466504044 207.1279296875 141.204494591504044 28.37890625 141.204494591504044"/>
          <polygon class="cls-3" points="28.37890625 140.978502820042195 28.37890625 133.882799695042195 21.2841796875 133.882799695042195 21.2841796875 126.789049695042195 14.189453125 126.789049695042195 14.189453125 119.693346570042195 7.0947265625 119.693346570042195 7.0947265625 105.504870007542195 0 105.504870007542195 0 79.701159070042195 7.0947265625 79.701159070042195 7.0947265625 65.511705945042195 14.189453125 65.511705945042195 14.189453125 58.416979382542195 221.3173828125 58.416979382542195 221.3173828125 65.511705945042195 228.412109375 65.511705945042195 228.412109375 79.701159070042195 235.5068359375 79.701159070042195 235.5068359375 105.504870007542195 228.412109375 105.504870007542195 228.412109375 119.693346570042195 221.3173828125 119.693346570042195 221.3173828125 126.789049695042195 214.22265625 126.789049695042195 214.22265625 133.882799695042195 207.1279296875 133.882799695042195 207.1279296875 140.978502820042195 28.37890625 140.978502820042195"/>
          <polygon class="cls-3" points="28.37890625 140.752511048580345 28.37890625 133.656807923580345 21.2841796875 133.656807923580345 21.2841796875 126.563057923580345 14.189453125 126.563057923580345 14.189453125 119.467354798580345 7.0947265625 119.467354798580345 7.0947265625 105.278878236080345 0 105.278878236080345 0 79.475167298580345 7.0947265625 79.475167298580345 7.0947265625 65.285714173580345 14.189453125 65.285714173580345 14.189453125 58.190987611080345 221.3173828125 58.190987611080345 221.3173828125 65.285714173580345 228.412109375 65.285714173580345 228.412109375 79.475167298580345 235.5068359375 79.475167298580345 235.5068359375 105.278878236080345 228.412109375 105.278878236080345 228.412109375 119.467354798580345 221.3173828125 119.467354798580345 221.3173828125 126.563057923580345 214.22265625 126.563057923580345 214.22265625 133.656807923580345 207.1279296875 133.656807923580345 207.1279296875 140.752511048580345 28.37890625 140.752511048580345"/>
          <polygon class="cls-3" points="28.37890625 140.526519277118496 28.37890625 133.430816152118496 21.2841796875 133.430816152118496 21.2841796875 126.337066152118496 14.189453125 126.337066152118496 14.189453125 119.241363027118496 7.0947265625 119.241363027118496 7.0947265625 105.052886464618496 0 105.052886464618496 0 79.249175527118496 7.0947265625 79.249175527118496 7.0947265625 65.059722402118496 14.189453125 65.059722402118496 14.189453125 57.964995839618496 221.3173828125 57.964995839618496 221.3173828125 65.059722402118496 228.412109375 65.059722402118496 228.412109375 79.249175527118496 235.5068359375 79.249175527118496 235.5068359375 105.052886464618496 228.412109375 105.052886464618496 228.412109375 119.241363027118496 221.3173828125 119.241363027118496 221.3173828125 126.337066152118496 214.22265625 126.337066152118496 214.22265625 133.430816152118496 207.1279296875 133.430816152118496 207.1279296875 140.526519277118496 28.37890625 140.526519277118496"/>
          <polygon class="cls-3" points="28.37890625 140.300527505656646 28.37890625 133.204824380656646 21.2841796875 133.204824380656646 21.2841796875 126.111074380656646 14.189453125 126.111074380656646 14.189453125 119.015371255656646 7.0947265625 119.015371255656646 7.0947265625 104.826894693156646 0 104.826894693156646 0 79.023183755656646 7.0947265625 79.023183755656646 7.0947265625 64.833730630656646 14.189453125 64.833730630656646 14.189453125 57.739004068156646 221.3173828125 57.739004068156646 221.3173828125 64.833730630656646 228.412109375 64.833730630656646 228.412109375 79.023183755656646 235.5068359375 79.023183755656646 235.5068359375 104.826894693156646 228.412109375 104.826894693156646 228.412109375 119.015371255656646 221.3173828125 119.015371255656646 221.3173828125 126.111074380656646 214.22265625 126.111074380656646 214.22265625 133.204824380656646 207.1279296875 133.204824380656646 207.1279296875 140.300527505656646 28.37890625 140.300527505656646"/>
          <polygon class="cls-3" points="28.37890625 140.074535734194797 28.37890625 132.978832609194797 21.2841796875 132.978832609194797 21.2841796875 125.885082609194797 14.189453125 125.885082609194797 14.189453125 118.789379484194797 7.0947265625 118.789379484194797 7.0947265625 104.600902921694797 0 104.600902921694797 0 78.797191984194797 7.0947265625 78.797191984194797 7.0947265625 64.607738859194797 14.189453125 64.607738859194797 14.189453125 57.513012296694797 221.3173828125 57.513012296694797 221.3173828125 64.607738859194797 228.412109375 64.607738859194797 228.412109375 78.797191984194797 235.5068359375 78.797191984194797 235.5068359375 104.600902921694797 228.412109375 104.600902921694797 228.412109375 118.789379484194797 221.3173828125 118.789379484194797 221.3173828125 125.885082609194797 214.22265625 125.885082609194797 214.22265625 132.978832609194797 207.1279296875 132.978832609194797 207.1279296875 140.074535734194797 28.37890625 140.074535734194797"/>
          <polygon class="cls-3" points="28.37890625 139.848543962732947 28.37890625 132.752840837732947 21.2841796875 132.752840837732947 21.2841796875 125.659090837732947 14.189453125 125.659090837732947 14.189453125 118.563387712732947 7.0947265625 118.563387712732947 7.0947265625 104.374911150232947 0 104.374911150232947 0 78.571200212732947 7.0947265625 78.571200212732947 7.0947265625 64.381747087732947 14.189453125 64.381747087732947 14.189453125 57.287020525232947 221.3173828125 57.287020525232947 221.3173828125 64.381747087732947 228.412109375 64.381747087732947 228.412109375 78.571200212732947 235.5068359375 78.571200212732947 235.5068359375 104.374911150232947 228.412109375 104.374911150232947 228.412109375 118.563387712732947 221.3173828125 118.563387712732947 221.3173828125 125.659090837732947 214.22265625 125.659090837732947 214.22265625 132.752840837732947 207.1279296875 132.752840837732947 207.1279296875 139.848543962732947 28.37890625 139.848543962732947"/>
          <polygon class="cls-3" points="28.37890625 139.622552191271097 28.37890625 132.526849066271097 21.2841796875 132.526849066271097 21.2841796875 125.433099066271097 14.189453125 125.433099066271097 14.189453125 118.337395941271097 7.0947265625 118.337395941271097 7.0947265625 104.148919378771097 0 104.148919378771097 0 78.345208441271097 7.0947265625 78.345208441271097 7.0947265625 64.155755316271097 14.189453125 64.155755316271097 14.189453125 57.061028753771097 221.3173828125 57.061028753771097 221.3173828125 64.155755316271097 228.412109375 64.155755316271097 228.412109375 78.345208441271097 235.5068359375 78.345208441271097 235.5068359375 104.148919378771097 228.412109375 104.148919378771097 228.412109375 118.337395941271097 221.3173828125 118.337395941271097 221.3173828125 125.433099066271097 214.22265625 125.433099066271097 214.22265625 132.526849066271097 207.1279296875 132.526849066271097 207.1279296875 139.622552191271097 28.37890625 139.622552191271097"/>
          <polygon class="cls-3" points="28.37890625 139.396560419809248 28.37890625 132.300857294809248 21.2841796875 132.300857294809248 21.2841796875 125.207107294809248 14.189453125 125.207107294809248 14.189453125 118.111404169809248 7.0947265625 118.111404169809248 7.0947265625 103.922927607309248 0 103.922927607309248 0 78.119216669809248 7.0947265625 78.119216669809248 7.0947265625 63.929763544809248 14.189453125 63.929763544809248 14.189453125 56.835036982309248 221.3173828125 56.835036982309248 221.3173828125 63.929763544809248 228.412109375 63.929763544809248 228.412109375 78.119216669809248 235.5068359375 78.119216669809248 235.5068359375 103.922927607309248 228.412109375 103.922927607309248 228.412109375 118.111404169809248 221.3173828125 118.111404169809248 221.3173828125 125.207107294809248 214.22265625 125.207107294809248 214.22265625 132.300857294809248 207.1279296875 132.300857294809248 207.1279296875 139.396560419809248 28.37890625 139.396560419809248"/>
          <polygon class="cls-3" points="28.37890625 139.170568648347398 28.37890625 132.074865523347398 21.2841796875 132.074865523347398 21.2841796875 124.981115523347398 14.189453125 124.981115523347398 14.189453125 117.885412398347398 7.0947265625 117.885412398347398 7.0947265625 103.696935835847398 0 103.696935835847398 0 77.893224898347398 7.0947265625 77.893224898347398 7.0947265625 63.703771773347398 14.189453125 63.703771773347398 14.189453125 56.609045210847398 221.3173828125 56.609045210847398 221.3173828125 63.703771773347398 228.412109375 63.703771773347398 228.412109375 77.893224898347398 235.5068359375 77.893224898347398 235.5068359375 103.696935835847398 228.412109375 103.696935835847398 228.412109375 117.885412398347398 221.3173828125 117.885412398347398 221.3173828125 124.981115523347398 214.22265625 124.981115523347398 214.22265625 132.074865523347398 207.1279296875 132.074865523347398 207.1279296875 139.170568648347398 28.37890625 139.170568648347398"/>
          <polygon class="cls-3" points="28.37890625 138.944576876885549 28.37890625 131.848873751885549 21.2841796875 131.848873751885549 21.2841796875 124.755123751885549 14.189453125 124.755123751885549 14.189453125 117.659420626885549 7.0947265625 117.659420626885549 7.0947265625 103.470944064385549 0 103.470944064385549 0 77.667233126885549 7.0947265625 77.667233126885549 7.0947265625 63.477780001885549 14.189453125 63.477780001885549 14.189453125 56.383053439385549 221.3173828125 56.383053439385549 221.3173828125 63.477780001885549 228.412109375 63.477780001885549 228.412109375 77.667233126885549 235.5068359375 77.667233126885549 235.5068359375 103.470944064385549 228.412109375 103.470944064385549 228.412109375 117.659420626885549 221.3173828125 117.659420626885549 221.3173828125 124.755123751885549 214.22265625 124.755123751885549 214.22265625 131.848873751885549 207.1279296875 131.848873751885549 207.1279296875 138.944576876885549 28.37890625 138.944576876885549"/>
          <polygon class="cls-3" points="28.37890625 138.718585105423699 28.37890625 131.622881980423699 21.2841796875 131.622881980423699 21.2841796875 124.529131980423699 14.189453125 124.529131980423699 14.189453125 117.433428855423699 7.0947265625 117.433428855423699 7.0947265625 103.244952292923699 0 103.244952292923699 0 77.441241355423699 7.0947265625 77.441241355423699 7.0947265625 63.251788230423699 14.189453125 63.251788230423699 14.189453125 56.157061667923699 221.3173828125 56.157061667923699 221.3173828125 63.251788230423699 228.412109375 63.251788230423699 228.412109375 77.441241355423699 235.5068359375 77.441241355423699 235.5068359375 103.244952292923699 228.412109375 103.244952292923699 228.412109375 117.433428855423699 221.3173828125 117.433428855423699 221.3173828125 124.529131980423699 214.22265625 124.529131980423699 214.22265625 131.622881980423699 207.1279296875 131.622881980423699 207.1279296875 138.718585105423699 28.37890625 138.718585105423699"/>
          <polygon class="cls-3" points="28.37890625 138.49259333396185 28.37890625 131.39689020896185 21.2841796875 131.39689020896185 21.2841796875 124.30314020896185 14.189453125 124.30314020896185 14.189453125 117.20743708396185 7.0947265625 117.20743708396185 7.0947265625 103.01896052146185 0 103.01896052146185 0 77.21524958396185 7.0947265625 77.21524958396185 7.0947265625 63.02579645896185 14.189453125 63.02579645896185 14.189453125 55.93106989646185 221.3173828125 55.93106989646185 221.3173828125 63.02579645896185 228.412109375 63.02579645896185 228.412109375 77.21524958396185 235.5068359375 77.21524958396185 235.5068359375 103.01896052146185 228.412109375 103.01896052146185 228.412109375 117.20743708396185 221.3173828125 117.20743708396185 221.3173828125 124.30314020896185 214.22265625 124.30314020896185 214.22265625 131.39689020896185 207.1279296875 131.39689020896185 207.1279296875 138.49259333396185 28.37890625 138.49259333396185"/>
          <polygon class="cls-3" points="28.37890625 138.2666015625 28.37890625 131.1708984375 21.2841796875 131.1708984375 21.2841796875 124.0771484375 14.189453125 124.0771484375 14.189453125 116.9814453125 7.0947265625 116.9814453125 7.0947265625 102.79296875 0 102.79296875 0 76.9892578125 7.0947265625 76.9892578125 7.0947265625 62.7998046875 14.189453125 62.7998046875 14.189453125 55.705078125 221.3173828125 55.705078125 221.3173828125 62.7998046875 228.412109375 62.7998046875 228.412109375 76.9892578125 235.5068359375 76.9892578125 235.5068359375 102.79296875 228.412109375 102.79296875 228.412109375 116.9814453125 221.3173828125 116.9814453125 221.3173828125 124.0771484375 214.22265625 124.0771484375 214.22265625 131.1708984375 207.1279296875 131.1708984375 207.1279296875 138.2666015625 28.37890625 138.2666015625"/>
        </g>
        <path class="cls-1" d="M226.15213016116104,79.248751932967934v-14.189417500327181h-7.094708750162681v-7.094846385887649H23.543899090122068c.000008749932022,0-7.094703489738095,0-7.094708750162681,0v7.094846385887649h-7.0947087501645v14.189417500327181H2.259772839632205v21.283988614764894h7.094743159095742-.000034408933061v14.189417500329h7.0947087501645v7.094846385887649h7.094708750162681v7.094571114435894h7.0947087501645v7.094846385887649h174.229464888248913v-7.094846385887649h7.094708750159043v-7.094571114435894h7.094639932303835v-7.094846385887649h7.094708750162681v-14.189417500329h-.000034408933061,7.094743159097561v-21.283988614764894h-7.0947087501645Z"/>
      </g>
      <g>
        <g>
          <g>
            <polygon class="cls-3" points="182.6279296875 77.13033166599962 182.6279296875 70.70943322849962 180.29296875 70.70943322849962 180.29296875 67.38423791599962 188.2880859375 67.38423791599962 188.2880859375 70.70943322849962 185.953125 70.70943322849962 185.953125 77.13033166599962 182.6279296875 77.13033166599962"/>
            <polygon class="cls-3" points="188.125 77.13033166599962 188.125 73.80513635349962 190.4599609375 73.80513635349962 190.4599609375 70.70943322849962 188.125 70.70943322849962 188.125 67.38423791599962 196.1201171875 67.38423791599962 196.1201171875 70.70943322849962 193.78515625 70.70943322849962 193.78515625 73.80513635349962 196.1201171875 73.80513635349962 196.1201171875 77.13033166599962 188.125 77.13033166599962"/>
            <polygon class="cls-3" points="200.6279296875 77.13033166599962 200.6279296875 75.37935510349962 199.283203125 75.37935510349962 199.283203125 77.13033166599962 195.9580078125 77.13033166599962 195.9580078125 67.38423791599962 199.283203125 67.38423791599962 199.283203125 68.55220666599962 200.6279296875 68.55220666599962 200.6279296875 67.38423791599962 203.953125 67.38423791599962 203.953125 77.13033166599962 200.6279296875 77.13033166599962"/>
            <polygon class="cls-3" points="203.7900390625 77.13033166599962 203.7900390625 67.38423791599962 211.78515625 67.38423791599962 211.78515625 73.62837854099962 207.115234375 73.62837854099962 207.115234375 73.80513635349962 211.78515625 73.80513635349962 211.78515625 77.13033166599962 203.7900390625 77.13033166599962"/>
          </g>
          <g>
            <polygon class="cls-3" points="182.6279296875 76.868060479902852 182.6279296875 70.447162042402852 180.29296875 70.447162042402852 180.29296875 67.121966729902852 188.2880859375 67.121966729902852 188.2880859375 70.447162042402852 185.953125 70.447162042402852 185.953125 76.868060479902852 182.6279296875 76.868060479902852"/>
            <polygon class="cls-3" points="188.125 76.868060479902852 188.125 73.542865167402852 190.4599609375 73.542865167402852 190.4599609375 70.447162042402852 188.125 70.447162042402852 188.125 67.121966729902852 196.1201171875 67.121966729902852 196.1201171875 70.447162042402852 193.78515625 70.447162042402852 193.78515625 73.542865167402852 196.1201171875 73.542865167402852 196.1201171875 76.868060479902852 188.125 76.868060479902852"/>
            <polygon class="cls-3" points="200.6279296875 76.868060479902852 200.6279296875 75.117083917402852 199.283203125 75.117083917402852 199.283203125 76.868060479902852 195.9580078125 76.868060479902852 195.9580078125 67.121966729902852 199.283203125 67.121966729902852 199.283203125 68.289935479902852 200.6279296875 68.289935479902852 200.6279296875 67.121966729902852 203.953125 67.121966729902852 203.953125 76.868060479902852 200.6279296875 76.868060479902852"/>
            <polygon class="cls-3" points="203.7900390625 76.868060479902852 203.7900390625 67.121966729902852 211.78515625 67.121966729902852 211.78515625 73.366107354902852 207.115234375 73.366107354902852 207.115234375 73.542865167402852 211.78515625 73.542865167402852 211.78515625 76.868060479902852 203.7900390625 76.868060479902852"/>
          </g>
          <g>
            <polygon class="cls-3" points="182.6279296875 76.605789293806083 182.6279296875 70.184890856306083 180.29296875 70.184890856306083 180.29296875 66.859695543806083 188.2880859375 66.859695543806083 188.2880859375 70.184890856306083 185.953125 70.184890856306083 185.953125 76.605789293806083 182.6279296875 76.605789293806083"/>
            <polygon class="cls-3" points="188.125 76.605789293806083 188.125 73.280593981306083 190.4599609375 73.280593981306083 190.4599609375 70.184890856306083 188.125 70.184890856306083 188.125 66.859695543806083 196.1201171875 66.859695543806083 196.1201171875 70.184890856306083 193.78515625 70.184890856306083 193.78515625 73.280593981306083 196.1201171875 73.280593981306083 196.1201171875 76.605789293806083 188.125 76.605789293806083"/>
            <polygon class="cls-3" points="200.6279296875 76.605789293806083 200.6279296875 74.854812731306083 199.283203125 74.854812731306083 199.283203125 76.605789293806083 195.9580078125 76.605789293806083 195.9580078125 66.859695543806083 199.283203125 66.859695543806083 199.283203125 68.027664293806083 200.6279296875 68.027664293806083 200.6279296875 66.859695543806083 203.953125 66.859695543806083 203.953125 76.605789293806083 200.6279296875 76.605789293806083"/>
            <polygon class="cls-3" points="203.7900390625 76.605789293806083 203.7900390625 66.859695543806083 211.78515625 66.859695543806083 211.78515625 73.103836168806083 207.115234375 73.103836168806083 207.115234375 73.280593981306083 211.78515625 73.280593981306083 211.78515625 76.605789293806083 203.7900390625 76.605789293806083"/>
          </g>
          <g>
            <polygon class="cls-3" points="182.6279296875 76.343518107709315 182.6279296875 69.922619670209315 180.29296875 69.922619670209315 180.29296875 66.597424357709315 188.2880859375 66.597424357709315 188.2880859375 69.922619670209315 185.953125 69.922619670209315 185.953125 76.343518107709315 182.6279296875 76.343518107709315"/>
            <polygon class="cls-3" points="188.125 76.343518107709315 188.125 73.018322795209315 190.4599609375 73.018322795209315 190.4599609375 69.922619670209315 188.125 69.922619670209315 188.125 66.597424357709315 196.1201171875 66.597424357709315 196.1201171875 69.922619670209315 193.78515625 69.922619670209315 193.78515625 73.018322795209315 196.1201171875 73.018322795209315 196.1201171875 76.343518107709315 188.125 76.343518107709315"/>
            <polygon class="cls-3" points="200.6279296875 76.343518107709315 200.6279296875 74.592541545209315 199.283203125 74.592541545209315 199.283203125 76.343518107709315 195.9580078125 76.343518107709315 195.9580078125 66.597424357709315 199.283203125 66.597424357709315 199.283203125 67.765393107709315 200.6279296875 67.765393107709315 200.6279296875 66.597424357709315 203.953125 66.597424357709315 203.953125 76.343518107709315 200.6279296875 76.343518107709315"/>
            <polygon class="cls-3" points="203.7900390625 76.343518107709315 203.7900390625 66.597424357709315 211.78515625 66.597424357709315 211.78515625 72.841564982709315 207.115234375 72.841564982709315 207.115234375 73.018322795209315 211.78515625 73.018322795209315 211.78515625 76.343518107709315 203.7900390625 76.343518107709315"/>
          </g>
          <g>
            <polygon class="cls-3" points="182.6279296875 76.081246921612546 182.6279296875 69.660348484112546 180.29296875 69.660348484112546 180.29296875 66.335153171612546 188.2880859375 66.335153171612546 188.2880859375 69.660348484112546 185.953125 69.660348484112546 185.953125 76.081246921612546 182.6279296875 76.081246921612546"/>
            <polygon class="cls-3" points="188.125 76.081246921612546 188.125 72.756051609112546 190.4599609375 72.756051609112546 190.4599609375 69.660348484112546 188.125 69.660348484112546 188.125 66.335153171612546 196.1201171875 66.335153171612546 196.1201171875 69.660348484112546 193.78515625 69.660348484112546 193.78515625 72.756051609112546 196.1201171875 72.756051609112546 196.1201171875 76.081246921612546 188.125 76.081246921612546"/>
            <polygon class="cls-3" points="200.6279296875 76.081246921612546 200.6279296875 74.330270359112546 199.283203125 74.330270359112546 199.283203125 76.081246921612546 195.9580078125 76.081246921612546 195.9580078125 66.335153171612546 199.283203125 66.335153171612546 199.283203125 67.503121921612546 200.6279296875 67.503121921612546 200.6279296875 66.335153171612546 203.953125 66.335153171612546 203.953125 76.081246921612546 200.6279296875 76.081246921612546"/>
            <polygon class="cls-3" points="203.7900390625 76.081246921612546 203.7900390625 66.335153171612546 211.78515625 66.335153171612546 211.78515625 72.579293796612546 207.115234375 72.579293796612546 207.115234375 72.756051609112546 211.78515625 72.756051609112546 211.78515625 76.081246921612546 203.7900390625 76.081246921612546"/>
          </g>
          <g>
            <polygon class="cls-3" points="182.6279296875 75.818975735515778 182.6279296875 69.398077298015778 180.29296875 69.398077298015778 180.29296875 66.072881985515778 188.2880859375 66.072881985515778 188.2880859375 69.398077298015778 185.953125 69.398077298015778 185.953125 75.818975735515778 182.6279296875 75.818975735515778"/>
            <polygon class="cls-3" points="188.125 75.818975735515778 188.125 72.493780423015778 190.4599609375 72.493780423015778 190.4599609375 69.398077298015778 188.125 69.398077298015778 188.125 66.072881985515778 196.1201171875 66.072881985515778 196.1201171875 69.398077298015778 193.78515625 69.398077298015778 193.78515625 72.493780423015778 196.1201171875 72.493780423015778 196.1201171875 75.818975735515778 188.125 75.818975735515778"/>
            <polygon class="cls-3" points="200.6279296875 75.818975735515778 200.6279296875 74.067999173015778 199.283203125 74.067999173015778 199.283203125 75.818975735515778 195.9580078125 75.818975735515778 195.9580078125 66.072881985515778 199.283203125 66.072881985515778 199.283203125 67.240850735515778 200.6279296875 67.240850735515778 200.6279296875 66.072881985515778 203.953125 66.072881985515778 203.953125 75.818975735515778 200.6279296875 75.818975735515778"/>
            <polygon class="cls-3" points="203.7900390625 75.818975735515778 203.7900390625 66.072881985515778 211.78515625 66.072881985515778 211.78515625 72.317022610515778 207.115234375 72.317022610515778 207.115234375 72.493780423015778 211.78515625 72.493780423015778 211.78515625 75.818975735515778 203.7900390625 75.818975735515778"/>
          </g>
          <g>
            <polygon class="cls-3" points="182.6279296875 75.55670454941901 182.6279296875 69.13580611191901 180.29296875 69.13580611191901 180.29296875 65.81061079941901 188.2880859375 65.81061079941901 188.2880859375 69.13580611191901 185.953125 69.13580611191901 185.953125 75.55670454941901 182.6279296875 75.55670454941901"/>
            <polygon class="cls-3" points="188.125 75.55670454941901 188.125 72.23150923691901 190.4599609375 72.23150923691901 190.4599609375 69.13580611191901 188.125 69.13580611191901 188.125 65.81061079941901 196.1201171875 65.81061079941901 196.1201171875 69.13580611191901 193.78515625 69.13580611191901 193.78515625 72.23150923691901 196.1201171875 72.23150923691901 196.1201171875 75.55670454941901 188.125 75.55670454941901"/>
            <polygon class="cls-3" points="200.6279296875 75.55670454941901 200.6279296875 73.80572798691901 199.283203125 73.80572798691901 199.283203125 75.55670454941901 195.9580078125 75.55670454941901 195.9580078125 65.81061079941901 199.283203125 65.81061079941901 199.283203125 66.97857954941901 200.6279296875 66.97857954941901 200.6279296875 65.81061079941901 203.953125 65.81061079941901 203.953125 75.55670454941901 200.6279296875 75.55670454941901"/>
            <polygon class="cls-3" points="203.7900390625 75.55670454941901 203.7900390625 65.81061079941901 211.78515625 65.81061079941901 211.78515625 72.05475142441901 207.115234375 72.05475142441901 207.115234375 72.23150923691901 211.78515625 72.23150923691901 211.78515625 75.55670454941901 203.7900390625 75.55670454941901"/>
          </g>
          <g>
            <polygon class="cls-3" points="182.6279296875 75.294433363322241 182.6279296875 68.873534925822241 180.29296875 68.873534925822241 180.29296875 65.548339613322241 188.2880859375 65.548339613322241 188.2880859375 68.873534925822241 185.953125 68.873534925822241 185.953125 75.294433363322241 182.6279296875 75.294433363322241"/>
            <polygon class="cls-3" points="188.125 75.294433363322241 188.125 71.969238050822241 190.4599609375 71.969238050822241 190.4599609375 68.873534925822241 188.125 68.873534925822241 188.125 65.548339613322241 196.1201171875 65.548339613322241 196.1201171875 68.873534925822241 193.78515625 68.873534925822241 193.78515625 71.969238050822241 196.1201171875 71.969238050822241 196.1201171875 75.294433363322241 188.125 75.294433363322241"/>
            <polygon class="cls-3" points="200.6279296875 75.294433363322241 200.6279296875 73.543456800822241 199.283203125 73.543456800822241 199.283203125 75.294433363322241 195.9580078125 75.294433363322241 195.9580078125 65.548339613322241 199.283203125 65.548339613322241 199.283203125 66.716308363322241 200.6279296875 66.716308363322241 200.6279296875 65.548339613322241 203.953125 65.548339613322241 203.953125 75.294433363322241 200.6279296875 75.294433363322241"/>
            <polygon class="cls-3" points="203.7900390625 75.294433363322241 203.7900390625 65.548339613322241 211.78515625 65.548339613322241 211.78515625 71.792480238322241 207.115234375 71.792480238322241 207.115234375 71.969238050822241 211.78515625 71.969238050822241 211.78515625 75.294433363322241 203.7900390625 75.294433363322241"/>
          </g>
          <g>
            <polygon class="cls-3" points="182.6279296875 75.032162177225473 182.6279296875 68.611263739725473 180.29296875 68.611263739725473 180.29296875 65.286068427225473 188.2880859375 65.286068427225473 188.2880859375 68.611263739725473 185.953125 68.611263739725473 185.953125 75.032162177225473 182.6279296875 75.032162177225473"/>
            <polygon class="cls-3" points="188.125 75.032162177225473 188.125 71.706966864725473 190.4599609375 71.706966864725473 190.4599609375 68.611263739725473 188.125 68.611263739725473 188.125 65.286068427225473 196.1201171875 65.286068427225473 196.1201171875 68.611263739725473 193.78515625 68.611263739725473 193.78515625 71.706966864725473 196.1201171875 71.706966864725473 196.1201171875 75.032162177225473 188.125 75.032162177225473"/>
            <polygon class="cls-3" points="200.6279296875 75.032162177225473 200.6279296875 73.281185614725473 199.283203125 73.281185614725473 199.283203125 75.032162177225473 195.9580078125 75.032162177225473 195.9580078125 65.286068427225473 199.283203125 65.286068427225473 199.283203125 66.454037177225473 200.6279296875 66.454037177225473 200.6279296875 65.286068427225473 203.953125 65.286068427225473 203.953125 75.032162177225473 200.6279296875 75.032162177225473"/>
            <polygon class="cls-3" points="203.7900390625 75.032162177225473 203.7900390625 65.286068427225473 211.78515625 65.286068427225473 211.78515625 71.530209052225473 207.115234375 71.530209052225473 207.115234375 71.706966864725473 211.78515625 71.706966864725473 211.78515625 75.032162177225473 203.7900390625 75.032162177225473"/>
          </g>
          <g>
            <polygon class="cls-3" points="182.6279296875 74.769890991128705 182.6279296875 68.348992553628705 180.29296875 68.348992553628705 180.29296875 65.023797241128705 188.2880859375 65.023797241128705 188.2880859375 68.348992553628705 185.953125 68.348992553628705 185.953125 74.769890991128705 182.6279296875 74.769890991128705"/>
            <polygon class="cls-3" points="188.125 74.769890991128705 188.125 71.444695678628705 190.4599609375 71.444695678628705 190.4599609375 68.348992553628705 188.125 68.348992553628705 188.125 65.023797241128705 196.1201171875 65.023797241128705 196.1201171875 68.348992553628705 193.78515625 68.348992553628705 193.78515625 71.444695678628705 196.1201171875 71.444695678628705 196.1201171875 74.769890991128705 188.125 74.769890991128705"/>
            <polygon class="cls-3" points="200.6279296875 74.769890991128705 200.6279296875 73.018914428628705 199.283203125 73.018914428628705 199.283203125 74.769890991128705 195.9580078125 74.769890991128705 195.9580078125 65.023797241128705 199.283203125 65.023797241128705 199.283203125 66.191765991128705 200.6279296875 66.191765991128705 200.6279296875 65.023797241128705 203.953125 65.023797241128705 203.953125 74.769890991128705 200.6279296875 74.769890991128705"/>
            <polygon class="cls-3" points="203.7900390625 74.769890991128705 203.7900390625 65.023797241128705 211.78515625 65.023797241128705 211.78515625 71.267937866128705 207.115234375 71.267937866128705 207.115234375 71.444695678628705 211.78515625 71.444695678628705 211.78515625 74.769890991128705 203.7900390625 74.769890991128705"/>
          </g>
          <g>
            <polygon class="cls-3" points="182.6279296875 74.507619805031936 182.6279296875 68.086721367531936 180.29296875 68.086721367531936 180.29296875 64.761526055031936 188.2880859375 64.761526055031936 188.2880859375 68.086721367531936 185.953125 68.086721367531936 185.953125 74.507619805031936 182.6279296875 74.507619805031936"/>
            <polygon class="cls-3" points="188.125 74.507619805031936 188.125 71.182424492531936 190.4599609375 71.182424492531936 190.4599609375 68.086721367531936 188.125 68.086721367531936 188.125 64.761526055031936 196.1201171875 64.761526055031936 196.1201171875 68.086721367531936 193.78515625 68.086721367531936 193.78515625 71.182424492531936 196.1201171875 71.182424492531936 196.1201171875 74.507619805031936 188.125 74.507619805031936"/>
            <polygon class="cls-3" points="200.6279296875 74.507619805031936 200.6279296875 72.756643242531936 199.283203125 72.756643242531936 199.283203125 74.507619805031936 195.9580078125 74.507619805031936 195.9580078125 64.761526055031936 199.283203125 64.761526055031936 199.283203125 65.929494805031936 200.6279296875 65.929494805031936 200.6279296875 64.761526055031936 203.953125 64.761526055031936 203.953125 74.507619805031936 200.6279296875 74.507619805031936"/>
            <polygon class="cls-3" points="203.7900390625 74.507619805031936 203.7900390625 64.761526055031936 211.78515625 64.761526055031936 211.78515625 71.005666680031936 207.115234375 71.005666680031936 207.115234375 71.182424492531936 211.78515625 71.182424492531936 211.78515625 74.507619805031936 203.7900390625 74.507619805031936"/>
          </g>
          <g>
            <polygon class="cls-3" points="182.6279296875 74.245348618935168 182.6279296875 67.824450181435168 180.29296875 67.824450181435168 180.29296875 64.499254868935168 188.2880859375 64.499254868935168 188.2880859375 67.824450181435168 185.953125 67.824450181435168 185.953125 74.245348618935168 182.6279296875 74.245348618935168"/>
            <polygon class="cls-3" points="188.125 74.245348618935168 188.125 70.920153306435168 190.4599609375 70.920153306435168 190.4599609375 67.824450181435168 188.125 67.824450181435168 188.125 64.499254868935168 196.1201171875 64.499254868935168 196.1201171875 67.824450181435168 193.78515625 67.824450181435168 193.78515625 70.920153306435168 196.1201171875 70.920153306435168 196.1201171875 74.245348618935168 188.125 74.245348618935168"/>
            <polygon class="cls-3" points="200.6279296875 74.245348618935168 200.6279296875 72.494372056435168 199.283203125 72.494372056435168 199.283203125 74.245348618935168 195.9580078125 74.245348618935168 195.9580078125 64.499254868935168 199.283203125 64.499254868935168 199.283203125 65.667223618935168 200.6279296875 65.667223618935168 200.6279296875 64.499254868935168 203.953125 64.499254868935168 203.953125 74.245348618935168 200.6279296875 74.245348618935168"/>
            <polygon class="cls-3" points="203.7900390625 74.245348618935168 203.7900390625 64.499254868935168 211.78515625 64.499254868935168 211.78515625 70.743395493935168 207.115234375 70.743395493935168 207.115234375 70.920153306435168 211.78515625 70.920153306435168 211.78515625 74.245348618935168 203.7900390625 74.245348618935168"/>
          </g>
          <g>
            <polygon class="cls-3" points="182.6279296875 73.9830774328384 182.6279296875 67.5621789953384 180.29296875 67.5621789953384 180.29296875 64.2369836828384 188.2880859375 64.2369836828384 188.2880859375 67.5621789953384 185.953125 67.5621789953384 185.953125 73.9830774328384 182.6279296875 73.9830774328384"/>
            <polygon class="cls-3" points="188.125 73.9830774328384 188.125 70.6578821203384 190.4599609375 70.6578821203384 190.4599609375 67.5621789953384 188.125 67.5621789953384 188.125 64.2369836828384 196.1201171875 64.2369836828384 196.1201171875 67.5621789953384 193.78515625 67.5621789953384 193.78515625 70.6578821203384 196.1201171875 70.6578821203384 196.1201171875 73.9830774328384 188.125 73.9830774328384"/>
            <polygon class="cls-3" points="200.6279296875 73.9830774328384 200.6279296875 72.2321008703384 199.283203125 72.2321008703384 199.283203125 73.9830774328384 195.9580078125 73.9830774328384 195.9580078125 64.2369836828384 199.283203125 64.2369836828384 199.283203125 65.4049524328384 200.6279296875 65.4049524328384 200.6279296875 64.2369836828384 203.953125 64.2369836828384 203.953125 73.9830774328384 200.6279296875 73.9830774328384"/>
            <polygon class="cls-3" points="203.7900390625 73.9830774328384 203.7900390625 64.2369836828384 211.78515625 64.2369836828384 211.78515625 70.4811243078384 207.115234375 70.4811243078384 207.115234375 70.6578821203384 211.78515625 70.6578821203384 211.78515625 73.9830774328384 203.7900390625 73.9830774328384"/>
          </g>
        </g>
        <g>
          <path class="cls-2" d="M181.080078125,65.0240930578384h6.4208984375v1.7509765625h-2.3349609375v6.4208984375h-1.7509765625v-6.4208984375h-2.3349609375v-1.7509765625Z"/>
          <path class="cls-2" d="M195.3330078125,66.7750696203384h-2.3349609375v4.669921875h2.3349609375v1.7509765625h-6.4208984375v-1.7509765625h2.3349609375v-4.669921875h-2.3349609375v-1.7509765625h6.4208984375v1.7509765625Z"/>
          <path class="cls-2" d="M196.7451171875,65.0240930578384h1.7509765625v1.16796875h1.16796875v1.1669921875h.5830078125v-1.1669921875h1.16796875v-1.16796875h1.7509765625v8.171875h-1.7509765625v-4.669921875h-.583984375v2.9189453125h-1.7509765625v-2.9189453125h-.583984375v4.669921875h-1.7509765625v-8.171875Z"/>
          <path class="cls-2" d="M204.5771484375,65.0240930578384h6.4208984375v1.7509765625h-4.669921875v1.16796875h4.669921875v1.7509765625h-4.669921875v1.7509765625h4.669921875v1.7509765625h-6.4208984375v-8.171875Z"/>
        </g>
      </g>
      <g>
        <path class="cls-6" d="M117.783883888094351,74.939525140294791c-.828020394290434,0-1.668111056720591-.028968643535336-2.496936135556098-.085296561514042-19.990778090783351-1.359916876923307-35.148620818959898-18.730642097138116-33.787899257495155-38.721420187919648,1.292323375349952-18.994578627094597,17.204155519908454-33.873195819005559,36.223679367822115-33.873195819005559.828020394290434,0,1.66811105672241.028968643531698,2.496936135559736.085296561512223,19.990778090781532,1.359916876923307,35.14862081895626,18.730642097136297,33.787899257491517,38.721420187921467-1.292323375349952,18.994578627092778-17.204155519904816,33.873195819005559-36.223679367822115,33.873195819005559Z"/>
        <g>
          <path class="cls-3" d="M117.7841796875,81.267070636313292c-.8671875,0-1.7587890625-.0302734375-2.6484375-.08984375-10.2734375-.69921875-19.6669921875-5.3671875-26.4521484375-13.1435546875-6.7861328125-7.7763671875-10.1376953125-17.7158203125-9.439453125-27.986328125,1.3720703125-20.17578125,18.2744140625-35.9794921875,38.478515625-35.9794921875.8671875,0,1.7587890625.0302734375,2.6484375.08984375,21.236328125,1.4453125,37.3359375,19.8955078125,35.8916015625,41.1298828125-1.3740234375,20.17578125-18.275390625,35.9794921875-38.478515625,35.9794921875Z"/>
          <path class="cls-3" d="M117.7841796875,81.041078864851443c-.8671875,0-1.7587890625-.0302734375-2.6484375-.08984375-10.2734375-.69921875-19.6669921875-5.3671875-26.4521484375-13.1435546875-6.7861328125-7.7763671875-10.1376953125-17.7158203125-9.439453125-27.986328125,1.3720703125-20.17578125,18.2744140625-35.9794921875,38.478515625-35.9794921875.8671875,0,1.7587890625.0302734375,2.6484375.08984375,21.236328125,1.4453125,37.3359375,19.8955078125,35.8916015625,41.1298828125-1.3740234375,20.17578125-18.275390625,35.9794921875-38.478515625,35.9794921875Z"/>
          <path class="cls-3" d="M117.7841796875,80.815087093389593c-.8671875,0-1.7587890625-.0302734375-2.6484375-.08984375-10.2734375-.69921875-19.6669921875-5.3671875-26.4521484375-13.1435546875-6.7861328125-7.7763671875-10.1376953125-17.7158203125-9.439453125-27.986328125,1.3720703125-20.17578125,18.2744140625-35.9794921875,38.478515625-35.9794921875.8671875,0,1.7587890625.0302734375,2.6484375.08984375,21.236328125,1.4453125,37.3359375,19.8955078125,35.8916015625,41.1298828125-1.3740234375,20.17578125-18.275390625,35.9794921875-38.478515625,35.9794921875Z"/>
          <path class="cls-3" d="M117.7841796875,80.589095321927743c-.8671875,0-1.7587890625-.0302734375-2.6484375-.08984375-10.2734375-.69921875-19.6669921875-5.3671875-26.4521484375-13.1435546875-6.7861328125-7.7763671875-10.1376953125-17.7158203125-9.439453125-27.986328125,1.3720703125-20.17578125,18.2744140625-35.9794921875,38.478515625-35.9794921875.8671875,0,1.7587890625.0302734375,2.6484375.08984375,21.236328125,1.4453125,37.3359375,19.8955078125,35.8916015625,41.1298828125-1.3740234375,20.17578125-18.275390625,35.9794921875-38.478515625,35.9794921875Z"/>
          <path class="cls-3" d="M117.7841796875,80.363103550465894c-.8671875,0-1.7587890625-.0302734375-2.6484375-.08984375-10.2734375-.69921875-19.6669921875-5.3671875-26.4521484375-13.1435546875-6.7861328125-7.7763671875-10.1376953125-17.7158203125-9.439453125-27.986328125,1.3720703125-20.17578125,18.2744140625-35.9794921875,38.478515625-35.9794921875.8671875,0,1.7587890625.0302734375,2.6484375.08984375,21.236328125,1.4453125,37.3359375,19.8955078125,35.8916015625,41.1298828125-1.3740234375,20.17578125-18.275390625,35.9794921875-38.478515625,35.9794921875Z"/>
          <path class="cls-3" d="M117.7841796875,80.137111779004044c-.8671875,0-1.7587890625-.0302734375-2.6484375-.08984375-10.2734375-.69921875-19.6669921875-5.3671875-26.4521484375-13.1435546875-6.7861328125-7.7763671875-10.1376953125-17.7158203125-9.439453125-27.986328125,1.3720703125-20.17578125,18.2744140625-35.9794921875,38.478515625-35.9794921875.8671875,0,1.7587890625.0302734375,2.6484375.08984375,21.236328125,1.4453125,37.3359375,19.8955078125,35.8916015625,41.1298828125-1.3740234375,20.17578125-18.275390625,35.9794921875-38.478515625,35.9794921875Z"/>
          <path class="cls-3" d="M117.7841796875,79.911120007542195c-.8671875,0-1.7587890625-.0302734375-2.6484375-.08984375-10.2734375-.69921875-19.6669921875-5.3671875-26.4521484375-13.1435546875-6.7861328125-7.7763671875-10.1376953125-17.7158203125-9.439453125-27.986328125,1.3720703125-20.17578125,18.2744140625-35.9794921875,38.478515625-35.9794921875.8671875,0,1.7587890625.0302734375,2.6484375.08984375,21.236328125,1.4453125,37.3359375,19.8955078125,35.8916015625,41.1298828125-1.3740234375,20.17578125-18.275390625,35.9794921875-38.478515625,35.9794921875Z"/>
          <path class="cls-3" d="M117.7841796875,79.685128236080345c-.8671875,0-1.7587890625-.0302734375-2.6484375-.08984375-10.2734375-.69921875-19.6669921875-5.3671875-26.4521484375-13.1435546875-6.7861328125-7.7763671875-10.1376953125-17.7158203125-9.439453125-27.986328125,1.3720703125-20.17578125,18.2744140625-35.9794921875,38.478515625-35.9794921875.8671875,0,1.7587890625.0302734375,2.6484375.08984375,21.236328125,1.4453125,37.3359375,19.8955078125,35.8916015625,41.1298828125-1.3740234375,20.17578125-18.275390625,35.9794921875-38.478515625,35.9794921875Z"/>
          <path class="cls-3" d="M117.7841796875,79.459136464618496c-.8671875,0-1.7587890625-.0302734375-2.6484375-.08984375-10.2734375-.69921875-19.6669921875-5.3671875-26.4521484375-13.1435546875-6.7861328125-7.7763671875-10.1376953125-17.7158203125-9.439453125-27.986328125,1.3720703125-20.17578125,18.2744140625-35.9794921875,38.478515625-35.9794921875.8671875,0,1.7587890625.0302734375,2.6484375.08984375,21.236328125,1.4453125,37.3359375,19.8955078125,35.8916015625,41.1298828125-1.3740234375,20.17578125-18.275390625,35.9794921875-38.478515625,35.9794921875Z"/>
          <path class="cls-3" d="M117.7841796875,79.233144693156646c-.8671875,0-1.7587890625-.0302734375-2.6484375-.08984375-10.2734375-.69921875-19.6669921875-5.3671875-26.4521484375-13.1435546875-6.7861328125-7.7763671875-10.1376953125-17.7158203125-9.439453125-27.986328125,1.3720703125-20.17578125,18.2744140625-35.9794921875,38.478515625-35.9794921875.8671875,0,1.7587890625.0302734375,2.6484375.08984375,21.236328125,1.4453125,37.3359375,19.8955078125,35.8916015625,41.1298828125-1.3740234375,20.17578125-18.275390625,35.9794921875-38.478515625,35.9794921875Z"/>
          <path class="cls-3" d="M117.7841796875,79.007152921694797c-.8671875,0-1.7587890625-.0302734375-2.6484375-.08984375-10.2734375-.69921875-19.6669921875-5.3671875-26.4521484375-13.1435546875-6.7861328125-7.7763671875-10.1376953125-17.7158203125-9.439453125-27.986328125C80.6162109375,17.611645109194797,97.5185546875,1.807934171694797,117.72265625,1.807934171694797c.8671875,0,1.7587890625.0302734375,2.6484375.08984375,21.236328125,1.4453125,37.3359375,19.8955078125,35.8916015625,41.1298828125-1.3740234375,20.17578125-18.275390625,35.9794921875-38.478515625,35.9794921875Z"/>
          <path class="cls-3" d="M117.7841796875,78.781161150232947c-.8671875,0-1.7587890625-.0302734375-2.6484375-.08984375-10.2734375-.69921875-19.6669921875-5.3671875-26.4521484375-13.1435546875-6.7861328125-7.7763671875-10.1376953125-17.7158203125-9.439453125-27.986328125C80.6162109375,17.385653337732947,97.5185546875,1.581942400232947,117.72265625,1.581942400232947c.8671875,0,1.7587890625.0302734375,2.6484375.08984375,21.236328125,1.4453125,37.3359375,19.8955078125,35.8916015625,41.1298828125-1.3740234375,20.17578125-18.275390625,35.9794921875-38.478515625,35.9794921875Z"/>
          <path class="cls-3" d="M117.7841796875,78.555169378771097c-.8671875,0-1.7587890625-.0302734375-2.6484375-.08984375-10.2734375-.69921875-19.6669921875-5.3671875-26.4521484375-13.1435546875-6.7861328125-7.7763671875-10.1376953125-17.7158203125-9.439453125-27.986328125C80.6162109375,17.159661566271097,97.5185546875,1.355950628771097,117.72265625,1.355950628771097c.8671875,0,1.7587890625.0302734375,2.6484375.08984375,21.236328125,1.4453125,37.3359375,19.8955078125,35.8916015625,41.1298828125-1.3740234375,20.17578125-18.275390625,35.9794921875-38.478515625,35.9794921875Z"/>
          <path class="cls-3" d="M117.7841796875,78.329177607309248c-.8671875,0-1.7587890625-.0302734375-2.6484375-.08984375-10.2734375-.69921875-19.6669921875-5.3671875-26.4521484375-13.1435546875-6.7861328125-7.7763671875-10.1376953125-17.7158203125-9.439453125-27.986328125C80.6162109375,16.933669794809248,97.5185546875,1.129958857309248,117.72265625,1.129958857309248c.8671875,0,1.7587890625.0302734375,2.6484375.08984375,21.236328125,1.4453125,37.3359375,19.8955078125,35.8916015625,41.1298828125-1.3740234375,20.17578125-18.275390625,35.9794921875-38.478515625,35.9794921875Z"/>
          <path class="cls-3" d="M117.7841796875,78.103185835847398c-.8671875,0-1.7587890625-.0302734375-2.6484375-.08984375-10.2734375-.69921875-19.6669921875-5.3671875-26.4521484375-13.1435546875-6.7861328125-7.7763671875-10.1376953125-17.7158203125-9.439453125-27.986328125C80.6162109375,16.707678023347398,97.5185546875.903967085847398,117.72265625.903967085847398c.8671875,0,1.7587890625.0302734375,2.6484375.08984375,21.236328125,1.4453125,37.3359375,19.8955078125,35.8916015625,41.1298828125-1.3740234375,20.17578125-18.275390625,35.9794921875-38.478515625,35.9794921875Z"/>
          <path class="cls-3" d="M117.7841796875,77.877194064385549c-.8671875,0-1.7587890625-.0302734375-2.6484375-.08984375-10.2734375-.69921875-19.6669921875-5.3671875-26.4521484375-13.1435546875-6.7861328125-7.7763671875-10.1376953125-17.7158203125-9.439453125-27.986328125C80.6162109375,16.481686251885549,97.5185546875.677975314385549,117.72265625.677975314385549c.8671875,0,1.7587890625.0302734375,2.6484375.08984375,21.236328125,1.4453125,37.3359375,19.8955078125,35.8916015625,41.1298828125-1.3740234375,20.17578125-18.275390625,35.9794921875-38.478515625,35.9794921875Z"/>
          <path class="cls-3" d="M117.7841796875,77.651202292923699c-.8671875,0-1.7587890625-.0302734375-2.6484375-.08984375-10.2734375-.69921875-19.6669921875-5.3671875-26.4521484375-13.1435546875-6.7861328125-7.7763671875-10.1376953125-17.7158203125-9.439453125-27.986328125C80.6162109375,16.255694480423699,97.5185546875.451983542923699,117.72265625.451983542923699c.8671875,0,1.7587890625.0302734375,2.6484375.08984375,21.236328125,1.4453125,37.3359375,19.8955078125,35.8916015625,41.1298828125-1.3740234375,20.17578125-18.275390625,35.9794921875-38.478515625,35.9794921875Z"/>
          <path class="cls-3" d="M117.7841796875,77.42521052146185c-.8671875,0-1.7587890625-.0302734375-2.6484375-.08984375-10.2734375-.69921875-19.6669921875-5.3671875-26.4521484375-13.1435546875-6.7861328125-7.7763671875-10.1376953125-17.7158203125-9.439453125-27.986328125C80.6162109375,16.02970270896185,97.5185546875.22599177146185,117.72265625.22599177146185c.8671875,0,1.7587890625.0302734375,2.6484375.08984375,21.236328125,1.4453125,37.3359375,19.8955078125,35.8916015625,41.1298828125-1.3740234375,20.17578125-18.275390625,35.9794921875-38.478515625,35.9794921875Z"/>
          <path class="cls-3" d="M117.7841796875,77.19921875c-.8671875,0-1.7587890625-.0302734375-2.6484375-.08984375-10.2734375-.69921875-19.6669921875-5.3671875-26.4521484375-13.1435546875-6.7861328125-7.7763671875-10.1376953125-17.7158203125-9.439453125-27.986328125C80.6162109375,15.8037109375,97.5185546875,0,117.72265625,0c.8671875,0,1.7587890625.0302734375,2.6484375.08984375,21.236328125,1.4453125,37.3359375,19.8955078125,35.8916015625,41.1298828125-1.3740234375,20.17578125-18.275390625,35.9794921875-38.478515625,35.9794921875Z"/>
        </g>
        <path class="cls-1" d="M117.783883888094351,74.939525140294791c-.828020394290434,0-1.668111056720591-.028968643535336-2.496936135556098-.085296561514042-19.990778090783351-1.359916876923307-35.148620818959898-18.730642097138116-33.787899257495155-38.721420187919648,1.292323375349952-18.994578627094597,17.204155519908454-33.873195819005559,36.223679367822115-33.873195819005559.828020394290434,0,1.66811105672241.028968643531698,2.496936135559736.085296561512223,19.990778090781532,1.359916876923307,35.14862081895626,18.730642097136297,33.787899257491517,38.721420187921467-1.292323375349952,18.994578627092778-17.204155519904816,33.873195819005559-36.223679367822115,33.873195819005559Z"/>
      </g>
      <g>
        <path class="cls-5" d="M128.398500123197664,53.935871153797052c-16.390619447376594-1.115292775983107-28.773708701675787-15.306508197412768-27.658415925690861-31.697127644787543.287473552831216-4.224996190707316,1.449236861149984-8.180020717380103,3.288142212029925-11.709769463315752-8.887137259152951,4.632166569239416-15.22261983385215,13.643828761352779-15.952669885087744,24.374297136373571-1.115292775988564,16.390619447376594,11.267796478312448,30.581834868804435,27.658415925687223,31.697127644789362,12.165623256674735.827819223159167,23.114161142726516-5.78447483418131,28.408985432763075-15.948646462376928-4.687589217111963,2.443424613480602-10.084507858484358,3.669361514068441-15.744457759701618,3.28411878931729Z"/>
        <path class="cls-4" d="M129.094938512600493,15.390182207445832l2.550957972665856,7.851041356732821c.062727329917834.193054870620472.242631444143626.323762860571151.445621347807901.323762860565694l8.255073407506643-.000000000065484c.453899223335611-.000000000003638.642621324472202.580826903760681.275409139059775.847622173259879l-6.678494676531045,4.852210405475489c-.164222281748152.119314471734469-.23293953866596.330804442075532-.170212208749945.523859312694185l2.55095797280228,7.851041356683709c.140262573744621.43168381409123-.353818301455249.790654582200659-.721030486862219.523859312692366l-6.67849467645101-4.852210405579171c-.164222281746333-.119314471738107-.38659599636776-.119314471738107-.550818278115912,0l-6.678494676449191,4.852210405584628c-.367212185410608.266795269506474-.861293060610478-.092175498602955-.721030486862219-.523859312694185l2.550957972800461-7.851041356687347c.062727329919653-.193054870618653-.005989926998154-.404544840959716-.170212208749945-.523859312696004l-6.678494676531045-4.85221040547367c-.367212185410608-.266795269502836-.178490084277655-.847622173267155.275409139056137-.847622173259879l8.255073407504824.000000000065484c.202989903666094.000000000005457.382894017897343-.130707989947041.445621347815177-.323762860569332l2.550957972667675-7.851041356729183c.140262573742802-.431683814094868.75098012187118-.431683814094868.891242695615801,0Z"/>
      </g>
    </g>
  </g>
</svg>