<?xml version="1.0" encoding="UTF-8"?>
<svg id="Livello_2" data-name="Livello 2" xmlns="http://www.w3.org/2000/svg" width="716.361328125" height="127.044037059888069" xmlns:xlink="http://www.w3.org/1999/xlink" viewBox="0 0 716.361328125 127.044037059888069">
  <defs>
    <style>
      .cls-1, .cls-2, .cls-3, .cls-4, .cls-5, .cls-6, .cls-7 {
        fill: none;
      }

      .cls-8 {
        stroke-width: 2px;
      }

      .cls-8, .cls-2, .cls-3, .cls-9, .cls-4, .cls-5 {
        stroke-miterlimit: 10;
      }

      .cls-8, .cls-2, .cls-3, .cls-9, .cls-4, .cls-5, .cls-6, .cls-7 {
        stroke: #000;
      }

      .cls-8, .cls-10 {
        fill: #408cf4;
      }

      .cls-2, .cls-3, .cls-9 {
        stroke-linecap: round;
      }

      .cls-2, .cls-9, .cls-4 {
        stroke-width: .882477537827876px;
      }

      .cls-3, .cls-5 {
        stroke-width: 2.239184141159058px;
      }

      .cls-11 {
        fill: #f7f0d0;
      }

      .cls-12 {
        fill: #020101;
      }

      .cls-13 {
        clip-path: url(#clippath-1);
      }

      .cls-14 {
        fill: #fff;
      }

      .cls-9, .cls-15 {
        fill: #ff5e34;
      }

      .cls-6 {
        stroke-width: 3.139567719005696px;
      }

      .cls-16 {
        clip-path: url(#clippath);
      }

      .cls-7 {
        stroke-width: 3.515035123246236px;
      }
    </style>
    <clipPath id="clippath">
      <path class="cls-11" d="M112.346976654824175,60.842289045405778c0,1.172549135877489-.041022127203178,2.362190824755089-.120787374540669,3.535879464168829-1.925760971464115,28.308686280477559-26.52422374715934,49.773514339305621-54.832910027640537,47.846613864308893-26.897980906122029-1.830042674655488-47.967401238853199-24.362585544284229-47.967401238853199-51.295891059939095,0-1.172549135879308.041022127204997-2.362190824755089.120787374542488-3.535879464168829,1.925760971460477-28.308686280479378,26.52422374715934-49.773514339303802,54.832910027640537-47.846613864310712,26.897980906118391,1.830042674655488,47.96740123885138,24.362585544284229,47.96740123885138,51.295891059940914Z"/>
    </clipPath>
    <clipPath id="clippath-1">
      <path class="cls-15" d="M92.692062013402392,87.708396434349197c4.283228907341254-5.624850355858143,2.131697185017401-12.636025689289454,2.131697185017401-12.636025689289454l-.019895193398042.004973798335413c-.034816588440663-.278259755177714-.08940705812347-.55157604005035-.154066436660287-.824861996889013-.670795560234183-2.717998829399221-2.474525334611826-4.775149695255095-4.486972671407784-6.623582998692655-.17885196428324-.164018414327074-.362801196177315-.328036828655968-.546628036163384-.492054931130042-.572291326896448-.510622591915308-.693708661283381-1.355588250191431-.292893314604953-2.00949944606873,1.286137580726063-2.098272360186456,3.567215570414191-6.700254376610246,3.771272197011058-7.257462575720638,1.113039020739961-3.090700097134686,1.699340665129057-6.365218436902069,1.793721521602492-9.649684373369382.054711781835067-1.868328496828326-.382618536397786-5.79380785952344-1.132873558060965-6.976419401069506l.004913142269288-.004973798348146c-.004913142269288-.009917268665959-.014860738969219-.014891067010467-.024808335665512-.024838663704941-.064598722457959-.099384982859192-.134110587187024-.178874772323979-.203743764068349-.233525898085645-10.181365220032603-11.408710618679834-24.75028780057437-18.275797440193855-41.267058995452317-18.226089784742726-30.578912248534834.094380856473435-55.508105149472613,25.326702504336936-55.244766789335699,55.905584424835979.034786260403052,4.367722823191798.576414703764385,8.61616547012818,1.570203876293817,12.690707143090549,2.722972627743729,11.681996575514859,8.94907635106938,26.221106694007176,16.288188767102838,35.711811488439707l24.03976250962296.019864865354975,6.916794476959694.004973798351784,2.156505520673818-.009947596699931c.019895193396223-.467082124210719-.01489106700501-1.182611541547885-.367697141346071-1.913032025895518-.790075736496874-1.614907405350095-2.429821805555548-1.798755976025859-2.767706484841256-3.160242289901362-.178874772327617-.720503215685312.178874772320341-1.301861389760234.337884679285708-1.838516034777058.203743764075625-.675769358585967.367697141351528-1.361486313871865.491920787917479-2.052177067509547l.362753671037353.074546319159708c4.501863738416432.317989485893122,9.02362267022545.402483401745485,13.530429878956056.25836456178331l-.645926568500727.124223646567771c1.749078648621435,3.090700097134686,3.622320287726325,5.967708833501092,5.575142700407014,8.491941823565867l14.14657431343403.014891067006829.144118839963994.258394889830015c.004973798349965-.069572520806105.014921395049896-.159009906967185.014921395049896-.258394889830015l6.916733820879017.009947596699931,1.321510389670948-.00608187747639c.497941472927778-.002291634673384.868279163460102-.453241383806017.781686331331002-.943601092048993-.054083583474494-.306265652252478-.150241909563192-.638214209355283-.314388341672384-.973296653070065-.785071610105661-1.614907405350095-2.42982180555191-1.798755976025859-2.762702358457318-3.160242289901362-.1789354283992-.720503215685312.178874772325798-1.301861389760234.337854351255373-1.838516034777058.650961022920455-2.186348310769972.914329711100436-4.491916141716501.77021087114008-6.767701838649373l-.58138850211617.109302251516056c.531650518621973-.313046015582586,1.053414096631968-.650930694877388,1.560256279593887-1.018627836227097,3.696866606876938-2.673295300335667,6.404978495647811-6.68821204919368,7.498182979075864-11.120503266798551,1.08817002899923-4.427317419262181.556458854291122-9.242227173268475-1.480796818168528-13.32671644291986l-.168927175631325-.332910880944837Z"/>
    </clipPath>
  </defs>
  <g id="Livello_1-2" data-name="Livello 1">
    <g>
      <g>
        <path class="cls-6" d="M705.531892589900963,48.56535394850107v-16.427087868814851h-8.213543934405607v-8.213703275278021H75.760488864625586c.000010129797374,0-8.213537844414532,0-8.213543934405607,0v8.213703275278021h-8.213543934407426v16.427087868814851h-8.213543934407426v24.640472462346224h8.213583769625984-.000039835218558v16.42708786881667h8.213543934407426v8.213703275276202h629.771403725275377v-8.213703275276202h8.213543934405607v-16.42708786881667h-.000039835218558,8.213583769625984v-24.640472462346224h-8.213543934407426Z"/>
        <g>
          <polygon class="cls-12" points="64.9306640625 105.17224220350181 64.9306640625 96.95837501600181 56.716796875 96.95837501600181 56.716796875 80.53161720350181 48.50390625 80.53161720350181 48.50390625 50.65857032850181 56.716796875 50.65857032850181 56.716796875 34.23181251600181 64.9306640625 34.23181251600181 64.9306640625 26.01794532850181 699.9345703125 26.01794532850181 699.9345703125 34.23181251600181 708.1484375 34.23181251600181 708.1484375 50.65857032850181 716.361328125 50.65857032850181 716.361328125 80.53161720350181 708.1484375 80.53161720350181 708.1484375 96.95837501600181 699.9345703125 96.95837501600181 699.9345703125 105.17224220350181 64.9306640625 105.17224220350181"/>
          <polygon class="cls-12" points="64.9306640625 104.910611560251709 64.9306640625 96.696744372751709 56.716796875 96.696744372751709 56.716796875 80.269986560251709 48.50390625 80.269986560251709 48.50390625 50.396939685251709 56.716796875 50.396939685251709 56.716796875 33.970181872751709 64.9306640625 33.970181872751709 64.9306640625 25.756314685251709 699.9345703125 25.756314685251709 699.9345703125 33.970181872751709 708.1484375 33.970181872751709 708.1484375 50.396939685251709 716.361328125 50.396939685251709 716.361328125 80.269986560251709 708.1484375 80.269986560251709 708.1484375 96.696744372751709 699.9345703125 96.696744372751709 699.9345703125 104.910611560251709 64.9306640625 104.910611560251709"/>
          <polygon class="cls-12" points="64.9306640625 104.648980917001609 64.9306640625 96.435113729501609 56.716796875 96.435113729501609 56.716796875 80.008355917001609 48.50390625 80.008355917001609 48.50390625 50.135309042001609 56.716796875 50.135309042001609 56.716796875 33.708551229501609 64.9306640625 33.708551229501609 64.9306640625 25.494684042001609 699.9345703125 25.494684042001609 699.9345703125 33.708551229501609 708.1484375 33.708551229501609 708.1484375 50.135309042001609 716.361328125 50.135309042001609 716.361328125 80.008355917001609 708.1484375 80.008355917001609 708.1484375 96.435113729501609 699.9345703125 96.435113729501609 699.9345703125 104.648980917001609 64.9306640625 104.648980917001609"/>
          <polygon class="cls-12" points="64.9306640625 104.387350273751508 64.9306640625 96.173483086251508 56.716796875 96.173483086251508 56.716796875 79.746725273751508 48.50390625 79.746725273751508 48.50390625 49.873678398751508 56.716796875 49.873678398751508 56.716796875 33.446920586251508 64.9306640625 33.446920586251508 64.9306640625 25.233053398751508 699.9345703125 25.233053398751508 699.9345703125 33.446920586251508 708.1484375 33.446920586251508 708.1484375 49.873678398751508 716.361328125 49.873678398751508 716.361328125 79.746725273751508 708.1484375 79.746725273751508 708.1484375 96.173483086251508 699.9345703125 96.173483086251508 699.9345703125 104.387350273751508 64.9306640625 104.387350273751508"/>
          <polygon class="cls-12" points="64.9306640625 104.125719630501408 64.9306640625 95.911852443001408 56.716796875 95.911852443001408 56.716796875 79.485094630501408 48.50390625 79.485094630501408 48.50390625 49.612047755501408 56.716796875 49.612047755501408 56.716796875 33.185289943001408 64.9306640625 33.185289943001408 64.9306640625 24.971422755501408 699.9345703125 24.971422755501408 699.9345703125 33.185289943001408 708.1484375 33.185289943001408 708.1484375 49.612047755501408 716.361328125 49.612047755501408 716.361328125 79.485094630501408 708.1484375 79.485094630501408 708.1484375 95.911852443001408 699.9345703125 95.911852443001408 699.9345703125 104.125719630501408 64.9306640625 104.125719630501408"/>
          <polygon class="cls-12" points="64.9306640625 103.864088987251307 64.9306640625 95.650221799751307 56.716796875 95.650221799751307 56.716796875 79.223463987251307 48.50390625 79.223463987251307 48.50390625 49.350417112251307 56.716796875 49.350417112251307 56.716796875 32.923659299751307 64.9306640625 32.923659299751307 64.9306640625 24.709792112251307 699.9345703125 24.709792112251307 699.9345703125 32.923659299751307 708.1484375 32.923659299751307 708.1484375 49.350417112251307 716.361328125 49.350417112251307 716.361328125 79.223463987251307 708.1484375 79.223463987251307 708.1484375 95.650221799751307 699.9345703125 95.650221799751307 699.9345703125 103.864088987251307 64.9306640625 103.864088987251307"/>
          <polygon class="cls-12" points="64.9306640625 103.602458344001207 64.9306640625 95.388591156501207 56.716796875 95.388591156501207 56.716796875 78.961833344001207 48.50390625 78.961833344001207 48.50390625 49.088786469001207 56.716796875 49.088786469001207 56.716796875 32.662028656501207 64.9306640625 32.662028656501207 64.9306640625 24.448161469001207 699.9345703125 24.448161469001207 699.9345703125 32.662028656501207 708.1484375 32.662028656501207 708.1484375 49.088786469001207 716.361328125 49.088786469001207 716.361328125 78.961833344001207 708.1484375 78.961833344001207 708.1484375 95.388591156501207 699.9345703125 95.388591156501207 699.9345703125 103.602458344001207 64.9306640625 103.602458344001207"/>
          <polygon class="cls-12" points="64.9306640625 103.340827700751106 64.9306640625 95.126960513251106 56.716796875 95.126960513251106 56.716796875 78.700202700751106 48.50390625 78.700202700751106 48.50390625 48.827155825751106 56.716796875 48.827155825751106 56.716796875 32.400398013251106 64.9306640625 32.400398013251106 64.9306640625 24.186530825751106 699.9345703125 24.186530825751106 699.9345703125 32.400398013251106 708.1484375 32.400398013251106 708.1484375 48.827155825751106 716.361328125 48.827155825751106 716.361328125 78.700202700751106 708.1484375 78.700202700751106 708.1484375 95.126960513251106 699.9345703125 95.126960513251106 699.9345703125 103.340827700751106 64.9306640625 103.340827700751106"/>
          <polygon class="cls-12" points="64.9306640625 103.079197057501005 64.9306640625 94.865329870001005 56.716796875 94.865329870001005 56.716796875 78.438572057501005 48.50390625 78.438572057501005 48.50390625 48.565525182501005 56.716796875 48.565525182501005 56.716796875 32.138767370001005 64.9306640625 32.138767370001005 64.9306640625 23.924900182501005 699.9345703125 23.924900182501005 699.9345703125 32.138767370001005 708.1484375 32.138767370001005 708.1484375 48.565525182501005 716.361328125 48.565525182501005 716.361328125 78.438572057501005 708.1484375 78.438572057501005 708.1484375 94.865329870001005 699.9345703125 94.865329870001005 699.9345703125 103.079197057501005 64.9306640625 103.079197057501005"/>
          <polygon class="cls-12" points="64.9306640625 102.817566414250905 64.9306640625 94.603699226750905 56.716796875 94.603699226750905 56.716796875 78.176941414250905 48.50390625 78.176941414250905 48.50390625 48.303894539250905 56.716796875 48.303894539250905 56.716796875 31.877136726750905 64.9306640625 31.877136726750905 64.9306640625 23.663269539250905 699.9345703125 23.663269539250905 699.9345703125 31.877136726750905 708.1484375 31.877136726750905 708.1484375 48.303894539250905 716.361328125 48.303894539250905 716.361328125 78.176941414250905 708.1484375 78.176941414250905 708.1484375 94.603699226750905 699.9345703125 94.603699226750905 699.9345703125 102.817566414250905 64.9306640625 102.817566414250905"/>
          <polygon class="cls-12" points="64.9306640625 102.555935771000804 64.9306640625 94.342068583500804 56.716796875 94.342068583500804 56.716796875 77.915310771000804 48.50390625 77.915310771000804 48.50390625 48.042263896000804 56.716796875 48.042263896000804 56.716796875 31.615506083500804 64.9306640625 31.615506083500804 64.9306640625 23.401638896000804 699.9345703125 23.401638896000804 699.9345703125 31.615506083500804 708.1484375 31.615506083500804 708.1484375 48.042263896000804 716.361328125 48.042263896000804 716.361328125 77.915310771000804 708.1484375 77.915310771000804 708.1484375 94.342068583500804 699.9345703125 94.342068583500804 699.9345703125 102.555935771000804 64.9306640625 102.555935771000804"/>
          <polygon class="cls-12" points="64.9306640625 102.294305127750704 64.9306640625 94.080437940250704 56.716796875 94.080437940250704 56.716796875 77.653680127750704 48.50390625 77.653680127750704 48.50390625 47.780633252750704 56.716796875 47.780633252750704 56.716796875 31.353875440250704 64.9306640625 31.353875440250704 64.9306640625 23.140008252750704 699.9345703125 23.140008252750704 699.9345703125 31.353875440250704 708.1484375 31.353875440250704 708.1484375 47.780633252750704 716.361328125 47.780633252750704 716.361328125 77.653680127750704 708.1484375 77.653680127750704 708.1484375 94.080437940250704 699.9345703125 94.080437940250704 699.9345703125 102.294305127750704 64.9306640625 102.294305127750704"/>
          <polygon class="cls-12" points="64.9306640625 102.032674484500603 64.9306640625 93.818807297000603 56.716796875 93.818807297000603 56.716796875 77.392049484500603 48.50390625 77.392049484500603 48.50390625 47.519002609500603 56.716796875 47.519002609500603 56.716796875 31.092244797000603 64.9306640625 31.092244797000603 64.9306640625 22.878377609500603 699.9345703125 22.878377609500603 699.9345703125 31.092244797000603 708.1484375 31.092244797000603 708.1484375 47.519002609500603 716.361328125 47.519002609500603 716.361328125 77.392049484500603 708.1484375 77.392049484500603 708.1484375 93.818807297000603 699.9345703125 93.818807297000603 699.9345703125 102.032674484500603 64.9306640625 102.032674484500603"/>
          <polygon class="cls-12" points="64.9306640625 101.771043841250503 64.9306640625 93.557176653750503 56.716796875 93.557176653750503 56.716796875 77.130418841250503 48.50390625 77.130418841250503 48.50390625 47.257371966250503 56.716796875 47.257371966250503 56.716796875 30.830614153750503 64.9306640625 30.830614153750503 64.9306640625 22.616746966250503 699.9345703125 22.616746966250503 699.9345703125 30.830614153750503 708.1484375 30.830614153750503 708.1484375 47.257371966250503 716.361328125 47.257371966250503 716.361328125 77.130418841250503 708.1484375 77.130418841250503 708.1484375 93.557176653750503 699.9345703125 93.557176653750503 699.9345703125 101.771043841250503 64.9306640625 101.771043841250503"/>
          <polygon class="cls-12" points="64.9306640625 101.509413198000402 64.9306640625 93.295546010500402 56.716796875 93.295546010500402 56.716796875 76.868788198000402 48.50390625 76.868788198000402 48.50390625 46.995741323000402 56.716796875 46.995741323000402 56.716796875 30.568983510500402 64.9306640625 30.568983510500402 64.9306640625 22.355116323000402 699.9345703125 22.355116323000402 699.9345703125 30.568983510500402 708.1484375 30.568983510500402 708.1484375 46.995741323000402 716.361328125 46.995741323000402 716.361328125 76.868788198000402 708.1484375 76.868788198000402 708.1484375 93.295546010500402 699.9345703125 93.295546010500402 699.9345703125 101.509413198000402 64.9306640625 101.509413198000402"/>
          <polygon class="cls-12" points="64.9306640625 101.247782554750302 64.9306640625 93.033915367250302 56.716796875 93.033915367250302 56.716796875 76.607157554750302 48.50390625 76.607157554750302 48.50390625 46.734110679750302 56.716796875 46.734110679750302 56.716796875 30.307352867250302 64.9306640625 30.307352867250302 64.9306640625 22.093485679750302 699.9345703125 22.093485679750302 699.9345703125 30.307352867250302 708.1484375 30.307352867250302 708.1484375 46.734110679750302 716.361328125 46.734110679750302 716.361328125 76.607157554750302 708.1484375 76.607157554750302 708.1484375 93.033915367250302 699.9345703125 93.033915367250302 699.9345703125 101.247782554750302 64.9306640625 101.247782554750302"/>
          <polygon class="cls-12" points="64.9306640625 100.986151911500201 64.9306640625 92.772284724000201 56.716796875 92.772284724000201 56.716796875 76.345526911500201 48.50390625 76.345526911500201 48.50390625 46.472480036500201 56.716796875 46.472480036500201 56.716796875 30.045722224000201 64.9306640625 30.045722224000201 64.9306640625 21.831855036500201 699.9345703125 21.831855036500201 699.9345703125 30.045722224000201 708.1484375 30.045722224000201 708.1484375 46.472480036500201 716.361328125 46.472480036500201 716.361328125 76.345526911500201 708.1484375 76.345526911500201 708.1484375 92.772284724000201 699.9345703125 92.772284724000201 699.9345703125 100.986151911500201 64.9306640625 100.986151911500201"/>
          <polygon class="cls-12" points="64.9306640625 100.724521268250101 64.9306640625 92.510654080750101 56.716796875 92.510654080750101 56.716796875 76.083896268250101 48.50390625 76.083896268250101 48.50390625 46.210849393250101 56.716796875 46.210849393250101 56.716796875 29.784091580750101 64.9306640625 29.784091580750101 64.9306640625 21.570224393250101 699.9345703125 21.570224393250101 699.9345703125 29.784091580750101 708.1484375 29.784091580750101 708.1484375 46.210849393250101 716.361328125 46.210849393250101 716.361328125 76.083896268250101 708.1484375 76.083896268250101 708.1484375 92.510654080750101 699.9345703125 92.510654080750101 699.9345703125 100.724521268250101 64.9306640625 100.724521268250101"/>
          <polygon class="cls-12" points="64.9306640625 100.462890625 64.9306640625 92.2490234375 56.716796875 92.2490234375 56.716796875 75.822265625 48.50390625 75.822265625 48.50390625 45.94921875 56.716796875 45.94921875 56.716796875 29.5224609375 64.9306640625 29.5224609375 64.9306640625 21.30859375 699.9345703125 21.30859375 699.9345703125 29.5224609375 708.1484375 29.5224609375 708.1484375 45.94921875 716.361328125 45.94921875 716.361328125 75.822265625 708.1484375 75.822265625 708.1484375 92.2490234375 699.9345703125 92.2490234375 699.9345703125 100.462890625 64.9306640625 100.462890625"/>
        </g>
        <path class="cls-12" d="M705.531892589900963,48.56535394850107v-16.427087868814851h-8.213543934405607v-8.213703275278021H75.760488864625586c.000010129797374,0-8.213537844414532,0-8.213543934405607,0v8.213703275278021h-8.213543934407426v16.427087868814851h-8.213543934407426v24.640472462346224h8.213583769625984-.000039835218558v16.42708786881667h8.213543934407426v8.213703275276202h629.771403725275377v-8.213703275276202h8.213543934405607v-16.42708786881667h-.000039835218558,8.213583769625984v-24.640472462346224h-8.213543934407426Z"/>
      </g>
      <path class="cls-11" d="M705.531837296770391,48.565237458264164v-16.427001953125h-8.21337890625v-8.213623046875H105.512183976457891c3.075927734375,3.71875,12.9903564453125,16.641845703125,13.3323974609375,35.93212890625.36474609375,20.569580078125-10.4014892578125,34.444580078125-13.3323974609375,37.989990234375h591.8062744140625v-8.2138671875h8.21337890625v-16.427001953125h8.213623046875v-24.640625h-8.213623046875Z"/>
      <g>
        <g>
          <path class="cls-7" d="M118.844566660902274,60.836821691851583c0,1.320599315044092-.046201725306673,2.660449348964903-.136038413404094,3.982332045268777-2.168914326946833,31.883040606076975-29.873265555190301,56.058093373319934-61.756306161265456,53.887895665115138C26.658007478239597,116.645939101010299,2.928288007711672,91.268358094508585,2.928288007711672,60.934358667502238c0-1.320599315045911.046201725308492-2.66044934897036.136038413405913-3.982332045270596C5.23324074806078,25.068986016154668,32.937591976306066.893933248911708,64.820632582381222,3.064130957112866c30.294214607993126,2.061110301227018,54.023934078521052,27.438691307728732,54.023934078521052,57.772690734738717Z"/>
          <g>
            <path class="cls-12" d="M60.9267578125,127.044037059888069c-1.3837890625,0-2.7880859375-.0478515625-4.173828125-.1416015625C24.9287109375,124.736419872388069,0,98.076263622388069,0,66.207122997388069c0-1.3837890625.0478515625-2.791015625.1416015625-4.1806640625C2.306640625,30.201263622388069,28.970703125,5.272552684888069,60.84375,5.272552684888069c1.384765625,0,2.7890625.0478515625,4.17578125.1416015625,31.82421875,2.1650390625,56.75390625,28.8251953125,56.75390625,60.6953125,0,1.3828125-.0478515625,2.7900390625-.1416015625,4.1806640625-2.1650390625,31.8251953125-28.830078125,56.75390625-60.705078125,56.75390625Z"/>
            <path class="cls-12" d="M60.9267578125,126.751117466283176c-1.3837890625,0-2.7880859375-.0478515625-4.173828125-.1416015625C24.9287109375,124.443500278783176,0,97.783344028783176,0,65.914203403783176c0-1.3837890625.0478515625-2.791015625.1416015625-4.1806640625C2.306640625,29.908344028783176,28.970703125,4.979633091283176,60.84375,4.979633091283176c1.384765625,0,2.7890625.0478515625,4.17578125.1416015625,31.82421875,2.1650390625,56.75390625,28.8251953125,56.75390625,60.6953125,0,1.3828125-.0478515625,2.7900390625-.1416015625,4.1806640625-2.1650390625,31.8251953125-28.830078125,56.75390625-60.705078125,56.75390625Z"/>
            <path class="cls-12" d="M60.9267578125,126.458197872678284c-1.3837890625,0-2.7880859375-.0478515625-4.173828125-.1416015625C24.9287109375,124.150580685178284,0,97.490424435178284,0,65.621283810178284c0-1.3837890625.0478515625-2.791015625.1416015625-4.1806640625C2.306640625,29.615424435178284,28.970703125,4.686713497678284,60.84375,4.686713497678284c1.384765625,0,2.7890625.0478515625,4.17578125.1416015625,31.82421875,2.1650390625,56.75390625,28.8251953125,56.75390625,60.6953125,0,1.3828125-.0478515625,2.7900390625-.1416015625,4.1806640625-2.1650390625,31.8251953125-28.830078125,56.75390625-60.705078125,56.75390625Z"/>
            <path class="cls-12" d="M60.9267578125,126.165278279073391c-1.3837890625,0-2.7880859375-.0478515625-4.173828125-.1416015625C24.9287109375,123.857661091573391,0,97.197504841573391,0,65.328364216573391c0-1.3837890625.0478515625-2.791015625.1416015625-4.1806640625C2.306640625,29.322504841573391,28.970703125,4.393793904073391,60.84375,4.393793904073391c1.384765625,0,2.7890625.0478515625,4.17578125.1416015625,31.82421875,2.1650390625,56.75390625,28.8251953125,56.75390625,60.6953125,0,1.3828125-.0478515625,2.7900390625-.1416015625,4.1806640625-2.1650390625,31.8251953125-28.830078125,56.75390625-60.705078125,56.75390625Z"/>
            <path class="cls-12" d="M60.9267578125,125.872358685468498c-1.3837890625,0-2.7880859375-.0478515625-4.173828125-.1416015625C24.9287109375,123.564741497968498,0,96.904585247968498,0,65.035444622968498c0-1.3837890625.0478515625-2.791015625.1416015625-4.1806640625C2.306640625,29.029585247968498,28.970703125,4.100874310468498,60.84375,4.100874310468498c1.384765625,0,2.7890625.0478515625,4.17578125.1416015625,31.82421875,2.1650390625,56.75390625,28.8251953125,56.75390625,60.6953125,0,1.3828125-.0478515625,2.7900390625-.1416015625,4.1806640625-2.1650390625,31.8251953125-28.830078125,56.75390625-60.705078125,56.75390625Z"/>
            <path class="cls-12" d="M60.9267578125,125.579439091863605c-1.3837890625,0-2.7880859375-.0478515625-4.173828125-.1416015625C24.9287109375,123.271821904363605,0,96.611665654363605,0,64.742525029363605c0-1.3837890625.0478515625-2.791015625.1416015625-4.1806640625C2.306640625,28.736665654363605,28.970703125,3.807954716863605,60.84375,3.807954716863605c1.384765625,0,2.7890625.0478515625,4.17578125.1416015625,31.82421875,2.1650390625,56.75390625,28.8251953125,56.75390625,60.6953125,0,1.3828125-.0478515625,2.7900390625-.1416015625,4.1806640625-2.1650390625,31.8251953125-28.830078125,56.75390625-60.705078125,56.75390625Z"/>
            <path class="cls-12" d="M60.9267578125,125.286519498258713c-1.3837890625,0-2.7880859375-.0478515625-4.173828125-.1416015625C24.9287109375,122.978902310758713,0,96.318746060758713,0,64.449605435758713c0-1.3837890625.0478515625-2.791015625.1416015625-4.1806640625C2.306640625,28.443746060758713,28.970703125,3.515035123258713,60.84375,3.515035123258713c1.384765625,0,2.7890625.0478515625,4.17578125.1416015625,31.82421875,2.1650390625,56.75390625,28.8251953125,56.75390625,60.6953125,0,1.3828125-.0478515625,2.7900390625-.1416015625,4.1806640625-2.1650390625,31.8251953125-28.830078125,56.75390625-60.705078125,56.75390625Z"/>
            <path class="cls-12" d="M60.9267578125,124.99359990465382c-1.3837890625,0-2.7880859375-.0478515625-4.173828125-.1416015625C24.9287109375,122.68598271715382,0,96.02582646715382,0,64.15668584215382c0-1.3837890625.0478515625-2.791015625.1416015625-4.1806640625C2.306640625,28.15082646715382,28.970703125,3.22211552965382,60.84375,3.22211552965382c1.384765625,0,2.7890625.0478515625,4.17578125.1416015625,31.82421875,2.1650390625,56.75390625,28.8251953125,56.75390625,60.6953125,0,1.3828125-.0478515625,2.7900390625-.1416015625,4.1806640625-2.1650390625,31.8251953125-28.830078125,56.75390625-60.705078125,56.75390625Z"/>
            <path class="cls-12" d="M60.9267578125,124.700680311048927c-1.3837890625,0-2.7880859375-.0478515625-4.173828125-.1416015625C24.9287109375,122.393063123548927,0,95.732906873548927,0,63.863766248548927c0-1.3837890625.0478515625-2.791015625.1416015625-4.1806640625C2.306640625,27.857906873548927,28.970703125,2.929195936048927,60.84375,2.929195936048927c1.384765625,0,2.7890625.0478515625,4.17578125.1416015625,31.82421875,2.1650390625,56.75390625,28.8251953125,56.75390625,60.6953125,0,1.3828125-.0478515625,2.7900390625-.1416015625,4.1806640625-2.1650390625,31.8251953125-28.830078125,56.75390625-60.705078125,56.75390625Z"/>
            <path class="cls-12" d="M60.9267578125,124.407760717444035c-1.3837890625,0-2.7880859375-.0478515625-4.173828125-.1416015625C24.9287109375,122.100143529944035,0,95.439987279944035,0,63.570846654944035c0-1.3837890625.0478515625-2.791015625.1416015625-4.1806640625C2.306640625,27.564987279944035,28.970703125,2.636276342444035,60.84375,2.636276342444035c1.384765625,0,2.7890625.0478515625,4.17578125.1416015625,31.82421875,2.1650390625,56.75390625,28.8251953125,56.75390625,60.6953125,0,1.3828125-.0478515625,2.7900390625-.1416015625,4.1806640625-2.1650390625,31.8251953125-28.830078125,56.75390625-60.705078125,56.75390625Z"/>
            <path class="cls-12" d="M60.9267578125,124.114841123839142c-1.3837890625,0-2.7880859375-.0478515625-4.173828125-.1416015625C24.9287109375,121.807223936339142,0,95.147067686339142,0,63.277927061339142c0-1.3837890625.0478515625-2.791015625.1416015625-4.1806640625C2.306640625,27.272067686339142,28.970703125,2.343356748839142,60.84375,2.343356748839142c1.384765625,0,2.7890625.0478515625,4.17578125.1416015625,31.82421875,2.1650390625,56.75390625,28.8251953125,56.75390625,60.6953125,0,1.3828125-.0478515625,2.7900390625-.1416015625,4.1806640625-2.1650390625,31.8251953125-28.830078125,56.75390625-60.705078125,56.75390625Z"/>
            <path class="cls-12" d="M60.9267578125,123.821921530234249c-1.3837890625,0-2.7880859375-.0478515625-4.173828125-.1416015625C24.9287109375,121.514304342734249,0,94.854148092734249,0,62.985007467734249c0-1.3837890625.0478515625-2.791015625.1416015625-4.1806640625C2.306640625,26.979148092734249,28.970703125,2.050437155234249,60.84375,2.050437155234249c1.384765625,0,2.7890625.0478515625,4.17578125.1416015625,31.82421875,2.1650390625,56.75390625,28.8251953125,56.75390625,60.6953125,0,1.3828125-.0478515625,2.7900390625-.1416015625,4.1806640625-2.1650390625,31.8251953125-28.830078125,56.75390625-60.705078125,56.75390625Z"/>
            <path class="cls-12" d="M60.9267578125,123.529001936629356c-1.3837890625,0-2.7880859375-.0478515625-4.173828125-.1416015625C24.9287109375,121.221384749129356,0,94.561228499129356,0,62.692087874129356c0-1.3837890625.0478515625-2.791015625.1416015625-4.1806640625C2.306640625,26.686228499129356,28.970703125,1.757517561629356,60.84375,1.757517561629356c1.384765625,0,2.7890625.0478515625,4.17578125.1416015625,31.82421875,2.1650390625,56.75390625,28.8251953125,56.75390625,60.6953125,0,1.3828125-.0478515625,2.7900390625-.1416015625,4.1806640625-2.1650390625,31.8251953125-28.830078125,56.75390625-60.705078125,56.75390625Z"/>
            <path class="cls-12" d="M60.9267578125,123.236082343024464c-1.3837890625,0-2.7880859375-.0478515625-4.173828125-.1416015625C24.9287109375,120.928465155524464,0,94.268308905524464,0,62.399168280524464c0-1.3837890625.0478515625-2.791015625.1416015625-4.1806640625C2.306640625,26.393308905524464,28.970703125,1.464597968024464,60.84375,1.464597968024464c1.384765625,0,2.7890625.0478515625,4.17578125.1416015625,31.82421875,2.1650390625,56.75390625,28.8251953125,56.75390625,60.6953125,0,1.3828125-.0478515625,2.7900390625-.1416015625,4.1806640625-2.1650390625,31.8251953125-28.830078125,56.75390625-60.705078125,56.75390625Z"/>
            <path class="cls-12" d="M60.9267578125,122.943162749419571c-1.3837890625,0-2.7880859375-.0478515625-4.173828125-.1416015625C24.9287109375,120.635545561919571,0,93.975389311919571,0,62.106248686919571c0-1.3837890625.0478515625-2.791015625.1416015625-4.1806640625C2.306640625,26.100389311919571,28.970703125,1.171678374419571,60.84375,1.171678374419571c1.384765625,0,2.7890625.0478515625,4.17578125.1416015625,31.82421875,2.1650390625,56.75390625,28.8251953125,56.75390625,60.6953125,0,1.3828125-.0478515625,2.7900390625-.1416015625,4.1806640625-2.1650390625,31.8251953125-28.830078125,56.75390625-60.705078125,56.75390625Z"/>
            <path class="cls-12" d="M60.9267578125,122.650243155814678c-1.3837890625,0-2.7880859375-.0478515625-4.173828125-.1416015625C24.9287109375,120.342625968314678,0,93.682469718314678,0,61.813329093314678c0-1.3837890625.0478515625-2.791015625.1416015625-4.1806640625C2.306640625,25.807469718314678,28.970703125.878758780814678,60.84375.878758780814678c1.384765625,0,2.7890625.0478515625,4.17578125.1416015625,31.82421875,2.1650390625,56.75390625,28.8251953125,56.75390625,60.6953125,0,1.3828125-.0478515625,2.7900390625-.1416015625,4.1806640625-2.1650390625,31.8251953125-28.830078125,56.75390625-60.705078125,56.75390625Z"/>
            <path class="cls-12" d="M60.9267578125,122.357323562209785c-1.3837890625,0-2.7880859375-.0478515625-4.173828125-.1416015625C24.9287109375,120.049706374709785,0,93.389550124709785,0,61.520409499709785c0-1.3837890625.0478515625-2.791015625.1416015625-4.1806640625C2.306640625,25.514550124709785,28.970703125.585839187209785,60.84375.585839187209785c1.384765625,0,2.7890625.0478515625,4.17578125.1416015625,31.82421875,2.1650390625,56.75390625,28.8251953125,56.75390625,60.6953125,0,1.3828125-.0478515625,2.7900390625-.1416015625,4.1806640625-2.1650390625,31.8251953125-28.830078125,56.75390625-60.705078125,56.75390625Z"/>
            <path class="cls-12" d="M60.9267578125,122.064403968604893c-1.3837890625,0-2.7880859375-.0478515625-4.173828125-.1416015625C24.9287109375,119.756786781104893,0,93.096630531104893,0,61.227489906104893c0-1.3837890625.0478515625-2.791015625.1416015625-4.1806640625C2.306640625,25.221630531104893,28.970703125.292919593604893,60.84375.292919593604893c1.384765625,0,2.7890625.0478515625,4.17578125.1416015625,31.82421875,2.1650390625,56.75390625,28.8251953125,56.75390625,60.6953125,0,1.3828125-.0478515625,2.7900390625-.1416015625,4.1806640625-2.1650390625,31.8251953125-28.830078125,56.75390625-60.705078125,56.75390625Z"/>
            <path class="cls-12" d="M60.9267578125,121.771484375c-1.3837890625,0-2.7880859375-.0478515625-4.173828125-.1416015625C24.9287109375,119.4638671875,0,92.8037109375,0,60.9345703125c0-1.3837890625.0478515625-2.791015625.1416015625-4.1806640625C2.306640625,24.9287109375,28.970703125,0,60.84375,0c1.384765625,0,2.7890625.0478515625,4.17578125.1416015625,31.82421875,2.1650390625,56.75390625,28.8251953125,56.75390625,60.6953125,0,1.3828125-.0478515625,2.7900390625-.1416015625,4.1806640625-2.1650390625,31.8251953125-28.830078125,56.75390625-60.705078125,56.75390625Z"/>
          </g>
          <path class="cls-11" d="M118.844566660902274,60.836821691851583c0,1.320599315044092-.046201725306673,2.660449348964903-.136038413404094,3.982332045268777-2.168914326946833,31.883040606076975-29.873265555190301,56.058093373319934-61.756306161265456,53.887895665115138C26.658007478239597,116.645939101010299,2.928288007711672,91.268358094508585,2.928288007711672,60.934358667502238c0-1.320599315045911.046201725308492-2.66044934897036.136038413405913-3.982332045270596C5.23324074806078,25.068986016154668,32.937591976306066.893933248911708,64.820632582381222,3.064130957112866c30.294214607993126,2.061110301227018,54.023934078521052,27.438691307728732,54.023934078521052,57.772690734738717Z"/>
        </g>
        <g>
          <path class="cls-11" d="M112.346976654824175,60.842289045405778c0,1.172549135877489-.041022127203178,2.362190824755089-.120787374540669,3.535879464168829-1.925760971464115,28.308686280477559-26.52422374715934,49.773514339305621-54.832910027640537,47.846613864308893-26.897980906122029-1.830042674655488-47.967401238853199-24.362585544284229-47.967401238853199-51.295891059939095,0-1.172549135879308.041022127204997-2.362190824755089.120787374542488-3.535879464168829,1.925760971460477-28.308686280479378,26.52422374715934-49.773514339303802,54.832910027640537-47.846613864310712,26.897980906118391,1.830042674655488,47.96740123885138,24.362585544284229,47.96740123885138,51.295891059940914Z"/>
          <g class="cls-16">
            <g>
              <path class="cls-9" d="M73.163579126288823,73.597258687166686c-.058100585731154.072840177592298-.085497755340839,29.51500966992171-.695801035762997,35.877806456765029-.1767196367,1.842414886659753-.351119887134701,3.727390009415103.051587186098914,5.528002295433907.402707073228157,1.80061228602608,1.500517110393048,3.532101539643918,3.133605458200691,4.105770453692458,1.745066820436477.613005012068243,3.321731898173311.363687908638894,3.850905415058151-1.513255244839456,1.442147490273783-5.115200915821333,1.072372073442239,8.968966320766413,12.866615085766171,3.871616695634657,3.754040287152748-1.622457315017527,3.105888107122155-4.423918573984338,3.023151806273745-6.69891799317702-.223082831298598-6.134106872648772-11.201378296149414-47.304457267091493-12.914044703686159-53.158838378130895"/>
              <g>
                <path class="cls-15" d="M92.692062013402392,87.708396434349197c4.283228907341254-5.624850355858143,2.131697185017401-12.636025689289454,2.131697185017401-12.636025689289454l-.019895193398042.004973798335413c-.034816588440663-.278259755177714-.08940705812347-.55157604005035-.154066436660287-.824861996889013-.670795560234183-2.717998829399221-2.474525334611826-4.775149695255095-4.486972671407784-6.623582998692655-.17885196428324-.164018414327074-.362801196177315-.328036828655968-.546628036163384-.492054931130042-.572291326896448-.510622591915308-.693708661283381-1.355588250191431-.292893314604953-2.00949944606873,1.286137580726063-2.098272360186456,3.567215570414191-6.700254376610246,3.771272197011058-7.257462575720638,1.113039020739961-3.090700097134686,1.699340665129057-6.365218436902069,1.793721521602492-9.649684373369382.054711781835067-1.868328496828326-.382618536397786-5.79380785952344-1.132873558060965-6.976419401069506l.004913142269288-.004973798348146c-.004913142269288-.009917268665959-.014860738969219-.014891067010467-.024808335665512-.024838663704941-.064598722457959-.099384982859192-.134110587187024-.178874772323979-.203743764068349-.233525898085645-10.181365220032603-11.408710618679834-24.75028780057437-18.275797440193855-41.267058995452317-18.226089784742726-30.578912248534834.094380856473435-55.508105149472613,25.326702504336936-55.244766789335699,55.905584424835979.034786260403052,4.367722823191798.576414703764385,8.61616547012818,1.570203876293817,12.690707143090549,2.722972627743729,11.681996575514859,8.94907635106938,26.221106694007176,16.288188767102838,35.711811488439707l24.03976250962296.019864865354975,6.916794476959694.004973798351784,2.156505520673818-.009947596699931c.019895193396223-.467082124210719-.01489106700501-1.182611541547885-.367697141346071-1.913032025895518-.790075736496874-1.614907405350095-2.429821805555548-1.798755976025859-2.767706484841256-3.160242289901362-.178874772327617-.720503215685312.178874772320341-1.301861389760234.337884679285708-1.838516034777058.203743764075625-.675769358585967.367697141351528-1.361486313871865.491920787917479-2.052177067509547l.362753671037353.074546319159708c4.501863738416432.317989485893122,9.02362267022545.402483401745485,13.530429878956056.25836456178331l-.645926568500727.124223646567771c1.749078648621435,3.090700097134686,3.622320287726325,5.967708833501092,5.575142700407014,8.491941823565867l14.14657431343403.014891067006829.144118839963994.258394889830015c.004973798349965-.069572520806105.014921395049896-.159009906967185.014921395049896-.258394889830015l6.916733820879017.009947596699931,1.321510389670948-.00608187747639c.497941472927778-.002291634673384.868279163460102-.453241383806017.781686331331002-.943601092048993-.054083583474494-.306265652252478-.150241909563192-.638214209355283-.314388341672384-.973296653070065-.785071610105661-1.614907405350095-2.42982180555191-1.798755976025859-2.762702358457318-3.160242289901362-.1789354283992-.720503215685312.178874772325798-1.301861389760234.337854351255373-1.838516034777058.650961022920455-2.186348310769972.914329711100436-4.491916141716501.77021087114008-6.767701838649373l-.58138850211617.109302251516056c.531650518621973-.313046015582586,1.053414096631968-.650930694877388,1.560256279593887-1.018627836227097,3.696866606876938-2.673295300335667,6.404978495647811-6.68821204919368,7.498182979075864-11.120503266798551,1.08817002899923-4.427317419262181.556458854291122-9.242227173268475-1.480796818168528-13.32671644291986l-.168927175631325-.332910880944837Z"/>
                <g class="cls-13">
                  <path class="cls-8" d="M-8.729284318713326,90.022361131452271c1.805204286622029-11.520023813296575,8.541130771547614-21.708866182128986,16.617254804024924-21.708866182128986,5.751111172954552,0,8.510902418300248,5.206863080633411,7.816723669582643,10.631529681139-1.378712731153428,10.773964080859514-13.287379053559562,16.733440688551127-14.589845598922693,25.919678513007966-.664524973042717,6.507689719941482,3.719481483096388,10.365634510289965,8.649273749713757,10.365634510289965,9.210778223701709,0,6.462980720487394-7.2041559380541,13.131502961730803-23.534664772587348,3.974522858818091-9.489532960105862,7.704493688524963-11.716056655082866,2.754134780710956-19.338445172292268-1.413373721685275-2.604373010446579-3.759906702838634-4.474587414923008-5.657983445704303-6.906790609222298-1.886259242448432-2.417060201565619-3.882099865386408-4.819118392817472-4.148279641576664-8.324619500988774-.428817349717065-2.226884905114275-.081023522445321-4.85445154579611-1.297643696432715-6.504789948441612-2.034792573769664-2.59834546523598-5.604081536544982-.959260771405752-8.769011958664123-1.369743531102358-4.35435626625258-.410039965156102-6.729142275207778-5.834451628785246-5.894509098714479-11.182149839067279,1.754951262926625-11.244400524858065,12.536524094113702-19.39567221280231,23.764363270342074-19.39567221280231,9.509214780880939,0,16.067095569596859,5.201098312092654,15.199846278434052,13.469649127753655-.413276393173874,3.940270569059066-3.071695126589475,7.922548654292768-6.727440612470673,7.922548654292768-3.066130602450357,0-5.725260688137496-2.394407806663367-6.513114614846927-5.563427003578909-1.788285083604933-6.258045897908232-1.270858654137555-10.372151040164681-7.157619047424305-10.372151040164681-6.002148719957404,0-9.15522971232167,5.020074361866136-9.970780762379945,10.63530379889562-1.609657307237285,11.082807255657826,8.333459583907825,6.905136227605908,11.184251605782265,18.886638239589956.782260162088278,3.334283382147987,1.173142878693398,6.979294862796451,3.339354195886699,9.098076138550823,1.149948355063316,1.560995725430985,2.99783065182055,2.41528856417608,4.784194042453237,3.843032088023392,5.613860389919864,4.604409190464139,6.245653604253675,13.830830185048399,5.178393325923025,24.03687873045601-1.719697015660131,16.445202338931267-10.107985536515116,31.603597057821389-23.060173895626576,31.603597057821389-14.129827962495256,0-21.205931744705595-15.791222246341931-18.632890311821029-32.211246727443722Z"/>
                </g>
              </g>
              <g>
                <path class="cls-14" d="M94.776571991391393,75.316485342023952c.182760896290347,1.42111851671325-.049394836838474,2.872050708590905-.780438422010775,4.109318228389384-1.634969099273803,2.757764953756123-4.618417244168086,2.852174925144936-7.305496368049717,2.643479198915884-5.803893328227787-.442236181772387-11.523815433843993-1.92795099470095-16.818941942668971-4.347827629793755-1.98567244080914-.904348146998018-3.912071077409564-1.937888886430301-5.759437975078981-3.095653272423078-2.272162494458826-1.426087462565192-4.3763825436763-3.691926775924003-4.855512460979298-6.052176060675265-.044455353152443-.21366467209009-.054334320519047-.457143019360956-.029636902101629-.72049715007779l-.034576385787659-.059627350350638c.009878967370241-.004968945861037.024697418419237-.01490683758675.039515869464594-.019875783451425,5.86810661612617-3.522982616601439,12.95626570209788-4.800001703293674,19.713479381263824-3.826088314217486,3.94170797951665.556521936607169,7.769807834310996,1.883230481931605,11.168172608624445,3.975156690103177l.049394836840293-.054658404496877c2.000490891859954,1.848447860898887,3.793523469004867,3.905591448025007,4.460353766291519,6.623604834880098.064213287883831.273292022444366.118547608408335.546584044886913.153123994192356.824845013197773Z"/>
                <path class="cls-10" d="M94.776571991391393,75.316485342023952c.182760896290347,1.42111851671325-.049394836838474,2.872050708590905-.780438422010775,4.109318228389384-1.634969099273803,2.757764953756123-4.618417244168086,2.852174925144936-7.305496368049717,2.643479198915884-5.803893328227787-.442236181772387-11.523815433843993-1.92795099470095-16.818941942668971-4.347827629793755-1.98567244080914-.904348146998018-3.912071077409564-1.937888886430301-5.759437975078981-3.095653272423078-2.272162494458826-1.426087462565192-4.3763825436763-3.691926775924003-4.855512460979298-6.052176060675265-.044455353152443-.21366467209009-.054334320519047-.457143019360956-.029636902101629-.72049715007779l-.034576385787659-.059627350350638c.009878967370241-.004968945861037.024697418419237-.01490683758675.039515869464594-.019875783451425,5.86810661612617-3.522982616601439,12.95626570209788-4.800001703293674,19.713479381263824-3.826088314217486,3.94170797951665.556521936607169,7.769807834310996,1.883230481931605,11.168172608624445,3.975156690103177l.049394836840293-.054658404496877c2.000490891859954,1.848447860898887,3.793523469004867,3.905591448025007,4.460353766291519,6.623604834880098.064213287883831.273292022444366.118547608408335.546584044886913.153123994192356.824845013197773Z"/>
              </g>
              <path d="M94.083377763050521,41.482932963410349c.750310825254928,1.182609115303421,1.187578061166278,5.108076346779853,1.132919656676677,6.976399991126527-.094409971394271,3.284473215195248-.680745583176758,6.559008538668422-1.793789456407467,9.649692865215911-.203726780364377.556521936618083-2.4795039854489,5.147827913679066-3.766460963872305,7.249692013565436-.402484614867717.655900853869753-.288198860027478,1.505590596383627.288198860032935,2.017392020226907.183850996923866.163975213468802.367701993838637.327950426933967.546584044896008.49192564040095l-.049689458628563.054658404496877c-3.418634753485094-2.091926208171571-7.269567797022319-3.418634753496008-11.234786595394326-3.975156690103177-6.797517940072794-.973913389076188-13.927955252940592.303105697616047-19.831062937735624,3.826088314217486.730435041805322-7.055903124928591,23.31926293329343-29.793799392293295,34.350322748328836-26.623611931941923.044720512758431.014906837588569.089441025522319.034782621038175.13416153828075.06956524207817.069565242081808.054658404487782.139130484152702.134161538291664.203726780369834.233540455543334.00993789173117.009937891722075.014906837588569.019875783451425.019875783453244.0298136751735Z"/>
              <g>
                <path class="cls-3" d="M93.859775199227442,41.219578832693514c-10.181370072516074-11.408699700588841-24.750319341732393-18.27578288272889-41.267095389093811-18.226093424103965-30.578892838591855.094409971383357-55.508094231381619,25.326717061790987-55.24474010065569,55.90560990038648.034782621034537,4.367703413250638.576397720062232,8.616152125787266,1.570186892584388,12.690687733142113,2.722982332719766,11.681991723031388,8.94907149858409,26.221127317068749,16.28820453768094,35.711813914680533l24.039760083378496.019875783453244,6.916772640775889.004968945864675,1.469307382016268-.0067710017629c.398404968014802-.001835967597799.708151309589084-.349402708390699.65918860853526-.744791811961477-.044396200304618-.358513183784453-.142233902482985-.762631743622478-.339675480010555-1.171419235113717-.790062392152322-1.614907405357371-2.42981452681488-1.798758402268504-2.767702845481836-3.160249568629297-.178882051051914-.72049715007779.178882051057371-1.301863816010155.337888318666955-1.838509969167717.203726780362558-.67577663731754.367701993827723-1.356522220503393.491925640393674-2.047205695400407v-.004968945864675c.283229914171898-1.555280055004914.377639885558892-3.140373785181509.278260968307222-4.715529623632392"/>
                <path class="cls-2" d="M94.088346708911558,41.477964017545673c-.004968945861037-.009937891722075-.014906837583112-.01490683758675-.024844729314282-.024844729308825"/>
                <path class="cls-5" d="M59.378061334051381,67.762837693600886c-.024844729312463.263354130722291-.022646204886769.597123440746145.022074307880757.810788112836235.481987748673419,2.360249284751262,2.598758686150177,4.626088598110073,4.884473782949499,6.052176060675265,1.858385752628237,1.157764385992778,3.796274639051262,2.19130512542506,5.793790875828563,3.095653272423078,5.3267099647328,2.419876635092805,11.080749273651236,3.905591448021369,16.91926066223823,4.347827629793755,2.703106549266522.208695726229053,5.704349850291692.114285754840239,7.349070930824382-2.643479198915884.735403987666359-1.237267519798479.968944443204236-2.688199711676134.785093446289466-4.109318228389384-.034782621036356-.27826096831086-.089441025522319-.551552990753407-.15403732174309-.824845013197773-.670807691452865-2.718013386855091-2.474535039586044-4.775156973981211-4.486958113942819-6.623604834880098-.178882051057371-.163975213466983-.362733047972142-.327950426932148-.546584044896008-.49192564040095-.576397720060413-.511801423843281-.690683474900652-1.361491166357155-.288198860032935-2.017392020226907,1.286956978423405-2.10186409988637,3.562734183507928-6.693170076947354,3.766460963872305-7.249692013565436,1.113043873230708-3.090684326547489,1.699379485013196-6.365219650020663,1.793789456407467-9.649692865215911.054658404489601-1.868323644346674-.382608831421749-5.793790875823106-1.132919656676677-6.976399991126527-.004968945864675-.009937891722075-.009937891722075-.019875783451425-.019875783453244-.0298136751735-.064596296217132-.09937891725167-.134161538288026-.178882051055552-.203726780369834-.233540455543334-.044720512758431-.034782621039994-.089441025522319-.054658404489601-.13416153828075-.06956524207817-11.031059815035405-3.170187460351372-33.619887706523514,19.567708807013332-34.350322748328836,26.623611931941923"/>
                <path class="cls-4" d="M59.236160428465155,67.853128656359331c.029813675175319-.019875783449606.064596296215313-.039751566902851.099378917249851-.059627350350638h.004968945862856c.009937891725713-.004968945861037.019875783453244-.01490683758675.034782621039994-.019875783451425,5.903107684795032-3.522982616601439,13.03354499766283-4.800001703293674,19.831062937735624-3.826088314217486,3.965218798372007.556521936607169,7.816151841909232,1.883230481931605,11.234786595394326,3.975156690103177"/>
                <path class="cls-4" d="M86.192691733202082,113.636995834584013c.144099430019196,2.275777205079066-.119254700704914,4.581368085335271-.770186608706354,6.767704264897475-.159006267604127.536646153157562-.516770369715232,1.118012819089927-.337888318661498,1.838509969167717.332919372796823,1.361491166360793,1.977640453324057,1.545342163271926,2.762733899622617,3.160249568629297.156202531354211.318913501527277.250836327246361.634985369102651.306233610017443.928778298111865.096648982878833.512566435547342-.2974205300834.985938768697451-.819013882914078.988336899059505l-1.276040237647976.005866851666724s-4.417392871875563-.004968945864675-6.514288025902715-.009937891725713h-1.07329230632422c-3.229814810707467-.004968945862856-13.634787447046619-.014906837592207-13.634787447046619-.014906837592207-1.952795724009775-2.524224498207332-3.826088314215667-5.401244152673826-5.575157257866522-8.491928479223134"/>
                <path class="cls-2" d="M83.628715668084624,127.316503794390883c-.004968945864675-.412422506598887-.059627350350638-1.103105981503177-.407453560732392-1.858385752628237-.511801423848738-1.127950710810182-1.351553274629623-1.734162106049553-1.724224214332935-1.967702561591068"/>
                <path class="cls-5" d="M93.020023348446557,87.947545724811789l.16894415932984.332919372796823c2.037267803674695,4.084473499076921,2.568945010982134,8.899382039962802,1.480745867062069,13.32671280356044-1.093168089779283,4.432299709458675-3.80124358491048,8.447207966462884-7.498139306700978,11.120500840557725-.357764102111105.258385184852159-.720497150079609.501863532124844-1.088199143918246.73540398766454-.15900626759867.094409971386995-.313043589336303.188819942779446-.472049856944068.28322991416826-4.417392871877382,2.613665523738746-9.709320215566549,3.567703129365327-14.852179183386397,4.154038741155091-3.602485750401684.40745356073603-7.224847284254793.670807691452865-10.852177763968939.785093446294923-.218633617954765.004968945866494-.427329344189275.014906837590388-.645962962147678.014906837590388h-.00496894585558c-4.288200279450393.119254700701276-8.596276342346755.029813675169862-12.879507675927016-.273292022446185"/>
                <path class="cls-3" d="M95.151701123510065,75.311516396161096s2.151553558520391,7.011182612157427-2.131677775063508,12.636029328650693c-1.654658972252946,2.171429341968178-4.26832449599533,4.134162957707304-8.32795326575615,5.411182044403176"/>
                <path class="cls-2" d="M39.246091223121766,127.32147274025192c.014906837588569-.402484614874993-.029813675177138-1.008696010110725-.318012535210073-1.65962791811944-.526708261437307-1.207453844617703-1.520497433959463-1.759006835363834-1.828572077440185-1.913044157106924"/>
                <path class="cls-2" d="M79.544242169009522,127.32147274025192v-.004968945861037c.014906837592207-.402484614869536-.029813675171681-1.008696010118001-.318012535204616-1.654658972258403-.526708261439126-1.207453844617703-1.52049743396492-1.759006835363834-1.828572077447461-1.913044157106924"/>
                <path class="cls-2" d="M43.728080391212643,127.316503794390883c0-.412422506598887-.059627350356095-1.103105981503177-.40248461488045-1.858385752628237-.516770369707956-1.127950710810182-1.356522220487022-1.734162106049553-1.729193160186696-1.967702561591068"/>
              </g>
              <path d="M49.790358346836001,38.40562308797962c4.582059155969546-.643359954148764,9.200503640628085,3.435107150604381,9.469860842129492,8.590905378119714s-3.537074837257023,9.545667779544601-8.501903915617731,9.805048074795195c-4.96482907835707.259380295243318-9.207975427652855-3.709950707328971-9.4773326291579-8.865748934844305-.269357201501407-5.155798227511696,2.893953532100568-8.74175163538348,8.509375702646139-9.530204518070605Z"/>
              <path class="cls-11" d="M46.271128643953489,43.525751486176887c1.008210385814891-.141561286205615,2.024426793599559.755841552396305,2.083694629041929,1.890294239103241s-.778277945555601,2.100374758872931-1.87071086058495,2.157447332283482-2.026070843363414-.816316574419034-2.085338678807602-1.95076926112597c-.05926783544237-1.134452686706936.636769170325351-1.92348559653874,1.872354910350623-2.096972310260753Z"/>
              <path class="cls-3" d="M79.204967701523856,40.167659482020099c.992185645547579-1.30968605921953,2.668852153959961-2.068745213247894,4.307646257359011-1.950154254012887"/>
              <g>
                <g>
                  <path class="cls-9" d="M21.013001320956391,78.062809535254928c.058100585722059.072840177586841.085497754003882,29.515009669919891.695801034145916,35.877806456790495.176719636616326,1.842414886677943.351119886965535,3.727390009433293-.05158718633902,5.528002295437545-.402707073317288,1.800612286000614-1.500517110560395,3.532101539569339-3.133605458389866,4.105770453550576-1.745066820469219.61300501198275-3.321731898191501.363687908486099-3.850905414996305-1.513255245014079-1.442147490046409-5.115200915886817-1.072372073851511,8.968966320722757-12.866615085940794,3.871616695059856-3.754040287074531-1.622457315186693-3.105888106920247-4.4239185741244-3.023151805969974-6.698917993315263.223082831575084-6.134106872636039,11.201378298273994-47.304457266585814,12.914044706070854-53.158838377546999"/>
                  <path class="cls-2" d="M2.842366771270463,126.0598098647406c-.789390827976604-1.526703626988819-.95708880777056-3.363705405827204-.457184910894284-5.008107405894407"/>
                  <path class="cls-2" d="M7.478245614114712,126.478760638054155c-.50791997532906-1.462662423964503-.410429673713224-3.125455472345493.264935829773094-4.518741338397376"/>
                </g>
                <g>
                  <path class="cls-5" d="M21.013001320956391,78.062809535254928c.058100585722059.072840177586841.085497754003882,29.515009669919891.695801034145916,35.877806456790495.176719636616326,1.842414886677943.351119886965535,3.727390009433293-.05158718633902,5.528002295437545-.402707073317288,1.800612286000614-1.500517110560395,3.532101539569339-3.133605458389866,4.105770453550576-1.745066820469219.61300501198275-3.321731898191501.363687908486099-3.850905414996305-1.513255245014079-1.442147490046409-5.115200915886817-1.072372073851511,8.968966320722757-12.866615085940794,3.871616695059856-3.754040287074531-1.622457315186693-3.105888106920247-4.4239185741244-3.023151805969974-6.698917993315263.223082831575084-6.134106872636039,11.201378298273994-47.304457266585814,12.914044706070854-53.158838377546999"/>
                  <path class="cls-5" d="M2.842366771270463,126.0598098647406c-.789390827976604-1.526703626988819-.95708880777056-3.363705405827204-.457184910894284-5.008107405894407"/>
                  <path class="cls-5" d="M7.478245614114712,126.478760638054155c-.50791997532906-1.462662423964503-.410429673713224-3.125455472345493.264935829773094-4.518741338397376"/>
                </g>
              </g>
              <path class="cls-1" d="M13.19276087489925,39.388947115276096l.775107969582677-.200004644148066"/>
            </g>
          </g>
        </g>
      </g>
    </g>
  </g>
</svg>