<?xml version="1.0" encoding="UTF-8"?>
<svg id="Livello_2" data-name="Livello 2" xmlns="http://www.w3.org/2000/svg" width="99.487908102742949" height="103.128891924254276" viewBox="0 0 99.487908102742949 103.128891924254276">
  <defs>
    <style>
      .cls-1 {
        fill: #f96c03;
      }

      .cls-2 {
        fill: #f7f0d0;
      }

      .cls-3 {
        fill: #020101;
      }
    </style>
  </defs>
  <g id="Livello_1-2" data-name="Livello 1">
    <g>
      <g>
        <path d="M49.783993113871475,98.678799401617653c-1.1044921875,0-2.2353515625-.0380859375-3.3603515625-.11328125-13.021484375-.88671875-24.9296875-6.8037109375-33.533203125-16.6630859375C4.287899363871475,72.043057214117653.037899363871475,59.442471276617653.924618113871475,46.422940026617653,2.664852488871475,20.844815026617653,24.091610301371475.809658776617653,49.703914988871475.809658776617653c1.1044921875,0,2.2353515625.0380859375,3.3603515625.11328125,13.021484375.88671875,24.9296875,6.8037109375,33.533203125,16.6630859375,8.6025390625,9.859375,12.8525390625,22.4599609375,11.9658203125,35.4794921875-1.740234375,25.578125-23.1669921875,45.61328125-48.779296875,45.61328125ZM49.703914988871475,3.235440026617653C25.362118113871475,3.235440026617653,4.998836863871475,22.278408776617653,3.344539988871475,46.587002526617653c-.841796875,12.3740234375,3.197265625,24.3486328125,11.375,33.7197265625,8.1767578125,9.37109375,19.494140625,14.9951171875,31.8671875,15.837890625,1.0703125.0712890625,2.146484375.1083984375,3.197265625.1083984375,24.341796875,0,44.705078125-19.04296875,46.359375-43.3515625.841796875-12.3740234375-3.197265625-24.3486328125-11.375-33.7197265625-8.1767578125-9.37109375-19.494140625-14.9951171875-31.8671875-15.837890625-1.0703125-.0712890625-2.146484375-.1083984375-3.197265625-.1083984375Z"/>
        <g>
          <path class="cls-3" d="M49.783993113871475,103.128891924254276c-1.1279296875,0-2.2783203125-.0400390625-3.4169921875-.1171875-13.2353515625-.900390625-25.3408203125-6.916015625-34.0859375-16.9384765625S-.783389698628525,63.242173174254276.117000926371475,50.006821611754276C1.886532176371475,24.006821611754276,23.667782176371475,3.639634111754276,49.703914988871475,3.639634111754276c1.123046875,0,2.271484375.0390625,3.4150390625.1162109375,13.2373046875.900390625,25.3427734375,6.916015625,34.087890625,16.9384765625s13.064453125,22.8310546875,12.1640625,36.06640625c-1.76953125,26-23.55078125,46.3681640625-49.5869140625,46.3681640625Z"/>
          <path class="cls-3" d="M49.783993113871475,102.926690029156816c-1.1279296875,0-2.2783203125-.0400390625-3.4169921875-.1171875-13.2353515625-.900390625-25.3408203125-6.916015625-34.0859375-16.9384765625S-.783389698628525,63.039971279156816.117000926371475,49.804619716656816C1.886532176371475,23.804619716656816,23.667782176371475,3.437432216656816,49.703914988871475,3.437432216656816c1.123046875,0,2.271484375.0390625,3.4150390625.1162109375,13.2373046875.900390625,25.3427734375,6.916015625,34.087890625,16.9384765625s13.064453125,22.8310546875,12.1640625,36.06640625c-1.76953125,26-23.55078125,46.3681640625-49.5869140625,46.3681640625Z"/>
          <path class="cls-3" d="M49.783993113871475,102.724488134059357c-1.1279296875,0-2.2783203125-.0400390625-3.4169921875-.1171875-13.2353515625-.900390625-25.3408203125-6.916015625-34.0859375-16.9384765625S-.783389698628525,62.837769384059357.117000926371475,49.602417821559357C1.886532176371475,23.602417821559357,23.667782176371475,3.235230321559357,49.703914988871475,3.235230321559357c1.123046875,0,2.271484375.0390625,3.4150390625.1162109375,13.2373046875.900390625,25.3427734375,6.916015625,34.087890625,16.9384765625s13.064453125,22.8310546875,12.1640625,36.06640625c-1.76953125,26-23.55078125,46.3681640625-49.5869140625,46.3681640625Z"/>
          <path class="cls-3" d="M49.783993113871475,102.522286238961897c-1.1279296875,0-2.2783203125-.0400390625-3.4169921875-.1171875-13.2353515625-.900390625-25.3408203125-6.916015625-34.0859375-16.9384765625S-.783389698628525,62.635567488961897.117000926371475,49.400215926461897C1.886532176371475,23.400215926461897,23.667782176371475,3.033028426461897,49.703914988871475,3.033028426461897c1.123046875,0,2.271484375.0390625,3.4150390625.1162109375,13.2373046875.900390625,25.3427734375,6.916015625,34.087890625,16.9384765625s13.064453125,22.8310546875,12.1640625,36.06640625c-1.76953125,26-23.55078125,46.3681640625-49.5869140625,46.3681640625Z"/>
          <path class="cls-3" d="M49.783993113871475,102.320084343864437c-1.1279296875,0-2.2783203125-.0400390625-3.4169921875-.1171875-13.2353515625-.900390625-25.3408203125-6.916015625-34.0859375-16.9384765625S-.783389698628525,62.433365593864437.117000926371475,49.198014031364437C1.886532176371475,23.198014031364437,23.667782176371475,2.830826531364437,49.703914988871475,2.830826531364437c1.123046875,0,2.271484375.0390625,3.4150390625.1162109375,13.2373046875.900390625,25.3427734375,6.916015625,34.087890625,16.9384765625s13.064453125,22.8310546875,12.1640625,36.06640625c-1.76953125,26-23.55078125,46.3681640625-49.5869140625,46.3681640625Z"/>
          <path class="cls-3" d="M49.783993113871475,102.117882448766977c-1.1279296875,0-2.2783203125-.0400390625-3.4169921875-.1171875-13.2353515625-.900390625-25.3408203125-6.916015625-34.0859375-16.9384765625S-.783389698628525,62.231163698766977.117000926371475,48.995812136266977C1.886532176371475,22.995812136266977,23.667782176371475,2.628624636266977,49.703914988871475,2.628624636266977c1.123046875,0,2.271484375.0390625,3.4150390625.1162109375,13.2373046875.900390625,25.3427734375,6.916015625,34.087890625,16.9384765625s13.064453125,22.8310546875,12.1640625,36.06640625c-1.76953125,26-23.55078125,46.3681640625-49.5869140625,46.3681640625Z"/>
          <path class="cls-3" d="M49.783993113871475,101.915680553669517c-1.1279296875,0-2.2783203125-.0400390625-3.4169921875-.1171875-13.2353515625-.900390625-25.3408203125-6.916015625-34.0859375-16.9384765625S-.783389698628525,62.028961803669517.117000926371475,48.793610241169517C1.886532176371475,22.793610241169517,23.667782176371475,2.426422741169517,49.703914988871475,2.426422741169517c1.123046875,0,2.271484375.0390625,3.4150390625.1162109375,13.2373046875.900390625,25.3427734375,6.916015625,34.087890625,16.9384765625s13.064453125,22.8310546875,12.1640625,36.06640625c-1.76953125,26-23.55078125,46.3681640625-49.5869140625,46.3681640625Z"/>
          <path class="cls-3" d="M49.783993113871475,101.713478658572058c-1.1279296875,0-2.2783203125-.0400390625-3.4169921875-.1171875-13.2353515625-.900390625-25.3408203125-6.916015625-34.0859375-16.9384765625S-.783389698628525,61.826759908572058.117000926371475,48.591408346072058C1.886532176371475,22.591408346072058,23.667782176371475,2.224220846072058,49.703914988871475,2.224220846072058c1.123046875,0,2.271484375.0390625,3.4150390625.1162109375,13.2373046875.900390625,25.3427734375,6.916015625,34.087890625,16.9384765625s13.064453125,22.8310546875,12.1640625,36.06640625c-1.76953125,26-23.55078125,46.3681640625-49.5869140625,46.3681640625Z"/>
          <path class="cls-3" d="M49.783993113871475,101.511276763474598c-1.1279296875,0-2.2783203125-.0400390625-3.4169921875-.1171875-13.2353515625-.900390625-25.3408203125-6.916015625-34.0859375-16.9384765625S-.783389698628525,61.624558013474598.117000926371475,48.389206450974598C1.886532176371475,22.389206450974598,23.667782176371475,2.022018950974598,49.703914988871475,2.022018950974598c1.123046875,0,2.271484375.0390625,3.4150390625.1162109375,13.2373046875.900390625,25.3427734375,6.916015625,34.087890625,16.9384765625s13.064453125,22.8310546875,12.1640625,36.06640625c-1.76953125,26-23.55078125,46.3681640625-49.5869140625,46.3681640625Z"/>
          <path class="cls-3" d="M49.783993113871475,101.309074868377138c-1.1279296875,0-2.2783203125-.0400390625-3.4169921875-.1171875-13.2353515625-.900390625-25.3408203125-6.916015625-34.0859375-16.9384765625S-.783389698628525,61.422356118377138.117000926371475,48.187004555877138C1.886532176371475,22.187004555877138,23.667782176371475,1.819817055877138,49.703914988871475,1.819817055877138c1.123046875,0,2.271484375.0390625,3.4150390625.1162109375,13.2373046875.900390625,25.3427734375,6.916015625,34.087890625,16.9384765625s13.064453125,22.8310546875,12.1640625,36.06640625c-1.76953125,26-23.55078125,46.3681640625-49.5869140625,46.3681640625Z"/>
          <path class="cls-3" d="M49.783993113871475,101.106872973279678c-1.1279296875,0-2.2783203125-.0400390625-3.4169921875-.1171875-13.2353515625-.900390625-25.3408203125-6.916015625-34.0859375-16.9384765625S-.783389698628525,61.220154223279678.117000926371475,47.984802660779678C1.886532176371475,21.984802660779678,23.667782176371475,1.617615160779678,49.703914988871475,1.617615160779678c1.123046875,0,2.271484375.0390625,3.4150390625.1162109375,13.2373046875.900390625,25.3427734375,6.916015625,34.087890625,16.9384765625s13.064453125,22.8310546875,12.1640625,36.06640625c-1.76953125,26-23.55078125,46.3681640625-49.5869140625,46.3681640625Z"/>
          <path class="cls-3" d="M49.783993113871475,100.904671078182218c-1.1279296875,0-2.2783203125-.0400390625-3.4169921875-.1171875-13.2353515625-.900390625-25.3408203125-6.916015625-34.0859375-16.9384765625S-.783389698628525,61.017952328182218.117000926371475,47.782600765682218C1.886532176371475,21.782600765682218,23.667782176371475,1.415413265682218,49.703914988871475,1.415413265682218c1.123046875,0,2.271484375.0390625,3.4150390625.1162109375,13.2373046875.900390625,25.3427734375,6.916015625,34.087890625,16.9384765625s13.064453125,22.8310546875,12.1640625,36.06640625c-1.76953125,26-23.55078125,46.3681640625-49.5869140625,46.3681640625Z"/>
          <path class="cls-3" d="M49.783993113871475,100.702469183084759c-1.1279296875,0-2.2783203125-.0400390625-3.4169921875-.1171875-13.2353515625-.900390625-25.3408203125-6.916015625-34.0859375-16.9384765625S-.783389698628525,60.815750433084759.117000926371475,47.580398870584759C1.886532176371475,21.580398870584759,23.667782176371475,1.213211370584759,49.703914988871475,1.213211370584759c1.123046875,0,2.271484375.0390625,3.4150390625.1162109375,13.2373046875.900390625,25.3427734375,6.916015625,34.087890625,16.9384765625s13.064453125,22.8310546875,12.1640625,36.06640625c-1.76953125,26-23.55078125,46.3681640625-49.5869140625,46.3681640625Z"/>
          <path class="cls-3" d="M49.783993113871475,100.500267287987299c-1.1279296875,0-2.2783203125-.0400390625-3.4169921875-.1171875-13.2353515625-.900390625-25.3408203125-6.916015625-34.0859375-16.9384765625S-.783389698628525,60.613548537987299.117000926371475,47.378196975487299C1.886532176371475,21.378196975487299,23.667782176371475,1.011009475487299,49.703914988871475,1.011009475487299c1.123046875,0,2.271484375.0390625,3.4150390625.1162109375,13.2373046875.900390625,25.3427734375,6.916015625,34.087890625,16.9384765625s13.064453125,22.8310546875,12.1640625,36.06640625c-1.76953125,26-23.55078125,46.3681640625-49.5869140625,46.3681640625Z"/>
          <path class="cls-3" d="M49.783993113871475,100.298065392889839c-1.1279296875,0-2.2783203125-.0400390625-3.4169921875-.1171875-13.2353515625-.900390625-25.3408203125-6.916015625-34.0859375-16.9384765625S-.783389698628525,60.411346642889839.117000926371475,47.175995080389839C1.886532176371475,21.175995080389839,23.667782176371475.808807580389839,49.703914988871475.808807580389839c1.123046875,0,2.271484375.0390625,3.4150390625.1162109375,13.2373046875.900390625,25.3427734375,6.916015625,34.087890625,16.9384765625s13.064453125,22.8310546875,12.1640625,36.06640625c-1.76953125,26-23.55078125,46.3681640625-49.5869140625,46.3681640625Z"/>
          <path class="cls-3" d="M49.783993113871475,100.095863497792379c-1.1279296875,0-2.2783203125-.0400390625-3.4169921875-.1171875-13.2353515625-.900390625-25.3408203125-6.916015625-34.0859375-16.9384765625S-.783389698628525,60.209144747792379.117000926371475,46.973793185292379C1.886532176371475,20.973793185292379,23.667782176371475.606605685292379,49.703914988871475.606605685292379c1.123046875,0,2.271484375.0390625,3.4150390625.1162109375,13.2373046875.900390625,25.3427734375,6.916015625,34.087890625,16.9384765625s13.064453125,22.8310546875,12.1640625,36.06640625c-1.76953125,26-23.55078125,46.3681640625-49.5869140625,46.3681640625Z"/>
          <path class="cls-3" d="M49.783993113871475,99.89366160269492c-1.1279296875,0-2.2783203125-.0400390625-3.4169921875-.1171875-13.2353515625-.900390625-25.3408203125-6.916015625-34.0859375-16.9384765625S-.783389698628525,60.00694285269492.117000926371475,46.77159129019492C1.886532176371475,20.77159129019492,23.667782176371475.40440379019492,49.703914988871475.40440379019492c1.123046875,0,2.271484375.0390625,3.4150390625.1162109375,13.2373046875.900390625,25.3427734375,6.916015625,34.087890625,16.9384765625s13.064453125,22.8310546875,12.1640625,36.06640625c-1.76953125,26-23.55078125,46.3681640625-49.5869140625,46.3681640625Z"/>
          <path class="cls-3" d="M49.783993113871475,99.69145970759746c-1.1279296875,0-2.2783203125-.0400390625-3.4169921875-.1171875-13.2353515625-.900390625-25.3408203125-6.916015625-34.0859375-16.9384765625S-.783389698628525,59.80474095759746.117000926371475,46.56938939509746C1.886532176371475,20.56938939509746,23.667782176371475.20220189509746,49.703914988871475.20220189509746c1.123046875,0,2.271484375.0390625,3.4150390625.1162109375,13.2373046875.900390625,25.3427734375,6.916015625,34.087890625,16.9384765625s13.064453125,22.8310546875,12.1640625,36.06640625c-1.76953125,26-23.55078125,46.3681640625-49.5869140625,46.3681640625Z"/>
          <path class="cls-3" d="M49.783993113871475,99.4892578125c-1.1279296875,0-2.2783203125-.0400390625-3.4169921875-.1171875-13.2353515625-.900390625-25.3408203125-6.916015625-34.0859375-16.9384765625S-.783389698628525,59.6025390625.117000926371475,46.3671875C1.886532176371475,20.3671875,23.667782176371475,0,49.703914988871475,0c1.123046875,0,2.271484375.0390625,3.4150390625.1162109375,13.2373046875.900390625,25.3427734375,6.916015625,34.087890625,16.9384765625s13.064453125,22.8310546875,12.1640625,36.06640625c-1.76953125,26-23.55078125,46.3681640625-49.5869140625,46.3681640625Z"/>
        </g>
        <path class="cls-2" d="M49.784089176535417,97.466344017582742c-1.087366956988262,0-2.190584744246735-.038041992665967-3.279008423247433-.112012533954839C20.252935648952189,95.568471272446914.347462987427207,72.757013060185272,2.134379920618812,46.504867955851296,3.831475482251335,21.560944710352487,24.727096675067514,2.022154589229103,49.703778303131912,2.022154589229103c1.087366956982805,0,2.190584744246735.038041992665967,3.279008423243795.112012533951201,26.252145104337615,1.785860211182808,46.157617765868054,24.597318423444449,44.370700832667353,50.849463527782063-1.697095561627066,24.943923245489714-22.592716754446883,44.482713366620374-47.569398382507643,44.482713366620374Z"/>
      </g>
      <g>
        <path d="M45.700985301371475,73.370205651617653h-15.9541015625V25.703213464117653h15.9541015625v47.6669921875ZM32.020321238871475,71.096768151617653h11.4072265625V27.976650964117653h-11.4072265625v43.1201171875Z"/>
        <g>
          <rect class="cls-3" x="28.989071238871475" y="28.35540784591285" width="17.4697265625" height="49.1826171875"/>
          <rect class="cls-3" x="28.989071238871475" y="28.165958104473248" width="17.4697265625" height="49.1826171875"/>
          <rect class="cls-3" x="28.989071238871475" y="27.976508363033645" width="17.4697265625" height="49.1826171875"/>
          <rect class="cls-3" x="28.989071238871475" y="27.787058621594042" width="17.4697265625" height="49.1826171875"/>
          <rect class="cls-3" x="28.989071238871475" y="27.597608880154439" width="17.4697265625" height="49.1826171875"/>
          <rect class="cls-3" x="28.989071238871475" y="27.408159138714836" width="17.4697265625" height="49.1826171875"/>
          <rect class="cls-3" x="28.989071238871475" y="27.218709397275234" width="17.4697265625" height="49.1826171875"/>
          <rect class="cls-3" x="28.989071238871475" y="27.029259655835631" width="17.4697265625" height="49.1826171875"/>
          <rect class="cls-3" x="28.989071238871475" y="26.839809914396028" width="17.4697265625" height="49.1826171875"/>
          <rect class="cls-3" x="28.989071238871475" y="26.650360172956425" width="17.4697265625" height="49.1826171875"/>
          <rect class="cls-3" x="28.989071238871475" y="26.460910431516822" width="17.4697265625" height="49.1826171875"/>
          <rect class="cls-3" x="28.989071238871475" y="26.27146069007722" width="17.4697265625" height="49.1826171875"/>
          <rect class="cls-3" x="28.989071238871475" y="26.082010948637617" width="17.4697265625" height="49.1826171875"/>
          <rect class="cls-3" x="28.989071238871475" y="25.892561207198014" width="17.4697265625" height="49.1826171875"/>
          <rect class="cls-3" x="28.989071238871475" y="25.703111465758411" width="17.4697265625" height="49.1826171875"/>
          <rect class="cls-3" x="28.989071238871475" y="25.513661724318808" width="17.4697265625" height="49.1826171875"/>
          <rect class="cls-3" x="28.989071238871475" y="25.324211982879206" width="17.4697265625" height="49.1826171875"/>
          <rect class="cls-3" x="28.989071238871475" y="25.134762241439603" width="17.4697265625" height="49.1826171875"/>
          <rect class="cls-3" x="28.989071238871475" y="24.9453125" width="17.4697265625" height="49.1826171875"/>
        </g>
        <rect class="cls-1" x="30.883936082867876" y="26.839995153377458" width="13.680316287940514" height="45.393776773627906"/>
      </g>
      <g>
        <path d="M70.155086863871475,73.370205651617653h-15.953125V25.703213464117653h15.953125v47.6669921875ZM56.475399363871475,71.096768151617653h11.40625V27.976650964117653h-11.40625v43.1201171875Z"/>
        <g>
          <rect class="cls-3" x="53.444149363871475" y="28.35540784591285" width="17.46875" height="49.1826171875"/>
          <rect class="cls-3" x="53.444149363871475" y="28.165958104473248" width="17.46875" height="49.1826171875"/>
          <rect class="cls-3" x="53.444149363871475" y="27.976508363033645" width="17.46875" height="49.1826171875"/>
          <rect class="cls-3" x="53.444149363871475" y="27.787058621594042" width="17.46875" height="49.1826171875"/>
          <rect class="cls-3" x="53.444149363871475" y="27.597608880154439" width="17.46875" height="49.1826171875"/>
          <rect class="cls-3" x="53.444149363871475" y="27.408159138714836" width="17.46875" height="49.1826171875"/>
          <rect class="cls-3" x="53.444149363871475" y="27.218709397275234" width="17.46875" height="49.1826171875"/>
          <rect class="cls-3" x="53.444149363871475" y="27.029259655835631" width="17.46875" height="49.1826171875"/>
          <rect class="cls-3" x="53.444149363871475" y="26.839809914396028" width="17.46875" height="49.1826171875"/>
          <rect class="cls-3" x="53.444149363871475" y="26.650360172956425" width="17.46875" height="49.1826171875"/>
          <rect class="cls-3" x="53.444149363871475" y="26.460910431516822" width="17.46875" height="49.1826171875"/>
          <rect class="cls-3" x="53.444149363871475" y="26.27146069007722" width="17.46875" height="49.1826171875"/>
          <rect class="cls-3" x="53.444149363871475" y="26.082010948637617" width="17.46875" height="49.1826171875"/>
          <rect class="cls-3" x="53.444149363871475" y="25.892561207198014" width="17.46875" height="49.1826171875"/>
          <rect class="cls-3" x="53.444149363871475" y="25.703111465758411" width="17.46875" height="49.1826171875"/>
          <rect class="cls-3" x="53.444149363871475" y="25.513661724318808" width="17.46875" height="49.1826171875"/>
          <rect class="cls-3" x="53.444149363871475" y="25.324211982879206" width="17.46875" height="49.1826171875"/>
          <rect class="cls-3" x="53.444149363871475" y="25.134762241439603" width="17.46875" height="49.1826171875"/>
          <rect class="cls-3" x="53.444149363871475" y="24.9453125" width="17.46875" height="49.1826171875"/>
        </g>
        <rect class="cls-1" x="55.338346635284324" y="26.839995153377458" width="13.680316287940514" height="45.393776773627906"/>
      </g>
    </g>
  </g>
</svg>