<?xml version="1.0" encoding="UTF-8"?>
<svg id="Livello_2" data-name="Livello 2" xmlns="http://www.w3.org/2000/svg" width="99.487908102742949" height="103.128891924254276" viewBox="0 0 99.487908102742949 103.128891924254276">
  <defs>
    <style>
      .cls-1 {
        fill: #f96c03;
      }

      .cls-2 {
        fill: #f7f0d0;
      }

      .cls-3 {
        fill: #020101;
      }
    </style>
  </defs>
  <g id="Livello_1-2" data-name="Livello 1">
    <g>
      <g>
        <path d="M49.783993113871475,98.679775964117653c-1.1103515625,0-2.2412109375-.0380859375-3.361328125-.115234375-13.0205078125-.8857421875-24.9287109375-6.802734375-33.5322265625-16.662109375C4.287899363871475,72.043057214117653.037899363871475,59.442471276617653.924618113871475,46.422940026617653,2.664852488871475,20.844815026617653,24.091610301371475.809658776617653,49.703914988871475.809658776617653c1.1103515625,0,2.2412109375.0380859375,3.361328125.115234375,13.0205078125.884765625,24.9287109375,6.802734375,33.5322265625,16.6611328125,8.6025390625,9.859375,12.8525390625,22.4599609375,11.9658203125,35.4794921875-1.740234375,25.578125-23.1669921875,45.6142578125-48.779296875,45.6142578125ZM49.703914988871475,3.235440026617653C25.362118113871475,3.235440026617653,4.998836863871475,22.278408776617653,3.344539988871475,46.587002526617653c-.841796875,12.3740234375,3.197265625,24.3486328125,11.375,33.7197265625,8.1767578125,9.37109375,19.494140625,14.9951171875,31.8671875,15.837890625,1.06640625.072265625,2.1416015625.109375,3.197265625.109375,24.341796875,0,44.705078125-19.04296875,46.359375-43.3525390625.841796875-12.3740234375-3.197265625-24.3486328125-11.375-33.7197265625-8.1767578125-9.37109375-19.494140625-14.9951171875-31.8671875-15.8369140625-1.06640625-.072265625-2.1416015625-.109375-3.197265625-.109375Z"/>
        <g>
          <path class="cls-3" d="M49.783993113871475,103.128891924254276c-1.1279296875,0-2.2783203125-.0400390625-3.4169921875-.1171875-13.2353515625-.900390625-25.3408203125-6.916015625-34.0859375-16.9384765625S-.783389698628525,63.242173174254276.117000926371475,50.006821611754276C1.886532176371475,24.006821611754276,23.667782176371475,3.639634111754276,49.703914988871475,3.639634111754276c1.12890625,0,2.2783203125.0400390625,3.4169921875.1171875,13.2353515625.900390625,25.3408203125,6.9150390625,34.0859375,16.9375s13.064453125,22.8310546875,12.1640625,36.0673828125c-1.76953125,26-23.55078125,46.3671875-49.5869140625,46.3671875Z"/>
          <path class="cls-3" d="M49.783993113871475,102.926690029156816c-1.1279296875,0-2.2783203125-.0400390625-3.4169921875-.1171875-13.2353515625-.900390625-25.3408203125-6.916015625-34.0859375-16.9384765625S-.783389698628525,63.039971279156816.117000926371475,49.804619716656816C1.886532176371475,23.804619716656816,23.667782176371475,3.437432216656816,49.703914988871475,3.437432216656816c1.12890625,0,2.2783203125.0400390625,3.4169921875.1171875,13.2353515625.900390625,25.3408203125,6.9150390625,34.0859375,16.9375s13.064453125,22.8310546875,12.1640625,36.0673828125c-1.76953125,26-23.55078125,46.3671875-49.5869140625,46.3671875Z"/>
          <path class="cls-3" d="M49.783993113871475,102.724488134059357c-1.1279296875,0-2.2783203125-.0400390625-3.4169921875-.1171875-13.2353515625-.900390625-25.3408203125-6.916015625-34.0859375-16.9384765625S-.783389698628525,62.837769384059357.117000926371475,49.602417821559357C1.886532176371475,23.602417821559357,23.667782176371475,3.235230321559357,49.703914988871475,3.235230321559357c1.12890625,0,2.2783203125.0400390625,3.4169921875.1171875,13.2353515625.900390625,25.3408203125,6.9150390625,34.0859375,16.9375s13.064453125,22.8310546875,12.1640625,36.0673828125c-1.76953125,26-23.55078125,46.3671875-49.5869140625,46.3671875Z"/>
          <path class="cls-3" d="M49.783993113871475,102.522286238961897c-1.1279296875,0-2.2783203125-.0400390625-3.4169921875-.1171875-13.2353515625-.900390625-25.3408203125-6.916015625-34.0859375-16.9384765625S-.783389698628525,62.635567488961897.117000926371475,49.400215926461897C1.886532176371475,23.400215926461897,23.667782176371475,3.033028426461897,49.703914988871475,3.033028426461897c1.12890625,0,2.2783203125.0400390625,3.4169921875.1171875,13.2353515625.900390625,25.3408203125,6.9150390625,34.0859375,16.9375s13.064453125,22.8310546875,12.1640625,36.0673828125c-1.76953125,26-23.55078125,46.3671875-49.5869140625,46.3671875Z"/>
          <path class="cls-3" d="M49.783993113871475,102.320084343864437c-1.1279296875,0-2.2783203125-.0400390625-3.4169921875-.1171875-13.2353515625-.900390625-25.3408203125-6.916015625-34.0859375-16.9384765625S-.783389698628525,62.433365593864437.117000926371475,49.198014031364437C1.886532176371475,23.198014031364437,23.667782176371475,2.830826531364437,49.703914988871475,2.830826531364437c1.12890625,0,2.2783203125.0400390625,3.4169921875.1171875,13.2353515625.900390625,25.3408203125,6.9150390625,34.0859375,16.9375s13.064453125,22.8310546875,12.1640625,36.0673828125c-1.76953125,26-23.55078125,46.3671875-49.5869140625,46.3671875Z"/>
          <path class="cls-3" d="M49.783993113871475,102.117882448766977c-1.1279296875,0-2.2783203125-.0400390625-3.4169921875-.1171875-13.2353515625-.900390625-25.3408203125-6.916015625-34.0859375-16.9384765625S-.783389698628525,62.231163698766977.117000926371475,48.995812136266977C1.886532176371475,22.995812136266977,23.667782176371475,2.628624636266977,49.703914988871475,2.628624636266977c1.12890625,0,2.2783203125.0400390625,3.4169921875.1171875,13.2353515625.900390625,25.3408203125,6.9150390625,34.0859375,16.9375s13.064453125,22.8310546875,12.1640625,36.0673828125c-1.76953125,26-23.55078125,46.3671875-49.5869140625,46.3671875Z"/>
          <path class="cls-3" d="M49.783993113871475,101.915680553669517c-1.1279296875,0-2.2783203125-.0400390625-3.4169921875-.1171875-13.2353515625-.900390625-25.3408203125-6.916015625-34.0859375-16.9384765625S-.783389698628525,62.028961803669517.117000926371475,48.793610241169517C1.886532176371475,22.793610241169517,23.667782176371475,2.426422741169517,49.703914988871475,2.426422741169517c1.12890625,0,2.2783203125.0400390625,3.4169921875.1171875,13.2353515625.900390625,25.3408203125,6.9150390625,34.0859375,16.9375s13.064453125,22.8310546875,12.1640625,36.0673828125c-1.76953125,26-23.55078125,46.3671875-49.5869140625,46.3671875Z"/>
          <path class="cls-3" d="M49.783993113871475,101.713478658572058c-1.1279296875,0-2.2783203125-.0400390625-3.4169921875-.1171875-13.2353515625-.900390625-25.3408203125-6.916015625-34.0859375-16.9384765625S-.783389698628525,61.826759908572058.117000926371475,48.591408346072058C1.886532176371475,22.591408346072058,23.667782176371475,2.224220846072058,49.703914988871475,2.224220846072058c1.12890625,0,2.2783203125.0400390625,3.4169921875.1171875,13.2353515625.900390625,25.3408203125,6.9150390625,34.0859375,16.9375s13.064453125,22.8310546875,12.1640625,36.0673828125c-1.76953125,26-23.55078125,46.3671875-49.5869140625,46.3671875Z"/>
          <path class="cls-3" d="M49.783993113871475,101.511276763474598c-1.1279296875,0-2.2783203125-.0400390625-3.4169921875-.1171875-13.2353515625-.900390625-25.3408203125-6.916015625-34.0859375-16.9384765625S-.783389698628525,61.624558013474598.117000926371475,48.389206450974598C1.886532176371475,22.389206450974598,23.667782176371475,2.022018950974598,49.703914988871475,2.022018950974598c1.12890625,0,2.2783203125.0400390625,3.4169921875.1171875,13.2353515625.900390625,25.3408203125,6.9150390625,34.0859375,16.9375s13.064453125,22.8310546875,12.1640625,36.0673828125c-1.76953125,26-23.55078125,46.3671875-49.5869140625,46.3671875Z"/>
          <path class="cls-3" d="M49.783993113871475,101.309074868377138c-1.1279296875,0-2.2783203125-.0400390625-3.4169921875-.1171875-13.2353515625-.900390625-25.3408203125-6.916015625-34.0859375-16.9384765625S-.783389698628525,61.422356118377138.117000926371475,48.187004555877138C1.886532176371475,22.187004555877138,23.667782176371475,1.819817055877138,49.703914988871475,1.819817055877138c1.12890625,0,2.2783203125.0400390625,3.4169921875.1171875,13.2353515625.900390625,25.3408203125,6.9150390625,34.0859375,16.9375s13.064453125,22.8310546875,12.1640625,36.0673828125c-1.76953125,26-23.55078125,46.3671875-49.5869140625,46.3671875Z"/>
          <path class="cls-3" d="M49.783993113871475,101.106872973279678c-1.1279296875,0-2.2783203125-.0400390625-3.4169921875-.1171875-13.2353515625-.900390625-25.3408203125-6.916015625-34.0859375-16.9384765625S-.783389698628525,61.220154223279678.117000926371475,47.984802660779678C1.886532176371475,21.984802660779678,23.667782176371475,1.617615160779678,49.703914988871475,1.617615160779678c1.12890625,0,2.2783203125.0400390625,3.4169921875.1171875,13.2353515625.900390625,25.3408203125,6.9150390625,34.0859375,16.9375s13.064453125,22.8310546875,12.1640625,36.0673828125c-1.76953125,26-23.55078125,46.3671875-49.5869140625,46.3671875Z"/>
          <path class="cls-3" d="M49.783993113871475,100.904671078182218c-1.1279296875,0-2.2783203125-.0400390625-3.4169921875-.1171875-13.2353515625-.900390625-25.3408203125-6.916015625-34.0859375-16.9384765625S-.783389698628525,61.017952328182218.117000926371475,47.782600765682218C1.886532176371475,21.782600765682218,23.667782176371475,1.415413265682218,49.703914988871475,1.415413265682218c1.12890625,0,2.2783203125.0400390625,3.4169921875.1171875,13.2353515625.900390625,25.3408203125,6.9150390625,34.0859375,16.9375s13.064453125,22.8310546875,12.1640625,36.0673828125c-1.76953125,26-23.55078125,46.3671875-49.5869140625,46.3671875Z"/>
          <path class="cls-3" d="M49.783993113871475,100.702469183084759c-1.1279296875,0-2.2783203125-.0400390625-3.4169921875-.1171875-13.2353515625-.900390625-25.3408203125-6.916015625-34.0859375-16.9384765625S-.783389698628525,60.815750433084759.117000926371475,47.580398870584759C1.886532176371475,21.580398870584759,23.667782176371475,1.213211370584759,49.703914988871475,1.213211370584759c1.12890625,0,2.2783203125.0400390625,3.4169921875.1171875,13.2353515625.900390625,25.3408203125,6.9150390625,34.0859375,16.9375s13.064453125,22.8310546875,12.1640625,36.0673828125c-1.76953125,26-23.55078125,46.3671875-49.5869140625,46.3671875Z"/>
          <path class="cls-3" d="M49.783993113871475,100.500267287987299c-1.1279296875,0-2.2783203125-.0400390625-3.4169921875-.1171875-13.2353515625-.900390625-25.3408203125-6.916015625-34.0859375-16.9384765625S-.783389698628525,60.613548537987299.117000926371475,47.378196975487299C1.886532176371475,21.378196975487299,23.667782176371475,1.011009475487299,49.703914988871475,1.011009475487299c1.12890625,0,2.2783203125.0400390625,3.4169921875.1171875,13.2353515625.900390625,25.3408203125,6.9150390625,34.0859375,16.9375s13.064453125,22.8310546875,12.1640625,36.0673828125c-1.76953125,26-23.55078125,46.3671875-49.5869140625,46.3671875Z"/>
          <path class="cls-3" d="M49.783993113871475,100.298065392889839c-1.1279296875,0-2.2783203125-.0400390625-3.4169921875-.1171875-13.2353515625-.900390625-25.3408203125-6.916015625-34.0859375-16.9384765625S-.783389698628525,60.411346642889839.117000926371475,47.175995080389839C1.886532176371475,21.175995080389839,23.667782176371475.808807580389839,49.703914988871475.808807580389839c1.12890625,0,2.2783203125.0400390625,3.4169921875.1171875,13.2353515625.900390625,25.3408203125,6.9150390625,34.0859375,16.9375s13.064453125,22.8310546875,12.1640625,36.0673828125c-1.76953125,26-23.55078125,46.3671875-49.5869140625,46.3671875Z"/>
          <path class="cls-3" d="M49.783993113871475,100.095863497792379c-1.1279296875,0-2.2783203125-.0400390625-3.4169921875-.1171875-13.2353515625-.900390625-25.3408203125-6.916015625-34.0859375-16.9384765625S-.783389698628525,60.209144747792379.117000926371475,46.973793185292379C1.886532176371475,20.973793185292379,23.667782176371475.606605685292379,49.703914988871475.606605685292379c1.12890625,0,2.2783203125.0400390625,3.4169921875.1171875,13.2353515625.900390625,25.3408203125,6.9150390625,34.0859375,16.9375s13.064453125,22.8310546875,12.1640625,36.0673828125c-1.76953125,26-23.55078125,46.3671875-49.5869140625,46.3671875Z"/>
          <path class="cls-3" d="M49.783993113871475,99.89366160269492c-1.1279296875,0-2.2783203125-.0400390625-3.4169921875-.1171875-13.2353515625-.900390625-25.3408203125-6.916015625-34.0859375-16.9384765625S-.783389698628525,60.00694285269492.117000926371475,46.77159129019492C1.886532176371475,20.77159129019492,23.667782176371475.40440379019492,49.703914988871475.40440379019492c1.12890625,0,2.2783203125.0400390625,3.4169921875.1171875,13.2353515625.900390625,25.3408203125,6.9150390625,34.0859375,16.9375s13.064453125,22.8310546875,12.1640625,36.0673828125c-1.76953125,26-23.55078125,46.3671875-49.5869140625,46.3671875Z"/>
          <path class="cls-3" d="M49.783993113871475,99.69145970759746c-1.1279296875,0-2.2783203125-.0400390625-3.4169921875-.1171875-13.2353515625-.900390625-25.3408203125-6.916015625-34.0859375-16.9384765625S-.783389698628525,59.80474095759746.117000926371475,46.56938939509746C1.886532176371475,20.56938939509746,23.667782176371475.20220189509746,49.703914988871475.20220189509746c1.12890625,0,2.2783203125.0400390625,3.4169921875.1171875,13.2353515625.900390625,25.3408203125,6.9150390625,34.0859375,16.9375s13.064453125,22.8310546875,12.1640625,36.0673828125c-1.76953125,26-23.55078125,46.3671875-49.5869140625,46.3671875Z"/>
          <path class="cls-3" d="M49.783993113871475,99.4892578125c-1.1279296875,0-2.2783203125-.0400390625-3.4169921875-.1171875-13.2353515625-.900390625-25.3408203125-6.916015625-34.0859375-16.9384765625S-.783389698628525,59.6025390625.117000926371475,46.3671875C1.886532176371475,20.3671875,23.667782176371475,0,49.703914988871475,0c1.12890625,0,2.2783203125.0400390625,3.4169921875.1171875,13.2353515625.900390625,25.3408203125,6.9150390625,34.0859375,16.9375s13.064453125,22.8310546875,12.1640625,36.0673828125c-1.76953125,26-23.55078125,46.3671875-49.5869140625,46.3671875Z"/>
        </g>
        <path class="cls-2" d="M49.784089176535417,97.466650352893339c-1.087366956988262,0-2.190584744246735-.038041992665967-3.279008423247433-.112012533954839C20.252935648952189,95.568777607757511.347462987427207,72.75731939549587,2.134379920618812,46.505174291161893,3.831475482251335,21.561251045663084,24.727096675067514,2.0224609245397,49.703778303131912,2.0224609245397c1.087366956982805,0,2.190584744246735.038041992665967,3.279008423243795.112012533951201,26.252145104337615,1.785860211182808,46.157617765868054,24.597318423444449,44.370700832667353,50.849463527782063-1.697095561627066,24.943923245489714-22.592716754446883,44.482713366620374-47.569398382507643,44.482713366620374Z"/>
      </g>
      <g>
        <path d="M39.480282176371475,72.485440026617653c-.9892578125,0-1.9794921875-.2529296875-2.8935546875-.759765625-1.916015625-1.064453125-3.0595703125-3.0087890625-3.0595703125-5.2001953125V28.437588464117653c0-2.19140625,1.1435546875-4.1357421875,3.0595703125-5.2001953125,1.9169921875-1.0625,4.171875-1.0078125,6.0322265625.150390625l30.5908203125,19.0439453125c1.7568359375,1.0927734375,2.8056640625,2.98046875,2.8056640625,5.0498046875s-1.048828125,3.95703125-2.8056640625,5.0498046875l-30.5908203125,19.0439453125c-.9736328125.6064453125-2.0546875.91015625-3.138671875.91015625ZM39.477352488871475,25.071377526617653c-.55859375,0-1.1171875.142578125-1.6337890625.4287109375-1.08203125.6015625-1.728515625,1.69921875-1.728515625,2.9375v38.087890625c0,1.23828125.646484375,2.3359375,1.728515625,2.9365234375,1.08203125.6015625,2.3544921875.568359375,3.408203125-.083984375l30.5908203125-19.0439453125c.9921875-.6181640625,1.583984375-1.68359375,1.583984375-2.8525390625s-.591796875-2.234375-1.583984375-2.8525390625l-30.5908203125-19.0439453125c-.55078125-.341796875-1.1611328125-.513671875-1.7744140625-.513671875Z"/>
        <g>
          <path class="cls-3" d="M39.486341495785382,77.226682191621876c-3.76171875,0-6.822265625-3.05859375-6.822265625-6.8193359375v-38.0869140625c0-3.759765625,3.060546875-6.8193359375,6.8212890625-6.8193359375,1.259765625,0,2.5009765625.3583984375,3.5908203125,1.037109375l30.58984375,19.0439453125c2.01171875,1.2509765625,3.212890625,3.4130859375,3.212890625,5.7822265625s-1.201171875,4.53125-3.212890625,5.7822265625l-30.5908203125,19.0439453125c-1.0888671875.677734375-2.330078125,1.0361328125-3.5888671875,1.0361328125Z"/>
          <path class="cls-3" d="M39.486341495785382,77.010975519302519c-3.76171875,0-6.822265625-3.05859375-6.822265625-6.8193359375v-38.0869140625c0-3.759765625,3.060546875-6.8193359375,6.8212890625-6.8193359375,1.259765625,0,2.5009765625.3583984375,3.5908203125,1.037109375l30.58984375,19.0439453125c2.01171875,1.2509765625,3.212890625,3.4130859375,3.212890625,5.7822265625s-1.201171875,4.53125-3.212890625,5.7822265625l-30.5908203125,19.0439453125c-1.0888671875.677734375-2.330078125,1.0361328125-3.5888671875,1.0361328125Z"/>
          <path class="cls-3" d="M39.486341495785382,76.795268846983163c-3.76171875,0-6.822265625-3.05859375-6.822265625-6.8193359375V31.889018846983163c0-3.759765625,3.060546875-6.8193359375,6.8212890625-6.8193359375,1.259765625,0,2.5009765625.3583984375,3.5908203125,1.037109375l30.58984375,19.0439453125c2.01171875,1.2509765625,3.212890625,3.4130859375,3.212890625,5.7822265625s-1.201171875,4.53125-3.212890625,5.7822265625l-30.5908203125,19.0439453125c-1.0888671875.677734375-2.330078125,1.0361328125-3.5888671875,1.0361328125Z"/>
          <path class="cls-3" d="M39.486341495785382,76.579562174663806c-3.76171875,0-6.822265625-3.05859375-6.822265625-6.8193359375V31.673312174663806c0-3.759765625,3.060546875-6.8193359375,6.8212890625-6.8193359375,1.259765625,0,2.5009765625.3583984375,3.5908203125,1.037109375l30.58984375,19.0439453125c2.01171875,1.2509765625,3.212890625,3.4130859375,3.212890625,5.7822265625s-1.201171875,4.53125-3.212890625,5.7822265625l-30.5908203125,19.0439453125c-1.0888671875.677734375-2.330078125,1.0361328125-3.5888671875,1.0361328125Z"/>
          <path class="cls-3" d="M39.486341495785382,76.36385550234445c-3.76171875,0-6.822265625-3.05859375-6.822265625-6.8193359375V31.45760550234445c0-3.759765625,3.060546875-6.8193359375,6.8212890625-6.8193359375,1.259765625,0,2.5009765625.3583984375,3.5908203125,1.037109375l30.58984375,19.0439453125c2.01171875,1.2509765625,3.212890625,3.4130859375,3.212890625,5.7822265625s-1.201171875,4.53125-3.212890625,5.7822265625l-30.5908203125,19.0439453125c-1.0888671875.677734375-2.330078125,1.0361328125-3.5888671875,1.0361328125Z"/>
          <path class="cls-3" d="M39.486341495785382,76.148148830025093c-3.76171875,0-6.822265625-3.05859375-6.822265625-6.8193359375V31.241898830025093c0-3.759765625,3.060546875-6.8193359375,6.8212890625-6.8193359375,1.259765625,0,2.5009765625.3583984375,3.5908203125,1.037109375l30.58984375,19.0439453125c2.01171875,1.2509765625,3.212890625,3.4130859375,3.212890625,5.7822265625s-1.201171875,4.53125-3.212890625,5.7822265625l-30.5908203125,19.0439453125c-1.0888671875.677734375-2.330078125,1.0361328125-3.5888671875,1.0361328125Z"/>
          <path class="cls-3" d="M39.486341495785382,75.932442157705736c-3.76171875,0-6.822265625-3.05859375-6.822265625-6.8193359375V31.026192157705736c0-3.759765625,3.060546875-6.8193359375,6.8212890625-6.8193359375,1.259765625,0,2.5009765625.3583984375,3.5908203125,1.037109375l30.58984375,19.0439453125c2.01171875,1.2509765625,3.212890625,3.4130859375,3.212890625,5.7822265625s-1.201171875,4.53125-3.212890625,5.7822265625l-30.5908203125,19.0439453125c-1.0888671875.677734375-2.330078125,1.0361328125-3.5888671875,1.0361328125Z"/>
          <path class="cls-3" d="M39.486341495785382,75.71673548538638c-3.76171875,0-6.822265625-3.05859375-6.822265625-6.8193359375V30.81048548538638c0-3.759765625,3.060546875-6.8193359375,6.8212890625-6.8193359375,1.259765625,0,2.5009765625.3583984375,3.5908203125,1.037109375l30.58984375,19.0439453125c2.01171875,1.2509765625,3.212890625,3.4130859375,3.212890625,5.7822265625s-1.201171875,4.53125-3.212890625,5.7822265625l-30.5908203125,19.0439453125c-1.0888671875.677734375-2.330078125,1.0361328125-3.5888671875,1.0361328125Z"/>
          <path class="cls-3" d="M39.486341495785382,75.501028813067023c-3.76171875,0-6.822265625-3.05859375-6.822265625-6.8193359375V30.594778813067023c0-3.759765625,3.060546875-6.8193359375,6.8212890625-6.8193359375,1.259765625,0,2.5009765625.3583984375,3.5908203125,1.037109375l30.58984375,19.0439453125c2.01171875,1.2509765625,3.212890625,3.4130859375,3.212890625,5.7822265625s-1.201171875,4.53125-3.212890625,5.7822265625l-30.5908203125,19.0439453125c-1.0888671875.677734375-2.330078125,1.0361328125-3.5888671875,1.0361328125Z"/>
          <path class="cls-3" d="M39.486341495785382,75.285322140747667c-3.76171875,0-6.822265625-3.05859375-6.822265625-6.8193359375V30.379072140747667c0-3.759765625,3.060546875-6.8193359375,6.8212890625-6.8193359375,1.259765625,0,2.5009765625.3583984375,3.5908203125,1.037109375l30.58984375,19.0439453125c2.01171875,1.2509765625,3.212890625,3.4130859375,3.212890625,5.7822265625s-1.201171875,4.53125-3.212890625,5.7822265625l-30.5908203125,19.0439453125c-1.0888671875.677734375-2.330078125,1.0361328125-3.5888671875,1.0361328125Z"/>
          <path class="cls-3" d="M39.486341495785382,75.06961546842831c-3.76171875,0-6.822265625-3.05859375-6.822265625-6.8193359375V30.16336546842831c0-3.759765625,3.060546875-6.8193359375,6.8212890625-6.8193359375,1.259765625,0,2.5009765625.3583984375,3.5908203125,1.037109375l30.58984375,19.0439453125c2.01171875,1.2509765625,3.212890625,3.4130859375,3.212890625,5.7822265625s-1.201171875,4.53125-3.212890625,5.7822265625l-30.5908203125,19.0439453125c-1.0888671875.677734375-2.330078125,1.0361328125-3.5888671875,1.0361328125Z"/>
          <path class="cls-3" d="M39.486341495785382,74.853908796108954c-3.76171875,0-6.822265625-3.05859375-6.822265625-6.8193359375V29.947658796108954c0-3.759765625,3.060546875-6.8193359375,6.8212890625-6.8193359375,1.259765625,0,2.5009765625.3583984375,3.5908203125,1.037109375l30.58984375,19.0439453125c2.01171875,1.2509765625,3.212890625,3.4130859375,3.212890625,5.7822265625s-1.201171875,4.53125-3.212890625,5.7822265625l-30.5908203125,19.0439453125c-1.0888671875.677734375-2.330078125,1.0361328125-3.5888671875,1.0361328125Z"/>
          <path class="cls-3" d="M39.486341495785382,74.638202123789597c-3.76171875,0-6.822265625-3.05859375-6.822265625-6.8193359375V29.731952123789597c0-3.759765625,3.060546875-6.8193359375,6.8212890625-6.8193359375,1.259765625,0,2.5009765625.3583984375,3.5908203125,1.037109375l30.58984375,19.0439453125c2.01171875,1.2509765625,3.212890625,3.4130859375,3.212890625,5.7822265625s-1.201171875,4.53125-3.212890625,5.7822265625l-30.5908203125,19.0439453125c-1.0888671875.677734375-2.330078125,1.0361328125-3.5888671875,1.0361328125Z"/>
          <path class="cls-3" d="M39.486341495785382,74.42249545147024c-3.76171875,0-6.822265625-3.05859375-6.822265625-6.8193359375V29.51624545147024c0-3.759765625,3.060546875-6.8193359375,6.8212890625-6.8193359375,1.259765625,0,2.5009765625.3583984375,3.5908203125,1.037109375l30.58984375,19.0439453125c2.01171875,1.2509765625,3.212890625,3.4130859375,3.212890625,5.7822265625s-1.201171875,4.53125-3.212890625,5.7822265625l-30.5908203125,19.0439453125c-1.0888671875.677734375-2.330078125,1.0361328125-3.5888671875,1.0361328125Z"/>
          <path class="cls-3" d="M39.486341495785382,74.206788779150884c-3.76171875,0-6.822265625-3.05859375-6.822265625-6.8193359375V29.300538779150884c0-3.759765625,3.060546875-6.8193359375,6.8212890625-6.8193359375,1.259765625,0,2.5009765625.3583984375,3.5908203125,1.037109375l30.58984375,19.0439453125c2.01171875,1.2509765625,3.212890625,3.4130859375,3.212890625,5.7822265625s-1.201171875,4.53125-3.212890625,5.7822265625l-30.5908203125,19.0439453125c-1.0888671875.677734375-2.330078125,1.0361328125-3.5888671875,1.0361328125Z"/>
          <path class="cls-3" d="M39.486341495785382,73.991082106831527c-3.76171875,0-6.822265625-3.05859375-6.822265625-6.8193359375V29.084832106831527c0-3.759765625,3.060546875-6.8193359375,6.8212890625-6.8193359375,1.259765625,0,2.5009765625.3583984375,3.5908203125,1.037109375l30.58984375,19.0439453125c2.01171875,1.2509765625,3.212890625,3.4130859375,3.212890625,5.7822265625s-1.201171875,4.53125-3.212890625,5.7822265625l-30.5908203125,19.0439453125c-1.0888671875.677734375-2.330078125,1.0361328125-3.5888671875,1.0361328125Z"/>
          <path class="cls-3" d="M39.486341495785382,73.775375434512171c-3.76171875,0-6.822265625-3.05859375-6.822265625-6.8193359375V28.869125434512171c0-3.759765625,3.060546875-6.8193359375,6.8212890625-6.8193359375,1.259765625,0,2.5009765625.3583984375,3.5908203125,1.037109375l30.58984375,19.0439453125c2.01171875,1.2509765625,3.212890625,3.4130859375,3.212890625,5.7822265625s-1.201171875,4.53125-3.212890625,5.7822265625l-30.5908203125,19.0439453125c-1.0888671875.677734375-2.330078125,1.0361328125-3.5888671875,1.0361328125Z"/>
          <path class="cls-3" d="M39.486341495785382,73.559668762192814c-3.76171875,0-6.822265625-3.05859375-6.822265625-6.8193359375V28.653418762192814c0-3.759765625,3.060546875-6.8193359375,6.8212890625-6.8193359375,1.259765625,0,2.5009765625.3583984375,3.5908203125,1.037109375l30.58984375,19.0439453125c2.01171875,1.2509765625,3.212890625,3.4130859375,3.212890625,5.7822265625s-1.201171875,4.53125-3.212890625,5.7822265625l-30.5908203125,19.0439453125c-1.0888671875.677734375-2.330078125,1.0361328125-3.5888671875,1.0361328125Z"/>
          <path class="cls-3" d="M39.486341495785382,73.343962089873457c-3.76171875,0-6.822265625-3.05859375-6.822265625-6.8193359375V28.437712089873457c0-3.759765625,3.060546875-6.8193359375,6.8212890625-6.8193359375,1.259765625,0,2.5009765625.3583984375,3.5908203125,1.037109375l30.58984375,19.0439453125c2.01171875,1.2509765625,3.212890625,3.4130859375,3.212890625,5.7822265625s-1.201171875,4.53125-3.212890625,5.7822265625l-30.5908203125,19.0439453125c-1.0888671875.677734375-2.330078125,1.0361328125-3.5888671875,1.0361328125Z"/>
        </g>
        <path class="cls-1" d="M41.93528786601928,24.486347494581423l30.591214297677652,19.04367396487396c2.926207899556175,1.821625929927905,2.926206816395279,6.081140068587047-.000001811486072,7.902764828551881l-30.591222796481816,19.043662284595484c-3.100390902342042,1.930056790710296-7.114291374180539-.299323946572258-7.114290537050692-3.951384045023588l.000008730443369-38.087336105274517c.000000837131665-3.652059976006058,4.013902090184274-5.881438893326049,7.114292116897559-3.951380927723221Z"/>
      </g>
    </g>
  </g>
</svg>