<?xml version="1.0" encoding="UTF-8"?>
<svg id="Livello_2" data-name="Livello 2" xmlns="http://www.w3.org/2000/svg" width="584.59765625" height="94.544907549254276" viewBox="0 0 584.59765625 94.544907549254276">
  <defs>
    <style>
      .cls-1 {
        fill: #f7f0d0;
      }

      .cls-2 {
        fill: #020101;
      }

      .cls-3 {
        fill: none;
        stroke: #000;
        stroke-width: 2.426422741166914px;
      }
    </style>
  </defs>
  <g id="Livello_1-2" data-name="Livello 1">
    <g>
      <path class="cls-3" d="M576.227253464909154,31.399931137380918V8.370765564575777h-6.347857784858206V2.022784632730691H21.064599679806634c.000007828839443,0-6.347853078194021,0-6.347857784858206,0v6.347980931845086h-6.347857784858206v23.029165572805141H2.021026325228377v19.043450207587739h6.347888571608564-.00003078674672v32.091161849995842h6.347857784858206v6.347980931846905h555.16265378510252v-6.347980931846905h6.347857784858206v-32.091161849995842h-.00003078674672,6.347888571606745v-19.043450207587739h-6.347857784860025Z"/>
      <g>
        <polygon class="cls-2" points="12.6953125 94.544907549254276 12.6953125 88.195298174254276 6.3466796875 88.195298174254276 6.3466796875 56.105454424254276 0 56.105454424254276 0 33.017563799254276 6.3466796875 33.017563799254276 6.3466796875 9.988266924254276 12.6953125 9.988266924254276 12.6953125 3.639634111754276 571.90234375 3.639634111754276 571.90234375 9.988266924254276 578.25 9.988266924254276 578.25 33.017563799254276 584.59765625 33.017563799254276 584.59765625 56.105454424254276 578.25 56.105454424254276 578.25 88.195298174254276 571.90234375 88.195298174254276 571.90234375 94.544907549254276 12.6953125 94.544907549254276"/>
        <polygon class="cls-2" points="12.6953125 94.342705654156816 12.6953125 87.993096279156816 6.3466796875 87.993096279156816 6.3466796875 55.903252529156816 0 55.903252529156816 0 32.815361904156816 6.3466796875 32.815361904156816 6.3466796875 9.786065029156816 12.6953125 9.786065029156816 12.6953125 3.437432216656816 571.90234375 3.437432216656816 571.90234375 9.786065029156816 578.25 9.786065029156816 578.25 32.815361904156816 584.59765625 32.815361904156816 584.59765625 55.903252529156816 578.25 55.903252529156816 578.25 87.993096279156816 571.90234375 87.993096279156816 571.90234375 94.342705654156816 12.6953125 94.342705654156816"/>
        <polygon class="cls-2" points="12.6953125 94.140503759059357 12.6953125 87.790894384059357 6.3466796875 87.790894384059357 6.3466796875 55.701050634059357 0 55.701050634059357 0 32.613160009059357 6.3466796875 32.613160009059357 6.3466796875 9.583863134059357 12.6953125 9.583863134059357 12.6953125 3.235230321559357 571.90234375 3.235230321559357 571.90234375 9.583863134059357 578.25 9.583863134059357 578.25 32.613160009059357 584.59765625 32.613160009059357 584.59765625 55.701050634059357 578.25 55.701050634059357 578.25 87.790894384059357 571.90234375 87.790894384059357 571.90234375 94.140503759059357 12.6953125 94.140503759059357"/>
        <polygon class="cls-2" points="12.6953125 93.938301863961897 12.6953125 87.588692488961897 6.3466796875 87.588692488961897 6.3466796875 55.498848738961897 0 55.498848738961897 0 32.410958113961897 6.3466796875 32.410958113961897 6.3466796875 9.381661238961897 12.6953125 9.381661238961897 12.6953125 3.033028426461897 571.90234375 3.033028426461897 571.90234375 9.381661238961897 578.25 9.381661238961897 578.25 32.410958113961897 584.59765625 32.410958113961897 584.59765625 55.498848738961897 578.25 55.498848738961897 578.25 87.588692488961897 571.90234375 87.588692488961897 571.90234375 93.938301863961897 12.6953125 93.938301863961897"/>
        <polygon class="cls-2" points="12.6953125 93.736099968864437 12.6953125 87.386490593864437 6.3466796875 87.386490593864437 6.3466796875 55.296646843864437 0 55.296646843864437 0 32.208756218864437 6.3466796875 32.208756218864437 6.3466796875 9.179459343864437 12.6953125 9.179459343864437 12.6953125 2.830826531364437 571.90234375 2.830826531364437 571.90234375 9.179459343864437 578.25 9.179459343864437 578.25 32.208756218864437 584.59765625 32.208756218864437 584.59765625 55.296646843864437 578.25 55.296646843864437 578.25 87.386490593864437 571.90234375 87.386490593864437 571.90234375 93.736099968864437 12.6953125 93.736099968864437"/>
        <polygon class="cls-2" points="12.6953125 93.533898073766977 12.6953125 87.184288698766977 6.3466796875 87.184288698766977 6.3466796875 55.094444948766977 0 55.094444948766977 0 32.006554323766977 6.3466796875 32.006554323766977 6.3466796875 8.977257448766977 12.6953125 8.977257448766977 12.6953125 2.628624636266977 571.90234375 2.628624636266977 571.90234375 8.977257448766977 578.25 8.977257448766977 578.25 32.006554323766977 584.59765625 32.006554323766977 584.59765625 55.094444948766977 578.25 55.094444948766977 578.25 87.184288698766977 571.90234375 87.184288698766977 571.90234375 93.533898073766977 12.6953125 93.533898073766977"/>
        <polygon class="cls-2" points="12.6953125 93.331696178669517 12.6953125 86.982086803669517 6.3466796875 86.982086803669517 6.3466796875 54.892243053669517 0 54.892243053669517 0 31.804352428669517 6.3466796875 31.804352428669517 6.3466796875 8.775055553669517 12.6953125 8.775055553669517 12.6953125 2.426422741169517 571.90234375 2.426422741169517 571.90234375 8.775055553669517 578.25 8.775055553669517 578.25 31.804352428669517 584.59765625 31.804352428669517 584.59765625 54.892243053669517 578.25 54.892243053669517 578.25 86.982086803669517 571.90234375 86.982086803669517 571.90234375 93.331696178669517 12.6953125 93.331696178669517"/>
        <polygon class="cls-2" points="12.6953125 93.129494283572058 12.6953125 86.779884908572058 6.3466796875 86.779884908572058 6.3466796875 54.690041158572058 0 54.690041158572058 0 31.602150533572058 6.3466796875 31.602150533572058 6.3466796875 8.572853658572058 12.6953125 8.572853658572058 12.6953125 2.224220846072058 571.90234375 2.224220846072058 571.90234375 8.572853658572058 578.25 8.572853658572058 578.25 31.602150533572058 584.59765625 31.602150533572058 584.59765625 54.690041158572058 578.25 54.690041158572058 578.25 86.779884908572058 571.90234375 86.779884908572058 571.90234375 93.129494283572058 12.6953125 93.129494283572058"/>
        <polygon class="cls-2" points="12.6953125 92.927292388474598 12.6953125 86.577683013474598 6.3466796875 86.577683013474598 6.3466796875 54.487839263474598 0 54.487839263474598 0 31.399948638474598 6.3466796875 31.399948638474598 6.3466796875 8.370651763474598 12.6953125 8.370651763474598 12.6953125 2.022018950974598 571.90234375 2.022018950974598 571.90234375 8.370651763474598 578.25 8.370651763474598 578.25 31.399948638474598 584.59765625 31.399948638474598 584.59765625 54.487839263474598 578.25 54.487839263474598 578.25 86.577683013474598 571.90234375 86.577683013474598 571.90234375 92.927292388474598 12.6953125 92.927292388474598"/>
        <polygon class="cls-2" points="12.6953125 92.725090493377138 12.6953125 86.375481118377138 6.3466796875 86.375481118377138 6.3466796875 54.285637368377138 0 54.285637368377138 0 31.197746743377138 6.3466796875 31.197746743377138 6.3466796875 8.168449868377138 12.6953125 8.168449868377138 12.6953125 1.819817055877138 571.90234375 1.819817055877138 571.90234375 8.168449868377138 578.25 8.168449868377138 578.25 31.197746743377138 584.59765625 31.197746743377138 584.59765625 54.285637368377138 578.25 54.285637368377138 578.25 86.375481118377138 571.90234375 86.375481118377138 571.90234375 92.725090493377138 12.6953125 92.725090493377138"/>
        <polygon class="cls-2" points="12.6953125 92.522888598279678 12.6953125 86.173279223279678 6.3466796875 86.173279223279678 6.3466796875 54.083435473279678 0 54.083435473279678 0 30.995544848279678 6.3466796875 30.995544848279678 6.3466796875 7.966247973279678 12.6953125 7.966247973279678 12.6953125 1.617615160779678 571.90234375 1.617615160779678 571.90234375 7.966247973279678 578.25 7.966247973279678 578.25 30.995544848279678 584.59765625 30.995544848279678 584.59765625 54.083435473279678 578.25 54.083435473279678 578.25 86.173279223279678 571.90234375 86.173279223279678 571.90234375 92.522888598279678 12.6953125 92.522888598279678"/>
        <polygon class="cls-2" points="12.6953125 92.320686703182218 12.6953125 85.971077328182218 6.3466796875 85.971077328182218 6.3466796875 53.881233578182218 0 53.881233578182218 0 30.793342953182218 6.3466796875 30.793342953182218 6.3466796875 7.764046078182218 12.6953125 7.764046078182218 12.6953125 1.415413265682218 571.90234375 1.415413265682218 571.90234375 7.764046078182218 578.25 7.764046078182218 578.25 30.793342953182218 584.59765625 30.793342953182218 584.59765625 53.881233578182218 578.25 53.881233578182218 578.25 85.971077328182218 571.90234375 85.971077328182218 571.90234375 92.320686703182218 12.6953125 92.320686703182218"/>
        <polygon class="cls-2" points="12.6953125 92.118484808084759 12.6953125 85.768875433084759 6.3466796875 85.768875433084759 6.3466796875 53.679031683084759 0 53.679031683084759 0 30.591141058084759 6.3466796875 30.591141058084759 6.3466796875 7.561844183084759 12.6953125 7.561844183084759 12.6953125 1.213211370584759 571.90234375 1.213211370584759 571.90234375 7.561844183084759 578.25 7.561844183084759 578.25 30.591141058084759 584.59765625 30.591141058084759 584.59765625 53.679031683084759 578.25 53.679031683084759 578.25 85.768875433084759 571.90234375 85.768875433084759 571.90234375 92.118484808084759 12.6953125 92.118484808084759"/>
        <polygon class="cls-2" points="12.6953125 91.916282912987299 12.6953125 85.566673537987299 6.3466796875 85.566673537987299 6.3466796875 53.476829787987299 0 53.476829787987299 0 30.388939162987299 6.3466796875 30.388939162987299 6.3466796875 7.359642287987299 12.6953125 7.359642287987299 12.6953125 1.011009475487299 571.90234375 1.011009475487299 571.90234375 7.359642287987299 578.25 7.359642287987299 578.25 30.388939162987299 584.59765625 30.388939162987299 584.59765625 53.476829787987299 578.25 53.476829787987299 578.25 85.566673537987299 571.90234375 85.566673537987299 571.90234375 91.916282912987299 12.6953125 91.916282912987299"/>
        <polygon class="cls-2" points="12.6953125 91.714081017889839 12.6953125 85.364471642889839 6.3466796875 85.364471642889839 6.3466796875 53.274627892889839 0 53.274627892889839 0 30.186737267889839 6.3466796875 30.186737267889839 6.3466796875 7.157440392889839 12.6953125 7.157440392889839 12.6953125 .808807580389839 571.90234375 .808807580389839 571.90234375 7.157440392889839 578.25 7.157440392889839 578.25 30.186737267889839 584.59765625 30.186737267889839 584.59765625 53.274627892889839 578.25 53.274627892889839 578.25 85.364471642889839 571.90234375 85.364471642889839 571.90234375 91.714081017889839 12.6953125 91.714081017889839"/>
        <polygon class="cls-2" points="12.6953125 91.511879122792379 12.6953125 85.162269747792379 6.3466796875 85.162269747792379 6.3466796875 53.072425997792379 0 53.072425997792379 0 29.984535372792379 6.3466796875 29.984535372792379 6.3466796875 6.955238497792379 12.6953125 6.955238497792379 12.6953125 .606605685292379 571.90234375 .606605685292379 571.90234375 6.955238497792379 578.25 6.955238497792379 578.25 29.984535372792379 584.59765625 29.984535372792379 584.59765625 53.072425997792379 578.25 53.072425997792379 578.25 85.162269747792379 571.90234375 85.162269747792379 571.90234375 91.511879122792379 12.6953125 91.511879122792379"/>
        <polygon class="cls-2" points="12.6953125 91.30967722769492 12.6953125 84.96006785269492 6.3466796875 84.96006785269492 6.3466796875 52.87022410269492 0 52.87022410269492 0 29.78233347769492 6.3466796875 29.78233347769492 6.3466796875 6.75303660269492 12.6953125 6.75303660269492 12.6953125 .40440379019492 571.90234375 .40440379019492 571.90234375 6.75303660269492 578.25 6.75303660269492 578.25 29.78233347769492 584.59765625 29.78233347769492 584.59765625 52.87022410269492 578.25 52.87022410269492 578.25 84.96006785269492 571.90234375 84.96006785269492 571.90234375 91.30967722769492 12.6953125 91.30967722769492"/>
        <polygon class="cls-2" points="12.6953125 91.10747533259746 12.6953125 84.75786595759746 6.3466796875 84.75786595759746 6.3466796875 52.66802220759746 0 52.66802220759746 0 29.58013158259746 6.3466796875 29.58013158259746 6.3466796875 6.55083470759746 12.6953125 6.55083470759746 12.6953125 .20220189509746 571.90234375 .20220189509746 571.90234375 6.55083470759746 578.25 6.55083470759746 578.25 29.58013158259746 584.59765625 29.58013158259746 584.59765625 52.66802220759746 578.25 52.66802220759746 578.25 84.75786595759746 571.90234375 84.75786595759746 571.90234375 91.10747533259746 12.6953125 91.10747533259746"/>
        <polygon class="cls-2" points="12.6953125 90.9052734375 12.6953125 84.5556640625 6.3466796875 84.5556640625 6.3466796875 52.4658203125 0 52.4658203125 0 29.3779296875 6.3466796875 29.3779296875 6.3466796875 6.3486328125 12.6953125 6.3486328125 12.6953125 0 571.90234375 0 571.90234375 6.3486328125 578.25 6.3486328125 578.25 29.3779296875 584.59765625 29.3779296875 584.59765625 52.4658203125 578.25 52.4658203125 578.25 84.5556640625 571.90234375 84.5556640625 571.90234375 90.9052734375 12.6953125 90.9052734375"/>
      </g>
      <path class="cls-1" d="M576.227253464909154,31.399931137380918V8.370765564575777h-6.347857784858206V2.022784632730691H21.064599679806634c.000007828839443,0-6.347853078194021,0-6.347857784858206,0v6.347980931845086h-6.347857784858206v23.029165572805141H2.021026325228377v19.043450207587739h6.347888571608564-.00003078674672v32.091161849995842h6.347857784858206v6.347980931846905h555.16265378510252v-6.347980931846905h6.347857784858206v-32.091161849995842h-.00003078674672,6.347888571606745v-19.043450207587739h-6.347857784860025Z"/>
    </g>
    <g>
      <g>
        <g>
          <path class="cls-2" d="M507.47265625,25.870162066070407v-8.7138671875h6.1044921875v1.0439453125h1.0439453125v4.017578125h-1.0439453125v1.04296875h-3.130859375v2.609375h-2.9736328125ZM511.6474609375,20.287154253570407v-.1572265625h-1.201171875v.1572265625h1.201171875Z"/>
          <path class="cls-2" d="M515.5234375,25.870162066070407v-1.04296875h-1.04296875v-6.626953125h1.04296875v-1.0439453125h5.0615234375v1.0439453125h1.0439453125v6.626953125h-1.0439453125v1.04296875h-5.0615234375ZM518.6552734375,22.896529253570407v-2.7666015625h-1.201171875v2.7666015625h1.201171875Z"/>
          <polygon class="cls-2" points="521.48828125 25.870162066070407 521.48828125 22.896529253570407 523.5751953125 22.896529253570407 523.5751953125 20.129927691070407 521.48828125 20.129927691070407 521.48828125 17.156294878570407 528.63671875 17.156294878570407 528.63671875 20.129927691070407 526.548828125 20.129927691070407 526.548828125 22.896529253570407 528.63671875 22.896529253570407 528.63671875 25.870162066070407 521.48828125 25.870162066070407"/>
          <polygon class="cls-2" points="532.6708984375 25.870162066070407 532.6708984375 24.827193316070407 531.626953125 24.827193316070407 531.626953125 23.260787066070407 531.4697265625 23.260787066070407 531.4697265625 25.870162066070407 528.49609375 25.870162066070407 528.49609375 17.156294878570407 531.4697265625 17.156294878570407 531.4697265625 18.200240191070407 532.5126953125 18.200240191070407 532.5126953125 19.765669878570407 532.6708984375 19.765669878570407 532.6708984375 17.156294878570407 535.64453125 17.156294878570407 535.64453125 25.870162066070407 532.6708984375 25.870162066070407"/>
          <polygon class="cls-2" points="537.5908203125 25.870162066070407 537.5908203125 20.129927691070407 535.50390625 20.129927691070407 535.50390625 17.156294878570407 542.65234375 17.156294878570407 542.65234375 20.129927691070407 540.564453125 20.129927691070407 540.564453125 25.870162066070407 537.5908203125 25.870162066070407"/>
          <polygon class="cls-2" points="542.51171875 25.870162066070407 542.51171875 22.896529253570407 546.6865234375 22.896529253570407 546.6865234375 22.739302691070407 543.5546875 22.739302691070407 543.5546875 21.695357378570407 542.51171875 21.695357378570407 542.51171875 18.200240191070407 543.5546875 18.200240191070407 543.5546875 17.156294878570407 549.66015625 17.156294878570407 549.66015625 20.129927691070407 549.1376953125 20.129927691070407 549.1376953125 20.809615191070407 549.66015625 20.809615191070407 549.66015625 24.827193316070407 549.1376953125 24.827193316070407 549.1376953125 25.870162066070407 542.51171875 25.870162066070407"/>
        </g>
        <g>
          <path class="cls-2" d="M507.47265625,25.635499845780942v-8.7138671875h6.1044921875v1.0439453125h1.0439453125v4.017578125h-1.0439453125v1.04296875h-3.130859375v2.609375h-2.9736328125ZM511.6474609375,20.052492033280942v-.1572265625h-1.201171875v.1572265625h1.201171875Z"/>
          <path class="cls-2" d="M515.5234375,25.635499845780942v-1.04296875h-1.04296875v-6.626953125h1.04296875v-1.0439453125h5.0615234375v1.0439453125h1.0439453125v6.626953125h-1.0439453125v1.04296875h-5.0615234375ZM518.6552734375,22.661867033280942v-2.7666015625h-1.201171875v2.7666015625h1.201171875Z"/>
          <polygon class="cls-2" points="521.48828125 25.635499845780942 521.48828125 22.661867033280942 523.5751953125 22.661867033280942 523.5751953125 19.895265470780942 521.48828125 19.895265470780942 521.48828125 16.921632658280942 528.63671875 16.921632658280942 528.63671875 19.895265470780942 526.548828125 19.895265470780942 526.548828125 22.661867033280942 528.63671875 22.661867033280942 528.63671875 25.635499845780942 521.48828125 25.635499845780942"/>
          <polygon class="cls-2" points="532.6708984375 25.635499845780942 532.6708984375 24.592531095780942 531.626953125 24.592531095780942 531.626953125 23.026124845780942 531.4697265625 23.026124845780942 531.4697265625 25.635499845780942 528.49609375 25.635499845780942 528.49609375 16.921632658280942 531.4697265625 16.921632658280942 531.4697265625 17.965577970780942 532.5126953125 17.965577970780942 532.5126953125 19.531007658280942 532.6708984375 19.531007658280942 532.6708984375 16.921632658280942 535.64453125 16.921632658280942 535.64453125 25.635499845780942 532.6708984375 25.635499845780942"/>
          <polygon class="cls-2" points="537.5908203125 25.635499845780942 537.5908203125 19.895265470780942 535.50390625 19.895265470780942 535.50390625 16.921632658280942 542.65234375 16.921632658280942 542.65234375 19.895265470780942 540.564453125 19.895265470780942 540.564453125 25.635499845780942 537.5908203125 25.635499845780942"/>
          <polygon class="cls-2" points="542.51171875 25.635499845780942 542.51171875 22.661867033280942 546.6865234375 22.661867033280942 546.6865234375 22.504640470780942 543.5546875 22.504640470780942 543.5546875 21.460695158280942 542.51171875 21.460695158280942 542.51171875 17.965577970780942 543.5546875 17.965577970780942 543.5546875 16.921632658280942 549.66015625 16.921632658280942 549.66015625 19.895265470780942 549.1376953125 19.895265470780942 549.1376953125 20.574952970780942 549.66015625 20.574952970780942 549.66015625 24.592531095780942 549.1376953125 24.592531095780942 549.1376953125 25.635499845780942 542.51171875 25.635499845780942"/>
        </g>
        <g>
          <path class="cls-2" d="M507.47265625,25.400837625491477v-8.7138671875h6.1044921875v1.0439453125h1.0439453125v4.017578125h-1.0439453125v1.04296875h-3.130859375v2.609375h-2.9736328125ZM511.6474609375,19.817829812991477v-.1572265625h-1.201171875v.1572265625h1.201171875Z"/>
          <path class="cls-2" d="M515.5234375,25.400837625491477v-1.04296875h-1.04296875v-6.626953125h1.04296875v-1.0439453125h5.0615234375v1.0439453125h1.0439453125v6.626953125h-1.0439453125v1.04296875h-5.0615234375ZM518.6552734375,22.427204812991477v-2.7666015625h-1.201171875v2.7666015625h1.201171875Z"/>
          <polygon class="cls-2" points="521.48828125 25.400837625491477 521.48828125 22.427204812991477 523.5751953125 22.427204812991477 523.5751953125 19.660603250491477 521.48828125 19.660603250491477 521.48828125 16.686970437991477 528.63671875 16.686970437991477 528.63671875 19.660603250491477 526.548828125 19.660603250491477 526.548828125 22.427204812991477 528.63671875 22.427204812991477 528.63671875 25.400837625491477 521.48828125 25.400837625491477"/>
          <polygon class="cls-2" points="532.6708984375 25.400837625491477 532.6708984375 24.357868875491477 531.626953125 24.357868875491477 531.626953125 22.791462625491477 531.4697265625 22.791462625491477 531.4697265625 25.400837625491477 528.49609375 25.400837625491477 528.49609375 16.686970437991477 531.4697265625 16.686970437991477 531.4697265625 17.730915750491477 532.5126953125 17.730915750491477 532.5126953125 19.296345437991477 532.6708984375 19.296345437991477 532.6708984375 16.686970437991477 535.64453125 16.686970437991477 535.64453125 25.400837625491477 532.6708984375 25.400837625491477"/>
          <polygon class="cls-2" points="537.5908203125 25.400837625491477 537.5908203125 19.660603250491477 535.50390625 19.660603250491477 535.50390625 16.686970437991477 542.65234375 16.686970437991477 542.65234375 19.660603250491477 540.564453125 19.660603250491477 540.564453125 25.400837625491477 537.5908203125 25.400837625491477"/>
          <polygon class="cls-2" points="542.51171875 25.400837625491477 542.51171875 22.427204812991477 546.6865234375 22.427204812991477 546.6865234375 22.269978250491477 543.5546875 22.269978250491477 543.5546875 21.226032937991477 542.51171875 21.226032937991477 542.51171875 17.730915750491477 543.5546875 17.730915750491477 543.5546875 16.686970437991477 549.66015625 16.686970437991477 549.66015625 19.660603250491477 549.1376953125 19.660603250491477 549.1376953125 20.340290750491477 549.66015625 20.340290750491477 549.66015625 24.357868875491477 549.1376953125 24.357868875491477 549.1376953125 25.400837625491477 542.51171875 25.400837625491477"/>
        </g>
        <g>
          <path class="cls-2" d="M507.47265625,25.166175405202011v-8.7138671875h6.1044921875v1.0439453125h1.0439453125v4.017578125h-1.0439453125v1.04296875h-3.130859375v2.609375h-2.9736328125ZM511.6474609375,19.583167592702011v-.1572265625h-1.201171875v.1572265625h1.201171875Z"/>
          <path class="cls-2" d="M515.5234375,25.166175405202011v-1.04296875h-1.04296875v-6.626953125h1.04296875v-1.0439453125h5.0615234375v1.0439453125h1.0439453125v6.626953125h-1.0439453125v1.04296875h-5.0615234375ZM518.6552734375,22.192542592702011v-2.7666015625h-1.201171875v2.7666015625h1.201171875Z"/>
          <polygon class="cls-2" points="521.48828125 25.166175405202011 521.48828125 22.192542592702011 523.5751953125 22.192542592702011 523.5751953125 19.425941030202011 521.48828125 19.425941030202011 521.48828125 16.452308217702011 528.63671875 16.452308217702011 528.63671875 19.425941030202011 526.548828125 19.425941030202011 526.548828125 22.192542592702011 528.63671875 22.192542592702011 528.63671875 25.166175405202011 521.48828125 25.166175405202011"/>
          <polygon class="cls-2" points="532.6708984375 25.166175405202011 532.6708984375 24.123206655202011 531.626953125 24.123206655202011 531.626953125 22.556800405202011 531.4697265625 22.556800405202011 531.4697265625 25.166175405202011 528.49609375 25.166175405202011 528.49609375 16.452308217702011 531.4697265625 16.452308217702011 531.4697265625 17.496253530202011 532.5126953125 17.496253530202011 532.5126953125 19.061683217702011 532.6708984375 19.061683217702011 532.6708984375 16.452308217702011 535.64453125 16.452308217702011 535.64453125 25.166175405202011 532.6708984375 25.166175405202011"/>
          <polygon class="cls-2" points="537.5908203125 25.166175405202011 537.5908203125 19.425941030202011 535.50390625 19.425941030202011 535.50390625 16.452308217702011 542.65234375 16.452308217702011 542.65234375 19.425941030202011 540.564453125 19.425941030202011 540.564453125 25.166175405202011 537.5908203125 25.166175405202011"/>
          <polygon class="cls-2" points="542.51171875 25.166175405202011 542.51171875 22.192542592702011 546.6865234375 22.192542592702011 546.6865234375 22.035316030202011 543.5546875 22.035316030202011 543.5546875 20.991370717702011 542.51171875 20.991370717702011 542.51171875 17.496253530202011 543.5546875 17.496253530202011 543.5546875 16.452308217702011 549.66015625 16.452308217702011 549.66015625 19.425941030202011 549.1376953125 19.425941030202011 549.1376953125 20.105628530202011 549.66015625 20.105628530202011 549.66015625 24.123206655202011 549.1376953125 24.123206655202011 549.1376953125 25.166175405202011 542.51171875 25.166175405202011"/>
        </g>
        <g>
          <path class="cls-2" d="M507.47265625,24.931513184912546v-8.7138671875h6.1044921875v1.0439453125h1.0439453125v4.017578125h-1.0439453125v1.04296875h-3.130859375v2.609375h-2.9736328125ZM511.6474609375,19.348505372412546v-.1572265625h-1.201171875v.1572265625h1.201171875Z"/>
          <path class="cls-2" d="M515.5234375,24.931513184912546v-1.04296875h-1.04296875v-6.626953125h1.04296875v-1.0439453125h5.0615234375v1.0439453125h1.0439453125v6.626953125h-1.0439453125v1.04296875h-5.0615234375ZM518.6552734375,21.957880372412546v-2.7666015625h-1.201171875v2.7666015625h1.201171875Z"/>
          <polygon class="cls-2" points="521.48828125 24.931513184912546 521.48828125 21.957880372412546 523.5751953125 21.957880372412546 523.5751953125 19.191278809912546 521.48828125 19.191278809912546 521.48828125 16.217645997412546 528.63671875 16.217645997412546 528.63671875 19.191278809912546 526.548828125 19.191278809912546 526.548828125 21.957880372412546 528.63671875 21.957880372412546 528.63671875 24.931513184912546 521.48828125 24.931513184912546"/>
          <polygon class="cls-2" points="532.6708984375 24.931513184912546 532.6708984375 23.888544434912546 531.626953125 23.888544434912546 531.626953125 22.322138184912546 531.4697265625 22.322138184912546 531.4697265625 24.931513184912546 528.49609375 24.931513184912546 528.49609375 16.217645997412546 531.4697265625 16.217645997412546 531.4697265625 17.261591309912546 532.5126953125 17.261591309912546 532.5126953125 18.827020997412546 532.6708984375 18.827020997412546 532.6708984375 16.217645997412546 535.64453125 16.217645997412546 535.64453125 24.931513184912546 532.6708984375 24.931513184912546"/>
          <polygon class="cls-2" points="537.5908203125 24.931513184912546 537.5908203125 19.191278809912546 535.50390625 19.191278809912546 535.50390625 16.217645997412546 542.65234375 16.217645997412546 542.65234375 19.191278809912546 540.564453125 19.191278809912546 540.564453125 24.931513184912546 537.5908203125 24.931513184912546"/>
          <polygon class="cls-2" points="542.51171875 24.931513184912546 542.51171875 21.957880372412546 546.6865234375 21.957880372412546 546.6865234375 21.800653809912546 543.5546875 21.800653809912546 543.5546875 20.756708497412546 542.51171875 20.756708497412546 542.51171875 17.261591309912546 543.5546875 17.261591309912546 543.5546875 16.217645997412546 549.66015625 16.217645997412546 549.66015625 19.191278809912546 549.1376953125 19.191278809912546 549.1376953125 19.870966309912546 549.66015625 19.870966309912546 549.66015625 23.888544434912546 549.1376953125 23.888544434912546 549.1376953125 24.931513184912546 542.51171875 24.931513184912546"/>
        </g>
        <g>
          <path class="cls-2" d="M507.47265625,24.696850964623081v-8.7138671875h6.1044921875v1.0439453125h1.0439453125v4.017578125h-1.0439453125v1.04296875h-3.130859375v2.609375h-2.9736328125ZM511.6474609375,19.113843152123081v-.1572265625h-1.201171875v.1572265625h1.201171875Z"/>
          <path class="cls-2" d="M515.5234375,24.696850964623081v-1.04296875h-1.04296875v-6.626953125h1.04296875v-1.0439453125h5.0615234375v1.0439453125h1.0439453125v6.626953125h-1.0439453125v1.04296875h-5.0615234375ZM518.6552734375,21.723218152123081v-2.7666015625h-1.201171875v2.7666015625h1.201171875Z"/>
          <polygon class="cls-2" points="521.48828125 24.696850964623081 521.48828125 21.723218152123081 523.5751953125 21.723218152123081 523.5751953125 18.956616589623081 521.48828125 18.956616589623081 521.48828125 15.982983777123081 528.63671875 15.982983777123081 528.63671875 18.956616589623081 526.548828125 18.956616589623081 526.548828125 21.723218152123081 528.63671875 21.723218152123081 528.63671875 24.696850964623081 521.48828125 24.696850964623081"/>
          <polygon class="cls-2" points="532.6708984375 24.696850964623081 532.6708984375 23.653882214623081 531.626953125 23.653882214623081 531.626953125 22.087475964623081 531.4697265625 22.087475964623081 531.4697265625 24.696850964623081 528.49609375 24.696850964623081 528.49609375 15.982983777123081 531.4697265625 15.982983777123081 531.4697265625 17.026929089623081 532.5126953125 17.026929089623081 532.5126953125 18.592358777123081 532.6708984375 18.592358777123081 532.6708984375 15.982983777123081 535.64453125 15.982983777123081 535.64453125 24.696850964623081 532.6708984375 24.696850964623081"/>
          <polygon class="cls-2" points="537.5908203125 24.696850964623081 537.5908203125 18.956616589623081 535.50390625 18.956616589623081 535.50390625 15.982983777123081 542.65234375 15.982983777123081 542.65234375 18.956616589623081 540.564453125 18.956616589623081 540.564453125 24.696850964623081 537.5908203125 24.696850964623081"/>
          <polygon class="cls-2" points="542.51171875 24.696850964623081 542.51171875 21.723218152123081 546.6865234375 21.723218152123081 546.6865234375 21.565991589623081 543.5546875 21.565991589623081 543.5546875 20.522046277123081 542.51171875 20.522046277123081 542.51171875 17.026929089623081 543.5546875 17.026929089623081 543.5546875 15.982983777123081 549.66015625 15.982983777123081 549.66015625 18.956616589623081 549.1376953125 18.956616589623081 549.1376953125 19.636304089623081 549.66015625 19.636304089623081 549.66015625 23.653882214623081 549.1376953125 23.653882214623081 549.1376953125 24.696850964623081 542.51171875 24.696850964623081"/>
        </g>
        <g>
          <path class="cls-2" d="M507.47265625,24.462188744333616v-8.7138671875h6.1044921875v1.0439453125h1.0439453125v4.017578125h-1.0439453125v1.04296875h-3.130859375v2.609375h-2.9736328125ZM511.6474609375,18.879180931833616v-.1572265625h-1.201171875v.1572265625h1.201171875Z"/>
          <path class="cls-2" d="M515.5234375,24.462188744333616v-1.04296875h-1.04296875v-6.626953125h1.04296875v-1.0439453125h5.0615234375v1.0439453125h1.0439453125v6.626953125h-1.0439453125v1.04296875h-5.0615234375ZM518.6552734375,21.488555931833616v-2.7666015625h-1.201171875v2.7666015625h1.201171875Z"/>
          <polygon class="cls-2" points="521.48828125 24.462188744333616 521.48828125 21.488555931833616 523.5751953125 21.488555931833616 523.5751953125 18.721954369333616 521.48828125 18.721954369333616 521.48828125 15.748321556833616 528.63671875 15.748321556833616 528.63671875 18.721954369333616 526.548828125 18.721954369333616 526.548828125 21.488555931833616 528.63671875 21.488555931833616 528.63671875 24.462188744333616 521.48828125 24.462188744333616"/>
          <polygon class="cls-2" points="532.6708984375 24.462188744333616 532.6708984375 23.419219994333616 531.626953125 23.419219994333616 531.626953125 21.852813744333616 531.4697265625 21.852813744333616 531.4697265625 24.462188744333616 528.49609375 24.462188744333616 528.49609375 15.748321556833616 531.4697265625 15.748321556833616 531.4697265625 16.792266869333616 532.5126953125 16.792266869333616 532.5126953125 18.357696556833616 532.6708984375 18.357696556833616 532.6708984375 15.748321556833616 535.64453125 15.748321556833616 535.64453125 24.462188744333616 532.6708984375 24.462188744333616"/>
          <polygon class="cls-2" points="537.5908203125 24.462188744333616 537.5908203125 18.721954369333616 535.50390625 18.721954369333616 535.50390625 15.748321556833616 542.65234375 15.748321556833616 542.65234375 18.721954369333616 540.564453125 18.721954369333616 540.564453125 24.462188744333616 537.5908203125 24.462188744333616"/>
          <polygon class="cls-2" points="542.51171875 24.462188744333616 542.51171875 21.488555931833616 546.6865234375 21.488555931833616 546.6865234375 21.331329369333616 543.5546875 21.331329369333616 543.5546875 20.287384056833616 542.51171875 20.287384056833616 542.51171875 16.792266869333616 543.5546875 16.792266869333616 543.5546875 15.748321556833616 549.66015625 15.748321556833616 549.66015625 18.721954369333616 549.1376953125 18.721954369333616 549.1376953125 19.401641869333616 549.66015625 19.401641869333616 549.66015625 23.419219994333616 549.1376953125 23.419219994333616 549.1376953125 24.462188744333616 542.51171875 24.462188744333616"/>
        </g>
        <g>
          <path class="cls-2" d="M507.47265625,24.227526524044151v-8.7138671875h6.1044921875v1.0439453125h1.0439453125v4.017578125h-1.0439453125v1.04296875h-3.130859375v2.609375h-2.9736328125ZM511.6474609375,18.644518711544151v-.1572265625h-1.201171875v.1572265625h1.201171875Z"/>
          <path class="cls-2" d="M515.5234375,24.227526524044151v-1.04296875h-1.04296875v-6.626953125h1.04296875v-1.0439453125h5.0615234375v1.0439453125h1.0439453125v6.626953125h-1.0439453125v1.04296875h-5.0615234375ZM518.6552734375,21.253893711544151v-2.7666015625h-1.201171875v2.7666015625h1.201171875Z"/>
          <polygon class="cls-2" points="521.48828125 24.227526524044151 521.48828125 21.253893711544151 523.5751953125 21.253893711544151 523.5751953125 18.487292149044151 521.48828125 18.487292149044151 521.48828125 15.513659336544151 528.63671875 15.513659336544151 528.63671875 18.487292149044151 526.548828125 18.487292149044151 526.548828125 21.253893711544151 528.63671875 21.253893711544151 528.63671875 24.227526524044151 521.48828125 24.227526524044151"/>
          <polygon class="cls-2" points="532.6708984375 24.227526524044151 532.6708984375 23.184557774044151 531.626953125 23.184557774044151 531.626953125 21.618151524044151 531.4697265625 21.618151524044151 531.4697265625 24.227526524044151 528.49609375 24.227526524044151 528.49609375 15.513659336544151 531.4697265625 15.513659336544151 531.4697265625 16.557604649044151 532.5126953125 16.557604649044151 532.5126953125 18.123034336544151 532.6708984375 18.123034336544151 532.6708984375 15.513659336544151 535.64453125 15.513659336544151 535.64453125 24.227526524044151 532.6708984375 24.227526524044151"/>
          <polygon class="cls-2" points="537.5908203125 24.227526524044151 537.5908203125 18.487292149044151 535.50390625 18.487292149044151 535.50390625 15.513659336544151 542.65234375 15.513659336544151 542.65234375 18.487292149044151 540.564453125 18.487292149044151 540.564453125 24.227526524044151 537.5908203125 24.227526524044151"/>
          <polygon class="cls-2" points="542.51171875 24.227526524044151 542.51171875 21.253893711544151 546.6865234375 21.253893711544151 546.6865234375 21.096667149044151 543.5546875 21.096667149044151 543.5546875 20.052721836544151 542.51171875 20.052721836544151 542.51171875 16.557604649044151 543.5546875 16.557604649044151 543.5546875 15.513659336544151 549.66015625 15.513659336544151 549.66015625 18.487292149044151 549.1376953125 18.487292149044151 549.1376953125 19.166979649044151 549.66015625 19.166979649044151 549.66015625 23.184557774044151 549.1376953125 23.184557774044151 549.1376953125 24.227526524044151 542.51171875 24.227526524044151"/>
        </g>
        <g>
          <path class="cls-2" d="M507.47265625,23.992864303754686v-8.7138671875h6.1044921875v1.0439453125h1.0439453125v4.017578125h-1.0439453125v1.04296875h-3.130859375v2.609375h-2.9736328125ZM511.6474609375,18.409856491254686v-.1572265625h-1.201171875v.1572265625h1.201171875Z"/>
          <path class="cls-2" d="M515.5234375,23.992864303754686v-1.04296875h-1.04296875v-6.626953125h1.04296875v-1.0439453125h5.0615234375v1.0439453125h1.0439453125v6.626953125h-1.0439453125v1.04296875h-5.0615234375ZM518.6552734375,21.019231491254686v-2.7666015625h-1.201171875v2.7666015625h1.201171875Z"/>
          <polygon class="cls-2" points="521.48828125 23.992864303754686 521.48828125 21.019231491254686 523.5751953125 21.019231491254686 523.5751953125 18.252629928754686 521.48828125 18.252629928754686 521.48828125 15.278997116254686 528.63671875 15.278997116254686 528.63671875 18.252629928754686 526.548828125 18.252629928754686 526.548828125 21.019231491254686 528.63671875 21.019231491254686 528.63671875 23.992864303754686 521.48828125 23.992864303754686"/>
          <polygon class="cls-2" points="532.6708984375 23.992864303754686 532.6708984375 22.949895553754686 531.626953125 22.949895553754686 531.626953125 21.383489303754686 531.4697265625 21.383489303754686 531.4697265625 23.992864303754686 528.49609375 23.992864303754686 528.49609375 15.278997116254686 531.4697265625 15.278997116254686 531.4697265625 16.322942428754686 532.5126953125 16.322942428754686 532.5126953125 17.888372116254686 532.6708984375 17.888372116254686 532.6708984375 15.278997116254686 535.64453125 15.278997116254686 535.64453125 23.992864303754686 532.6708984375 23.992864303754686"/>
          <polygon class="cls-2" points="537.5908203125 23.992864303754686 537.5908203125 18.252629928754686 535.50390625 18.252629928754686 535.50390625 15.278997116254686 542.65234375 15.278997116254686 542.65234375 18.252629928754686 540.564453125 18.252629928754686 540.564453125 23.992864303754686 537.5908203125 23.992864303754686"/>
          <polygon class="cls-2" points="542.51171875 23.992864303754686 542.51171875 21.019231491254686 546.6865234375 21.019231491254686 546.6865234375 20.862004928754686 543.5546875 20.862004928754686 543.5546875 19.818059616254686 542.51171875 19.818059616254686 542.51171875 16.322942428754686 543.5546875 16.322942428754686 543.5546875 15.278997116254686 549.66015625 15.278997116254686 549.66015625 18.252629928754686 549.1376953125 18.252629928754686 549.1376953125 18.932317428754686 549.66015625 18.932317428754686 549.66015625 22.949895553754686 549.1376953125 22.949895553754686 549.1376953125 23.992864303754686 542.51171875 23.992864303754686"/>
        </g>
        <g>
          <path class="cls-2" d="M507.47265625,23.758202083465221v-8.7138671875h6.1044921875v1.0439453125h1.0439453125v4.017578125h-1.0439453125v1.04296875h-3.130859375v2.609375h-2.9736328125ZM511.6474609375,18.175194270965221v-.1572265625h-1.201171875v.1572265625h1.201171875Z"/>
          <path class="cls-2" d="M515.5234375,23.758202083465221v-1.04296875h-1.04296875v-6.626953125h1.04296875v-1.0439453125h5.0615234375v1.0439453125h1.0439453125v6.626953125h-1.0439453125v1.04296875h-5.0615234375ZM518.6552734375,20.784569270965221v-2.7666015625h-1.201171875v2.7666015625h1.201171875Z"/>
          <polygon class="cls-2" points="521.48828125 23.758202083465221 521.48828125 20.784569270965221 523.5751953125 20.784569270965221 523.5751953125 18.017967708465221 521.48828125 18.017967708465221 521.48828125 15.044334895965221 528.63671875 15.044334895965221 528.63671875 18.017967708465221 526.548828125 18.017967708465221 526.548828125 20.784569270965221 528.63671875 20.784569270965221 528.63671875 23.758202083465221 521.48828125 23.758202083465221"/>
          <polygon class="cls-2" points="532.6708984375 23.758202083465221 532.6708984375 22.715233333465221 531.626953125 22.715233333465221 531.626953125 21.148827083465221 531.4697265625 21.148827083465221 531.4697265625 23.758202083465221 528.49609375 23.758202083465221 528.49609375 15.044334895965221 531.4697265625 15.044334895965221 531.4697265625 16.088280208465221 532.5126953125 16.088280208465221 532.5126953125 17.653709895965221 532.6708984375 17.653709895965221 532.6708984375 15.044334895965221 535.64453125 15.044334895965221 535.64453125 23.758202083465221 532.6708984375 23.758202083465221"/>
          <polygon class="cls-2" points="537.5908203125 23.758202083465221 537.5908203125 18.017967708465221 535.50390625 18.017967708465221 535.50390625 15.044334895965221 542.65234375 15.044334895965221 542.65234375 18.017967708465221 540.564453125 18.017967708465221 540.564453125 23.758202083465221 537.5908203125 23.758202083465221"/>
          <polygon class="cls-2" points="542.51171875 23.758202083465221 542.51171875 20.784569270965221 546.6865234375 20.784569270965221 546.6865234375 20.627342708465221 543.5546875 20.627342708465221 543.5546875 19.583397395965221 542.51171875 19.583397395965221 542.51171875 16.088280208465221 543.5546875 16.088280208465221 543.5546875 15.044334895965221 549.66015625 15.044334895965221 549.66015625 18.017967708465221 549.1376953125 18.017967708465221 549.1376953125 18.697655208465221 549.66015625 18.697655208465221 549.66015625 22.715233333465221 549.1376953125 22.715233333465221 549.1376953125 23.758202083465221 542.51171875 23.758202083465221"/>
        </g>
        <g>
          <path class="cls-2" d="M507.47265625,23.523539863175756v-8.7138671875h6.1044921875v1.0439453125h1.0439453125v4.017578125h-1.0439453125v1.04296875h-3.130859375v2.609375h-2.9736328125ZM511.6474609375,17.940532050675756v-.1572265625h-1.201171875v.1572265625h1.201171875Z"/>
          <path class="cls-2" d="M515.5234375,23.523539863175756v-1.04296875h-1.04296875v-6.626953125h1.04296875v-1.0439453125h5.0615234375v1.0439453125h1.0439453125v6.626953125h-1.0439453125v1.04296875h-5.0615234375ZM518.6552734375,20.549907050675756v-2.7666015625h-1.201171875v2.7666015625h1.201171875Z"/>
          <polygon class="cls-2" points="521.48828125 23.523539863175756 521.48828125 20.549907050675756 523.5751953125 20.549907050675756 523.5751953125 17.783305488175756 521.48828125 17.783305488175756 521.48828125 14.809672675675756 528.63671875 14.809672675675756 528.63671875 17.783305488175756 526.548828125 17.783305488175756 526.548828125 20.549907050675756 528.63671875 20.549907050675756 528.63671875 23.523539863175756 521.48828125 23.523539863175756"/>
          <polygon class="cls-2" points="532.6708984375 23.523539863175756 532.6708984375 22.480571113175756 531.626953125 22.480571113175756 531.626953125 20.914164863175756 531.4697265625 20.914164863175756 531.4697265625 23.523539863175756 528.49609375 23.523539863175756 528.49609375 14.809672675675756 531.4697265625 14.809672675675756 531.4697265625 15.853617988175756 532.5126953125 15.853617988175756 532.5126953125 17.419047675675756 532.6708984375 17.419047675675756 532.6708984375 14.809672675675756 535.64453125 14.809672675675756 535.64453125 23.523539863175756 532.6708984375 23.523539863175756"/>
          <polygon class="cls-2" points="537.5908203125 23.523539863175756 537.5908203125 17.783305488175756 535.50390625 17.783305488175756 535.50390625 14.809672675675756 542.65234375 14.809672675675756 542.65234375 17.783305488175756 540.564453125 17.783305488175756 540.564453125 23.523539863175756 537.5908203125 23.523539863175756"/>
          <polygon class="cls-2" points="542.51171875 23.523539863175756 542.51171875 20.549907050675756 546.6865234375 20.549907050675756 546.6865234375 20.392680488175756 543.5546875 20.392680488175756 543.5546875 19.348735175675756 542.51171875 19.348735175675756 542.51171875 15.853617988175756 543.5546875 15.853617988175756 543.5546875 14.809672675675756 549.66015625 14.809672675675756 549.66015625 17.783305488175756 549.1376953125 17.783305488175756 549.1376953125 18.462992988175756 549.66015625 18.462992988175756 549.66015625 22.480571113175756 549.1376953125 22.480571113175756 549.1376953125 23.523539863175756 542.51171875 23.523539863175756"/>
        </g>
        <g>
          <path class="cls-2" d="M507.47265625,23.288877642886291v-8.7138671875h6.1044921875v1.0439453125h1.0439453125v4.017578125h-1.0439453125v1.04296875h-3.130859375v2.609375h-2.9736328125ZM511.6474609375,17.705869830386291v-.1572265625h-1.201171875v.1572265625h1.201171875Z"/>
          <path class="cls-2" d="M515.5234375,23.288877642886291v-1.04296875h-1.04296875v-6.626953125h1.04296875v-1.0439453125h5.0615234375v1.0439453125h1.0439453125v6.626953125h-1.0439453125v1.04296875h-5.0615234375ZM518.6552734375,20.315244830386291v-2.7666015625h-1.201171875v2.7666015625h1.201171875Z"/>
          <polygon class="cls-2" points="521.48828125 23.288877642886291 521.48828125 20.315244830386291 523.5751953125 20.315244830386291 523.5751953125 17.548643267886291 521.48828125 17.548643267886291 521.48828125 14.575010455386291 528.63671875 14.575010455386291 528.63671875 17.548643267886291 526.548828125 17.548643267886291 526.548828125 20.315244830386291 528.63671875 20.315244830386291 528.63671875 23.288877642886291 521.48828125 23.288877642886291"/>
          <polygon class="cls-2" points="532.6708984375 23.288877642886291 532.6708984375 22.245908892886291 531.626953125 22.245908892886291 531.626953125 20.679502642886291 531.4697265625 20.679502642886291 531.4697265625 23.288877642886291 528.49609375 23.288877642886291 528.49609375 14.575010455386291 531.4697265625 14.575010455386291 531.4697265625 15.618955767886291 532.5126953125 15.618955767886291 532.5126953125 17.184385455386291 532.6708984375 17.184385455386291 532.6708984375 14.575010455386291 535.64453125 14.575010455386291 535.64453125 23.288877642886291 532.6708984375 23.288877642886291"/>
          <polygon class="cls-2" points="537.5908203125 23.288877642886291 537.5908203125 17.548643267886291 535.50390625 17.548643267886291 535.50390625 14.575010455386291 542.65234375 14.575010455386291 542.65234375 17.548643267886291 540.564453125 17.548643267886291 540.564453125 23.288877642886291 537.5908203125 23.288877642886291"/>
          <polygon class="cls-2" points="542.51171875 23.288877642886291 542.51171875 20.315244830386291 546.6865234375 20.315244830386291 546.6865234375 20.158018267886291 543.5546875 20.158018267886291 543.5546875 19.114072955386291 542.51171875 19.114072955386291 542.51171875 15.618955767886291 543.5546875 15.618955767886291 543.5546875 14.575010455386291 549.66015625 14.575010455386291 549.66015625 17.548643267886291 549.1376953125 17.548643267886291 549.1376953125 18.228330767886291 549.66015625 18.228330767886291 549.66015625 22.245908892886291 549.1376953125 22.245908892886291 549.1376953125 23.288877642886291 542.51171875 23.288877642886291"/>
        </g>
        <g>
          <path class="cls-2" d="M507.47265625,23.054215422596826v-8.7138671875h6.1044921875v1.0439453125h1.0439453125v4.017578125h-1.0439453125v1.04296875h-3.130859375v2.609375h-2.9736328125ZM511.6474609375,17.471207610096826v-.1572265625h-1.201171875v.1572265625h1.201171875Z"/>
          <path class="cls-2" d="M515.5234375,23.054215422596826v-1.04296875h-1.04296875v-6.626953125h1.04296875v-1.0439453125h5.0615234375v1.0439453125h1.0439453125v6.626953125h-1.0439453125v1.04296875h-5.0615234375ZM518.6552734375,20.080582610096826v-2.7666015625h-1.201171875v2.7666015625h1.201171875Z"/>
          <polygon class="cls-2" points="521.48828125 23.054215422596826 521.48828125 20.080582610096826 523.5751953125 20.080582610096826 523.5751953125 17.313981047596826 521.48828125 17.313981047596826 521.48828125 14.340348235096826 528.63671875 14.340348235096826 528.63671875 17.313981047596826 526.548828125 17.313981047596826 526.548828125 20.080582610096826 528.63671875 20.080582610096826 528.63671875 23.054215422596826 521.48828125 23.054215422596826"/>
          <polygon class="cls-2" points="532.6708984375 23.054215422596826 532.6708984375 22.011246672596826 531.626953125 22.011246672596826 531.626953125 20.444840422596826 531.4697265625 20.444840422596826 531.4697265625 23.054215422596826 528.49609375 23.054215422596826 528.49609375 14.340348235096826 531.4697265625 14.340348235096826 531.4697265625 15.384293547596826 532.5126953125 15.384293547596826 532.5126953125 16.949723235096826 532.6708984375 16.949723235096826 532.6708984375 14.340348235096826 535.64453125 14.340348235096826 535.64453125 23.054215422596826 532.6708984375 23.054215422596826"/>
          <polygon class="cls-2" points="537.5908203125 23.054215422596826 537.5908203125 17.313981047596826 535.50390625 17.313981047596826 535.50390625 14.340348235096826 542.65234375 14.340348235096826 542.65234375 17.313981047596826 540.564453125 17.313981047596826 540.564453125 23.054215422596826 537.5908203125 23.054215422596826"/>
          <polygon class="cls-2" points="542.51171875 23.054215422596826 542.51171875 20.080582610096826 546.6865234375 20.080582610096826 546.6865234375 19.923356047596826 543.5546875 19.923356047596826 543.5546875 18.879410735096826 542.51171875 18.879410735096826 542.51171875 15.384293547596826 543.5546875 15.384293547596826 543.5546875 14.340348235096826 549.66015625 14.340348235096826 549.66015625 17.313981047596826 549.1376953125 17.313981047596826 549.1376953125 17.993668547596826 549.66015625 17.993668547596826 549.66015625 22.011246672596826 549.1376953125 22.011246672596826 549.1376953125 23.054215422596826 542.51171875 23.054215422596826"/>
        </g>
      </g>
      <g>
        <path class="cls-1" d="M512.873046875,15.044449797596826v1.0439453125h1.0439453125v2.609375h-1.0439453125v1.04296875h-3.130859375v2.609375h-1.5654296875v-7.3056640625h4.6962890625ZM512.3515625,18.175309172596826v-1.5654296875h-2.609375v1.5654296875h2.609375Z"/>
        <path class="cls-1" d="M516.2275390625,21.307145110096826h-1.04296875v-5.21875h1.04296875v-1.0439453125h3.6533203125v1.0439453125h1.0439453125v5.21875h-1.0439453125v1.04296875h-3.6533203125v-1.04296875ZM519.359375,20.784684172596826v-4.1748046875h-2.609375v4.1748046875h2.609375Z"/>
        <path class="cls-1" d="M527.9326171875,16.609879485096826h-2.087890625v4.1748046875h2.087890625v1.5654296875h-5.740234375v-1.5654296875h2.0869140625v-4.1748046875h-2.0869140625v-1.5654296875h5.740234375v1.5654296875Z"/>
        <path class="cls-1" d="M530.765625,15.044449797596826v1.0439453125h1.04296875v1.5654296875h1.0439453125v1.5654296875h.5224609375v-4.1748046875h1.5654296875v7.3056640625h-1.5654296875v-1.04296875h-1.0439453125v-1.56640625h-1.0439453125v-1.5654296875h-.521484375v4.1748046875h-1.5654296875v-7.3056640625h1.5654296875Z"/>
        <path class="cls-1" d="M536.2080078125,15.044449797596826h5.740234375v1.5654296875h-2.087890625v5.740234375h-1.5654296875v-5.740234375h-2.0869140625v-1.5654296875Z"/>
        <path class="cls-1" d="M543.2158203125,20.784684172596826h4.1748046875v-1.5654296875h-3.1318359375v-1.0439453125h-1.04296875v-2.0869140625h1.04296875v-1.0439453125h4.697265625v1.5654296875h-4.1748046875v1.0439453125h3.65234375v1.0439453125h.5224609375v2.609375h-.5224609375v1.04296875h-5.2177734375v-1.5654296875Z"/>
      </g>
    </g>
  </g>
</svg>