<?xml version="1.0" encoding="UTF-8"?>
<svg id="Livello_2" data-name="Livello 2" xmlns="http://www.w3.org/2000/svg" width="235.5068359375" height="142.334453321906039" xmlns:xlink="http://www.w3.org/1999/xlink" viewBox="0 0 235.5068359375 142.334453321906039">
  <defs>
    <style>
      .cls-1 {
        fill: #f49631;
        stroke: #020101;
        stroke-miterlimit: 10;
        stroke-width: 1.988227490113881px;
      }

      .cls-2 {
        fill: #ef720c;
      }

      .cls-3 {
        fill: #f96c03;
      }

      .cls-4 {
        fill: #f7f0d0;
      }

      .cls-5 {
        fill: #020101;
      }

      .cls-6 {
        fill: #c64410;
      }

      .cls-7 {
        clip-path: url(#clippath);
      }

      .cls-8 {
        fill: none;
        stroke: #000;
        stroke-width: 2.711901172923845px;
      }
    </style>
    <clipPath id="clippath">
      <path class="cls-6" d="M141.008008739518118,18.308478414202909c-5.42035507867331-6.211359984010414-12.93449933708871-9.940268154225123-21.159984731122677-10.50032859584644-16.952289258078963-1.157136372199602-31.731125566711853,11.717816308737383-32.886652569826765,28.696660156723738-1.155527003113093,16.978843847988173,11.717816308737383,31.731930251258746,28.696660156725557,32.887457254371839.709731766535697.048281072551617,1.414635425817323.07161692428781,2.116320346927751.07161692428781,16.071964368524277,0,29.663890976880793-12.499969684105963,30.771136907442269-28.769081765556621.559255757079882-8.224680709494351-2.117125031472824-16.174963989968091-7.537480110146134-22.386323973980325Z"/>
    </clipPath>
  </defs>
  <g id="Livello_1-2" data-name="Livello 1">
    <g>
      <g>
        <path class="cls-8" d="M226.15213016116104,79.249349786759922v-14.189417500327181h-7.094708750162681v-7.094846385887649H23.543899090123887c.000008749932022,0-7.094703489743551,0-7.094708750162681,0v7.094846385887649h-7.094708750166319v14.189417500327181H2.259772839632205v21.283988614764894h7.094743159097561-.00003440893488v14.189417500330819h7.094708750166319v7.094846385884011h7.094708750162681v7.094571114437713h7.094708750162681v7.094846385887649h174.229464888245275v-7.094846385887649h7.094708750162681v-7.094571114437713h7.094639932303835v-7.094846385884011h7.094708750162681v-14.189417500330819h-.000034408931242,7.094743159095742v-21.283988614764894h-7.0947087501645Z"/>
        <g>
          <polygon class="cls-5" points="28.37890625 142.334453321906039 28.37890625 135.239726759406039 21.2841796875 135.239726759406039 21.2841796875 128.145000196906039 14.189453125 128.145000196906039 14.189453125 121.050273634406039 7.0947265625 121.050273634406039 7.0947265625 106.860820509406039 0 106.860820509406039 0 81.057109571906039 7.0947265625 81.057109571906039 7.0947265625 66.867656446906039 14.189453125 66.867656446906039 14.189453125 59.772929884406039 221.3173828125 59.772929884406039 221.3173828125 66.867656446906039 228.412109375 66.867656446906039 228.412109375 81.057109571906039 235.5068359375 81.057109571906039 235.5068359375 106.860820509406039 228.412109375 106.860820509406039 228.412109375 121.050273634406039 221.3173828125 121.050273634406039 221.3173828125 128.145000196906039 214.22265625 128.145000196906039 214.22265625 135.239726759406039 207.1279296875 135.239726759406039 207.1279296875 142.334453321906039 28.37890625 142.334453321906039"/>
          <polygon class="cls-5" points="28.37890625 142.108461557494593 28.37890625 135.013734994994593 21.2841796875 135.013734994994593 21.2841796875 127.919008432494593 14.189453125 127.919008432494593 14.189453125 120.824281869994593 7.0947265625 120.824281869994593 7.0947265625 106.634828744994593 0 106.634828744994593 0 80.831117807494593 7.0947265625 80.831117807494593 7.0947265625 66.641664682494593 14.189453125 66.641664682494593 14.189453125 59.546938119994593 221.3173828125 59.546938119994593 221.3173828125 66.641664682494593 228.412109375 66.641664682494593 228.412109375 80.831117807494593 235.5068359375 80.831117807494593 235.5068359375 106.634828744994593 228.412109375 106.634828744994593 228.412109375 120.824281869994593 221.3173828125 120.824281869994593 221.3173828125 127.919008432494593 214.22265625 127.919008432494593 214.22265625 135.013734994994593 207.1279296875 135.013734994994593 207.1279296875 142.108461557494593 28.37890625 142.108461557494593"/>
          <polygon class="cls-5" points="28.37890625 141.882469793083146 28.37890625 134.787743230583146 21.2841796875 134.787743230583146 21.2841796875 127.693016668083146 14.189453125 127.693016668083146 14.189453125 120.598290105583146 7.0947265625 120.598290105583146 7.0947265625 106.408836980583146 0 106.408836980583146 0 80.605126043083146 7.0947265625 80.605126043083146 7.0947265625 66.415672918083146 14.189453125 66.415672918083146 14.189453125 59.320946355583146 221.3173828125 59.320946355583146 221.3173828125 66.415672918083146 228.412109375 66.415672918083146 228.412109375 80.605126043083146 235.5068359375 80.605126043083146 235.5068359375 106.408836980583146 228.412109375 106.408836980583146 228.412109375 120.598290105583146 221.3173828125 120.598290105583146 221.3173828125 127.693016668083146 214.22265625 127.693016668083146 214.22265625 134.787743230583146 207.1279296875 134.787743230583146 207.1279296875 141.882469793083146 28.37890625 141.882469793083146"/>
          <polygon class="cls-5" points="28.37890625 141.6564780286717 28.37890625 134.5617514661717 21.2841796875 134.5617514661717 21.2841796875 127.4670249036717 14.189453125 127.4670249036717 14.189453125 120.3722983411717 7.0947265625 120.3722983411717 7.0947265625 106.1828452161717 0 106.1828452161717 0 80.3791342786717 7.0947265625 80.3791342786717 7.0947265625 66.1896811536717 14.189453125 66.1896811536717 14.189453125 59.0949545911717 221.3173828125 59.0949545911717 221.3173828125 66.1896811536717 228.412109375 66.1896811536717 228.412109375 80.3791342786717 235.5068359375 80.3791342786717 235.5068359375 106.1828452161717 228.412109375 106.1828452161717 228.412109375 120.3722983411717 221.3173828125 120.3722983411717 221.3173828125 127.4670249036717 214.22265625 127.4670249036717 214.22265625 134.5617514661717 207.1279296875 134.5617514661717 207.1279296875 141.6564780286717 28.37890625 141.6564780286717"/>
          <polygon class="cls-5" points="28.37890625 141.430486264260253 28.37890625 134.335759701760253 21.2841796875 134.335759701760253 21.2841796875 127.241033139260253 14.189453125 127.241033139260253 14.189453125 120.146306576760253 7.0947265625 120.146306576760253 7.0947265625 105.956853451760253 0 105.956853451760253 0 80.153142514260253 7.0947265625 80.153142514260253 7.0947265625 65.963689389260253 14.189453125 65.963689389260253 14.189453125 58.868962826760253 221.3173828125 58.868962826760253 221.3173828125 65.963689389260253 228.412109375 65.963689389260253 228.412109375 80.153142514260253 235.5068359375 80.153142514260253 235.5068359375 105.956853451760253 228.412109375 105.956853451760253 228.412109375 120.146306576760253 221.3173828125 120.146306576760253 221.3173828125 127.241033139260253 214.22265625 127.241033139260253 214.22265625 134.335759701760253 207.1279296875 134.335759701760253 207.1279296875 141.430486264260253 28.37890625 141.430486264260253"/>
          <polygon class="cls-5" points="28.37890625 141.204494499848806 28.37890625 134.109767937348806 21.2841796875 134.109767937348806 21.2841796875 127.015041374848806 14.189453125 127.015041374848806 14.189453125 119.920314812348806 7.0947265625 119.920314812348806 7.0947265625 105.730861687348806 0 105.730861687348806 0 79.927150749848806 7.0947265625 79.927150749848806 7.0947265625 65.737697624848806 14.189453125 65.737697624848806 14.189453125 58.642971062348806 221.3173828125 58.642971062348806 221.3173828125 65.737697624848806 228.412109375 65.737697624848806 228.412109375 79.927150749848806 235.5068359375 79.927150749848806 235.5068359375 105.730861687348806 228.412109375 105.730861687348806 228.412109375 119.920314812348806 221.3173828125 119.920314812348806 221.3173828125 127.015041374848806 214.22265625 127.015041374848806 214.22265625 134.109767937348806 207.1279296875 134.109767937348806 207.1279296875 141.204494499848806 28.37890625 141.204494499848806"/>
          <polygon class="cls-5" points="28.37890625 140.97850273543736 28.37890625 133.88377617293736 21.2841796875 133.88377617293736 21.2841796875 126.78904961043736 14.189453125 126.78904961043736 14.189453125 119.69432304793736 7.0947265625 119.69432304793736 7.0947265625 105.50486992293736 0 105.50486992293736 0 79.70115898543736 7.0947265625 79.70115898543736 7.0947265625 65.51170586043736 14.189453125 65.51170586043736 14.189453125 58.41697929793736 221.3173828125 58.41697929793736 221.3173828125 65.51170586043736 228.412109375 65.51170586043736 228.412109375 79.70115898543736 235.5068359375 79.70115898543736 235.5068359375 105.50486992293736 228.412109375 105.50486992293736 228.412109375 119.69432304793736 221.3173828125 119.69432304793736 221.3173828125 126.78904961043736 214.22265625 126.78904961043736 214.22265625 133.88377617293736 207.1279296875 133.88377617293736 207.1279296875 140.97850273543736 28.37890625 140.97850273543736"/>
          <polygon class="cls-5" points="28.37890625 140.752510971025913 28.37890625 133.657784408525913 21.2841796875 133.657784408525913 21.2841796875 126.563057846025913 14.189453125 126.563057846025913 14.189453125 119.468331283525913 7.0947265625 119.468331283525913 7.0947265625 105.278878158525913 0 105.278878158525913 0 79.475167221025913 7.0947265625 79.475167221025913 7.0947265625 65.285714096025913 14.189453125 65.285714096025913 14.189453125 58.190987533525913 221.3173828125 58.190987533525913 221.3173828125 65.285714096025913 228.412109375 65.285714096025913 228.412109375 79.475167221025913 235.5068359375 79.475167221025913 235.5068359375 105.278878158525913 228.412109375 105.278878158525913 228.412109375 119.468331283525913 221.3173828125 119.468331283525913 221.3173828125 126.563057846025913 214.22265625 126.563057846025913 214.22265625 133.657784408525913 207.1279296875 133.657784408525913 207.1279296875 140.752510971025913 28.37890625 140.752510971025913"/>
          <polygon class="cls-5" points="28.37890625 140.526519206614466 28.37890625 133.431792644114466 21.2841796875 133.431792644114466 21.2841796875 126.337066081614466 14.189453125 126.337066081614466 14.189453125 119.242339519114466 7.0947265625 119.242339519114466 7.0947265625 105.052886394114466 0 105.052886394114466 0 79.249175456614466 7.0947265625 79.249175456614466 7.0947265625 65.059722331614466 14.189453125 65.059722331614466 14.189453125 57.964995769114466 221.3173828125 57.964995769114466 221.3173828125 65.059722331614466 228.412109375 65.059722331614466 228.412109375 79.249175456614466 235.5068359375 79.249175456614466 235.5068359375 105.052886394114466 228.412109375 105.052886394114466 228.412109375 119.242339519114466 221.3173828125 119.242339519114466 221.3173828125 126.337066081614466 214.22265625 126.337066081614466 214.22265625 133.431792644114466 207.1279296875 133.431792644114466 207.1279296875 140.526519206614466 28.37890625 140.526519206614466"/>
          <polygon class="cls-5" points="28.37890625 140.30052744220302 28.37890625 133.20580087970302 21.2841796875 133.20580087970302 21.2841796875 126.11107431720302 14.189453125 126.11107431720302 14.189453125 119.01634775470302 7.0947265625 119.01634775470302 7.0947265625 104.82689462970302 0 104.82689462970302 0 79.02318369220302 7.0947265625 79.02318369220302 7.0947265625 64.83373056720302 14.189453125 64.83373056720302 14.189453125 57.73900400470302 221.3173828125 57.73900400470302 221.3173828125 64.83373056720302 228.412109375 64.83373056720302 228.412109375 79.02318369220302 235.5068359375 79.02318369220302 235.5068359375 104.82689462970302 228.412109375 104.82689462970302 228.412109375 119.01634775470302 221.3173828125 119.01634775470302 221.3173828125 126.11107431720302 214.22265625 126.11107431720302 214.22265625 133.20580087970302 207.1279296875 133.20580087970302 207.1279296875 140.30052744220302 28.37890625 140.30052744220302"/>
          <polygon class="cls-5" points="28.37890625 140.074535677791573 28.37890625 132.979809115291573 21.2841796875 132.979809115291573 21.2841796875 125.885082552791573 14.189453125 125.885082552791573 14.189453125 118.790355990291573 7.0947265625 118.790355990291573 7.0947265625 104.600902865291573 0 104.600902865291573 0 78.797191927791573 7.0947265625 78.797191927791573 7.0947265625 64.607738802791573 14.189453125 64.607738802791573 14.189453125 57.513012240291573 221.3173828125 57.513012240291573 221.3173828125 64.607738802791573 228.412109375 64.607738802791573 228.412109375 78.797191927791573 235.5068359375 78.797191927791573 235.5068359375 104.600902865291573 228.412109375 104.600902865291573 228.412109375 118.790355990291573 221.3173828125 118.790355990291573 221.3173828125 125.885082552791573 214.22265625 125.885082552791573 214.22265625 132.979809115291573 207.1279296875 132.979809115291573 207.1279296875 140.074535677791573 28.37890625 140.074535677791573"/>
          <polygon class="cls-5" points="28.37890625 139.848543913380126 28.37890625 132.753817350880126 21.2841796875 132.753817350880126 21.2841796875 125.659090788380126 14.189453125 125.659090788380126 14.189453125 118.564364225880126 7.0947265625 118.564364225880126 7.0947265625 104.374911100880126 0 104.374911100880126 0 78.571200163380126 7.0947265625 78.571200163380126 7.0947265625 64.381747038380126 14.189453125 64.381747038380126 14.189453125 57.287020475880126 221.3173828125 57.287020475880126 221.3173828125 64.381747038380126 228.412109375 64.381747038380126 228.412109375 78.571200163380126 235.5068359375 78.571200163380126 235.5068359375 104.374911100880126 228.412109375 104.374911100880126 228.412109375 118.564364225880126 221.3173828125 118.564364225880126 221.3173828125 125.659090788380126 214.22265625 125.659090788380126 214.22265625 132.753817350880126 207.1279296875 132.753817350880126 207.1279296875 139.848543913380126 28.37890625 139.848543913380126"/>
          <polygon class="cls-5" points="28.37890625 139.62255214896868 28.37890625 132.52782558646868 21.2841796875 132.52782558646868 21.2841796875 125.43309902396868 14.189453125 125.43309902396868 14.189453125 118.33837246146868 7.0947265625 118.33837246146868 7.0947265625 104.14891933646868 0 104.14891933646868 0 78.34520839896868 7.0947265625 78.34520839896868 7.0947265625 64.15575527396868 14.189453125 64.15575527396868 14.189453125 57.06102871146868 221.3173828125 57.06102871146868 221.3173828125 64.15575527396868 228.412109375 64.15575527396868 228.412109375 78.34520839896868 235.5068359375 78.34520839896868 235.5068359375 104.14891933646868 228.412109375 104.14891933646868 228.412109375 118.33837246146868 221.3173828125 118.33837246146868 221.3173828125 125.43309902396868 214.22265625 125.43309902396868 214.22265625 132.52782558646868 207.1279296875 132.52782558646868 207.1279296875 139.62255214896868 28.37890625 139.62255214896868"/>
          <polygon class="cls-5" points="28.37890625 139.396560384557233 28.37890625 132.301833822057233 21.2841796875 132.301833822057233 21.2841796875 125.207107259557233 14.189453125 125.207107259557233 14.189453125 118.112380697057233 7.0947265625 118.112380697057233 7.0947265625 103.922927572057233 0 103.922927572057233 0 78.119216634557233 7.0947265625 78.119216634557233 7.0947265625 63.929763509557233 14.189453125 63.929763509557233 14.189453125 56.835036947057233 221.3173828125 56.835036947057233 221.3173828125 63.929763509557233 228.412109375 63.929763509557233 228.412109375 78.119216634557233 235.5068359375 78.119216634557233 235.5068359375 103.922927572057233 228.412109375 103.922927572057233 228.412109375 118.112380697057233 221.3173828125 118.112380697057233 221.3173828125 125.207107259557233 214.22265625 125.207107259557233 214.22265625 132.301833822057233 207.1279296875 132.301833822057233 207.1279296875 139.396560384557233 28.37890625 139.396560384557233"/>
          <polygon class="cls-5" points="28.37890625 139.170568620145787 28.37890625 132.075842057645787 21.2841796875 132.075842057645787 21.2841796875 124.981115495145787 14.189453125 124.981115495145787 14.189453125 117.886388932645787 7.0947265625 117.886388932645787 7.0947265625 103.696935807645787 0 103.696935807645787 0 77.893224870145787 7.0947265625 77.893224870145787 7.0947265625 63.703771745145787 14.189453125 63.703771745145787 14.189453125 56.609045182645787 221.3173828125 56.609045182645787 221.3173828125 63.703771745145787 228.412109375 63.703771745145787 228.412109375 77.893224870145787 235.5068359375 77.893224870145787 235.5068359375 103.696935807645787 228.412109375 103.696935807645787 228.412109375 117.886388932645787 221.3173828125 117.886388932645787 221.3173828125 124.981115495145787 214.22265625 124.981115495145787 214.22265625 132.075842057645787 207.1279296875 132.075842057645787 207.1279296875 139.170568620145787 28.37890625 139.170568620145787"/>
          <polygon class="cls-5" points="28.37890625 138.94457685573434 28.37890625 131.84985029323434 21.2841796875 131.84985029323434 21.2841796875 124.75512373073434 14.189453125 124.75512373073434 14.189453125 117.66039716823434 7.0947265625 117.66039716823434 7.0947265625 103.47094404323434 0 103.47094404323434 0 77.66723310573434 7.0947265625 77.66723310573434 7.0947265625 63.47777998073434 14.189453125 63.47777998073434 14.189453125 56.38305341823434 221.3173828125 56.38305341823434 221.3173828125 63.47777998073434 228.412109375 63.47777998073434 228.412109375 77.66723310573434 235.5068359375 77.66723310573434 235.5068359375 103.47094404323434 228.412109375 103.47094404323434 228.412109375 117.66039716823434 221.3173828125 117.66039716823434 221.3173828125 124.75512373073434 214.22265625 124.75512373073434 214.22265625 131.84985029323434 207.1279296875 131.84985029323434 207.1279296875 138.94457685573434 28.37890625 138.94457685573434"/>
          <polygon class="cls-5" points="28.37890625 138.718585091322893 28.37890625 131.623858528822893 21.2841796875 131.623858528822893 21.2841796875 124.529131966322893 14.189453125 124.529131966322893 14.189453125 117.434405403822893 7.0947265625 117.434405403822893 7.0947265625 103.244952278822893 0 103.244952278822893 0 77.441241341322893 7.0947265625 77.441241341322893 7.0947265625 63.251788216322893 14.189453125 63.251788216322893 14.189453125 56.157061653822893 221.3173828125 56.157061653822893 221.3173828125 63.251788216322893 228.412109375 63.251788216322893 228.412109375 77.441241341322893 235.5068359375 77.441241341322893 235.5068359375 103.244952278822893 228.412109375 103.244952278822893 228.412109375 117.434405403822893 221.3173828125 117.434405403822893 221.3173828125 124.529131966322893 214.22265625 124.529131966322893 214.22265625 131.623858528822893 207.1279296875 131.623858528822893 207.1279296875 138.718585091322893 28.37890625 138.718585091322893"/>
          <polygon class="cls-5" points="28.37890625 138.492593326911447 28.37890625 131.397866764411447 21.2841796875 131.397866764411447 21.2841796875 124.303140201911447 14.189453125 124.303140201911447 14.189453125 117.208413639411447 7.0947265625 117.208413639411447 7.0947265625 103.018960514411447 0 103.018960514411447 0 77.215249576911447 7.0947265625 77.215249576911447 7.0947265625 63.025796451911447 14.189453125 63.025796451911447 14.189453125 55.931069889411447 221.3173828125 55.931069889411447 221.3173828125 63.025796451911447 228.412109375 63.025796451911447 228.412109375 77.215249576911447 235.5068359375 77.215249576911447 235.5068359375 103.018960514411447 228.412109375 103.018960514411447 228.412109375 117.208413639411447 221.3173828125 117.208413639411447 221.3173828125 124.303140201911447 214.22265625 124.303140201911447 214.22265625 131.397866764411447 207.1279296875 131.397866764411447 207.1279296875 138.492593326911447 28.37890625 138.492593326911447"/>
          <polygon class="cls-5" points="28.37890625 138.2666015625 28.37890625 131.171875 21.2841796875 131.171875 21.2841796875 124.0771484375 14.189453125 124.0771484375 14.189453125 116.982421875 7.0947265625 116.982421875 7.0947265625 102.79296875 0 102.79296875 0 76.9892578125 7.0947265625 76.9892578125 7.0947265625 62.7998046875 14.189453125 62.7998046875 14.189453125 55.705078125 221.3173828125 55.705078125 221.3173828125 62.7998046875 228.412109375 62.7998046875 228.412109375 76.9892578125 235.5068359375 76.9892578125 235.5068359375 102.79296875 228.412109375 102.79296875 228.412109375 116.982421875 221.3173828125 116.982421875 221.3173828125 124.0771484375 214.22265625 124.0771484375 214.22265625 131.171875 207.1279296875 131.171875 207.1279296875 138.2666015625 28.37890625 138.2666015625"/>
        </g>
        <path class="cls-3" d="M226.15213016116104,79.249349786759922v-14.189417500327181h-7.094708750162681v-7.094846385887649H23.543899090123887c.000008749932022,0-7.094703489743551,0-7.094708750162681,0v7.094846385887649h-7.094708750166319v14.189417500327181H2.259772839632205v21.283988614764894h7.094743159097561-.00003440893488v14.189417500330819h7.094708750166319v7.094846385884011h7.094708750162681v7.094571114437713h7.094708750162681v7.094846385887649h174.229464888245275v-7.094846385887649h7.094708750162681v-7.094571114437713h7.094639932303835v-7.094846385884011h7.094708750162681v-14.189417500330819h-.000034408931242,7.094743159095742v-21.283988614764894h-7.0947087501645Z"/>
      </g>
      <g>
        <g>
          <g>
            <polygon class="cls-5" points="177.5595703125 77.131256390650378 177.5595703125 70.710357953150378 175.224609375 70.710357953150378 175.224609375 67.385162640650378 183.2197265625 67.385162640650378 183.2197265625 70.710357953150378 180.884765625 70.710357953150378 180.884765625 77.131256390650378 177.5595703125 77.131256390650378"/>
            <polygon class="cls-5" points="183.056640625 77.131256390650378 183.056640625 73.806061078150378 185.3916015625 73.806061078150378 185.3916015625 70.710357953150378 183.056640625 70.710357953150378 183.056640625 67.385162640650378 191.0517578125 67.385162640650378 191.0517578125 70.710357953150378 188.716796875 70.710357953150378 188.716796875 73.806061078150378 191.0517578125 73.806061078150378 191.0517578125 77.131256390650378 183.056640625 77.131256390650378"/>
            <polygon class="cls-5" points="195.5595703125 77.131256390650378 195.5595703125 75.380279828150378 194.21484375 75.380279828150378 194.21484375 77.131256390650378 190.8896484375 77.131256390650378 190.8896484375 67.385162640650378 194.21484375 67.385162640650378 194.21484375 68.553131390650378 195.5595703125 68.553131390650378 195.5595703125 67.385162640650378 198.884765625 67.385162640650378 198.884765625 77.131256390650378 195.5595703125 77.131256390650378"/>
            <polygon class="cls-5" points="198.7216796875 77.131256390650378 198.7216796875 67.385162640650378 206.716796875 67.385162640650378 206.716796875 73.629303265650378 202.046875 73.629303265650378 202.046875 73.806061078150378 206.716796875 73.806061078150378 206.716796875 77.131256390650378 198.7216796875 77.131256390650378"/>
          </g>
          <g>
            <polygon class="cls-5" points="177.5595703125 76.868985212735424 177.5595703125 70.448086775235424 175.224609375 70.448086775235424 175.224609375 67.122891462735424 183.2197265625 67.122891462735424 183.2197265625 70.448086775235424 180.884765625 70.448086775235424 180.884765625 76.868985212735424 177.5595703125 76.868985212735424"/>
            <polygon class="cls-5" points="183.056640625 76.868985212735424 183.056640625 73.543789900235424 185.3916015625 73.543789900235424 185.3916015625 70.448086775235424 183.056640625 70.448086775235424 183.056640625 67.122891462735424 191.0517578125 67.122891462735424 191.0517578125 70.448086775235424 188.716796875 70.448086775235424 188.716796875 73.543789900235424 191.0517578125 73.543789900235424 191.0517578125 76.868985212735424 183.056640625 76.868985212735424"/>
            <polygon class="cls-5" points="195.5595703125 76.868985212735424 195.5595703125 75.118008650235424 194.21484375 75.118008650235424 194.21484375 76.868985212735424 190.8896484375 76.868985212735424 190.8896484375 67.122891462735424 194.21484375 67.122891462735424 194.21484375 68.290860212735424 195.5595703125 68.290860212735424 195.5595703125 67.122891462735424 198.884765625 67.122891462735424 198.884765625 76.868985212735424 195.5595703125 76.868985212735424"/>
            <polygon class="cls-5" points="198.7216796875 76.868985212735424 198.7216796875 67.122891462735424 206.716796875 67.122891462735424 206.716796875 73.367032087735424 202.046875 73.367032087735424 202.046875 73.543789900235424 206.716796875 73.543789900235424 206.716796875 76.868985212735424 198.7216796875 76.868985212735424"/>
          </g>
          <g>
            <polygon class="cls-5" points="177.5595703125 76.60671403482047 177.5595703125 70.18581559732047 175.224609375 70.18581559732047 175.224609375 66.86062028482047 183.2197265625 66.86062028482047 183.2197265625 70.18581559732047 180.884765625 70.18581559732047 180.884765625 76.60671403482047 177.5595703125 76.60671403482047"/>
            <polygon class="cls-5" points="183.056640625 76.60671403482047 183.056640625 73.28151872232047 185.3916015625 73.28151872232047 185.3916015625 70.18581559732047 183.056640625 70.18581559732047 183.056640625 66.86062028482047 191.0517578125 66.86062028482047 191.0517578125 70.18581559732047 188.716796875 70.18581559732047 188.716796875 73.28151872232047 191.0517578125 73.28151872232047 191.0517578125 76.60671403482047 183.056640625 76.60671403482047"/>
            <polygon class="cls-5" points="195.5595703125 76.60671403482047 195.5595703125 74.85573747232047 194.21484375 74.85573747232047 194.21484375 76.60671403482047 190.8896484375 76.60671403482047 190.8896484375 66.86062028482047 194.21484375 66.86062028482047 194.21484375 68.02858903482047 195.5595703125 68.02858903482047 195.5595703125 66.86062028482047 198.884765625 66.86062028482047 198.884765625 76.60671403482047 195.5595703125 76.60671403482047"/>
            <polygon class="cls-5" points="198.7216796875 76.60671403482047 198.7216796875 66.86062028482047 206.716796875 66.86062028482047 206.716796875 73.10476090982047 202.046875 73.10476090982047 202.046875 73.28151872232047 206.716796875 73.28151872232047 206.716796875 76.60671403482047 198.7216796875 76.60671403482047"/>
          </g>
          <g>
            <polygon class="cls-5" points="177.5595703125 76.344442856905516 177.5595703125 69.923544419405516 175.224609375 69.923544419405516 175.224609375 66.598349106905516 183.2197265625 66.598349106905516 183.2197265625 69.923544419405516 180.884765625 69.923544419405516 180.884765625 76.344442856905516 177.5595703125 76.344442856905516"/>
            <polygon class="cls-5" points="183.056640625 76.344442856905516 183.056640625 73.019247544405516 185.3916015625 73.019247544405516 185.3916015625 69.923544419405516 183.056640625 69.923544419405516 183.056640625 66.598349106905516 191.0517578125 66.598349106905516 191.0517578125 69.923544419405516 188.716796875 69.923544419405516 188.716796875 73.019247544405516 191.0517578125 73.019247544405516 191.0517578125 76.344442856905516 183.056640625 76.344442856905516"/>
            <polygon class="cls-5" points="195.5595703125 76.344442856905516 195.5595703125 74.593466294405516 194.21484375 74.593466294405516 194.21484375 76.344442856905516 190.8896484375 76.344442856905516 190.8896484375 66.598349106905516 194.21484375 66.598349106905516 194.21484375 67.766317856905516 195.5595703125 67.766317856905516 195.5595703125 66.598349106905516 198.884765625 66.598349106905516 198.884765625 76.344442856905516 195.5595703125 76.344442856905516"/>
            <polygon class="cls-5" points="198.7216796875 76.344442856905516 198.7216796875 66.598349106905516 206.716796875 66.598349106905516 206.716796875 72.842489731905516 202.046875 72.842489731905516 202.046875 73.019247544405516 206.716796875 73.019247544405516 206.716796875 76.344442856905516 198.7216796875 76.344442856905516"/>
          </g>
          <g>
            <polygon class="cls-5" points="177.5595703125 76.082171678990562 177.5595703125 69.661273241490562 175.224609375 69.661273241490562 175.224609375 66.336077928990562 183.2197265625 66.336077928990562 183.2197265625 69.661273241490562 180.884765625 69.661273241490562 180.884765625 76.082171678990562 177.5595703125 76.082171678990562"/>
            <polygon class="cls-5" points="183.056640625 76.082171678990562 183.056640625 72.756976366490562 185.3916015625 72.756976366490562 185.3916015625 69.661273241490562 183.056640625 69.661273241490562 183.056640625 66.336077928990562 191.0517578125 66.336077928990562 191.0517578125 69.661273241490562 188.716796875 69.661273241490562 188.716796875 72.756976366490562 191.0517578125 72.756976366490562 191.0517578125 76.082171678990562 183.056640625 76.082171678990562"/>
            <polygon class="cls-5" points="195.5595703125 76.082171678990562 195.5595703125 74.331195116490562 194.21484375 74.331195116490562 194.21484375 76.082171678990562 190.8896484375 76.082171678990562 190.8896484375 66.336077928990562 194.21484375 66.336077928990562 194.21484375 67.504046678990562 195.5595703125 67.504046678990562 195.5595703125 66.336077928990562 198.884765625 66.336077928990562 198.884765625 76.082171678990562 195.5595703125 76.082171678990562"/>
            <polygon class="cls-5" points="198.7216796875 76.082171678990562 198.7216796875 66.336077928990562 206.716796875 66.336077928990562 206.716796875 72.580218553990562 202.046875 72.580218553990562 202.046875 72.756976366490562 206.716796875 72.756976366490562 206.716796875 76.082171678990562 198.7216796875 76.082171678990562"/>
          </g>
          <g>
            <polygon class="cls-5" points="177.5595703125 75.819900501075608 177.5595703125 69.399002063575608 175.224609375 69.399002063575608 175.224609375 66.073806751075608 183.2197265625 66.073806751075608 183.2197265625 69.399002063575608 180.884765625 69.399002063575608 180.884765625 75.819900501075608 177.5595703125 75.819900501075608"/>
            <polygon class="cls-5" points="183.056640625 75.819900501075608 183.056640625 72.494705188575608 185.3916015625 72.494705188575608 185.3916015625 69.399002063575608 183.056640625 69.399002063575608 183.056640625 66.073806751075608 191.0517578125 66.073806751075608 191.0517578125 69.399002063575608 188.716796875 69.399002063575608 188.716796875 72.494705188575608 191.0517578125 72.494705188575608 191.0517578125 75.819900501075608 183.056640625 75.819900501075608"/>
            <polygon class="cls-5" points="195.5595703125 75.819900501075608 195.5595703125 74.068923938575608 194.21484375 74.068923938575608 194.21484375 75.819900501075608 190.8896484375 75.819900501075608 190.8896484375 66.073806751075608 194.21484375 66.073806751075608 194.21484375 67.241775501075608 195.5595703125 67.241775501075608 195.5595703125 66.073806751075608 198.884765625 66.073806751075608 198.884765625 75.819900501075608 195.5595703125 75.819900501075608"/>
            <polygon class="cls-5" points="198.7216796875 75.819900501075608 198.7216796875 66.073806751075608 206.716796875 66.073806751075608 206.716796875 72.317947376075608 202.046875 72.317947376075608 202.046875 72.494705188575608 206.716796875 72.494705188575608 206.716796875 75.819900501075608 198.7216796875 75.819900501075608"/>
          </g>
          <g>
            <polygon class="cls-5" points="177.5595703125 75.557629323160654 177.5595703125 69.136730885660654 175.224609375 69.136730885660654 175.224609375 65.811535573160654 183.2197265625 65.811535573160654 183.2197265625 69.136730885660654 180.884765625 69.136730885660654 180.884765625 75.557629323160654 177.5595703125 75.557629323160654"/>
            <polygon class="cls-5" points="183.056640625 75.557629323160654 183.056640625 72.232434010660654 185.3916015625 72.232434010660654 185.3916015625 69.136730885660654 183.056640625 69.136730885660654 183.056640625 65.811535573160654 191.0517578125 65.811535573160654 191.0517578125 69.136730885660654 188.716796875 69.136730885660654 188.716796875 72.232434010660654 191.0517578125 72.232434010660654 191.0517578125 75.557629323160654 183.056640625 75.557629323160654"/>
            <polygon class="cls-5" points="195.5595703125 75.557629323160654 195.5595703125 73.806652760660654 194.21484375 73.806652760660654 194.21484375 75.557629323160654 190.8896484375 75.557629323160654 190.8896484375 65.811535573160654 194.21484375 65.811535573160654 194.21484375 66.979504323160654 195.5595703125 66.979504323160654 195.5595703125 65.811535573160654 198.884765625 65.811535573160654 198.884765625 75.557629323160654 195.5595703125 75.557629323160654"/>
            <polygon class="cls-5" points="198.7216796875 75.557629323160654 198.7216796875 65.811535573160654 206.716796875 65.811535573160654 206.716796875 72.055676198160654 202.046875 72.055676198160654 202.046875 72.232434010660654 206.716796875 72.232434010660654 206.716796875 75.557629323160654 198.7216796875 75.557629323160654"/>
          </g>
          <g>
            <polygon class="cls-5" points="177.5595703125 75.2953581452457 177.5595703125 68.8744597077457 175.224609375 68.8744597077457 175.224609375 65.5492643952457 183.2197265625 65.5492643952457 183.2197265625 68.8744597077457 180.884765625 68.8744597077457 180.884765625 75.2953581452457 177.5595703125 75.2953581452457"/>
            <polygon class="cls-5" points="183.056640625 75.2953581452457 183.056640625 71.9701628327457 185.3916015625 71.9701628327457 185.3916015625 68.8744597077457 183.056640625 68.8744597077457 183.056640625 65.5492643952457 191.0517578125 65.5492643952457 191.0517578125 68.8744597077457 188.716796875 68.8744597077457 188.716796875 71.9701628327457 191.0517578125 71.9701628327457 191.0517578125 75.2953581452457 183.056640625 75.2953581452457"/>
            <polygon class="cls-5" points="195.5595703125 75.2953581452457 195.5595703125 73.5443815827457 194.21484375 73.5443815827457 194.21484375 75.2953581452457 190.8896484375 75.2953581452457 190.8896484375 65.5492643952457 194.21484375 65.5492643952457 194.21484375 66.7172331452457 195.5595703125 66.7172331452457 195.5595703125 65.5492643952457 198.884765625 65.5492643952457 198.884765625 75.2953581452457 195.5595703125 75.2953581452457"/>
            <polygon class="cls-5" points="198.7216796875 75.2953581452457 198.7216796875 65.5492643952457 206.716796875 65.5492643952457 206.716796875 71.7934050202457 202.046875 71.7934050202457 202.046875 71.9701628327457 206.716796875 71.9701628327457 206.716796875 75.2953581452457 198.7216796875 75.2953581452457"/>
          </g>
          <g>
            <polygon class="cls-5" points="177.5595703125 75.033086967330746 177.5595703125 68.612188529830746 175.224609375 68.612188529830746 175.224609375 65.286993217330746 183.2197265625 65.286993217330746 183.2197265625 68.612188529830746 180.884765625 68.612188529830746 180.884765625 75.033086967330746 177.5595703125 75.033086967330746"/>
            <polygon class="cls-5" points="183.056640625 75.033086967330746 183.056640625 71.707891654830746 185.3916015625 71.707891654830746 185.3916015625 68.612188529830746 183.056640625 68.612188529830746 183.056640625 65.286993217330746 191.0517578125 65.286993217330746 191.0517578125 68.612188529830746 188.716796875 68.612188529830746 188.716796875 71.707891654830746 191.0517578125 71.707891654830746 191.0517578125 75.033086967330746 183.056640625 75.033086967330746"/>
            <polygon class="cls-5" points="195.5595703125 75.033086967330746 195.5595703125 73.282110404830746 194.21484375 73.282110404830746 194.21484375 75.033086967330746 190.8896484375 75.033086967330746 190.8896484375 65.286993217330746 194.21484375 65.286993217330746 194.21484375 66.454961967330746 195.5595703125 66.454961967330746 195.5595703125 65.286993217330746 198.884765625 65.286993217330746 198.884765625 75.033086967330746 195.5595703125 75.033086967330746"/>
            <polygon class="cls-5" points="198.7216796875 75.033086967330746 198.7216796875 65.286993217330746 206.716796875 65.286993217330746 206.716796875 71.531133842330746 202.046875 71.531133842330746 202.046875 71.707891654830746 206.716796875 71.707891654830746 206.716796875 75.033086967330746 198.7216796875 75.033086967330746"/>
          </g>
          <g>
            <polygon class="cls-5" points="177.5595703125 74.770815789415792 177.5595703125 68.349917351915792 175.224609375 68.349917351915792 175.224609375 65.024722039415792 183.2197265625 65.024722039415792 183.2197265625 68.349917351915792 180.884765625 68.349917351915792 180.884765625 74.770815789415792 177.5595703125 74.770815789415792"/>
            <polygon class="cls-5" points="183.056640625 74.770815789415792 183.056640625 71.445620476915792 185.3916015625 71.445620476915792 185.3916015625 68.349917351915792 183.056640625 68.349917351915792 183.056640625 65.024722039415792 191.0517578125 65.024722039415792 191.0517578125 68.349917351915792 188.716796875 68.349917351915792 188.716796875 71.445620476915792 191.0517578125 71.445620476915792 191.0517578125 74.770815789415792 183.056640625 74.770815789415792"/>
            <polygon class="cls-5" points="195.5595703125 74.770815789415792 195.5595703125 73.019839226915792 194.21484375 73.019839226915792 194.21484375 74.770815789415792 190.8896484375 74.770815789415792 190.8896484375 65.024722039415792 194.21484375 65.024722039415792 194.21484375 66.192690789415792 195.5595703125 66.192690789415792 195.5595703125 65.024722039415792 198.884765625 65.024722039415792 198.884765625 74.770815789415792 195.5595703125 74.770815789415792"/>
            <polygon class="cls-5" points="198.7216796875 74.770815789415792 198.7216796875 65.024722039415792 206.716796875 65.024722039415792 206.716796875 71.268862664415792 202.046875 71.268862664415792 202.046875 71.445620476915792 206.716796875 71.445620476915792 206.716796875 74.770815789415792 198.7216796875 74.770815789415792"/>
          </g>
          <g>
            <polygon class="cls-5" points="177.5595703125 74.508544611500838 177.5595703125 68.087646174000838 175.224609375 68.087646174000838 175.224609375 64.762450861500838 183.2197265625 64.762450861500838 183.2197265625 68.087646174000838 180.884765625 68.087646174000838 180.884765625 74.508544611500838 177.5595703125 74.508544611500838"/>
            <polygon class="cls-5" points="183.056640625 74.508544611500838 183.056640625 71.183349299000838 185.3916015625 71.183349299000838 185.3916015625 68.087646174000838 183.056640625 68.087646174000838 183.056640625 64.762450861500838 191.0517578125 64.762450861500838 191.0517578125 68.087646174000838 188.716796875 68.087646174000838 188.716796875 71.183349299000838 191.0517578125 71.183349299000838 191.0517578125 74.508544611500838 183.056640625 74.508544611500838"/>
            <polygon class="cls-5" points="195.5595703125 74.508544611500838 195.5595703125 72.757568049000838 194.21484375 72.757568049000838 194.21484375 74.508544611500838 190.8896484375 74.508544611500838 190.8896484375 64.762450861500838 194.21484375 64.762450861500838 194.21484375 65.930419611500838 195.5595703125 65.930419611500838 195.5595703125 64.762450861500838 198.884765625 64.762450861500838 198.884765625 74.508544611500838 195.5595703125 74.508544611500838"/>
            <polygon class="cls-5" points="198.7216796875 74.508544611500838 198.7216796875 64.762450861500838 206.716796875 64.762450861500838 206.716796875 71.006591486500838 202.046875 71.006591486500838 202.046875 71.183349299000838 206.716796875 71.183349299000838 206.716796875 74.508544611500838 198.7216796875 74.508544611500838"/>
          </g>
          <g>
            <polygon class="cls-5" points="177.5595703125 74.246273433585884 177.5595703125 67.825374996085884 175.224609375 67.825374996085884 175.224609375 64.500179683585884 183.2197265625 64.500179683585884 183.2197265625 67.825374996085884 180.884765625 67.825374996085884 180.884765625 74.246273433585884 177.5595703125 74.246273433585884"/>
            <polygon class="cls-5" points="183.056640625 74.246273433585884 183.056640625 70.921078121085884 185.3916015625 70.921078121085884 185.3916015625 67.825374996085884 183.056640625 67.825374996085884 183.056640625 64.500179683585884 191.0517578125 64.500179683585884 191.0517578125 67.825374996085884 188.716796875 67.825374996085884 188.716796875 70.921078121085884 191.0517578125 70.921078121085884 191.0517578125 74.246273433585884 183.056640625 74.246273433585884"/>
            <polygon class="cls-5" points="195.5595703125 74.246273433585884 195.5595703125 72.495296871085884 194.21484375 72.495296871085884 194.21484375 74.246273433585884 190.8896484375 74.246273433585884 190.8896484375 64.500179683585884 194.21484375 64.500179683585884 194.21484375 65.668148433585884 195.5595703125 65.668148433585884 195.5595703125 64.500179683585884 198.884765625 64.500179683585884 198.884765625 74.246273433585884 195.5595703125 74.246273433585884"/>
            <polygon class="cls-5" points="198.7216796875 74.246273433585884 198.7216796875 64.500179683585884 206.716796875 64.500179683585884 206.716796875 70.744320308585884 202.046875 70.744320308585884 202.046875 70.921078121085884 206.716796875 70.921078121085884 206.716796875 74.246273433585884 198.7216796875 74.246273433585884"/>
          </g>
          <g>
            <polygon class="cls-5" points="177.5595703125 73.98400225567093 177.5595703125 67.56310381817093 175.224609375 67.56310381817093 175.224609375 64.23790850567093 183.2197265625 64.23790850567093 183.2197265625 67.56310381817093 180.884765625 67.56310381817093 180.884765625 73.98400225567093 177.5595703125 73.98400225567093"/>
            <polygon class="cls-5" points="183.056640625 73.98400225567093 183.056640625 70.65880694317093 185.3916015625 70.65880694317093 185.3916015625 67.56310381817093 183.056640625 67.56310381817093 183.056640625 64.23790850567093 191.0517578125 64.23790850567093 191.0517578125 67.56310381817093 188.716796875 67.56310381817093 188.716796875 70.65880694317093 191.0517578125 70.65880694317093 191.0517578125 73.98400225567093 183.056640625 73.98400225567093"/>
            <polygon class="cls-5" points="195.5595703125 73.98400225567093 195.5595703125 72.23302569317093 194.21484375 72.23302569317093 194.21484375 73.98400225567093 190.8896484375 73.98400225567093 190.8896484375 64.23790850567093 194.21484375 64.23790850567093 194.21484375 65.40587725567093 195.5595703125 65.40587725567093 195.5595703125 64.23790850567093 198.884765625 64.23790850567093 198.884765625 73.98400225567093 195.5595703125 73.98400225567093"/>
            <polygon class="cls-5" points="198.7216796875 73.98400225567093 198.7216796875 64.23790850567093 206.716796875 64.23790850567093 206.716796875 70.48204913067093 202.046875 70.48204913067093 202.046875 70.65880694317093 206.716796875 70.65880694317093 206.716796875 73.98400225567093 198.7216796875 73.98400225567093"/>
          </g>
        </g>
        <g>
          <path class="cls-4" d="M176.01171875,65.02501788067093h6.4208984375v1.7509765625h-2.3349609375v6.4208984375h-1.7509765625v-6.4208984375h-2.3349609375v-1.7509765625Z"/>
          <path class="cls-4" d="M190.2646484375,66.77599444317093h-2.3349609375v4.669921875h2.3349609375v1.7509765625h-6.4208984375v-1.7509765625h2.3349609375v-4.669921875h-2.3349609375v-1.7509765625h6.4208984375v1.7509765625Z"/>
          <path class="cls-4" d="M191.6767578125,65.02501788067093h1.7509765625v1.16796875h1.16796875v1.1669921875h.5830078125v-1.1669921875h1.16796875v-1.16796875h1.7509765625v8.171875h-1.7509765625v-4.669921875h-.583984375v2.9189453125h-1.7509765625v-2.9189453125h-.583984375v4.669921875h-1.7509765625v-8.171875Z"/>
          <path class="cls-4" d="M199.5087890625,65.02501788067093h6.4208984375v1.7509765625h-4.669921875v1.16796875h4.669921875v1.7509765625h-4.669921875v1.7509765625h4.669921875v1.7509765625h-6.4208984375v-8.171875Z"/>
        </g>
      </g>
      <g>
        <path class="cls-8" d="M117.783883888097989,74.940122994086778c-.828020394292253,0-1.668111056724229-.028968643535336-2.496936135561555-.085296561514042-19.990778090781532-1.359916876923307-35.148620818958079-18.730642097138116-33.787899257491517-38.721420187919648,1.292323375348133-18.994578627094597,17.204155519902997-33.873195819005559,36.223679367818477-33.873195819005559.828020394292253,0,1.668111056724229.028968643533517,2.496936135559736.085296561510404,19.99077809078517,1.359916876925126,35.148620818958079,18.730642097138116,33.787899257493336,38.721420187921467-1.292323375349952,18.994578627096416-17.204155519902997,33.873195819007378-36.223679367818477,33.873195819007378Z"/>
        <g>
          <path class="cls-5" d="M117.7841796875,81.268047071906039c-.873046875,0-1.765625-.0302734375-2.6513671875-.0908203125-10.26953125-.6982421875-19.6630859375-5.3662109375-26.44921875-13.142578125-6.7861328125-7.77734375-10.138671875-17.7158203125-9.439453125-27.986328125,1.3720703125-20.17578125,18.2744140625-35.98046875,38.478515625-35.98046875.873046875,0,1.765625.0302734375,2.6513671875.0908203125,10.26953125.6982421875,19.6630859375,5.3662109375,26.44921875,13.142578125,6.7861328125,7.77734375,10.1376953125,17.716796875,9.439453125,27.9873046875-1.3740234375,20.17578125-18.275390625,35.9794921875-38.478515625,35.9794921875Z"/>
          <path class="cls-5" d="M117.7841796875,81.042055307494593c-.873046875,0-1.765625-.0302734375-2.6513671875-.0908203125-10.26953125-.6982421875-19.6630859375-5.3662109375-26.44921875-13.142578125-6.7861328125-7.77734375-10.138671875-17.7158203125-9.439453125-27.986328125,1.3720703125-20.17578125,18.2744140625-35.98046875,38.478515625-35.98046875.873046875,0,1.765625.0302734375,2.6513671875.0908203125,10.26953125.6982421875,19.6630859375,5.3662109375,26.44921875,13.142578125,6.7861328125,7.77734375,10.1376953125,17.716796875,9.439453125,27.9873046875-1.3740234375,20.17578125-18.275390625,35.9794921875-38.478515625,35.9794921875Z"/>
          <path class="cls-5" d="M117.7841796875,80.816063543083146c-.873046875,0-1.765625-.0302734375-2.6513671875-.0908203125-10.26953125-.6982421875-19.6630859375-5.3662109375-26.44921875-13.142578125-6.7861328125-7.77734375-10.138671875-17.7158203125-9.439453125-27.986328125,1.3720703125-20.17578125,18.2744140625-35.98046875,38.478515625-35.98046875.873046875,0,1.765625.0302734375,2.6513671875.0908203125,10.26953125.6982421875,19.6630859375,5.3662109375,26.44921875,13.142578125,6.7861328125,7.77734375,10.1376953125,17.716796875,9.439453125,27.9873046875-1.3740234375,20.17578125-18.275390625,35.9794921875-38.478515625,35.9794921875Z"/>
          <path class="cls-5" d="M117.7841796875,80.5900717786717c-.873046875,0-1.765625-.0302734375-2.6513671875-.0908203125-10.26953125-.6982421875-19.6630859375-5.3662109375-26.44921875-13.142578125-6.7861328125-7.77734375-10.138671875-17.7158203125-9.439453125-27.986328125,1.3720703125-20.17578125,18.2744140625-35.98046875,38.478515625-35.98046875.873046875,0,1.765625.0302734375,2.6513671875.0908203125,10.26953125.6982421875,19.6630859375,5.3662109375,26.44921875,13.142578125,6.7861328125,7.77734375,10.1376953125,17.716796875,9.439453125,27.9873046875-1.3740234375,20.17578125-18.275390625,35.9794921875-38.478515625,35.9794921875Z"/>
          <path class="cls-5" d="M117.7841796875,80.364080014260253c-.873046875,0-1.765625-.0302734375-2.6513671875-.0908203125-10.26953125-.6982421875-19.6630859375-5.3662109375-26.44921875-13.142578125-6.7861328125-7.77734375-10.138671875-17.7158203125-9.439453125-27.986328125,1.3720703125-20.17578125,18.2744140625-35.98046875,38.478515625-35.98046875.873046875,0,1.765625.0302734375,2.6513671875.0908203125,10.26953125.6982421875,19.6630859375,5.3662109375,26.44921875,13.142578125,6.7861328125,7.77734375,10.1376953125,17.716796875,9.439453125,27.9873046875-1.3740234375,20.17578125-18.275390625,35.9794921875-38.478515625,35.9794921875Z"/>
          <path class="cls-5" d="M117.7841796875,80.138088249848806c-.873046875,0-1.765625-.0302734375-2.6513671875-.0908203125-10.26953125-.6982421875-19.6630859375-5.3662109375-26.44921875-13.142578125-6.7861328125-7.77734375-10.138671875-17.7158203125-9.439453125-27.986328125,1.3720703125-20.17578125,18.2744140625-35.98046875,38.478515625-35.98046875.873046875,0,1.765625.0302734375,2.6513671875.0908203125,10.26953125.6982421875,19.6630859375,5.3662109375,26.44921875,13.142578125,6.7861328125,7.77734375,10.1376953125,17.716796875,9.439453125,27.9873046875-1.3740234375,20.17578125-18.275390625,35.9794921875-38.478515625,35.9794921875Z"/>
          <path class="cls-5" d="M117.7841796875,79.91209648543736c-.873046875,0-1.765625-.0302734375-2.6513671875-.0908203125-10.26953125-.6982421875-19.6630859375-5.3662109375-26.44921875-13.142578125-6.7861328125-7.77734375-10.138671875-17.7158203125-9.439453125-27.986328125,1.3720703125-20.17578125,18.2744140625-35.98046875,38.478515625-35.98046875.873046875,0,1.765625.0302734375,2.6513671875.0908203125,10.26953125.6982421875,19.6630859375,5.3662109375,26.44921875,13.142578125,6.7861328125,7.77734375,10.1376953125,17.716796875,9.439453125,27.9873046875-1.3740234375,20.17578125-18.275390625,35.9794921875-38.478515625,35.9794921875Z"/>
          <path class="cls-5" d="M117.7841796875,79.686104721025913c-.873046875,0-1.765625-.0302734375-2.6513671875-.0908203125-10.26953125-.6982421875-19.6630859375-5.3662109375-26.44921875-13.142578125-6.7861328125-7.77734375-10.138671875-17.7158203125-9.439453125-27.986328125,1.3720703125-20.17578125,18.2744140625-35.98046875,38.478515625-35.98046875.873046875,0,1.765625.0302734375,2.6513671875.0908203125,10.26953125.6982421875,19.6630859375,5.3662109375,26.44921875,13.142578125,6.7861328125,7.77734375,10.1376953125,17.716796875,9.439453125,27.9873046875-1.3740234375,20.17578125-18.275390625,35.9794921875-38.478515625,35.9794921875Z"/>
          <path class="cls-5" d="M117.7841796875,79.460112956614466c-.873046875,0-1.765625-.0302734375-2.6513671875-.0908203125-10.26953125-.6982421875-19.6630859375-5.3662109375-26.44921875-13.142578125-6.7861328125-7.77734375-10.138671875-17.7158203125-9.439453125-27.986328125,1.3720703125-20.17578125,18.2744140625-35.98046875,38.478515625-35.98046875.873046875,0,1.765625.0302734375,2.6513671875.0908203125,10.26953125.6982421875,19.6630859375,5.3662109375,26.44921875,13.142578125,6.7861328125,7.77734375,10.1376953125,17.716796875,9.439453125,27.9873046875-1.3740234375,20.17578125-18.275390625,35.9794921875-38.478515625,35.9794921875Z"/>
          <path class="cls-5" d="M117.7841796875,79.23412119220302c-.873046875,0-1.765625-.0302734375-2.6513671875-.0908203125-10.26953125-.6982421875-19.6630859375-5.3662109375-26.44921875-13.142578125-6.7861328125-7.77734375-10.138671875-17.7158203125-9.439453125-27.986328125,1.3720703125-20.17578125,18.2744140625-35.98046875,38.478515625-35.98046875.873046875,0,1.765625.0302734375,2.6513671875.0908203125,10.26953125.6982421875,19.6630859375,5.3662109375,26.44921875,13.142578125,6.7861328125,7.77734375,10.1376953125,17.716796875,9.439453125,27.9873046875-1.3740234375,20.17578125-18.275390625,35.9794921875-38.478515625,35.9794921875Z"/>
          <path class="cls-5" d="M117.7841796875,79.008129427791573c-.873046875,0-1.765625-.0302734375-2.6513671875-.0908203125-10.26953125-.6982421875-19.6630859375-5.3662109375-26.44921875-13.142578125-6.7861328125-7.77734375-10.138671875-17.7158203125-9.439453125-27.986328125C80.6162109375,17.612621615291573,97.5185546875,1.807934115291573,117.72265625,1.807934115291573c.873046875,0,1.765625.0302734375,2.6513671875.0908203125,10.26953125.6982421875,19.6630859375,5.3662109375,26.44921875,13.142578125,6.7861328125,7.77734375,10.1376953125,17.716796875,9.439453125,27.9873046875-1.3740234375,20.17578125-18.275390625,35.9794921875-38.478515625,35.9794921875Z"/>
          <path class="cls-5" d="M117.7841796875,78.782137663380126c-.873046875,0-1.765625-.0302734375-2.6513671875-.0908203125-10.26953125-.6982421875-19.6630859375-5.3662109375-26.44921875-13.142578125-6.7861328125-7.77734375-10.138671875-17.7158203125-9.439453125-27.986328125C80.6162109375,17.386629850880126,97.5185546875,1.581942350880126,117.72265625,1.581942350880126c.873046875,0,1.765625.0302734375,2.6513671875.0908203125,10.26953125.6982421875,19.6630859375,5.3662109375,26.44921875,13.142578125,6.7861328125,7.77734375,10.1376953125,17.716796875,9.439453125,27.9873046875-1.3740234375,20.17578125-18.275390625,35.9794921875-38.478515625,35.9794921875Z"/>
          <path class="cls-5" d="M117.7841796875,78.55614589896868c-.873046875,0-1.765625-.0302734375-2.6513671875-.0908203125-10.26953125-.6982421875-19.6630859375-5.3662109375-26.44921875-13.142578125-6.7861328125-7.77734375-10.138671875-17.7158203125-9.439453125-27.986328125C80.6162109375,17.16063808646868,97.5185546875,1.35595058646868,117.72265625,1.35595058646868c.873046875,0,1.765625.0302734375,2.6513671875.0908203125,10.26953125.6982421875,19.6630859375,5.3662109375,26.44921875,13.142578125,6.7861328125,7.77734375,10.1376953125,17.716796875,9.439453125,27.9873046875-1.3740234375,20.17578125-18.275390625,35.9794921875-38.478515625,35.9794921875Z"/>
          <path class="cls-5" d="M117.7841796875,78.330154134557233c-.873046875,0-1.765625-.0302734375-2.6513671875-.0908203125-10.26953125-.6982421875-19.6630859375-5.3662109375-26.44921875-13.142578125-6.7861328125-7.77734375-10.138671875-17.7158203125-9.439453125-27.986328125C80.6162109375,16.934646322057233,97.5185546875,1.129958822057233,117.72265625,1.129958822057233c.873046875,0,1.765625.0302734375,2.6513671875.0908203125,10.26953125.6982421875,19.6630859375,5.3662109375,26.44921875,13.142578125,6.7861328125,7.77734375,10.1376953125,17.716796875,9.439453125,27.9873046875-1.3740234375,20.17578125-18.275390625,35.9794921875-38.478515625,35.9794921875Z"/>
          <path class="cls-5" d="M117.7841796875,78.104162370145787c-.873046875,0-1.765625-.0302734375-2.6513671875-.0908203125-10.26953125-.6982421875-19.6630859375-5.3662109375-26.44921875-13.142578125-6.7861328125-7.77734375-10.138671875-17.7158203125-9.439453125-27.986328125C80.6162109375,16.708654557645787,97.5185546875.903967057645787,117.72265625.903967057645787c.873046875,0,1.765625.0302734375,2.6513671875.0908203125,10.26953125.6982421875,19.6630859375,5.3662109375,26.44921875,13.142578125,6.7861328125,7.77734375,10.1376953125,17.716796875,9.439453125,27.9873046875-1.3740234375,20.17578125-18.275390625,35.9794921875-38.478515625,35.9794921875Z"/>
          <path class="cls-5" d="M117.7841796875,77.87817060573434c-.873046875,0-1.765625-.0302734375-2.6513671875-.0908203125-10.26953125-.6982421875-19.6630859375-5.3662109375-26.44921875-13.142578125-6.7861328125-7.77734375-10.138671875-17.7158203125-9.439453125-27.986328125C80.6162109375,16.48266279323434,97.5185546875.67797529323434,117.72265625.67797529323434c.873046875,0,1.765625.0302734375,2.6513671875.0908203125,10.26953125.6982421875,19.6630859375,5.3662109375,26.44921875,13.142578125,6.7861328125,7.77734375,10.1376953125,17.716796875,9.439453125,27.9873046875-1.3740234375,20.17578125-18.275390625,35.9794921875-38.478515625,35.9794921875Z"/>
          <path class="cls-5" d="M117.7841796875,77.652178841322893c-.873046875,0-1.765625-.0302734375-2.6513671875-.0908203125-10.26953125-.6982421875-19.6630859375-5.3662109375-26.44921875-13.142578125-6.7861328125-7.77734375-10.138671875-17.7158203125-9.439453125-27.986328125C80.6162109375,16.256671028822893,97.5185546875.451983528822893,117.72265625.451983528822893c.873046875,0,1.765625.0302734375,2.6513671875.0908203125,10.26953125.6982421875,19.6630859375,5.3662109375,26.44921875,13.142578125,6.7861328125,7.77734375,10.1376953125,17.716796875,9.439453125,27.9873046875-1.3740234375,20.17578125-18.275390625,35.9794921875-38.478515625,35.9794921875Z"/>
          <path class="cls-5" d="M117.7841796875,77.426187076911447c-.873046875,0-1.765625-.0302734375-2.6513671875-.0908203125-10.26953125-.6982421875-19.6630859375-5.3662109375-26.44921875-13.142578125-6.7861328125-7.77734375-10.138671875-17.7158203125-9.439453125-27.986328125C80.6162109375,16.030679264411447,97.5185546875.225991764411447,117.72265625.225991764411447c.873046875,0,1.765625.0302734375,2.6513671875.0908203125,10.26953125.6982421875,19.6630859375,5.3662109375,26.44921875,13.142578125,6.7861328125,7.77734375,10.1376953125,17.716796875,9.439453125,27.9873046875-1.3740234375,20.17578125-18.275390625,35.9794921875-38.478515625,35.9794921875Z"/>
          <path class="cls-5" d="M117.7841796875,77.2001953125c-.873046875,0-1.765625-.0302734375-2.6513671875-.0908203125-10.26953125-.6982421875-19.6630859375-5.3662109375-26.44921875-13.142578125-6.7861328125-7.77734375-10.138671875-17.7158203125-9.439453125-27.986328125C80.6162109375,15.8046875,97.5185546875,0,117.72265625,0c.873046875,0,1.765625.0302734375,2.6513671875.0908203125,10.26953125.6982421875,19.6630859375,5.3662109375,26.44921875,13.142578125,6.7861328125,7.77734375,10.1376953125,17.716796875,9.439453125,27.9873046875-1.3740234375,20.17578125-18.275390625,35.9794921875-38.478515625,35.9794921875Z"/>
        </g>
        <path class="cls-2" d="M117.783883888097989,74.940122994086778c-.828020394292253,0-1.668111056724229-.028968643535336-2.496936135561555-.085296561514042-19.990778090781532-1.359916876923307-35.148620818958079-18.730642097138116-33.787899257491517-38.721420187919648,1.292323375348133-18.994578627094597,17.204155519902997-33.873195819005559,36.223679367818477-33.873195819005559.828020394292253,0,1.668111056724229.028968643533517,2.496936135559736.085296561510404,19.99077809078517,1.359916876925126,35.148620818958079,18.730642097138116,33.787899257493336,38.721420187921467-1.292323375349952,18.994578627096416-17.204155519902997,33.873195819007378-36.223679367818477,33.873195819007378Z"/>
      </g>
      <g>
        <path class="cls-6" d="M141.008008739518118,18.308478414202909c-5.42035507867331-6.211359984010414-12.93449933708871-9.940268154225123-21.159984731122677-10.50032859584644-16.952289258078963-1.157136372199602-31.731125566711853,11.717816308737383-32.886652569826765,28.696660156723738-1.155527003113093,16.978843847988173,11.717816308737383,31.731930251258746,28.696660156725557,32.887457254371839.709731766535697.048281072551617,1.414635425817323.07161692428781,2.116320346927751.07161692428781,16.071964368524277,0,29.663890976880793-12.499969684105963,30.771136907442269-28.769081765556621.559255757079882-8.224680709494351-2.117125031472824-16.174963989968091-7.537480110146134-22.386323973980325Z"/>
        <g class="cls-7">
          <circle class="cls-1" cx="118.286088457202823" cy="59.74309676656776" r="26.473605238610208"/>
        </g>
      </g>
    </g>
  </g>
</svg>